M48
; DRILL file {KiCad 7.0.1} date Sun Feb 11 07:34:52 2024
; FORMAT={-:-/ absolute / inch / decimal}
; #@! TF.CreationDate,2024-02-11T07:34:52+00:00
; #@! TF.GenerationSoftware,Kicad,Pcbnew,7.0.1
; #@! TF.FileFunction,Plated,1,2,PTH
FMAT,2
INCH
; #@! TA.AperFunction,Plated,PTH,ComponentDrill
T1C0.0315
; #@! TA.AperFunction,Plated,PTH,ComponentDrill
T2C0.0354
; #@! TA.AperFunction,Plated,PTH,ComponentDrill
T3C0.0394
%
G90
G05
T1
X2.05Y-5.0049
X2.05Y-5.12
X2.05Y-5.42
X2.1484Y-5.0049
X2.15Y-5.12
X2.15Y-5.42
X2.19Y-2.72
X2.19Y-2.9
X2.19Y-3.08
X2.25Y-5.12
X2.25Y-5.42
X2.35Y-5.12
X2.35Y-5.42
X2.45Y-5.12
X2.45Y-5.42
X2.49Y-2.72
X2.49Y-2.9
X2.49Y-3.08
X2.55Y-5.12
X2.55Y-5.42
X2.6398Y-2.7006
X2.6398Y-2.8006
X2.6398Y-2.9006
X2.6398Y-3.0006
X2.6398Y-3.1006
X2.6398Y-3.2006
X2.6398Y-3.3006
X2.6398Y-3.4006
X2.6398Y-3.5006
X2.6398Y-3.6006
X2.6398Y-3.7006
X2.6398Y-3.8006
X2.6398Y-3.9006
X2.6398Y-4.0006
X2.6398Y-4.1006
X2.6398Y-4.2006
X2.6398Y-4.3006
X2.6398Y-4.4006
X2.6398Y-4.5006
X2.6398Y-4.6006
X2.65Y-5.12
X2.65Y-5.42
X2.75Y-5.12
X2.75Y-5.42
X2.85Y-5.12
X2.85Y-5.42
X2.95Y-5.12
X2.95Y-5.42
X3.1357Y-5.12
X3.1357Y-5.42
X3.1365Y-5.0
X3.235Y-5.0
X3.2357Y-5.12
X3.2357Y-5.42
X3.2398Y-2.7006
X3.2398Y-2.8006
X3.2398Y-2.9006
X3.2398Y-3.0006
X3.2398Y-3.1006
X3.2398Y-3.2006
X3.2398Y-3.3006
X3.2398Y-3.4006
X3.2398Y-3.5006
X3.2398Y-3.6006
X3.2398Y-3.7006
X3.2398Y-3.8006
X3.2398Y-3.9006
X3.2398Y-4.0006
X3.2398Y-4.1006
X3.2398Y-4.2006
X3.2398Y-4.3006
X3.2398Y-4.4006
X3.2398Y-4.5006
X3.2398Y-4.6006
X3.3357Y-5.12
X3.3357Y-5.42
X3.4096Y-3.0804
X3.41Y-3.2704
X3.41Y-3.3704
X3.41Y-3.4704
X3.41Y-3.5704
X3.4357Y-5.12
X3.4357Y-5.42
X3.47Y-2.7252
X3.47Y-2.8748
X3.5357Y-5.12
X3.5357Y-5.42
X3.6308Y-2.72
X3.6308Y-2.87
X3.6357Y-5.12
X3.6357Y-5.42
X3.7096Y-3.0804
X3.71Y-3.2704
X3.71Y-3.3704
X3.71Y-3.4704
X3.71Y-3.5704
X3.7292Y-2.72
X3.7292Y-2.87
X3.7357Y-5.12
X3.7357Y-5.42
X3.8357Y-5.12
X3.8357Y-5.42
X3.9357Y-5.12
X3.9357Y-5.42
X4.0357Y-5.12
X4.0357Y-5.42
X4.07Y-2.7812
X4.07Y-2.8796
X4.2Y-2.7804
X4.2Y-3.0804
X4.3Y-2.7804
X4.3Y-3.0804
X4.4Y-2.7804
X4.4Y-3.0804
X4.5Y-2.7804
X4.5Y-3.0804
X4.6Y-2.7804
X4.6Y-3.0804
X4.7Y-2.7804
X4.7Y-3.0804
X4.74Y-4.2204
X4.74Y-4.3188
X4.7443Y-5.29
X4.7443Y-5.3884
X4.8Y-2.7804
X4.8Y-3.0804
X4.87Y-4.2204
X4.87Y-4.5204
X4.8741Y-5.29
X4.8741Y-5.59
X4.97Y-4.2204
X4.97Y-4.5204
X4.9741Y-5.29
X4.9741Y-5.59
X5.03Y-2.7804
X5.03Y-2.8788
X5.03Y-3.4212
X5.03Y-3.5196
X5.07Y-4.2204
X5.07Y-4.5204
X5.0741Y-5.29
X5.0741Y-5.59
X5.17Y-2.7804
X5.17Y-3.0804
X5.17Y-3.42
X5.17Y-3.72
X5.17Y-4.2204
X5.17Y-4.5204
X5.1741Y-5.29
X5.1741Y-5.59
X5.27Y-2.7804
X5.27Y-3.0804
X5.27Y-3.42
X5.27Y-3.72
X5.27Y-4.2204
X5.27Y-4.5204
X5.2741Y-5.29
X5.2741Y-5.59
X5.37Y-2.7804
X5.37Y-3.0804
X5.37Y-3.42
X5.37Y-3.72
X5.37Y-4.2204
X5.37Y-4.5204
X5.3741Y-5.29
X5.3741Y-5.59
X5.47Y-2.7804
X5.47Y-3.0804
X5.47Y-3.42
X5.47Y-3.72
X5.47Y-4.2204
X5.47Y-4.5204
X5.4741Y-5.29
X5.4741Y-5.59
X5.57Y-2.7804
X5.57Y-3.0804
X5.57Y-3.42
X5.57Y-3.72
X5.57Y-4.2204
X5.57Y-4.5204
X5.5741Y-5.29
X5.5741Y-5.59
X5.67Y-2.7804
X5.67Y-3.0804
X5.67Y-3.42
X5.67Y-3.72
X5.67Y-4.2204
X5.67Y-4.5204
X5.6741Y-5.29
X5.6741Y-5.59
X5.77Y-2.7804
X5.77Y-3.0804
X5.77Y-3.42
X5.77Y-3.72
X5.77Y-4.2204
X5.77Y-4.5204
X5.7741Y-5.29
X5.7741Y-5.59
T2
X3.85Y-3.0806
X3.85Y-3.1806
T3
X2.0041Y-5.8649
X2.1041Y-5.8649
X2.2041Y-5.8649
X2.3041Y-5.8649
X2.4041Y-5.8649
X2.5041Y-5.8649
X2.6041Y-5.8649
X2.7041Y-5.8649
X2.8041Y-5.8649
X2.9041Y-5.8649
X3.0041Y-5.8649
X3.1041Y-5.8649
X3.2041Y-5.8649
X3.3041Y-5.8649
X3.4041Y-5.8649
X3.5041Y-5.8649
X3.6041Y-5.8649
X3.7041Y-5.8649
X3.8041Y-5.8649
X3.9041Y-5.8649
X4.0041Y-5.8649
X4.1041Y-5.8649
X4.2041Y-5.8649
X4.3041Y-5.8649
X4.4041Y-5.8649
X4.5041Y-5.8649
X4.6041Y-5.8649
X4.7041Y-5.8649
X4.8041Y-5.8649
X4.9041Y-5.8649
X5.0041Y-5.8649
X5.1041Y-5.8649
X5.2041Y-5.8649
X5.3041Y-5.8649
X5.4041Y-5.8649
X5.5041Y-5.8649
X5.6041Y-5.8649
X5.7041Y-5.8649
X5.8041Y-5.8649
X5.9041Y-5.8649
T0
M30
