%TF.GenerationSoftware,KiCad,Pcbnew,7.0.1*%
%TF.CreationDate,2024-02-11T07:34:48+00:00*%
%TF.ProjectId,Sys09,53797330-392e-46b6-9963-61645f706362,rev?*%
%TF.SameCoordinates,Original*%
%TF.FileFunction,Soldermask,Top*%
%TF.FilePolarity,Negative*%
%FSLAX46Y46*%
G04 Gerber Fmt 4.6, Leading zero omitted, Abs format (unit mm)*
G04 Created by KiCad (PCBNEW 7.0.1) date 2024-02-11 07:34:48*
%MOMM*%
%LPD*%
G01*
G04 APERTURE LIST*
%ADD10R,1.600000X1.600000*%
%ADD11O,1.600000X1.600000*%
%ADD12C,1.600000*%
%ADD13C,1.500000*%
%ADD14R,1.700000X1.700000*%
%ADD15O,1.700000X1.700000*%
%ADD16R,1.800000X1.800000*%
%ADD17C,1.800000*%
G04 APERTURE END LIST*
D10*
%TO.C,U3*%
X131318000Y-94488000D03*
D11*
X133858000Y-94488000D03*
X136398000Y-94488000D03*
X138938000Y-94488000D03*
X141478000Y-94488000D03*
X144018000Y-94488000D03*
X146558000Y-94488000D03*
X146558000Y-86868000D03*
X144018000Y-86868000D03*
X141478000Y-86868000D03*
X138938000Y-86868000D03*
X136398000Y-86868000D03*
X133858000Y-86868000D03*
X131318000Y-86868000D03*
%TD*%
D12*
%TO.C,C6*%
X127762000Y-86898000D03*
X127762000Y-89398000D03*
%TD*%
%TO.C,C1*%
X94722000Y-69088000D03*
X92222000Y-69088000D03*
%TD*%
D10*
%TO.C,U7*%
X79648000Y-137668000D03*
D11*
X82188000Y-137668000D03*
X84728000Y-137668000D03*
X87268000Y-137668000D03*
X89808000Y-137668000D03*
X92348000Y-137668000D03*
X94888000Y-137668000D03*
X97428000Y-137668000D03*
X99968000Y-137668000D03*
X102508000Y-137668000D03*
X102508000Y-130048000D03*
X99968000Y-130048000D03*
X97428000Y-130048000D03*
X94888000Y-130048000D03*
X92348000Y-130048000D03*
X89808000Y-130048000D03*
X87268000Y-130048000D03*
X84728000Y-130048000D03*
X82188000Y-130048000D03*
X79648000Y-130048000D03*
%TD*%
D12*
%TO.C,R1*%
X94224000Y-78242000D03*
D11*
X86604000Y-78242000D03*
%TD*%
D10*
%TO.C,U2*%
X86614000Y-83068000D03*
D11*
X86614000Y-85608000D03*
X86614000Y-88148000D03*
X86614000Y-90688000D03*
X94234000Y-90688000D03*
X94234000Y-88148000D03*
X94234000Y-85608000D03*
X94234000Y-83068000D03*
%TD*%
D13*
%TO.C,Y1*%
X88138000Y-69220000D03*
X88138000Y-73020000D03*
%TD*%
D14*
%TO.C,J1*%
X50903000Y-148968000D03*
D15*
X53443000Y-148968000D03*
X55983000Y-148968000D03*
X58523000Y-148968000D03*
X61063000Y-148968000D03*
X63603000Y-148968000D03*
X66143000Y-148968000D03*
X68683000Y-148968000D03*
X71223000Y-148968000D03*
X73763000Y-148968000D03*
X76303000Y-148968000D03*
X78843000Y-148968000D03*
X81383000Y-148968000D03*
X83923000Y-148968000D03*
X86463000Y-148968000D03*
X89003000Y-148968000D03*
X91543000Y-148968000D03*
X94083000Y-148968000D03*
X96623000Y-148968000D03*
X99163000Y-148968000D03*
X101703000Y-148968000D03*
X104243000Y-148968000D03*
X106783000Y-148968000D03*
X109323000Y-148968000D03*
X111863000Y-148968000D03*
X114403000Y-148968000D03*
X116943000Y-148968000D03*
X119483000Y-148968000D03*
X122023000Y-148968000D03*
X124563000Y-148968000D03*
X127103000Y-148968000D03*
X129643000Y-148968000D03*
X132183000Y-148968000D03*
X134723000Y-148968000D03*
X137263000Y-148968000D03*
X139803000Y-148968000D03*
X142343000Y-148968000D03*
X144883000Y-148968000D03*
X147423000Y-148968000D03*
X149963000Y-148968000D03*
%TD*%
D12*
%TO.C,R4*%
X55626000Y-78232000D03*
D11*
X63246000Y-78232000D03*
%TD*%
D12*
%TO.C,C5*%
X103378000Y-70642000D03*
X103378000Y-73142000D03*
%TD*%
D16*
%TO.C,D1*%
X97790000Y-80787000D03*
D17*
X97790000Y-78247000D03*
%TD*%
D12*
%TO.C,C8*%
X120504000Y-134366000D03*
X120504000Y-136866000D03*
%TD*%
D10*
%TO.C,U1*%
X67051000Y-68595000D03*
D11*
X67051000Y-71135000D03*
X67051000Y-73675000D03*
X67051000Y-76215000D03*
X67051000Y-78755000D03*
X67051000Y-81295000D03*
X67051000Y-83835000D03*
X67051000Y-86375000D03*
X67051000Y-88915000D03*
X67051000Y-91455000D03*
X67051000Y-93995000D03*
X67051000Y-96535000D03*
X67051000Y-99075000D03*
X67051000Y-101615000D03*
X67051000Y-104155000D03*
X67051000Y-106695000D03*
X67051000Y-109235000D03*
X67051000Y-111775000D03*
X67051000Y-114315000D03*
X67051000Y-116855000D03*
X82291000Y-116855000D03*
X82291000Y-114315000D03*
X82291000Y-111775000D03*
X82291000Y-109235000D03*
X82291000Y-106695000D03*
X82291000Y-104155000D03*
X82291000Y-101615000D03*
X82291000Y-99075000D03*
X82291000Y-96535000D03*
X82291000Y-93995000D03*
X82291000Y-91455000D03*
X82291000Y-88915000D03*
X82291000Y-86375000D03*
X82291000Y-83835000D03*
X82291000Y-81295000D03*
X82291000Y-78755000D03*
X82291000Y-76215000D03*
X82291000Y-73675000D03*
X82291000Y-71135000D03*
X82291000Y-68595000D03*
%TD*%
D12*
%TO.C,C9*%
X52070000Y-127124000D03*
X54570000Y-127124000D03*
%TD*%
D10*
%TO.C,U8*%
X52070000Y-137668000D03*
D11*
X54610000Y-137668000D03*
X57150000Y-137668000D03*
X59690000Y-137668000D03*
X62230000Y-137668000D03*
X64770000Y-137668000D03*
X67310000Y-137668000D03*
X69850000Y-137668000D03*
X72390000Y-137668000D03*
X74930000Y-137668000D03*
X74930000Y-130048000D03*
X72390000Y-130048000D03*
X69850000Y-130048000D03*
X67310000Y-130048000D03*
X64770000Y-130048000D03*
X62230000Y-130048000D03*
X59690000Y-130048000D03*
X57150000Y-130048000D03*
X54610000Y-130048000D03*
X52070000Y-130048000D03*
%TD*%
D10*
%TO.C,U5*%
X131318000Y-78242000D03*
D11*
X133858000Y-78242000D03*
X136398000Y-78242000D03*
X138938000Y-78242000D03*
X141478000Y-78242000D03*
X144018000Y-78242000D03*
X146558000Y-78242000D03*
X146558000Y-70622000D03*
X144018000Y-70622000D03*
X141478000Y-70622000D03*
X138938000Y-70622000D03*
X136398000Y-70622000D03*
X133858000Y-70622000D03*
X131318000Y-70622000D03*
%TD*%
D12*
%TO.C,C2*%
X94722000Y-72898000D03*
X92222000Y-72898000D03*
%TD*%
D10*
%TO.C,U4*%
X106680000Y-78242000D03*
D11*
X109220000Y-78242000D03*
X111760000Y-78242000D03*
X114300000Y-78242000D03*
X116840000Y-78242000D03*
X119380000Y-78242000D03*
X121920000Y-78242000D03*
X121920000Y-70622000D03*
X119380000Y-70622000D03*
X116840000Y-70622000D03*
X114300000Y-70622000D03*
X111760000Y-70622000D03*
X109220000Y-70622000D03*
X106680000Y-70622000D03*
%TD*%
D12*
%TO.C,R2*%
X55626000Y-69088000D03*
D11*
X63246000Y-69088000D03*
%TD*%
D10*
%TO.C,U6*%
X123801000Y-141986000D03*
D11*
X126341000Y-141986000D03*
X128881000Y-141986000D03*
X131421000Y-141986000D03*
X133961000Y-141986000D03*
X136501000Y-141986000D03*
X139041000Y-141986000D03*
X141581000Y-141986000D03*
X144121000Y-141986000D03*
X146661000Y-141986000D03*
X146661000Y-134366000D03*
X144121000Y-134366000D03*
X141581000Y-134366000D03*
X139041000Y-134366000D03*
X136501000Y-134366000D03*
X133961000Y-134366000D03*
X131421000Y-134366000D03*
X128881000Y-134366000D03*
X126341000Y-134366000D03*
X123801000Y-134366000D03*
%TD*%
D10*
%TO.C,U9*%
X123698000Y-114818000D03*
D11*
X126238000Y-114818000D03*
X128778000Y-114818000D03*
X131318000Y-114818000D03*
X133858000Y-114818000D03*
X136398000Y-114818000D03*
X138938000Y-114818000D03*
X141478000Y-114818000D03*
X144018000Y-114818000D03*
X146558000Y-114818000D03*
X146558000Y-107198000D03*
X144018000Y-107198000D03*
X141478000Y-107198000D03*
X138938000Y-107198000D03*
X136398000Y-107198000D03*
X133858000Y-107198000D03*
X131318000Y-107198000D03*
X128778000Y-107198000D03*
X126238000Y-107198000D03*
X123698000Y-107198000D03*
%TD*%
D12*
%TO.C,R3*%
X55626000Y-73660000D03*
D11*
X63246000Y-73660000D03*
%TD*%
D12*
%TO.C,C7*%
X79668000Y-127000000D03*
X82168000Y-127000000D03*
%TD*%
%TO.C,C3*%
X127762000Y-70622000D03*
X127762000Y-73122000D03*
%TD*%
%TO.C,C4*%
X120396000Y-107198000D03*
X120396000Y-109698000D03*
%TD*%
M02*
