M48
; DRILL file {KiCad 7.0.1} date Sun Feb 11 14:49:24 2024
; FORMAT={-:-/ absolute / inch / decimal}
; #@! TF.CreationDate,2024-02-11T14:49:24+00:00
; #@! TF.GenerationSoftware,Kicad,Pcbnew,7.0.1
; #@! TF.FileFunction,Plated,1,2,PTH
FMAT,2
INCH
; #@! TA.AperFunction,Plated,PTH,ComponentDrill
T1C0.0315
; #@! TA.AperFunction,Plated,PTH,ComponentDrill
T2C0.0394
%
G90
G05
T1
X3.4504Y-2.8806
X3.4504Y-2.9806
X3.4504Y-3.0806
X3.4504Y-3.1806
X3.4504Y-3.2806
X3.4504Y-3.3806
X3.4504Y-3.4806
X3.4504Y-3.5806
X3.7504Y-2.8806
X3.7504Y-2.9806
X3.7504Y-3.0806
X3.7504Y-3.1806
X3.7504Y-3.2806
X3.7504Y-3.3806
X3.7504Y-3.4806
X3.7504Y-3.5806
X3.9304Y-2.7806
X3.9304Y-2.8806
X3.9304Y-2.9806
X3.9304Y-3.0806
X3.9304Y-3.1806
X3.9304Y-3.2806
X3.9304Y-3.3806
X3.9304Y-3.4806
X4.2304Y-2.7806
X4.2304Y-2.8806
X4.2304Y-2.9806
X4.2304Y-3.0806
X4.2304Y-3.1806
X4.2304Y-3.2806
X4.2304Y-3.3806
X4.2304Y-3.4806
X5.9198Y-3.1602
X5.9198Y-3.7602
X6.0198Y-3.1602
X6.0198Y-3.7602
X6.1198Y-3.1602
X6.1198Y-3.7602
X6.15Y-2.6
X6.15Y-2.9
X6.2198Y-3.1602
X6.2198Y-3.7602
X6.28Y-2.6
X6.28Y-2.9
X6.3198Y-3.1602
X6.3198Y-3.7602
X6.41Y-2.6
X6.41Y-2.9
X6.4198Y-3.1602
X6.4198Y-3.7602
X6.5198Y-3.1602
X6.5198Y-3.7602
X6.6198Y-3.1602
X6.6198Y-3.7602
X6.7198Y-3.1602
X6.7198Y-3.7602
X6.8198Y-3.1602
X6.8198Y-3.7602
X6.9198Y-3.1602
X6.9198Y-3.7602
X7.0198Y-3.1602
X7.0198Y-3.7602
T2
X3.32Y-3.988
X3.42Y-3.988
X3.52Y-3.988
X3.62Y-3.988
X3.72Y-3.988
X3.82Y-3.988
X3.92Y-3.988
X4.02Y-3.988
X4.12Y-3.988
X4.22Y-3.988
X4.32Y-3.988
X4.42Y-3.988
X4.52Y-3.988
X4.62Y-3.988
X4.72Y-3.988
X4.82Y-3.988
X4.92Y-3.988
X5.02Y-3.988
X5.12Y-3.988
X5.22Y-3.988
X5.32Y-3.988
X5.42Y-3.988
X5.52Y-3.988
X5.62Y-3.988
X5.72Y-3.988
X5.8198Y-2.91
X5.82Y-3.988
X5.9198Y-2.91
X5.92Y-3.988
X6.02Y-3.988
X6.08Y-2.41
X6.12Y-3.988
X6.18Y-2.41
X6.22Y-3.988
X6.28Y-2.41
X6.32Y-3.988
X6.38Y-2.41
X6.42Y-3.988
X6.52Y-3.988
X6.62Y-3.988
X6.72Y-3.988
X6.82Y-3.988
X6.92Y-3.988
X7.02Y-3.988
X7.12Y-3.988
X7.22Y-3.988
T0
M30
