%TF.GenerationSoftware,KiCad,Pcbnew,7.0.1*%
%TF.CreationDate,2024-02-11T14:49:15+00:00*%
%TF.ProjectId,Sys09UART,53797330-3955-4415-9254-2e6b69636164,rev?*%
%TF.SameCoordinates,Original*%
%TF.FileFunction,Copper,L1,Top*%
%TF.FilePolarity,Positive*%
%FSLAX46Y46*%
G04 Gerber Fmt 4.6, Leading zero omitted, Abs format (unit mm)*
G04 Created by KiCad (PCBNEW 7.0.1) date 2024-02-11 14:49:15*
%MOMM*%
%LPD*%
G01*
G04 APERTURE LIST*
%TA.AperFunction,ComponentPad*%
%ADD10R,1.600000X1.600000*%
%TD*%
%TA.AperFunction,ComponentPad*%
%ADD11O,1.600000X1.600000*%
%TD*%
%TA.AperFunction,ComponentPad*%
%ADD12C,1.600000*%
%TD*%
%TA.AperFunction,ComponentPad*%
%ADD13R,1.700000X1.700000*%
%TD*%
%TA.AperFunction,ComponentPad*%
%ADD14O,1.700000X1.700000*%
%TD*%
%TA.AperFunction,Conductor*%
%ADD15C,0.508000*%
%TD*%
G04 APERTURE END LIST*
D10*
%TO.P,U3,1,VSS*%
%TO.N,GND*%
X150363000Y-95509000D03*
D11*
%TO.P,U3,2,Rx_Data*%
%TO.N,Net-(U3-Rx_Data)*%
X152903000Y-95509000D03*
%TO.P,U3,3,Rx_CLK*%
%TO.N,Net-(J3-Pin_1)*%
X155443000Y-95509000D03*
%TO.P,U3,4,Tx_CLK*%
X157983000Y-95509000D03*
%TO.P,U3,5,~{RTS}*%
%TO.N,Net-(U3-~{RTS})*%
X160523000Y-95509000D03*
%TO.P,U3,6,Tx_Data*%
%TO.N,Net-(U3-Tx_Data)*%
X163063000Y-95509000D03*
%TO.P,U3,7,~{IRQ}*%
%TO.N,unconnected-(U3-~{IRQ}-Pad7)*%
X165603000Y-95509000D03*
%TO.P,U3,8,CS0*%
%TO.N,+5V*%
X168143000Y-95509000D03*
%TO.P,U3,9,CS2*%
%TO.N,/UART*%
X170683000Y-95509000D03*
%TO.P,U3,10,CS1*%
%TO.N,+5V*%
X173223000Y-95509000D03*
%TO.P,U3,11,RS*%
%TO.N,/A0*%
X175763000Y-95509000D03*
%TO.P,U3,12,VCC*%
%TO.N,+5V*%
X178303000Y-95509000D03*
%TO.P,U3,13,R/~{W}*%
%TO.N,/RW*%
X178303000Y-80269000D03*
%TO.P,U3,14,E*%
%TO.N,/E*%
X175763000Y-80269000D03*
%TO.P,U3,15,D7*%
%TO.N,/DA0*%
X173223000Y-80269000D03*
%TO.P,U3,16,D6*%
%TO.N,/DA1*%
X170683000Y-80269000D03*
%TO.P,U3,17,D5*%
%TO.N,/DA2*%
X168143000Y-80269000D03*
%TO.P,U3,18,D4*%
%TO.N,/DA3*%
X165603000Y-80269000D03*
%TO.P,U3,19,D3*%
%TO.N,/DA4*%
X163063000Y-80269000D03*
%TO.P,U3,20,D2*%
%TO.N,/DA5*%
X160523000Y-80269000D03*
%TO.P,U3,21,D1*%
%TO.N,/DA6*%
X157983000Y-80269000D03*
%TO.P,U3,22,D0*%
%TO.N,/DA7*%
X155443000Y-80269000D03*
%TO.P,U3,23,~{DCD}*%
%TO.N,GND*%
X152903000Y-80269000D03*
%TO.P,U3,24,~{CTS}*%
X150363000Y-80269000D03*
%TD*%
D10*
%TO.P,U1,1,A0*%
%TO.N,/A9*%
X87640000Y-73167000D03*
D11*
%TO.P,U1,2,A1*%
%TO.N,/A10*%
X87640000Y-75707000D03*
%TO.P,U1,3,A2*%
%TO.N,/A11*%
X87640000Y-78247000D03*
%TO.P,U1,4,E1*%
%TO.N,/~{IOEN}*%
X87640000Y-80787000D03*
%TO.P,U1,5,E2*%
%TO.N,GND*%
X87640000Y-83327000D03*
%TO.P,U1,6,E3*%
%TO.N,+5V*%
X87640000Y-85867000D03*
%TO.P,U1,7,O7*%
%TO.N,unconnected-(U1-O7-Pad7)*%
X87640000Y-88407000D03*
%TO.P,U1,8,GND*%
%TO.N,GND*%
X87640000Y-90947000D03*
%TO.P,U1,9,O6*%
%TO.N,unconnected-(U1-O6-Pad9)*%
X95260000Y-90947000D03*
%TO.P,U1,10,O5*%
%TO.N,unconnected-(U1-O5-Pad10)*%
X95260000Y-88407000D03*
%TO.P,U1,11,O4*%
%TO.N,unconnected-(U1-O4-Pad11)*%
X95260000Y-85867000D03*
%TO.P,U1,12,O3*%
%TO.N,unconnected-(U1-O3-Pad12)*%
X95260000Y-83327000D03*
%TO.P,U1,13,O2*%
%TO.N,unconnected-(U1-O2-Pad13)*%
X95260000Y-80787000D03*
%TO.P,U1,14,O1*%
%TO.N,unconnected-(U1-O1-Pad14)*%
X95260000Y-78247000D03*
%TO.P,U1,15,O0*%
%TO.N,Net-(U1-O0)*%
X95260000Y-75707000D03*
%TO.P,U1,16,VCC*%
%TO.N,+5V*%
X95260000Y-73167000D03*
%TD*%
D12*
%TO.P,R1,1*%
%TO.N,Net-(J2-Pin_1)*%
X162814000Y-66040000D03*
D11*
%TO.P,R1,2*%
%TO.N,Net-(U3-Tx_Data)*%
X162814000Y-73660000D03*
%TD*%
D12*
%TO.P,R3,1*%
%TO.N,Net-(J2-Pin_3)*%
X159512000Y-66040000D03*
D11*
%TO.P,R3,2*%
%TO.N,Net-(U3-~{RTS})*%
X159512000Y-73660000D03*
%TD*%
D13*
%TO.P,J1,1,Pin_1*%
%TO.N,/A15*%
X84328000Y-101294000D03*
D14*
%TO.P,J1,2,Pin_2*%
%TO.N,/A14*%
X86868000Y-101294000D03*
%TO.P,J1,3,Pin_3*%
%TO.N,/A13*%
X89408000Y-101294000D03*
%TO.P,J1,4,Pin_4*%
%TO.N,/A12*%
X91948000Y-101294000D03*
%TO.P,J1,5,Pin_5*%
%TO.N,/A11*%
X94488000Y-101294000D03*
%TO.P,J1,6,Pin_6*%
%TO.N,/A10*%
X97028000Y-101294000D03*
%TO.P,J1,7,Pin_7*%
%TO.N,/A9*%
X99568000Y-101294000D03*
%TO.P,J1,8,Pin_8*%
%TO.N,/A8*%
X102108000Y-101294000D03*
%TO.P,J1,9,Pin_9*%
%TO.N,/A7*%
X104648000Y-101294000D03*
%TO.P,J1,10,Pin_10*%
%TO.N,/A6*%
X107188000Y-101294000D03*
%TO.P,J1,11,Pin_11*%
%TO.N,/A5*%
X109728000Y-101294000D03*
%TO.P,J1,12,Pin_12*%
%TO.N,/A4*%
X112268000Y-101294000D03*
%TO.P,J1,13,Pin_13*%
%TO.N,/A3*%
X114808000Y-101294000D03*
%TO.P,J1,14,Pin_14*%
%TO.N,/A2*%
X117348000Y-101294000D03*
%TO.P,J1,15,Pin_15*%
%TO.N,/A1*%
X119888000Y-101294000D03*
%TO.P,J1,16,Pin_16*%
%TO.N,/A0*%
X122428000Y-101294000D03*
%TO.P,J1,17,Pin_17*%
%TO.N,unconnected-(J1-Pin_17-Pad17)*%
X124968000Y-101294000D03*
%TO.P,J1,18,Pin_18*%
%TO.N,unconnected-(J1-Pin_18-Pad18)*%
X127508000Y-101294000D03*
%TO.P,J1,19,Pin_19*%
%TO.N,/~{IRQ}*%
X130048000Y-101294000D03*
%TO.P,J1,20,Pin_20*%
%TO.N,/~{WMEM}*%
X132588000Y-101294000D03*
%TO.P,J1,21,Pin_21*%
%TO.N,/~{ROMEN}*%
X135128000Y-101294000D03*
%TO.P,J1,22,Pin_22*%
%TO.N,/~{RMEM}*%
X137668000Y-101294000D03*
%TO.P,J1,23,Pin_23*%
%TO.N,/~{IOEN}*%
X140208000Y-101294000D03*
%TO.P,J1,24,Pin_24*%
%TO.N,/RW*%
X142748000Y-101294000D03*
%TO.P,J1,25,Pin_25*%
%TO.N,/E*%
X145288000Y-101294000D03*
%TO.P,J1,26,Pin_26*%
%TO.N,/~{RST}*%
X147828000Y-101294000D03*
%TO.P,J1,27,Pin_27*%
%TO.N,unconnected-(J1-Pin_27-Pad27)*%
X150368000Y-101294000D03*
%TO.P,J1,28,Pin_28*%
%TO.N,unconnected-(J1-Pin_28-Pad28)*%
X152908000Y-101294000D03*
%TO.P,J1,29,Pin_29*%
%TO.N,/DA7*%
X155448000Y-101294000D03*
%TO.P,J1,30,Pin_30*%
%TO.N,/DA6*%
X157988000Y-101294000D03*
%TO.P,J1,31,Pin_31*%
%TO.N,/DA5*%
X160528000Y-101294000D03*
%TO.P,J1,32,Pin_32*%
%TO.N,/DA4*%
X163068000Y-101294000D03*
%TO.P,J1,33,Pin_33*%
%TO.N,/DA3*%
X165608000Y-101294000D03*
%TO.P,J1,34,Pin_34*%
%TO.N,/DA2*%
X168148000Y-101294000D03*
%TO.P,J1,35,Pin_35*%
%TO.N,/DA1*%
X170688000Y-101294000D03*
%TO.P,J1,36,Pin_36*%
%TO.N,/DA0*%
X173228000Y-101294000D03*
%TO.P,J1,37,Pin_37*%
%TO.N,unconnected-(J1-Pin_37-Pad37)*%
X175768000Y-101294000D03*
%TO.P,J1,38,Pin_38*%
%TO.N,unconnected-(J1-Pin_38-Pad38)*%
X178308000Y-101294000D03*
%TO.P,J1,39,Pin_39*%
%TO.N,GND*%
X180848000Y-101294000D03*
%TO.P,J1,40,Pin_40*%
%TO.N,+5V*%
X183388000Y-101294000D03*
%TD*%
D13*
%TO.P,J2,1,Pin_1*%
%TO.N,Net-(J2-Pin_1)*%
X162052000Y-61214000D03*
D14*
%TO.P,J2,2,Pin_2*%
%TO.N,Net-(J2-Pin_2)*%
X159512000Y-61214000D03*
%TO.P,J2,3,Pin_3*%
%TO.N,Net-(J2-Pin_3)*%
X156972000Y-61214000D03*
%TO.P,J2,4,Pin_4*%
%TO.N,unconnected-(J2-Pin_4-Pad4)*%
X154432000Y-61214000D03*
%TD*%
D13*
%TO.P,J3,1,Pin_1*%
%TO.N,Net-(J3-Pin_1)*%
X147823000Y-73914000D03*
D14*
%TO.P,J3,2,Pin_2*%
%TO.N,GND*%
X150363000Y-73914000D03*
%TD*%
D10*
%TO.P,U4,1,A0*%
%TO.N,/A5*%
X99832000Y-70627000D03*
D11*
%TO.P,U4,2,A1*%
%TO.N,/A6*%
X99832000Y-73167000D03*
%TO.P,U4,3,A2*%
%TO.N,/A7*%
X99832000Y-75707000D03*
%TO.P,U4,4,E1*%
%TO.N,/A8*%
X99832000Y-78247000D03*
%TO.P,U4,5,E2*%
%TO.N,Net-(U1-O0)*%
X99832000Y-80787000D03*
%TO.P,U4,6,E3*%
%TO.N,+5V*%
X99832000Y-83327000D03*
%TO.P,U4,7,O7*%
%TO.N,unconnected-(U4-O7-Pad7)*%
X99832000Y-85867000D03*
%TO.P,U4,8,GND*%
%TO.N,GND*%
X99832000Y-88407000D03*
%TO.P,U4,9,O6*%
%TO.N,unconnected-(U4-O6-Pad9)*%
X107452000Y-88407000D03*
%TO.P,U4,10,O5*%
%TO.N,unconnected-(U4-O5-Pad10)*%
X107452000Y-85867000D03*
%TO.P,U4,11,O4*%
%TO.N,unconnected-(U4-O4-Pad11)*%
X107452000Y-83327000D03*
%TO.P,U4,12,O3*%
%TO.N,unconnected-(U4-O3-Pad12)*%
X107452000Y-80787000D03*
%TO.P,U4,13,O2*%
%TO.N,unconnected-(U4-O2-Pad13)*%
X107452000Y-78247000D03*
%TO.P,U4,14,O1*%
%TO.N,unconnected-(U4-O1-Pad14)*%
X107452000Y-75707000D03*
%TO.P,U4,15,O0*%
%TO.N,/UART*%
X107452000Y-73167000D03*
%TO.P,U4,16,VCC*%
%TO.N,+5V*%
X107452000Y-70627000D03*
%TD*%
D12*
%TO.P,R2,1*%
%TO.N,Net-(J2-Pin_2)*%
X156210000Y-66040000D03*
D11*
%TO.P,R2,2*%
%TO.N,Net-(U3-Rx_Data)*%
X156210000Y-73660000D03*
%TD*%
D15*
%TO.N,/A11*%
X87640000Y-78247000D02*
X89154000Y-79761000D01*
X89154000Y-96000000D02*
X94448000Y-101294000D01*
X89154000Y-79761000D02*
X89154000Y-96000000D01*
%TO.N,/A10*%
X90170000Y-94488000D02*
X90170000Y-78237000D01*
X96988000Y-101294000D02*
X90182000Y-94488000D01*
X90182000Y-94488000D02*
X90170000Y-94488000D01*
X90170000Y-78237000D02*
X87640000Y-75707000D01*
%TO.N,/A9*%
X91198000Y-92964000D02*
X91186000Y-92964000D01*
X91186000Y-92964000D02*
X91186000Y-76713000D01*
X91186000Y-76713000D02*
X87640000Y-73167000D01*
X99528000Y-101294000D02*
X91198000Y-92964000D01*
%TO.N,/A8*%
X101600000Y-100826000D02*
X102068000Y-101294000D01*
X99832000Y-78247000D02*
X101600000Y-80015000D01*
X101600000Y-80015000D02*
X101600000Y-100826000D01*
%TO.N,/A7*%
X99832000Y-75707000D02*
X102616000Y-78491000D01*
X102616000Y-99302000D02*
X104608000Y-101294000D01*
X102616000Y-78491000D02*
X102616000Y-99302000D01*
%TO.N,/A6*%
X107148000Y-101294000D02*
X103578000Y-97724000D01*
X103578000Y-76913000D02*
X99832000Y-73167000D01*
X103578000Y-97724000D02*
X103578000Y-76913000D01*
%TO.N,/A5*%
X104394000Y-75189000D02*
X104394000Y-96000000D01*
X104394000Y-96000000D02*
X109688000Y-101294000D01*
X99832000Y-70627000D02*
X104394000Y-75189000D01*
%TO.N,/A0*%
X181864000Y-79502000D02*
X181864000Y-89408000D01*
X146720000Y-76962000D02*
X179324000Y-76962000D01*
X181864000Y-89408000D02*
X175763000Y-95509000D01*
X122388000Y-101294000D02*
X146720000Y-76962000D01*
X179324000Y-76962000D02*
X181864000Y-79502000D01*
%TO.N,/E*%
X145248000Y-98116000D02*
X155026000Y-88338000D01*
X180086000Y-81280000D02*
X180086000Y-79502000D01*
X155026000Y-88338000D02*
X173028000Y-88338000D01*
X177546000Y-78486000D02*
X175763000Y-80269000D01*
X179070000Y-78486000D02*
X177546000Y-78486000D01*
X180086000Y-79502000D02*
X179070000Y-78486000D01*
X145248000Y-101294000D02*
X145248000Y-98116000D01*
X173028000Y-88338000D02*
X180086000Y-81280000D01*
%TO.N,/RW*%
X178303000Y-80269000D02*
X171450000Y-87122000D01*
X154686000Y-87122000D02*
X142708000Y-99100000D01*
X142708000Y-99100000D02*
X142708000Y-101294000D01*
X171450000Y-87122000D02*
X154686000Y-87122000D01*
%TO.N,+5V*%
X97790000Y-68326000D02*
X95260000Y-70856000D01*
X176022000Y-97790000D02*
X178303000Y-95509000D01*
X107452000Y-70627000D02*
X105151000Y-68326000D01*
X178303000Y-95509000D02*
X183348000Y-100554000D01*
X168143000Y-95509000D02*
X170424000Y-97790000D01*
X170942000Y-97790000D02*
X176022000Y-97790000D01*
X105151000Y-68326000D02*
X97790000Y-68326000D01*
X97536000Y-81031000D02*
X99832000Y-83327000D01*
X170424000Y-97790000D02*
X170942000Y-97790000D01*
X95260000Y-73167000D02*
X97536000Y-75443000D01*
X173223000Y-95509000D02*
X170942000Y-97790000D01*
X183348000Y-78954000D02*
X175021000Y-70627000D01*
X175021000Y-70627000D02*
X107452000Y-70627000D01*
X95260000Y-70856000D02*
X95260000Y-73167000D01*
X183348000Y-100554000D02*
X183348000Y-101294000D01*
X183348000Y-101294000D02*
X183348000Y-78954000D01*
X97536000Y-75443000D02*
X97536000Y-81031000D01*
%TO.N,Net-(J2-Pin_1)*%
X162052000Y-61214000D02*
X162052000Y-65278000D01*
X162052000Y-65278000D02*
X162814000Y-66040000D01*
%TO.N,Net-(J2-Pin_2)*%
X156210000Y-66040000D02*
X156210000Y-64516000D01*
X156210000Y-64516000D02*
X159512000Y-61214000D01*
%TO.N,Net-(J3-Pin_1)*%
X155443000Y-95509000D02*
X157983000Y-95509000D01*
%TD*%
%TA.AperFunction,Conductor*%
%TO.N,GND*%
G36*
X184849000Y-57928881D02*
G01*
X184895119Y-57975000D01*
X184912000Y-58038000D01*
X184912000Y-102744000D01*
X184895119Y-102807000D01*
X184849000Y-102853119D01*
X184786000Y-102870000D01*
X181174717Y-102870000D01*
X181114748Y-102854814D01*
X181069234Y-102812916D01*
X181049147Y-102754405D01*
X181059329Y-102693387D01*
X181097326Y-102644568D01*
X181153978Y-102619719D01*
X181182508Y-102614957D01*
X181395368Y-102541883D01*
X181593302Y-102434766D01*
X181770903Y-102296533D01*
X181923321Y-102130962D01*
X182046419Y-101942548D01*
X182136820Y-101736455D01*
X182156473Y-101658847D01*
X182187971Y-101602261D01*
X182243414Y-101568795D01*
X182308158Y-101567289D01*
X182365098Y-101598141D01*
X182399192Y-101653201D01*
X182400905Y-101658847D01*
X182412768Y-101697954D01*
X182467839Y-101800984D01*
X182510314Y-101880449D01*
X182641589Y-102040410D01*
X182791877Y-102163747D01*
X182801550Y-102171685D01*
X182984046Y-102269232D01*
X183182066Y-102329300D01*
X183388000Y-102349583D01*
X183593934Y-102329300D01*
X183791954Y-102269232D01*
X183974450Y-102171685D01*
X184134410Y-102040410D01*
X184265685Y-101880450D01*
X184363232Y-101697954D01*
X184423300Y-101499934D01*
X184443583Y-101294000D01*
X184423300Y-101088066D01*
X184363232Y-100890046D01*
X184265685Y-100707550D01*
X184181055Y-100604427D01*
X184134410Y-100547589D01*
X183974449Y-100416314D01*
X183869104Y-100360006D01*
X183820426Y-100313661D01*
X183802500Y-100248884D01*
X183802500Y-78986607D01*
X183803292Y-78972500D01*
X183804939Y-78957883D01*
X183807313Y-78936814D01*
X183796597Y-78880179D01*
X183795807Y-78875534D01*
X183787214Y-78818521D01*
X183787211Y-78818516D01*
X183786290Y-78812401D01*
X183784729Y-78807656D01*
X183754897Y-78751213D01*
X183752798Y-78747057D01*
X183727767Y-78695079D01*
X183727765Y-78695077D01*
X183725085Y-78689511D01*
X183722188Y-78685428D01*
X183716020Y-78679260D01*
X183677050Y-78640290D01*
X183673808Y-78636925D01*
X183668983Y-78631725D01*
X183634577Y-78594644D01*
X183634574Y-78594642D01*
X183630379Y-78590121D01*
X183615338Y-78578578D01*
X175365434Y-70328673D01*
X175356018Y-70318137D01*
X175355893Y-70317980D01*
X175333631Y-70290064D01*
X175313179Y-70276120D01*
X175285983Y-70257577D01*
X175282143Y-70254852D01*
X175230812Y-70216969D01*
X175226317Y-70214700D01*
X175165341Y-70195892D01*
X175160863Y-70194419D01*
X175100639Y-70173345D01*
X175095663Y-70172500D01*
X175089505Y-70172500D01*
X175031868Y-70172500D01*
X175027157Y-70172412D01*
X174963371Y-70170025D01*
X174944574Y-70172500D01*
X108419041Y-70172500D01*
X108354264Y-70154574D01*
X108307919Y-70105896D01*
X108287910Y-70068461D01*
X108162883Y-69916116D01*
X108010537Y-69791089D01*
X107836725Y-69698185D01*
X107648132Y-69640975D01*
X107452000Y-69621658D01*
X107255866Y-69640975D01*
X107215245Y-69653297D01*
X107148055Y-69654946D01*
X107089577Y-69621817D01*
X105495434Y-68027673D01*
X105486018Y-68017137D01*
X105463631Y-67989064D01*
X105443179Y-67975120D01*
X105415983Y-67956577D01*
X105412143Y-67953852D01*
X105360812Y-67915969D01*
X105356317Y-67913700D01*
X105295341Y-67894892D01*
X105290863Y-67893419D01*
X105287262Y-67892159D01*
X105267301Y-67885174D01*
X105230639Y-67872345D01*
X105225663Y-67871500D01*
X105219505Y-67871500D01*
X105161868Y-67871500D01*
X105157157Y-67871412D01*
X105093371Y-67869025D01*
X105074574Y-67871500D01*
X97822607Y-67871500D01*
X97808499Y-67870708D01*
X97793563Y-67869025D01*
X97772814Y-67866687D01*
X97772813Y-67866687D01*
X97716144Y-67877408D01*
X97711503Y-67878196D01*
X97648423Y-67887704D01*
X97643647Y-67889276D01*
X97587210Y-67919103D01*
X97583007Y-67921224D01*
X97525530Y-67948904D01*
X97521415Y-67951823D01*
X97476301Y-67996937D01*
X97472911Y-68000202D01*
X97426123Y-68043616D01*
X97414581Y-68058657D01*
X94961676Y-70511561D01*
X94951143Y-70520975D01*
X94923063Y-70543368D01*
X94890584Y-70591006D01*
X94887861Y-70594843D01*
X94849975Y-70646180D01*
X94847697Y-70650691D01*
X94828889Y-70711667D01*
X94827416Y-70716142D01*
X94806346Y-70776355D01*
X94805500Y-70781339D01*
X94805500Y-70845132D01*
X94805412Y-70849843D01*
X94803025Y-70913628D01*
X94805500Y-70932426D01*
X94805500Y-72199959D01*
X94787574Y-72264736D01*
X94738896Y-72311081D01*
X94701461Y-72331089D01*
X94549116Y-72456116D01*
X94424089Y-72608462D01*
X94331185Y-72782274D01*
X94273975Y-72970867D01*
X94254658Y-73166999D01*
X94273975Y-73363132D01*
X94331185Y-73551725D01*
X94424089Y-73725537D01*
X94549116Y-73877883D01*
X94681767Y-73986747D01*
X94701462Y-74002910D01*
X94875273Y-74095814D01*
X94927154Y-74111552D01*
X95063867Y-74153024D01*
X95260000Y-74172341D01*
X95456132Y-74153024D01*
X95496751Y-74140701D01*
X95563940Y-74139052D01*
X95622421Y-74172181D01*
X97044595Y-75594355D01*
X97071909Y-75635232D01*
X97081500Y-75683450D01*
X97081500Y-80998391D01*
X97080708Y-81012498D01*
X97076686Y-81048187D01*
X97087400Y-81104809D01*
X97088189Y-81109451D01*
X97097704Y-81172576D01*
X97099276Y-81177352D01*
X97102158Y-81182806D01*
X97102159Y-81182807D01*
X97129105Y-81233792D01*
X97131216Y-81237975D01*
X97158909Y-81295480D01*
X97161815Y-81299575D01*
X97166179Y-81303939D01*
X97166180Y-81303940D01*
X97206948Y-81344708D01*
X97210191Y-81348074D01*
X97249423Y-81390356D01*
X97249425Y-81390357D01*
X97253624Y-81394882D01*
X97268661Y-81406421D01*
X98826817Y-82964577D01*
X98859946Y-83023055D01*
X98858297Y-83090245D01*
X98845975Y-83130866D01*
X98826658Y-83326999D01*
X98845975Y-83523132D01*
X98903185Y-83711725D01*
X98996089Y-83885537D01*
X99121116Y-84037883D01*
X99273462Y-84162910D01*
X99447273Y-84255814D01*
X99541570Y-84284419D01*
X99635867Y-84313024D01*
X99832000Y-84332341D01*
X100028132Y-84313024D01*
X100216727Y-84255814D01*
X100390538Y-84162910D01*
X100542883Y-84037883D01*
X100667910Y-83885538D01*
X100760814Y-83711727D01*
X100818024Y-83523132D01*
X100837341Y-83327000D01*
X100818529Y-83136000D01*
X100818024Y-83130867D01*
X100760814Y-82942274D01*
X100760814Y-82942273D01*
X100667910Y-82768462D01*
X100542883Y-82616116D01*
X100390537Y-82491089D01*
X100216725Y-82398185D01*
X100028132Y-82340975D01*
X99832000Y-82321658D01*
X99635866Y-82340975D01*
X99595245Y-82353297D01*
X99528055Y-82354946D01*
X99469577Y-82321817D01*
X98027405Y-80879644D01*
X98000091Y-80838767D01*
X97990500Y-80790549D01*
X97990500Y-80787000D01*
X98826658Y-80787000D01*
X98845975Y-80983132D01*
X98903185Y-81171725D01*
X98996089Y-81345537D01*
X99121116Y-81497883D01*
X99236566Y-81592630D01*
X99273462Y-81622910D01*
X99447273Y-81715814D01*
X99541570Y-81744418D01*
X99635867Y-81773024D01*
X99832000Y-81792341D01*
X100028132Y-81773024D01*
X100216727Y-81715814D01*
X100390538Y-81622910D01*
X100542883Y-81497883D01*
X100667910Y-81345538D01*
X100760814Y-81171727D01*
X100818024Y-80983132D01*
X100837341Y-80787000D01*
X100818024Y-80590868D01*
X100814126Y-80578019D01*
X100779882Y-80465132D01*
X100760814Y-80402273D01*
X100667910Y-80228462D01*
X100602500Y-80148760D01*
X100542883Y-80076116D01*
X100390537Y-79951089D01*
X100216725Y-79858185D01*
X100028132Y-79800975D01*
X99832000Y-79781658D01*
X99635867Y-79800975D01*
X99447274Y-79858185D01*
X99273462Y-79951089D01*
X99121116Y-80076116D01*
X98996089Y-80228462D01*
X98903185Y-80402274D01*
X98845975Y-80590867D01*
X98826658Y-80787000D01*
X97990500Y-80787000D01*
X97990500Y-75475608D01*
X97991292Y-75461501D01*
X97995313Y-75425814D01*
X97984588Y-75369136D01*
X97983805Y-75364525D01*
X97975214Y-75307521D01*
X97975212Y-75307518D01*
X97974293Y-75301415D01*
X97972727Y-75296655D01*
X97969841Y-75291195D01*
X97969841Y-75291193D01*
X97942892Y-75240203D01*
X97940786Y-75236031D01*
X97913086Y-75178512D01*
X97910191Y-75174431D01*
X97865062Y-75129301D01*
X97861795Y-75125910D01*
X97818380Y-75079121D01*
X97803337Y-75067577D01*
X96265181Y-73529421D01*
X96232052Y-73470940D01*
X96233701Y-73403751D01*
X96246024Y-73363132D01*
X96265341Y-73167000D01*
X96247492Y-72985769D01*
X96246024Y-72970867D01*
X96188814Y-72782274D01*
X96188814Y-72782273D01*
X96095910Y-72608462D01*
X96072231Y-72579609D01*
X95970883Y-72456116D01*
X95818538Y-72331089D01*
X95781104Y-72311081D01*
X95732426Y-72264736D01*
X95714500Y-72199959D01*
X95714500Y-71096450D01*
X95724091Y-71048232D01*
X95751405Y-71007355D01*
X97941355Y-68817405D01*
X97982232Y-68790091D01*
X98030450Y-68780500D01*
X104910550Y-68780500D01*
X104958768Y-68790091D01*
X104999645Y-68817405D01*
X106446817Y-70264577D01*
X106479946Y-70323055D01*
X106478297Y-70390245D01*
X106465975Y-70430866D01*
X106446658Y-70627000D01*
X106465975Y-70823132D01*
X106523185Y-71011725D01*
X106616089Y-71185537D01*
X106741116Y-71337883D01*
X106873767Y-71446747D01*
X106893462Y-71462910D01*
X107067273Y-71555814D01*
X107119154Y-71571552D01*
X107255867Y-71613024D01*
X107451999Y-71632341D01*
X107451999Y-71632340D01*
X107452000Y-71632341D01*
X107648132Y-71613024D01*
X107836727Y-71555814D01*
X108010538Y-71462910D01*
X108162883Y-71337883D01*
X108287910Y-71185538D01*
X108307919Y-71148103D01*
X108354264Y-71099426D01*
X108419041Y-71081500D01*
X174780550Y-71081500D01*
X174828768Y-71091091D01*
X174869645Y-71118405D01*
X182856595Y-79105355D01*
X182883909Y-79146232D01*
X182893500Y-79194450D01*
X182893500Y-99152550D01*
X182879767Y-99209753D01*
X182841561Y-99254486D01*
X182787211Y-99276999D01*
X182728564Y-99272383D01*
X182678405Y-99241645D01*
X179308181Y-95871421D01*
X179275052Y-95812940D01*
X179276701Y-95745751D01*
X179289024Y-95705132D01*
X179308341Y-95509000D01*
X179289024Y-95312868D01*
X179288425Y-95310895D01*
X179235407Y-95136117D01*
X179231814Y-95124273D01*
X179138910Y-94950462D01*
X179075299Y-94872952D01*
X179013883Y-94798116D01*
X178861537Y-94673089D01*
X178687725Y-94580185D01*
X178499132Y-94522975D01*
X178303000Y-94503658D01*
X178106867Y-94522975D01*
X177918274Y-94580185D01*
X177744462Y-94673089D01*
X177592116Y-94798116D01*
X177467089Y-94950462D01*
X177374185Y-95124274D01*
X177316975Y-95312867D01*
X177297658Y-95509000D01*
X177316975Y-95705130D01*
X177324699Y-95730593D01*
X177329296Y-95745747D01*
X177329297Y-95745748D01*
X177330947Y-95812940D01*
X177297818Y-95871420D01*
X175870644Y-97298595D01*
X175829767Y-97325909D01*
X175781549Y-97335500D01*
X172343451Y-97335500D01*
X172286248Y-97321767D01*
X172241515Y-97283561D01*
X172219002Y-97229211D01*
X172223618Y-97170564D01*
X172254355Y-97120405D01*
X172702855Y-96671904D01*
X172860579Y-96514179D01*
X172919059Y-96481052D01*
X172986248Y-96482701D01*
X173026868Y-96495024D01*
X173157622Y-96507902D01*
X173222999Y-96514341D01*
X173222999Y-96514340D01*
X173223000Y-96514341D01*
X173419132Y-96495024D01*
X173607727Y-96437814D01*
X173781538Y-96344910D01*
X173933883Y-96219883D01*
X174058910Y-96067538D01*
X174151814Y-95893727D01*
X174209024Y-95705132D01*
X174228341Y-95509000D01*
X174209024Y-95312868D01*
X174208425Y-95310895D01*
X174155407Y-95136117D01*
X174151814Y-95124273D01*
X174058910Y-94950462D01*
X173995299Y-94872952D01*
X173933883Y-94798116D01*
X173781537Y-94673089D01*
X173607725Y-94580185D01*
X173419132Y-94522975D01*
X173223000Y-94503658D01*
X173026867Y-94522975D01*
X172838274Y-94580185D01*
X172664462Y-94673089D01*
X172512116Y-94798116D01*
X172387089Y-94950462D01*
X172294185Y-95124274D01*
X172236975Y-95312867D01*
X172217658Y-95509000D01*
X172236975Y-95705130D01*
X172244699Y-95730593D01*
X172249296Y-95745747D01*
X172249297Y-95745748D01*
X172250947Y-95812940D01*
X172217818Y-95871420D01*
X170790644Y-97298595D01*
X170749767Y-97325909D01*
X170701549Y-97335500D01*
X170664450Y-97335500D01*
X170616232Y-97325909D01*
X170575355Y-97298595D01*
X169148181Y-95871421D01*
X169115052Y-95812940D01*
X169116701Y-95745751D01*
X169129024Y-95705132D01*
X169148341Y-95509000D01*
X169677658Y-95509000D01*
X169696975Y-95705132D01*
X169754185Y-95893725D01*
X169847089Y-96067537D01*
X169972116Y-96219883D01*
X170088466Y-96315369D01*
X170124462Y-96344910D01*
X170298273Y-96437814D01*
X170373978Y-96460779D01*
X170486867Y-96495024D01*
X170682999Y-96514341D01*
X170682999Y-96514340D01*
X170683000Y-96514341D01*
X170879132Y-96495024D01*
X171067727Y-96437814D01*
X171241538Y-96344910D01*
X171393883Y-96219883D01*
X171518910Y-96067538D01*
X171611814Y-95893727D01*
X171669024Y-95705132D01*
X171688341Y-95509000D01*
X171669024Y-95312868D01*
X171668425Y-95310895D01*
X171615407Y-95136117D01*
X171611814Y-95124273D01*
X171518910Y-94950462D01*
X171455299Y-94872952D01*
X171393883Y-94798116D01*
X171241537Y-94673089D01*
X171067725Y-94580185D01*
X170879132Y-94522975D01*
X170683000Y-94503658D01*
X170486867Y-94522975D01*
X170298274Y-94580185D01*
X170124462Y-94673089D01*
X169972116Y-94798116D01*
X169847089Y-94950462D01*
X169754185Y-95124274D01*
X169696975Y-95312867D01*
X169677658Y-95509000D01*
X169148341Y-95509000D01*
X169129024Y-95312868D01*
X169128425Y-95310895D01*
X169075407Y-95136117D01*
X169071814Y-95124273D01*
X168978910Y-94950462D01*
X168915299Y-94872952D01*
X168853883Y-94798116D01*
X168701537Y-94673089D01*
X168527725Y-94580185D01*
X168339132Y-94522975D01*
X168143000Y-94503658D01*
X167946867Y-94522975D01*
X167758274Y-94580185D01*
X167584462Y-94673089D01*
X167432116Y-94798116D01*
X167307089Y-94950462D01*
X167214185Y-95124274D01*
X167156975Y-95312867D01*
X167137658Y-95509000D01*
X167156975Y-95705132D01*
X167214185Y-95893725D01*
X167307089Y-96067537D01*
X167432116Y-96219883D01*
X167548466Y-96315369D01*
X167584462Y-96344910D01*
X167758273Y-96437814D01*
X167833978Y-96460779D01*
X167946867Y-96495024D01*
X168143000Y-96514341D01*
X168339132Y-96495024D01*
X168379751Y-96482701D01*
X168446940Y-96481052D01*
X168505421Y-96514181D01*
X170079556Y-98088316D01*
X170088972Y-98098851D01*
X170111369Y-98126936D01*
X170159021Y-98159424D01*
X170162841Y-98162134D01*
X170208459Y-98195802D01*
X170214196Y-98200036D01*
X170218674Y-98202296D01*
X170224569Y-98204114D01*
X170224572Y-98204116D01*
X170279683Y-98221114D01*
X170284110Y-98222571D01*
X170338549Y-98241621D01*
X170338552Y-98241621D01*
X170344379Y-98243660D01*
X170349320Y-98244500D01*
X170355495Y-98244500D01*
X170413132Y-98244500D01*
X170417842Y-98244587D01*
X170475462Y-98246744D01*
X170475464Y-98246743D01*
X170481627Y-98246974D01*
X170500425Y-98244500D01*
X170873495Y-98244500D01*
X170909392Y-98244500D01*
X170923497Y-98245291D01*
X170959186Y-98249313D01*
X170973012Y-98246696D01*
X170996437Y-98244500D01*
X175989392Y-98244500D01*
X176003497Y-98245291D01*
X176039186Y-98249313D01*
X176095871Y-98238586D01*
X176100451Y-98237808D01*
X176157479Y-98229214D01*
X176157480Y-98229213D01*
X176163594Y-98228292D01*
X176168336Y-98226732D01*
X176173805Y-98223841D01*
X176173807Y-98223841D01*
X176224791Y-98196893D01*
X176228955Y-98194791D01*
X176280921Y-98169767D01*
X176280924Y-98169763D01*
X176286497Y-98167080D01*
X176290564Y-98164195D01*
X176294937Y-98159821D01*
X176294940Y-98159820D01*
X176335720Y-98119038D01*
X176339058Y-98115822D01*
X176381356Y-98076577D01*
X176381357Y-98076573D01*
X176385883Y-98072375D01*
X176397421Y-98057337D01*
X177940579Y-96514179D01*
X177999057Y-96481052D01*
X178066248Y-96482701D01*
X178106868Y-96495024D01*
X178303000Y-96514341D01*
X178499132Y-96495024D01*
X178539751Y-96482701D01*
X178606940Y-96481052D01*
X178665421Y-96514181D01*
X182586639Y-100435399D01*
X182618118Y-100487918D01*
X182621123Y-100549075D01*
X182594944Y-100604427D01*
X182510314Y-100707550D01*
X182412767Y-100890047D01*
X182399192Y-100934799D01*
X182365098Y-100989858D01*
X182308158Y-101020710D01*
X182243414Y-101019204D01*
X182187971Y-100985738D01*
X182156473Y-100929153D01*
X182136819Y-100851542D01*
X182046419Y-100645451D01*
X181923321Y-100457037D01*
X181770903Y-100291466D01*
X181593302Y-100153233D01*
X181395368Y-100046116D01*
X181182514Y-99973044D01*
X181102000Y-99959609D01*
X181102000Y-101422000D01*
X181085119Y-101485000D01*
X181039000Y-101531119D01*
X180976000Y-101548000D01*
X180720000Y-101548000D01*
X180657000Y-101531119D01*
X180610881Y-101485000D01*
X180594000Y-101422000D01*
X180594000Y-99959609D01*
X180513485Y-99973044D01*
X180300631Y-100046116D01*
X180102697Y-100153233D01*
X179925096Y-100291466D01*
X179772678Y-100457037D01*
X179649580Y-100645451D01*
X179559178Y-100851547D01*
X179539525Y-100929154D01*
X179508027Y-100985739D01*
X179452583Y-101019205D01*
X179387839Y-101020710D01*
X179330900Y-100989857D01*
X179296807Y-100934799D01*
X179283232Y-100890046D01*
X179185685Y-100707550D01*
X179101055Y-100604427D01*
X179054410Y-100547589D01*
X178894449Y-100416314D01*
X178711956Y-100318769D01*
X178711955Y-100318768D01*
X178711954Y-100318768D01*
X178513934Y-100258700D01*
X178513931Y-100258699D01*
X178513929Y-100258699D01*
X178308000Y-100238416D01*
X178102070Y-100258699D01*
X178102067Y-100258699D01*
X178102066Y-100258700D01*
X177920882Y-100313661D01*
X177904043Y-100318769D01*
X177721550Y-100416314D01*
X177561589Y-100547589D01*
X177430314Y-100707550D01*
X177332769Y-100890043D01*
X177332769Y-100890044D01*
X177332768Y-100890046D01*
X177272701Y-101088065D01*
X177272699Y-101088070D01*
X177252416Y-101294000D01*
X177272699Y-101499929D01*
X177272699Y-101499931D01*
X177272700Y-101499934D01*
X177332767Y-101697951D01*
X177332769Y-101697956D01*
X177430314Y-101880449D01*
X177561589Y-102040410D01*
X177711877Y-102163747D01*
X177721550Y-102171685D01*
X177904046Y-102269232D01*
X178102066Y-102329300D01*
X178308000Y-102349583D01*
X178513934Y-102329300D01*
X178711954Y-102269232D01*
X178894450Y-102171685D01*
X179054410Y-102040410D01*
X179185685Y-101880450D01*
X179283232Y-101697954D01*
X179296807Y-101653200D01*
X179330899Y-101598142D01*
X179387839Y-101567289D01*
X179452583Y-101568794D01*
X179508027Y-101602260D01*
X179539525Y-101658845D01*
X179559178Y-101736452D01*
X179649580Y-101942548D01*
X179772678Y-102130962D01*
X179925096Y-102296533D01*
X180102697Y-102434766D01*
X180300631Y-102541883D01*
X180513491Y-102614957D01*
X180542022Y-102619719D01*
X180598674Y-102644568D01*
X180636671Y-102693387D01*
X180646853Y-102754405D01*
X180626766Y-102812916D01*
X180581252Y-102854814D01*
X180521283Y-102870000D01*
X82930000Y-102870000D01*
X82867000Y-102853119D01*
X82820881Y-102807000D01*
X82804000Y-102744000D01*
X82804000Y-102163747D01*
X83277500Y-102163747D01*
X83289133Y-102222231D01*
X83333447Y-102288552D01*
X83377762Y-102318162D01*
X83399769Y-102332867D01*
X83458252Y-102344500D01*
X85197747Y-102344500D01*
X85197748Y-102344500D01*
X85256231Y-102332867D01*
X85322552Y-102288552D01*
X85366867Y-102222231D01*
X85378500Y-102163748D01*
X85378500Y-101294000D01*
X85812416Y-101294000D01*
X85832699Y-101499929D01*
X85832699Y-101499931D01*
X85832700Y-101499934D01*
X85892767Y-101697951D01*
X85892769Y-101697956D01*
X85990314Y-101880449D01*
X86121589Y-102040410D01*
X86271877Y-102163747D01*
X86281550Y-102171685D01*
X86464046Y-102269232D01*
X86662066Y-102329300D01*
X86868000Y-102349583D01*
X87073934Y-102329300D01*
X87271954Y-102269232D01*
X87454450Y-102171685D01*
X87614410Y-102040410D01*
X87745685Y-101880450D01*
X87843232Y-101697954D01*
X87903300Y-101499934D01*
X87923583Y-101294000D01*
X88352416Y-101294000D01*
X88372699Y-101499929D01*
X88372699Y-101499931D01*
X88372700Y-101499934D01*
X88432767Y-101697951D01*
X88432769Y-101697956D01*
X88530314Y-101880449D01*
X88661589Y-102040410D01*
X88811877Y-102163747D01*
X88821550Y-102171685D01*
X89004046Y-102269232D01*
X89202066Y-102329300D01*
X89408000Y-102349583D01*
X89613934Y-102329300D01*
X89811954Y-102269232D01*
X89994450Y-102171685D01*
X90154410Y-102040410D01*
X90285685Y-101880450D01*
X90383232Y-101697954D01*
X90443300Y-101499934D01*
X90463583Y-101294000D01*
X90892416Y-101294000D01*
X90912699Y-101499929D01*
X90912699Y-101499931D01*
X90912700Y-101499934D01*
X90972767Y-101697951D01*
X90972769Y-101697956D01*
X91070314Y-101880449D01*
X91201589Y-102040410D01*
X91351877Y-102163747D01*
X91361550Y-102171685D01*
X91544046Y-102269232D01*
X91742066Y-102329300D01*
X91948000Y-102349583D01*
X92153934Y-102329300D01*
X92351954Y-102269232D01*
X92534450Y-102171685D01*
X92694410Y-102040410D01*
X92825685Y-101880450D01*
X92923232Y-101697954D01*
X92983300Y-101499934D01*
X93003583Y-101294000D01*
X92983300Y-101088066D01*
X92923232Y-100890046D01*
X92825685Y-100707550D01*
X92741055Y-100604427D01*
X92694410Y-100547589D01*
X92534449Y-100416314D01*
X92351956Y-100318769D01*
X92351955Y-100318768D01*
X92351954Y-100318768D01*
X92153934Y-100258700D01*
X92153931Y-100258699D01*
X92153929Y-100258699D01*
X91948000Y-100238416D01*
X91742070Y-100258699D01*
X91742067Y-100258699D01*
X91742066Y-100258700D01*
X91560882Y-100313661D01*
X91544043Y-100318769D01*
X91361550Y-100416314D01*
X91201589Y-100547589D01*
X91070314Y-100707550D01*
X90972769Y-100890043D01*
X90972769Y-100890044D01*
X90972768Y-100890046D01*
X90912701Y-101088065D01*
X90912699Y-101088070D01*
X90892416Y-101294000D01*
X90463583Y-101294000D01*
X90443300Y-101088066D01*
X90383232Y-100890046D01*
X90285685Y-100707550D01*
X90201055Y-100604427D01*
X90154410Y-100547589D01*
X89994449Y-100416314D01*
X89811956Y-100318769D01*
X89811955Y-100318768D01*
X89811954Y-100318768D01*
X89613934Y-100258700D01*
X89613931Y-100258699D01*
X89613929Y-100258699D01*
X89408000Y-100238416D01*
X89202070Y-100258699D01*
X89202067Y-100258699D01*
X89202066Y-100258700D01*
X89020882Y-100313661D01*
X89004043Y-100318769D01*
X88821550Y-100416314D01*
X88661589Y-100547589D01*
X88530314Y-100707550D01*
X88432769Y-100890043D01*
X88432769Y-100890044D01*
X88432768Y-100890046D01*
X88372701Y-101088065D01*
X88372699Y-101088070D01*
X88352416Y-101294000D01*
X87923583Y-101294000D01*
X87903300Y-101088066D01*
X87843232Y-100890046D01*
X87745685Y-100707550D01*
X87661055Y-100604427D01*
X87614410Y-100547589D01*
X87454449Y-100416314D01*
X87271956Y-100318769D01*
X87271955Y-100318768D01*
X87271954Y-100318768D01*
X87073934Y-100258700D01*
X87073931Y-100258699D01*
X87073929Y-100258699D01*
X86868000Y-100238416D01*
X86662070Y-100258699D01*
X86662067Y-100258699D01*
X86662066Y-100258700D01*
X86480882Y-100313661D01*
X86464043Y-100318769D01*
X86281550Y-100416314D01*
X86121589Y-100547589D01*
X85990314Y-100707550D01*
X85892769Y-100890043D01*
X85892769Y-100890044D01*
X85892768Y-100890046D01*
X85832701Y-101088065D01*
X85832699Y-101088070D01*
X85812416Y-101294000D01*
X85378500Y-101294000D01*
X85378500Y-100424252D01*
X85366867Y-100365769D01*
X85335462Y-100318769D01*
X85322552Y-100299447D01*
X85256231Y-100255133D01*
X85224815Y-100248884D01*
X85197748Y-100243500D01*
X83458252Y-100243500D01*
X83431185Y-100248884D01*
X83399768Y-100255133D01*
X83333447Y-100299447D01*
X83289133Y-100365768D01*
X83277500Y-100424253D01*
X83277500Y-102163747D01*
X82804000Y-102163747D01*
X82804000Y-91201000D01*
X86353918Y-91201000D01*
X86406186Y-91396070D01*
X86502912Y-91603498D01*
X86634189Y-91790981D01*
X86796018Y-91952810D01*
X86983501Y-92084087D01*
X87190929Y-92180813D01*
X87386000Y-92233082D01*
X87386000Y-91201000D01*
X86353918Y-91201000D01*
X82804000Y-91201000D01*
X82804000Y-90693000D01*
X86353917Y-90693000D01*
X87768000Y-90693000D01*
X87831000Y-90709881D01*
X87877119Y-90756000D01*
X87894000Y-90819000D01*
X87894000Y-92233082D01*
X88089070Y-92180813D01*
X88296498Y-92084087D01*
X88483981Y-91952810D01*
X88484405Y-91952387D01*
X88485856Y-91951497D01*
X88493008Y-91946490D01*
X88493314Y-91946927D01*
X88534564Y-91921649D01*
X88593211Y-91917033D01*
X88647561Y-91939546D01*
X88685767Y-91984279D01*
X88699500Y-92041482D01*
X88699500Y-95967391D01*
X88698708Y-95981498D01*
X88694686Y-96017187D01*
X88705400Y-96073809D01*
X88706189Y-96078451D01*
X88715704Y-96141576D01*
X88717276Y-96146352D01*
X88720158Y-96151806D01*
X88720159Y-96151807D01*
X88747105Y-96202792D01*
X88749216Y-96206975D01*
X88776909Y-96264480D01*
X88779815Y-96268575D01*
X88784179Y-96272939D01*
X88784180Y-96272940D01*
X88824948Y-96313708D01*
X88828191Y-96317074D01*
X88867423Y-96359356D01*
X88867425Y-96359357D01*
X88871624Y-96363882D01*
X88886661Y-96375421D01*
X93433419Y-100922179D01*
X93466548Y-100980657D01*
X93464899Y-101047848D01*
X93452699Y-101088066D01*
X93432416Y-101294000D01*
X93452699Y-101499929D01*
X93452699Y-101499931D01*
X93452700Y-101499934D01*
X93512767Y-101697951D01*
X93512769Y-101697956D01*
X93610314Y-101880449D01*
X93741589Y-102040410D01*
X93891877Y-102163747D01*
X93901550Y-102171685D01*
X94084046Y-102269232D01*
X94282066Y-102329300D01*
X94488000Y-102349583D01*
X94693934Y-102329300D01*
X94891954Y-102269232D01*
X95074450Y-102171685D01*
X95234410Y-102040410D01*
X95365685Y-101880450D01*
X95463232Y-101697954D01*
X95523300Y-101499934D01*
X95543583Y-101294000D01*
X95523300Y-101088066D01*
X95463232Y-100890046D01*
X95365685Y-100707550D01*
X95281055Y-100604427D01*
X95234410Y-100547589D01*
X95074449Y-100416314D01*
X94891956Y-100318769D01*
X94891955Y-100318768D01*
X94891954Y-100318768D01*
X94693934Y-100258700D01*
X94693931Y-100258699D01*
X94693929Y-100258699D01*
X94488000Y-100238416D01*
X94282066Y-100258699D01*
X94180467Y-100289518D01*
X94113277Y-100291167D01*
X94054798Y-100258038D01*
X91854093Y-98057333D01*
X89645405Y-95848644D01*
X89618091Y-95807767D01*
X89608500Y-95759549D01*
X89608500Y-94872952D01*
X89623545Y-94813245D01*
X89665087Y-94767796D01*
X89723205Y-94747459D01*
X89784021Y-94757091D01*
X89833010Y-94794392D01*
X89857365Y-94824933D01*
X89857368Y-94824935D01*
X89857369Y-94824936D01*
X89859931Y-94826683D01*
X89881319Y-94845088D01*
X89883423Y-94847356D01*
X89904959Y-94859789D01*
X89931053Y-94879813D01*
X95973419Y-100922179D01*
X96006548Y-100980657D01*
X96004899Y-101047848D01*
X95992699Y-101088066D01*
X95972416Y-101294000D01*
X95992699Y-101499929D01*
X95992699Y-101499931D01*
X95992700Y-101499934D01*
X96052767Y-101697951D01*
X96052769Y-101697956D01*
X96150314Y-101880449D01*
X96281589Y-102040410D01*
X96431877Y-102163747D01*
X96441550Y-102171685D01*
X96624046Y-102269232D01*
X96822066Y-102329300D01*
X97028000Y-102349583D01*
X97233934Y-102329300D01*
X97431954Y-102269232D01*
X97614450Y-102171685D01*
X97774410Y-102040410D01*
X97905685Y-101880450D01*
X98003232Y-101697954D01*
X98063300Y-101499934D01*
X98083583Y-101294000D01*
X98063300Y-101088066D01*
X98003232Y-100890046D01*
X97905685Y-100707550D01*
X97821055Y-100604427D01*
X97774410Y-100547589D01*
X97614449Y-100416314D01*
X97431956Y-100318769D01*
X97431955Y-100318768D01*
X97431954Y-100318768D01*
X97233934Y-100258700D01*
X97233931Y-100258699D01*
X97233929Y-100258699D01*
X97028000Y-100238416D01*
X96822066Y-100258699D01*
X96720467Y-100289518D01*
X96653277Y-100291167D01*
X96594798Y-100258038D01*
X93635355Y-97298595D01*
X90661405Y-94324644D01*
X90634091Y-94283767D01*
X90624500Y-94235549D01*
X90624500Y-93348952D01*
X90639545Y-93289245D01*
X90681087Y-93243796D01*
X90739205Y-93223459D01*
X90800021Y-93233091D01*
X90849010Y-93270392D01*
X90873365Y-93300933D01*
X90873368Y-93300935D01*
X90873369Y-93300936D01*
X90875931Y-93302683D01*
X90897319Y-93321088D01*
X90899423Y-93323356D01*
X90920959Y-93335789D01*
X90947053Y-93355813D01*
X98513419Y-100922180D01*
X98546548Y-100980659D01*
X98544899Y-101047850D01*
X98532699Y-101088068D01*
X98512416Y-101294000D01*
X98532699Y-101499929D01*
X98532699Y-101499931D01*
X98532700Y-101499934D01*
X98592767Y-101697951D01*
X98592769Y-101697956D01*
X98690314Y-101880449D01*
X98821589Y-102040410D01*
X98971877Y-102163747D01*
X98981550Y-102171685D01*
X99164046Y-102269232D01*
X99362066Y-102329300D01*
X99568000Y-102349583D01*
X99773934Y-102329300D01*
X99971954Y-102269232D01*
X100154450Y-102171685D01*
X100314410Y-102040410D01*
X100445685Y-101880450D01*
X100543232Y-101697954D01*
X100603300Y-101499934D01*
X100623583Y-101294000D01*
X100603300Y-101088066D01*
X100543232Y-100890046D01*
X100445685Y-100707550D01*
X100361055Y-100604427D01*
X100314410Y-100547589D01*
X100154449Y-100416314D01*
X99971956Y-100318769D01*
X99971955Y-100318768D01*
X99971954Y-100318768D01*
X99773934Y-100258700D01*
X99773931Y-100258699D01*
X99773929Y-100258699D01*
X99568000Y-100238416D01*
X99362066Y-100258699D01*
X99260467Y-100289518D01*
X99193277Y-100291167D01*
X99134798Y-100258038D01*
X91677405Y-92800644D01*
X91650091Y-92759767D01*
X91640500Y-92711549D01*
X91640500Y-90946999D01*
X94254658Y-90946999D01*
X94273975Y-91143132D01*
X94331185Y-91331725D01*
X94424089Y-91505537D01*
X94549116Y-91657883D01*
X94701462Y-91782910D01*
X94875273Y-91875814D01*
X94969570Y-91904419D01*
X95063867Y-91933024D01*
X95260000Y-91952341D01*
X95456132Y-91933024D01*
X95644727Y-91875814D01*
X95818538Y-91782910D01*
X95970883Y-91657883D01*
X96095910Y-91505538D01*
X96188814Y-91331727D01*
X96246024Y-91143132D01*
X96265341Y-90947000D01*
X96246529Y-90756000D01*
X96246024Y-90750867D01*
X96188814Y-90562274D01*
X96188814Y-90562273D01*
X96095910Y-90388462D01*
X96095909Y-90388461D01*
X95970883Y-90236116D01*
X95818537Y-90111089D01*
X95644725Y-90018185D01*
X95456132Y-89960975D01*
X95259999Y-89941658D01*
X95063867Y-89960975D01*
X94875274Y-90018185D01*
X94701462Y-90111089D01*
X94549116Y-90236116D01*
X94424089Y-90388462D01*
X94331185Y-90562274D01*
X94273975Y-90750867D01*
X94254658Y-90946999D01*
X91640500Y-90946999D01*
X91640500Y-88407000D01*
X94254658Y-88407000D01*
X94273975Y-88603132D01*
X94331185Y-88791725D01*
X94424089Y-88965537D01*
X94549116Y-89117883D01*
X94673229Y-89219740D01*
X94701462Y-89242910D01*
X94875273Y-89335814D01*
X94915979Y-89348162D01*
X95063867Y-89393024D01*
X95260000Y-89412341D01*
X95456132Y-89393024D01*
X95644727Y-89335814D01*
X95818538Y-89242910D01*
X95970883Y-89117883D01*
X96095910Y-88965538D01*
X96188814Y-88791727D01*
X96228470Y-88661000D01*
X98545918Y-88661000D01*
X98598186Y-88856070D01*
X98694912Y-89063498D01*
X98826189Y-89250981D01*
X98988018Y-89412810D01*
X99175501Y-89544087D01*
X99382929Y-89640813D01*
X99578000Y-89693082D01*
X99578000Y-88661000D01*
X98545918Y-88661000D01*
X96228470Y-88661000D01*
X96246024Y-88603132D01*
X96265341Y-88407000D01*
X96252734Y-88279000D01*
X96246024Y-88210867D01*
X96228470Y-88153000D01*
X98545917Y-88153000D01*
X99960000Y-88153000D01*
X100023000Y-88169881D01*
X100069119Y-88216000D01*
X100086000Y-88279000D01*
X100086000Y-89693082D01*
X100281070Y-89640813D01*
X100488498Y-89544087D01*
X100675981Y-89412810D01*
X100837810Y-89250981D01*
X100916287Y-89138906D01*
X100964265Y-89097929D01*
X101026095Y-89085350D01*
X101086270Y-89104323D01*
X101129702Y-89150091D01*
X101145500Y-89211177D01*
X101145500Y-100793392D01*
X101144708Y-100807499D01*
X101138561Y-100862058D01*
X101135419Y-100861704D01*
X101134125Y-100885572D01*
X101072699Y-101088068D01*
X101052416Y-101294000D01*
X101072699Y-101499929D01*
X101072699Y-101499931D01*
X101072700Y-101499934D01*
X101132767Y-101697951D01*
X101132769Y-101697956D01*
X101230314Y-101880449D01*
X101361589Y-102040410D01*
X101511877Y-102163747D01*
X101521550Y-102171685D01*
X101704046Y-102269232D01*
X101902066Y-102329300D01*
X102108000Y-102349583D01*
X102313934Y-102329300D01*
X102511954Y-102269232D01*
X102694450Y-102171685D01*
X102854410Y-102040410D01*
X102985685Y-101880450D01*
X103083232Y-101697954D01*
X103143300Y-101499934D01*
X103163583Y-101294000D01*
X103143300Y-101088066D01*
X103083232Y-100890046D01*
X102985685Y-100707550D01*
X102901055Y-100604427D01*
X102854410Y-100547589D01*
X102694449Y-100416314D01*
X102511956Y-100318769D01*
X102511955Y-100318768D01*
X102511954Y-100318768D01*
X102313934Y-100258700D01*
X102313931Y-100258699D01*
X102313929Y-100258699D01*
X102168150Y-100244341D01*
X102110498Y-100223713D01*
X102069378Y-100178344D01*
X102054500Y-100118948D01*
X102054500Y-99687450D01*
X102068233Y-99630247D01*
X102106439Y-99585514D01*
X102160789Y-99563001D01*
X102219436Y-99567617D01*
X102269595Y-99598355D01*
X102286922Y-99615682D01*
X102290191Y-99619074D01*
X102329423Y-99661356D01*
X102329425Y-99661357D01*
X102333624Y-99665882D01*
X102348661Y-99677421D01*
X103593419Y-100922179D01*
X103626548Y-100980657D01*
X103624899Y-101047848D01*
X103612699Y-101088066D01*
X103592416Y-101294000D01*
X103612699Y-101499929D01*
X103612699Y-101499931D01*
X103612700Y-101499934D01*
X103672767Y-101697951D01*
X103672769Y-101697956D01*
X103770314Y-101880449D01*
X103901589Y-102040410D01*
X104051877Y-102163747D01*
X104061550Y-102171685D01*
X104244046Y-102269232D01*
X104442066Y-102329300D01*
X104648000Y-102349583D01*
X104853934Y-102329300D01*
X105051954Y-102269232D01*
X105234450Y-102171685D01*
X105394410Y-102040410D01*
X105525685Y-101880450D01*
X105623232Y-101697954D01*
X105683300Y-101499934D01*
X105703583Y-101294000D01*
X105683300Y-101088066D01*
X105623232Y-100890046D01*
X105525685Y-100707550D01*
X105441055Y-100604427D01*
X105394410Y-100547589D01*
X105234449Y-100416314D01*
X105051956Y-100318769D01*
X105051955Y-100318768D01*
X105051954Y-100318768D01*
X104853934Y-100258700D01*
X104853931Y-100258699D01*
X104853929Y-100258699D01*
X104648000Y-100238416D01*
X104442068Y-100258699D01*
X104340469Y-100289518D01*
X104273278Y-100291167D01*
X104214799Y-100258038D01*
X103107405Y-99150644D01*
X103080091Y-99109767D01*
X103070500Y-99061549D01*
X103070500Y-98166300D01*
X103084664Y-98108259D01*
X103123972Y-98063268D01*
X103179586Y-98041440D01*
X103239003Y-98047685D01*
X103288864Y-98080598D01*
X103295621Y-98087880D01*
X103310661Y-98099421D01*
X106133419Y-100922179D01*
X106166548Y-100980657D01*
X106164899Y-101047848D01*
X106152699Y-101088066D01*
X106132416Y-101294000D01*
X106152699Y-101499929D01*
X106152699Y-101499931D01*
X106152700Y-101499934D01*
X106212767Y-101697951D01*
X106212769Y-101697956D01*
X106310314Y-101880449D01*
X106441589Y-102040410D01*
X106591877Y-102163747D01*
X106601550Y-102171685D01*
X106784046Y-102269232D01*
X106982066Y-102329300D01*
X107188000Y-102349583D01*
X107393934Y-102329300D01*
X107591954Y-102269232D01*
X107774450Y-102171685D01*
X107934410Y-102040410D01*
X108065685Y-101880450D01*
X108163232Y-101697954D01*
X108223300Y-101499934D01*
X108243583Y-101294000D01*
X108223300Y-101088066D01*
X108163232Y-100890046D01*
X108065685Y-100707550D01*
X107981055Y-100604427D01*
X107934410Y-100547589D01*
X107774449Y-100416314D01*
X107591956Y-100318769D01*
X107591955Y-100318768D01*
X107591954Y-100318768D01*
X107393934Y-100258700D01*
X107393931Y-100258699D01*
X107393929Y-100258699D01*
X107188000Y-100238416D01*
X106982066Y-100258699D01*
X106880467Y-100289518D01*
X106813277Y-100291167D01*
X106754798Y-100258038D01*
X104069405Y-97572644D01*
X104042091Y-97531767D01*
X104032500Y-97483549D01*
X104032500Y-96585450D01*
X104046233Y-96528247D01*
X104084439Y-96483514D01*
X104138789Y-96461001D01*
X104197436Y-96465617D01*
X104247595Y-96496355D01*
X108673419Y-100922179D01*
X108706548Y-100980657D01*
X108704899Y-101047848D01*
X108692699Y-101088066D01*
X108672416Y-101294000D01*
X108692699Y-101499929D01*
X108692699Y-101499931D01*
X108692700Y-101499934D01*
X108752767Y-101697951D01*
X108752769Y-101697956D01*
X108850314Y-101880449D01*
X108981589Y-102040410D01*
X109131877Y-102163747D01*
X109141550Y-102171685D01*
X109324046Y-102269232D01*
X109522066Y-102329300D01*
X109728000Y-102349583D01*
X109933934Y-102329300D01*
X110131954Y-102269232D01*
X110314450Y-102171685D01*
X110474410Y-102040410D01*
X110605685Y-101880450D01*
X110703232Y-101697954D01*
X110763300Y-101499934D01*
X110783583Y-101294000D01*
X111212416Y-101294000D01*
X111232699Y-101499929D01*
X111232699Y-101499931D01*
X111232700Y-101499934D01*
X111292767Y-101697951D01*
X111292769Y-101697956D01*
X111390314Y-101880449D01*
X111521589Y-102040410D01*
X111671877Y-102163747D01*
X111681550Y-102171685D01*
X111864046Y-102269232D01*
X112062066Y-102329300D01*
X112268000Y-102349583D01*
X112473934Y-102329300D01*
X112671954Y-102269232D01*
X112854450Y-102171685D01*
X113014410Y-102040410D01*
X113145685Y-101880450D01*
X113243232Y-101697954D01*
X113303300Y-101499934D01*
X113323583Y-101294000D01*
X113752416Y-101294000D01*
X113772699Y-101499929D01*
X113772699Y-101499931D01*
X113772700Y-101499934D01*
X113832767Y-101697951D01*
X113832769Y-101697956D01*
X113930314Y-101880449D01*
X114061589Y-102040410D01*
X114211877Y-102163747D01*
X114221550Y-102171685D01*
X114404046Y-102269232D01*
X114602066Y-102329300D01*
X114808000Y-102349583D01*
X115013934Y-102329300D01*
X115211954Y-102269232D01*
X115394450Y-102171685D01*
X115554410Y-102040410D01*
X115685685Y-101880450D01*
X115783232Y-101697954D01*
X115843300Y-101499934D01*
X115863583Y-101294000D01*
X116292416Y-101294000D01*
X116312699Y-101499929D01*
X116312699Y-101499931D01*
X116312700Y-101499934D01*
X116372767Y-101697951D01*
X116372769Y-101697956D01*
X116470314Y-101880449D01*
X116601589Y-102040410D01*
X116751877Y-102163747D01*
X116761550Y-102171685D01*
X116944046Y-102269232D01*
X117142066Y-102329300D01*
X117348000Y-102349583D01*
X117553934Y-102329300D01*
X117751954Y-102269232D01*
X117934450Y-102171685D01*
X118094410Y-102040410D01*
X118225685Y-101880450D01*
X118323232Y-101697954D01*
X118383300Y-101499934D01*
X118403583Y-101294000D01*
X118832416Y-101294000D01*
X118852699Y-101499929D01*
X118852699Y-101499931D01*
X118852700Y-101499934D01*
X118912767Y-101697951D01*
X118912769Y-101697956D01*
X119010314Y-101880449D01*
X119141589Y-102040410D01*
X119291877Y-102163747D01*
X119301550Y-102171685D01*
X119484046Y-102269232D01*
X119682066Y-102329300D01*
X119888000Y-102349583D01*
X120093934Y-102329300D01*
X120291954Y-102269232D01*
X120474450Y-102171685D01*
X120634410Y-102040410D01*
X120765685Y-101880450D01*
X120863232Y-101697954D01*
X120923300Y-101499934D01*
X120943583Y-101294000D01*
X121372416Y-101294000D01*
X121392699Y-101499929D01*
X121392699Y-101499931D01*
X121392700Y-101499934D01*
X121452767Y-101697951D01*
X121452769Y-101697956D01*
X121550314Y-101880449D01*
X121681589Y-102040410D01*
X121831877Y-102163747D01*
X121841550Y-102171685D01*
X122024046Y-102269232D01*
X122222066Y-102329300D01*
X122428000Y-102349583D01*
X122633934Y-102329300D01*
X122831954Y-102269232D01*
X123014450Y-102171685D01*
X123174410Y-102040410D01*
X123305685Y-101880450D01*
X123403232Y-101697954D01*
X123463300Y-101499934D01*
X123483583Y-101294000D01*
X123912416Y-101294000D01*
X123932699Y-101499929D01*
X123932699Y-101499931D01*
X123932700Y-101499934D01*
X123992767Y-101697951D01*
X123992769Y-101697956D01*
X124090314Y-101880449D01*
X124221589Y-102040410D01*
X124371877Y-102163747D01*
X124381550Y-102171685D01*
X124564046Y-102269232D01*
X124762066Y-102329300D01*
X124968000Y-102349583D01*
X125173934Y-102329300D01*
X125371954Y-102269232D01*
X125554450Y-102171685D01*
X125714410Y-102040410D01*
X125845685Y-101880450D01*
X125943232Y-101697954D01*
X126003300Y-101499934D01*
X126023583Y-101294000D01*
X126452416Y-101294000D01*
X126472699Y-101499929D01*
X126472699Y-101499931D01*
X126472700Y-101499934D01*
X126532767Y-101697951D01*
X126532769Y-101697956D01*
X126630314Y-101880449D01*
X126761589Y-102040410D01*
X126911877Y-102163747D01*
X126921550Y-102171685D01*
X127104046Y-102269232D01*
X127302066Y-102329300D01*
X127508000Y-102349583D01*
X127713934Y-102329300D01*
X127911954Y-102269232D01*
X128094450Y-102171685D01*
X128254410Y-102040410D01*
X128385685Y-101880450D01*
X128483232Y-101697954D01*
X128543300Y-101499934D01*
X128563583Y-101294000D01*
X128992416Y-101294000D01*
X129012699Y-101499929D01*
X129012699Y-101499931D01*
X129012700Y-101499934D01*
X129072767Y-101697951D01*
X129072769Y-101697956D01*
X129170314Y-101880449D01*
X129301589Y-102040410D01*
X129451877Y-102163747D01*
X129461550Y-102171685D01*
X129644046Y-102269232D01*
X129842066Y-102329300D01*
X130048000Y-102349583D01*
X130253934Y-102329300D01*
X130451954Y-102269232D01*
X130634450Y-102171685D01*
X130794410Y-102040410D01*
X130925685Y-101880450D01*
X131023232Y-101697954D01*
X131083300Y-101499934D01*
X131103583Y-101294000D01*
X131532416Y-101294000D01*
X131552699Y-101499929D01*
X131552699Y-101499931D01*
X131552700Y-101499934D01*
X131612767Y-101697951D01*
X131612769Y-101697956D01*
X131710314Y-101880449D01*
X131841589Y-102040410D01*
X131991877Y-102163747D01*
X132001550Y-102171685D01*
X132184046Y-102269232D01*
X132382066Y-102329300D01*
X132588000Y-102349583D01*
X132793934Y-102329300D01*
X132991954Y-102269232D01*
X133174450Y-102171685D01*
X133334410Y-102040410D01*
X133465685Y-101880450D01*
X133563232Y-101697954D01*
X133623300Y-101499934D01*
X133643583Y-101294000D01*
X134072416Y-101294000D01*
X134092699Y-101499929D01*
X134092699Y-101499931D01*
X134092700Y-101499934D01*
X134152767Y-101697951D01*
X134152769Y-101697956D01*
X134250314Y-101880449D01*
X134381589Y-102040410D01*
X134531877Y-102163747D01*
X134541550Y-102171685D01*
X134724046Y-102269232D01*
X134922066Y-102329300D01*
X135128000Y-102349583D01*
X135333934Y-102329300D01*
X135531954Y-102269232D01*
X135714450Y-102171685D01*
X135874410Y-102040410D01*
X136005685Y-101880450D01*
X136103232Y-101697954D01*
X136163300Y-101499934D01*
X136183583Y-101294000D01*
X136612416Y-101294000D01*
X136632699Y-101499929D01*
X136632699Y-101499931D01*
X136632700Y-101499934D01*
X136692767Y-101697951D01*
X136692769Y-101697956D01*
X136790314Y-101880449D01*
X136921589Y-102040410D01*
X137071877Y-102163747D01*
X137081550Y-102171685D01*
X137264046Y-102269232D01*
X137462066Y-102329300D01*
X137668000Y-102349583D01*
X137873934Y-102329300D01*
X138071954Y-102269232D01*
X138254450Y-102171685D01*
X138414410Y-102040410D01*
X138545685Y-101880450D01*
X138643232Y-101697954D01*
X138703300Y-101499934D01*
X138723583Y-101294000D01*
X139152416Y-101294000D01*
X139172699Y-101499929D01*
X139172699Y-101499931D01*
X139172700Y-101499934D01*
X139232767Y-101697951D01*
X139232769Y-101697956D01*
X139330314Y-101880449D01*
X139461589Y-102040410D01*
X139611877Y-102163747D01*
X139621550Y-102171685D01*
X139804046Y-102269232D01*
X140002066Y-102329300D01*
X140208000Y-102349583D01*
X140413934Y-102329300D01*
X140611954Y-102269232D01*
X140794450Y-102171685D01*
X140954410Y-102040410D01*
X141085685Y-101880450D01*
X141183232Y-101697954D01*
X141243300Y-101499934D01*
X141263583Y-101294000D01*
X141692416Y-101294000D01*
X141712699Y-101499929D01*
X141712699Y-101499931D01*
X141712700Y-101499934D01*
X141772767Y-101697951D01*
X141772769Y-101697956D01*
X141870314Y-101880449D01*
X142001589Y-102040410D01*
X142151877Y-102163747D01*
X142161550Y-102171685D01*
X142344046Y-102269232D01*
X142542066Y-102329300D01*
X142748000Y-102349583D01*
X142953934Y-102329300D01*
X143151954Y-102269232D01*
X143334450Y-102171685D01*
X143494410Y-102040410D01*
X143625685Y-101880450D01*
X143723232Y-101697954D01*
X143783300Y-101499934D01*
X143803583Y-101294000D01*
X143783300Y-101088066D01*
X143723232Y-100890046D01*
X143625685Y-100707550D01*
X143541055Y-100604427D01*
X143494410Y-100547589D01*
X143334449Y-100416314D01*
X143229104Y-100360006D01*
X143180426Y-100313661D01*
X143162500Y-100248884D01*
X143162500Y-99340450D01*
X143172091Y-99292232D01*
X143199405Y-99251355D01*
X143695199Y-98755561D01*
X144608315Y-97842444D01*
X144665708Y-97809594D01*
X144731835Y-97810336D01*
X144788479Y-97844466D01*
X144820035Y-97902584D01*
X144817811Y-97968678D01*
X144816890Y-97971664D01*
X144815416Y-97976142D01*
X144794346Y-98036355D01*
X144793500Y-98041339D01*
X144793500Y-98105132D01*
X144793412Y-98109843D01*
X144791025Y-98173628D01*
X144793500Y-98192426D01*
X144793500Y-100291645D01*
X144775574Y-100356422D01*
X144726896Y-100402767D01*
X144701550Y-100416314D01*
X144541589Y-100547589D01*
X144410314Y-100707550D01*
X144312769Y-100890043D01*
X144312769Y-100890044D01*
X144312768Y-100890046D01*
X144252701Y-101088065D01*
X144252699Y-101088070D01*
X144232416Y-101294000D01*
X144252699Y-101499929D01*
X144252699Y-101499931D01*
X144252700Y-101499934D01*
X144312767Y-101697951D01*
X144312769Y-101697956D01*
X144410314Y-101880449D01*
X144541589Y-102040410D01*
X144691877Y-102163747D01*
X144701550Y-102171685D01*
X144884046Y-102269232D01*
X145082066Y-102329300D01*
X145288000Y-102349583D01*
X145493934Y-102329300D01*
X145691954Y-102269232D01*
X145874450Y-102171685D01*
X146034410Y-102040410D01*
X146165685Y-101880450D01*
X146263232Y-101697954D01*
X146323300Y-101499934D01*
X146343583Y-101294000D01*
X146772416Y-101294000D01*
X146792699Y-101499929D01*
X146792699Y-101499931D01*
X146792700Y-101499934D01*
X146852767Y-101697951D01*
X146852769Y-101697956D01*
X146950314Y-101880449D01*
X147081589Y-102040410D01*
X147231877Y-102163747D01*
X147241550Y-102171685D01*
X147424046Y-102269232D01*
X147622066Y-102329300D01*
X147828000Y-102349583D01*
X148033934Y-102329300D01*
X148231954Y-102269232D01*
X148414450Y-102171685D01*
X148574410Y-102040410D01*
X148705685Y-101880450D01*
X148803232Y-101697954D01*
X148863300Y-101499934D01*
X148883583Y-101294000D01*
X149312416Y-101294000D01*
X149332699Y-101499929D01*
X149332699Y-101499931D01*
X149332700Y-101499934D01*
X149392767Y-101697951D01*
X149392769Y-101697956D01*
X149490314Y-101880449D01*
X149621589Y-102040410D01*
X149771877Y-102163747D01*
X149781550Y-102171685D01*
X149964046Y-102269232D01*
X150162066Y-102329300D01*
X150368000Y-102349583D01*
X150573934Y-102329300D01*
X150771954Y-102269232D01*
X150954450Y-102171685D01*
X151114410Y-102040410D01*
X151245685Y-101880450D01*
X151343232Y-101697954D01*
X151403300Y-101499934D01*
X151423583Y-101294000D01*
X151852416Y-101294000D01*
X151872699Y-101499929D01*
X151872699Y-101499931D01*
X151872700Y-101499934D01*
X151932767Y-101697951D01*
X151932769Y-101697956D01*
X152030314Y-101880449D01*
X152161589Y-102040410D01*
X152311877Y-102163747D01*
X152321550Y-102171685D01*
X152504046Y-102269232D01*
X152702066Y-102329300D01*
X152908000Y-102349583D01*
X153113934Y-102329300D01*
X153311954Y-102269232D01*
X153494450Y-102171685D01*
X153654410Y-102040410D01*
X153785685Y-101880450D01*
X153883232Y-101697954D01*
X153943300Y-101499934D01*
X153963583Y-101294000D01*
X154392416Y-101294000D01*
X154412699Y-101499929D01*
X154412699Y-101499931D01*
X154412700Y-101499934D01*
X154472767Y-101697951D01*
X154472769Y-101697956D01*
X154570314Y-101880449D01*
X154701589Y-102040410D01*
X154851877Y-102163747D01*
X154861550Y-102171685D01*
X155044046Y-102269232D01*
X155242066Y-102329300D01*
X155448000Y-102349583D01*
X155653934Y-102329300D01*
X155851954Y-102269232D01*
X156034450Y-102171685D01*
X156194410Y-102040410D01*
X156325685Y-101880450D01*
X156423232Y-101697954D01*
X156483300Y-101499934D01*
X156503583Y-101294000D01*
X156932416Y-101294000D01*
X156952699Y-101499929D01*
X156952699Y-101499931D01*
X156952700Y-101499934D01*
X157012767Y-101697951D01*
X157012769Y-101697956D01*
X157110314Y-101880449D01*
X157241589Y-102040410D01*
X157391877Y-102163747D01*
X157401550Y-102171685D01*
X157584046Y-102269232D01*
X157782066Y-102329300D01*
X157988000Y-102349583D01*
X158193934Y-102329300D01*
X158391954Y-102269232D01*
X158574450Y-102171685D01*
X158734410Y-102040410D01*
X158865685Y-101880450D01*
X158963232Y-101697954D01*
X159023300Y-101499934D01*
X159043583Y-101294000D01*
X159472416Y-101294000D01*
X159492699Y-101499929D01*
X159492699Y-101499931D01*
X159492700Y-101499934D01*
X159552767Y-101697951D01*
X159552769Y-101697956D01*
X159650314Y-101880449D01*
X159781589Y-102040410D01*
X159931877Y-102163747D01*
X159941550Y-102171685D01*
X160124046Y-102269232D01*
X160322066Y-102329300D01*
X160528000Y-102349583D01*
X160733934Y-102329300D01*
X160931954Y-102269232D01*
X161114450Y-102171685D01*
X161274410Y-102040410D01*
X161405685Y-101880450D01*
X161503232Y-101697954D01*
X161563300Y-101499934D01*
X161583583Y-101294000D01*
X162012416Y-101294000D01*
X162032699Y-101499929D01*
X162032699Y-101499931D01*
X162032700Y-101499934D01*
X162092767Y-101697951D01*
X162092769Y-101697956D01*
X162190314Y-101880449D01*
X162321589Y-102040410D01*
X162471877Y-102163747D01*
X162481550Y-102171685D01*
X162664046Y-102269232D01*
X162862066Y-102329300D01*
X163068000Y-102349583D01*
X163273934Y-102329300D01*
X163471954Y-102269232D01*
X163654450Y-102171685D01*
X163814410Y-102040410D01*
X163945685Y-101880450D01*
X164043232Y-101697954D01*
X164103300Y-101499934D01*
X164123583Y-101294000D01*
X164552416Y-101294000D01*
X164572699Y-101499929D01*
X164572699Y-101499931D01*
X164572700Y-101499934D01*
X164632767Y-101697951D01*
X164632769Y-101697956D01*
X164730314Y-101880449D01*
X164861589Y-102040410D01*
X165011877Y-102163747D01*
X165021550Y-102171685D01*
X165204046Y-102269232D01*
X165402066Y-102329300D01*
X165608000Y-102349583D01*
X165813934Y-102329300D01*
X166011954Y-102269232D01*
X166194450Y-102171685D01*
X166354410Y-102040410D01*
X166485685Y-101880450D01*
X166583232Y-101697954D01*
X166643300Y-101499934D01*
X166663583Y-101294000D01*
X167092416Y-101294000D01*
X167112699Y-101499929D01*
X167112699Y-101499931D01*
X167112700Y-101499934D01*
X167172767Y-101697951D01*
X167172769Y-101697956D01*
X167270314Y-101880449D01*
X167401589Y-102040410D01*
X167551877Y-102163747D01*
X167561550Y-102171685D01*
X167744046Y-102269232D01*
X167942066Y-102329300D01*
X168148000Y-102349583D01*
X168353934Y-102329300D01*
X168551954Y-102269232D01*
X168734450Y-102171685D01*
X168894410Y-102040410D01*
X169025685Y-101880450D01*
X169123232Y-101697954D01*
X169183300Y-101499934D01*
X169203583Y-101294000D01*
X169632416Y-101294000D01*
X169652699Y-101499929D01*
X169652699Y-101499931D01*
X169652700Y-101499934D01*
X169712767Y-101697951D01*
X169712769Y-101697956D01*
X169810314Y-101880449D01*
X169941589Y-102040410D01*
X170091877Y-102163747D01*
X170101550Y-102171685D01*
X170284046Y-102269232D01*
X170482066Y-102329300D01*
X170688000Y-102349583D01*
X170893934Y-102329300D01*
X171091954Y-102269232D01*
X171274450Y-102171685D01*
X171434410Y-102040410D01*
X171565685Y-101880450D01*
X171663232Y-101697954D01*
X171723300Y-101499934D01*
X171743583Y-101294000D01*
X172172416Y-101294000D01*
X172192699Y-101499929D01*
X172192699Y-101499931D01*
X172192700Y-101499934D01*
X172252767Y-101697951D01*
X172252769Y-101697956D01*
X172350314Y-101880449D01*
X172481589Y-102040410D01*
X172631877Y-102163747D01*
X172641550Y-102171685D01*
X172824046Y-102269232D01*
X173022066Y-102329300D01*
X173228000Y-102349583D01*
X173433934Y-102329300D01*
X173631954Y-102269232D01*
X173814450Y-102171685D01*
X173974410Y-102040410D01*
X174105685Y-101880450D01*
X174203232Y-101697954D01*
X174263300Y-101499934D01*
X174283583Y-101294000D01*
X174712416Y-101294000D01*
X174732699Y-101499929D01*
X174732699Y-101499931D01*
X174732700Y-101499934D01*
X174792767Y-101697951D01*
X174792769Y-101697956D01*
X174890314Y-101880449D01*
X175021589Y-102040410D01*
X175171877Y-102163747D01*
X175181550Y-102171685D01*
X175364046Y-102269232D01*
X175562066Y-102329300D01*
X175768000Y-102349583D01*
X175973934Y-102329300D01*
X176171954Y-102269232D01*
X176354450Y-102171685D01*
X176514410Y-102040410D01*
X176645685Y-101880450D01*
X176743232Y-101697954D01*
X176803300Y-101499934D01*
X176823583Y-101294000D01*
X176803300Y-101088066D01*
X176743232Y-100890046D01*
X176645685Y-100707550D01*
X176561055Y-100604427D01*
X176514410Y-100547589D01*
X176354449Y-100416314D01*
X176171956Y-100318769D01*
X176171955Y-100318768D01*
X176171954Y-100318768D01*
X175973934Y-100258700D01*
X175973931Y-100258699D01*
X175973929Y-100258699D01*
X175768000Y-100238416D01*
X175562070Y-100258699D01*
X175562067Y-100258699D01*
X175562066Y-100258700D01*
X175380882Y-100313661D01*
X175364043Y-100318769D01*
X175181550Y-100416314D01*
X175021589Y-100547589D01*
X174890314Y-100707550D01*
X174792769Y-100890043D01*
X174792769Y-100890044D01*
X174792768Y-100890046D01*
X174732701Y-101088065D01*
X174732699Y-101088070D01*
X174712416Y-101294000D01*
X174283583Y-101294000D01*
X174263300Y-101088066D01*
X174203232Y-100890046D01*
X174105685Y-100707550D01*
X174021055Y-100604427D01*
X173974410Y-100547589D01*
X173814449Y-100416314D01*
X173631956Y-100318769D01*
X173631955Y-100318768D01*
X173631954Y-100318768D01*
X173433934Y-100258700D01*
X173433931Y-100258699D01*
X173433929Y-100258699D01*
X173228000Y-100238416D01*
X173022070Y-100258699D01*
X173022067Y-100258699D01*
X173022066Y-100258700D01*
X172840882Y-100313661D01*
X172824043Y-100318769D01*
X172641550Y-100416314D01*
X172481589Y-100547589D01*
X172350314Y-100707550D01*
X172252769Y-100890043D01*
X172252769Y-100890044D01*
X172252768Y-100890046D01*
X172192701Y-101088065D01*
X172192699Y-101088070D01*
X172172416Y-101294000D01*
X171743583Y-101294000D01*
X171723300Y-101088066D01*
X171663232Y-100890046D01*
X171565685Y-100707550D01*
X171481055Y-100604427D01*
X171434410Y-100547589D01*
X171274449Y-100416314D01*
X171091956Y-100318769D01*
X171091955Y-100318768D01*
X171091954Y-100318768D01*
X170893934Y-100258700D01*
X170893931Y-100258699D01*
X170893929Y-100258699D01*
X170688000Y-100238416D01*
X170482070Y-100258699D01*
X170482067Y-100258699D01*
X170482066Y-100258700D01*
X170300882Y-100313661D01*
X170284043Y-100318769D01*
X170101550Y-100416314D01*
X169941589Y-100547589D01*
X169810314Y-100707550D01*
X169712769Y-100890043D01*
X169712769Y-100890044D01*
X169712768Y-100890046D01*
X169652701Y-101088065D01*
X169652699Y-101088070D01*
X169632416Y-101294000D01*
X169203583Y-101294000D01*
X169183300Y-101088066D01*
X169123232Y-100890046D01*
X169025685Y-100707550D01*
X168941055Y-100604427D01*
X168894410Y-100547589D01*
X168734449Y-100416314D01*
X168551956Y-100318769D01*
X168551955Y-100318768D01*
X168551954Y-100318768D01*
X168353934Y-100258700D01*
X168353931Y-100258699D01*
X168353929Y-100258699D01*
X168148000Y-100238416D01*
X167942070Y-100258699D01*
X167942067Y-100258699D01*
X167942066Y-100258700D01*
X167760882Y-100313661D01*
X167744043Y-100318769D01*
X167561550Y-100416314D01*
X167401589Y-100547589D01*
X167270314Y-100707550D01*
X167172769Y-100890043D01*
X167172769Y-100890044D01*
X167172768Y-100890046D01*
X167112701Y-101088065D01*
X167112699Y-101088070D01*
X167092416Y-101294000D01*
X166663583Y-101294000D01*
X166643300Y-101088066D01*
X166583232Y-100890046D01*
X166485685Y-100707550D01*
X166401055Y-100604427D01*
X166354410Y-100547589D01*
X166194449Y-100416314D01*
X166011956Y-100318769D01*
X166011955Y-100318768D01*
X166011954Y-100318768D01*
X165813934Y-100258700D01*
X165813931Y-100258699D01*
X165813929Y-100258699D01*
X165608000Y-100238416D01*
X165402070Y-100258699D01*
X165402067Y-100258699D01*
X165402066Y-100258700D01*
X165220882Y-100313661D01*
X165204043Y-100318769D01*
X165021550Y-100416314D01*
X164861589Y-100547589D01*
X164730314Y-100707550D01*
X164632769Y-100890043D01*
X164632769Y-100890044D01*
X164632768Y-100890046D01*
X164572701Y-101088065D01*
X164572699Y-101088070D01*
X164552416Y-101294000D01*
X164123583Y-101294000D01*
X164103300Y-101088066D01*
X164043232Y-100890046D01*
X163945685Y-100707550D01*
X163861055Y-100604427D01*
X163814410Y-100547589D01*
X163654449Y-100416314D01*
X163471956Y-100318769D01*
X163471955Y-100318768D01*
X163471954Y-100318768D01*
X163273934Y-100258700D01*
X163273931Y-100258699D01*
X163273929Y-100258699D01*
X163068000Y-100238416D01*
X162862070Y-100258699D01*
X162862067Y-100258699D01*
X162862066Y-100258700D01*
X162680882Y-100313661D01*
X162664043Y-100318769D01*
X162481550Y-100416314D01*
X162321589Y-100547589D01*
X162190314Y-100707550D01*
X162092769Y-100890043D01*
X162092769Y-100890044D01*
X162092768Y-100890046D01*
X162032701Y-101088065D01*
X162032699Y-101088070D01*
X162012416Y-101294000D01*
X161583583Y-101294000D01*
X161563300Y-101088066D01*
X161503232Y-100890046D01*
X161405685Y-100707550D01*
X161321055Y-100604427D01*
X161274410Y-100547589D01*
X161114449Y-100416314D01*
X160931956Y-100318769D01*
X160931955Y-100318768D01*
X160931954Y-100318768D01*
X160733934Y-100258700D01*
X160733931Y-100258699D01*
X160733929Y-100258699D01*
X160528000Y-100238416D01*
X160322070Y-100258699D01*
X160322067Y-100258699D01*
X160322066Y-100258700D01*
X160140882Y-100313661D01*
X160124043Y-100318769D01*
X159941550Y-100416314D01*
X159781589Y-100547589D01*
X159650314Y-100707550D01*
X159552769Y-100890043D01*
X159552769Y-100890044D01*
X159552768Y-100890046D01*
X159492701Y-101088065D01*
X159492699Y-101088070D01*
X159472416Y-101294000D01*
X159043583Y-101294000D01*
X159023300Y-101088066D01*
X158963232Y-100890046D01*
X158865685Y-100707550D01*
X158781055Y-100604427D01*
X158734410Y-100547589D01*
X158574449Y-100416314D01*
X158391956Y-100318769D01*
X158391955Y-100318768D01*
X158391954Y-100318768D01*
X158193934Y-100258700D01*
X158193931Y-100258699D01*
X158193929Y-100258699D01*
X157988000Y-100238416D01*
X157782070Y-100258699D01*
X157782067Y-100258699D01*
X157782066Y-100258700D01*
X157600882Y-100313661D01*
X157584043Y-100318769D01*
X157401550Y-100416314D01*
X157241589Y-100547589D01*
X157110314Y-100707550D01*
X157012769Y-100890043D01*
X157012769Y-100890044D01*
X157012768Y-100890046D01*
X156952701Y-101088065D01*
X156952699Y-101088070D01*
X156932416Y-101294000D01*
X156503583Y-101294000D01*
X156483300Y-101088066D01*
X156423232Y-100890046D01*
X156325685Y-100707550D01*
X156241055Y-100604427D01*
X156194410Y-100547589D01*
X156034449Y-100416314D01*
X155851956Y-100318769D01*
X155851955Y-100318768D01*
X155851954Y-100318768D01*
X155653934Y-100258700D01*
X155653931Y-100258699D01*
X155653929Y-100258699D01*
X155448000Y-100238416D01*
X155242070Y-100258699D01*
X155242067Y-100258699D01*
X155242066Y-100258700D01*
X155060882Y-100313661D01*
X155044043Y-100318769D01*
X154861550Y-100416314D01*
X154701589Y-100547589D01*
X154570314Y-100707550D01*
X154472769Y-100890043D01*
X154472769Y-100890044D01*
X154472768Y-100890046D01*
X154412701Y-101088065D01*
X154412699Y-101088070D01*
X154392416Y-101294000D01*
X153963583Y-101294000D01*
X153943300Y-101088066D01*
X153883232Y-100890046D01*
X153785685Y-100707550D01*
X153701055Y-100604427D01*
X153654410Y-100547589D01*
X153494449Y-100416314D01*
X153311956Y-100318769D01*
X153311955Y-100318768D01*
X153311954Y-100318768D01*
X153113934Y-100258700D01*
X153113931Y-100258699D01*
X153113929Y-100258699D01*
X152908000Y-100238416D01*
X152702070Y-100258699D01*
X152702067Y-100258699D01*
X152702066Y-100258700D01*
X152520882Y-100313661D01*
X152504043Y-100318769D01*
X152321550Y-100416314D01*
X152161589Y-100547589D01*
X152030314Y-100707550D01*
X151932769Y-100890043D01*
X151932769Y-100890044D01*
X151932768Y-100890046D01*
X151872701Y-101088065D01*
X151872699Y-101088070D01*
X151852416Y-101294000D01*
X151423583Y-101294000D01*
X151403300Y-101088066D01*
X151343232Y-100890046D01*
X151245685Y-100707550D01*
X151161055Y-100604427D01*
X151114410Y-100547589D01*
X150954449Y-100416314D01*
X150771956Y-100318769D01*
X150771955Y-100318768D01*
X150771954Y-100318768D01*
X150573934Y-100258700D01*
X150573931Y-100258699D01*
X150573929Y-100258699D01*
X150368000Y-100238416D01*
X150162070Y-100258699D01*
X150162067Y-100258699D01*
X150162066Y-100258700D01*
X149980882Y-100313661D01*
X149964043Y-100318769D01*
X149781550Y-100416314D01*
X149621589Y-100547589D01*
X149490314Y-100707550D01*
X149392769Y-100890043D01*
X149392769Y-100890044D01*
X149392768Y-100890046D01*
X149332701Y-101088065D01*
X149332699Y-101088070D01*
X149312416Y-101294000D01*
X148883583Y-101294000D01*
X148863300Y-101088066D01*
X148803232Y-100890046D01*
X148705685Y-100707550D01*
X148621055Y-100604427D01*
X148574410Y-100547589D01*
X148414449Y-100416314D01*
X148231956Y-100318769D01*
X148231955Y-100318768D01*
X148231954Y-100318768D01*
X148033934Y-100258700D01*
X148033931Y-100258699D01*
X148033929Y-100258699D01*
X147828000Y-100238416D01*
X147622070Y-100258699D01*
X147622067Y-100258699D01*
X147622066Y-100258700D01*
X147440882Y-100313661D01*
X147424043Y-100318769D01*
X147241550Y-100416314D01*
X147081589Y-100547589D01*
X146950314Y-100707550D01*
X146852769Y-100890043D01*
X146852769Y-100890044D01*
X146852768Y-100890046D01*
X146792701Y-101088065D01*
X146792699Y-101088070D01*
X146772416Y-101294000D01*
X146343583Y-101294000D01*
X146323300Y-101088066D01*
X146263232Y-100890046D01*
X146165685Y-100707550D01*
X146081055Y-100604427D01*
X146034410Y-100547589D01*
X145874449Y-100416314D01*
X145769104Y-100360006D01*
X145720426Y-100313661D01*
X145702500Y-100248884D01*
X145702500Y-98356450D01*
X145712091Y-98308232D01*
X145739405Y-98267355D01*
X148243760Y-95763000D01*
X149055000Y-95763000D01*
X149055000Y-96357589D01*
X149061505Y-96418093D01*
X149112554Y-96554962D01*
X149200095Y-96671904D01*
X149317037Y-96759445D01*
X149453906Y-96810494D01*
X149514411Y-96817000D01*
X150109000Y-96817000D01*
X150109000Y-95763000D01*
X149055000Y-95763000D01*
X148243760Y-95763000D01*
X148839905Y-95166855D01*
X148890064Y-95136117D01*
X148948711Y-95131501D01*
X149003061Y-95154014D01*
X149041267Y-95198747D01*
X149054700Y-95254701D01*
X149054999Y-95255000D01*
X150109000Y-95255000D01*
X150109000Y-94201000D01*
X150617000Y-94201000D01*
X150617000Y-96817000D01*
X151211589Y-96817000D01*
X151272093Y-96810494D01*
X151408962Y-96759445D01*
X151525904Y-96671904D01*
X151613445Y-96554962D01*
X151664494Y-96418093D01*
X151671000Y-96357589D01*
X151671000Y-95743681D01*
X151690881Y-95675750D01*
X151744249Y-95629255D01*
X151814263Y-95618869D01*
X151878830Y-95647870D01*
X151917574Y-95707105D01*
X151974185Y-95893725D01*
X152067089Y-96067537D01*
X152192116Y-96219883D01*
X152308466Y-96315369D01*
X152344462Y-96344910D01*
X152518273Y-96437814D01*
X152593978Y-96460779D01*
X152706867Y-96495024D01*
X152902999Y-96514341D01*
X152902999Y-96514340D01*
X152903000Y-96514341D01*
X153099132Y-96495024D01*
X153287727Y-96437814D01*
X153461538Y-96344910D01*
X153613883Y-96219883D01*
X153738910Y-96067538D01*
X153831814Y-95893727D01*
X153889024Y-95705132D01*
X153908341Y-95509000D01*
X154437658Y-95509000D01*
X154456975Y-95705132D01*
X154514185Y-95893725D01*
X154607089Y-96067537D01*
X154732116Y-96219883D01*
X154848466Y-96315369D01*
X154884462Y-96344910D01*
X155058273Y-96437814D01*
X155133978Y-96460779D01*
X155246867Y-96495024D01*
X155442999Y-96514341D01*
X155442999Y-96514340D01*
X155443000Y-96514341D01*
X155639132Y-96495024D01*
X155827727Y-96437814D01*
X156001538Y-96344910D01*
X156153883Y-96219883D01*
X156278910Y-96067538D01*
X156298919Y-96030103D01*
X156345264Y-95981426D01*
X156410041Y-95963500D01*
X157015959Y-95963500D01*
X157080736Y-95981426D01*
X157127081Y-96030104D01*
X157147089Y-96067538D01*
X157272116Y-96219883D01*
X157388466Y-96315369D01*
X157424462Y-96344910D01*
X157598273Y-96437814D01*
X157673978Y-96460779D01*
X157786867Y-96495024D01*
X157982999Y-96514341D01*
X157982999Y-96514340D01*
X157983000Y-96514341D01*
X158179132Y-96495024D01*
X158367727Y-96437814D01*
X158541538Y-96344910D01*
X158693883Y-96219883D01*
X158818910Y-96067538D01*
X158911814Y-95893727D01*
X158969024Y-95705132D01*
X158988341Y-95509000D01*
X159517658Y-95509000D01*
X159536975Y-95705132D01*
X159594185Y-95893725D01*
X159687089Y-96067537D01*
X159812116Y-96219883D01*
X159928466Y-96315369D01*
X159964462Y-96344910D01*
X160138273Y-96437814D01*
X160213978Y-96460779D01*
X160326867Y-96495024D01*
X160522999Y-96514341D01*
X160522999Y-96514340D01*
X160523000Y-96514341D01*
X160719132Y-96495024D01*
X160907727Y-96437814D01*
X161081538Y-96344910D01*
X161233883Y-96219883D01*
X161358910Y-96067538D01*
X161451814Y-95893727D01*
X161509024Y-95705132D01*
X161528341Y-95509000D01*
X162057658Y-95509000D01*
X162076975Y-95705132D01*
X162134185Y-95893725D01*
X162227089Y-96067537D01*
X162352116Y-96219883D01*
X162468466Y-96315369D01*
X162504462Y-96344910D01*
X162678273Y-96437814D01*
X162753978Y-96460779D01*
X162866867Y-96495024D01*
X163062999Y-96514341D01*
X163062999Y-96514340D01*
X163063000Y-96514341D01*
X163259132Y-96495024D01*
X163447727Y-96437814D01*
X163621538Y-96344910D01*
X163773883Y-96219883D01*
X163898910Y-96067538D01*
X163991814Y-95893727D01*
X164049024Y-95705132D01*
X164068341Y-95509000D01*
X164597658Y-95509000D01*
X164616975Y-95705132D01*
X164674185Y-95893725D01*
X164767089Y-96067537D01*
X164892116Y-96219883D01*
X165008466Y-96315369D01*
X165044462Y-96344910D01*
X165218273Y-96437814D01*
X165293978Y-96460779D01*
X165406867Y-96495024D01*
X165602999Y-96514341D01*
X165602999Y-96514340D01*
X165603000Y-96514341D01*
X165799132Y-96495024D01*
X165987727Y-96437814D01*
X166161538Y-96344910D01*
X166313883Y-96219883D01*
X166438910Y-96067538D01*
X166531814Y-95893727D01*
X166589024Y-95705132D01*
X166608341Y-95509000D01*
X166589024Y-95312868D01*
X166588425Y-95310895D01*
X166535407Y-95136117D01*
X166531814Y-95124273D01*
X166438910Y-94950462D01*
X166375299Y-94872952D01*
X166313883Y-94798116D01*
X166161537Y-94673089D01*
X165987725Y-94580185D01*
X165799132Y-94522975D01*
X165603000Y-94503658D01*
X165406867Y-94522975D01*
X165218274Y-94580185D01*
X165044462Y-94673089D01*
X164892116Y-94798116D01*
X164767089Y-94950462D01*
X164674185Y-95124274D01*
X164616975Y-95312867D01*
X164597658Y-95509000D01*
X164068341Y-95509000D01*
X164049024Y-95312868D01*
X164048425Y-95310895D01*
X163995407Y-95136117D01*
X163991814Y-95124273D01*
X163898910Y-94950462D01*
X163835299Y-94872952D01*
X163773883Y-94798116D01*
X163621537Y-94673089D01*
X163447725Y-94580185D01*
X163259132Y-94522975D01*
X163063000Y-94503658D01*
X162866867Y-94522975D01*
X162678274Y-94580185D01*
X162504462Y-94673089D01*
X162352116Y-94798116D01*
X162227089Y-94950462D01*
X162134185Y-95124274D01*
X162076975Y-95312867D01*
X162057658Y-95509000D01*
X161528341Y-95509000D01*
X161509024Y-95312868D01*
X161508425Y-95310895D01*
X161455407Y-95136117D01*
X161451814Y-95124273D01*
X161358910Y-94950462D01*
X161295299Y-94872952D01*
X161233883Y-94798116D01*
X161081537Y-94673089D01*
X160907725Y-94580185D01*
X160719132Y-94522975D01*
X160523000Y-94503658D01*
X160326867Y-94522975D01*
X160138274Y-94580185D01*
X159964462Y-94673089D01*
X159812116Y-94798116D01*
X159687089Y-94950462D01*
X159594185Y-95124274D01*
X159536975Y-95312867D01*
X159517658Y-95509000D01*
X158988341Y-95509000D01*
X158969024Y-95312868D01*
X158968425Y-95310895D01*
X158915407Y-95136117D01*
X158911814Y-95124273D01*
X158818910Y-94950462D01*
X158755299Y-94872952D01*
X158693883Y-94798116D01*
X158541537Y-94673089D01*
X158367725Y-94580185D01*
X158179132Y-94522975D01*
X157983000Y-94503658D01*
X157786867Y-94522975D01*
X157598274Y-94580185D01*
X157424462Y-94673089D01*
X157272116Y-94798116D01*
X157147089Y-94950461D01*
X157127081Y-94987896D01*
X157080736Y-95036574D01*
X157015959Y-95054500D01*
X156410041Y-95054500D01*
X156345264Y-95036574D01*
X156298919Y-94987896D01*
X156278910Y-94950461D01*
X156153883Y-94798116D01*
X156001537Y-94673089D01*
X155827725Y-94580185D01*
X155639132Y-94522975D01*
X155443000Y-94503658D01*
X155246867Y-94522975D01*
X155058274Y-94580185D01*
X154884462Y-94673089D01*
X154732116Y-94798116D01*
X154607089Y-94950462D01*
X154514185Y-95124274D01*
X154456975Y-95312867D01*
X154437658Y-95509000D01*
X153908341Y-95509000D01*
X153889024Y-95312868D01*
X153888425Y-95310895D01*
X153835407Y-95136117D01*
X153831814Y-95124273D01*
X153738910Y-94950462D01*
X153675299Y-94872952D01*
X153613883Y-94798116D01*
X153461537Y-94673089D01*
X153287725Y-94580185D01*
X153099132Y-94522975D01*
X152903000Y-94503658D01*
X152706867Y-94522975D01*
X152518274Y-94580185D01*
X152344462Y-94673089D01*
X152192116Y-94798116D01*
X152067089Y-94950462D01*
X151974185Y-95124274D01*
X151917574Y-95310895D01*
X151878830Y-95370130D01*
X151814263Y-95399131D01*
X151744249Y-95388745D01*
X151690881Y-95342250D01*
X151671000Y-95274319D01*
X151671000Y-94660411D01*
X151664494Y-94599906D01*
X151613445Y-94463037D01*
X151525904Y-94346095D01*
X151408962Y-94258554D01*
X151272093Y-94207505D01*
X151211589Y-94201000D01*
X150617000Y-94201000D01*
X150109000Y-94201000D01*
X150109000Y-94200999D01*
X150108701Y-94200700D01*
X150052747Y-94187267D01*
X150008014Y-94149061D01*
X149985501Y-94094711D01*
X149990117Y-94036064D01*
X150020855Y-93985905D01*
X155177355Y-88829405D01*
X155218232Y-88802091D01*
X155266450Y-88792500D01*
X172995392Y-88792500D01*
X173009497Y-88793291D01*
X173045186Y-88797313D01*
X173101871Y-88786586D01*
X173106451Y-88785808D01*
X173163479Y-88777214D01*
X173163480Y-88777213D01*
X173169594Y-88776292D01*
X173174336Y-88774732D01*
X173179805Y-88771841D01*
X173179807Y-88771841D01*
X173230791Y-88744893D01*
X173234955Y-88742791D01*
X173286921Y-88717767D01*
X173286924Y-88717763D01*
X173292497Y-88715080D01*
X173296564Y-88712195D01*
X173300937Y-88707821D01*
X173300940Y-88707820D01*
X173341720Y-88667038D01*
X173345058Y-88663822D01*
X173387356Y-88624577D01*
X173387357Y-88624573D01*
X173391883Y-88620375D01*
X173403421Y-88605337D01*
X180384327Y-81624431D01*
X180394857Y-81615022D01*
X180422936Y-81592631D01*
X180455419Y-81544986D01*
X180458148Y-81541139D01*
X180492369Y-81494773D01*
X180492369Y-81494770D01*
X180496039Y-81489799D01*
X180498293Y-81485335D01*
X180500114Y-81479430D01*
X180500116Y-81479428D01*
X180517133Y-81424257D01*
X180518571Y-81419887D01*
X180537620Y-81365451D01*
X180537620Y-81365447D01*
X180539660Y-81359618D01*
X180540500Y-81354680D01*
X180540500Y-81290842D01*
X180540588Y-81286131D01*
X180542743Y-81228538D01*
X180542742Y-81228535D01*
X180542973Y-81222368D01*
X180540500Y-81203578D01*
X180540500Y-79534608D01*
X180541292Y-79520501D01*
X180541292Y-79520500D01*
X180545313Y-79484814D01*
X180534588Y-79428136D01*
X180533805Y-79423525D01*
X180533804Y-79423516D01*
X180525214Y-79366521D01*
X180525212Y-79366518D01*
X180524293Y-79360415D01*
X180522727Y-79355655D01*
X180519841Y-79350195D01*
X180519841Y-79350193D01*
X180492892Y-79299203D01*
X180490786Y-79295031D01*
X180463087Y-79237514D01*
X180460188Y-79233428D01*
X180445812Y-79219052D01*
X180415049Y-79188289D01*
X180411807Y-79184924D01*
X180403354Y-79175814D01*
X180372577Y-79142644D01*
X180372574Y-79142642D01*
X180368378Y-79138120D01*
X180353340Y-79126580D01*
X179414430Y-78187669D01*
X179405015Y-78177133D01*
X179382631Y-78149064D01*
X179334983Y-78116577D01*
X179331143Y-78113852D01*
X179279812Y-78075969D01*
X179275317Y-78073700D01*
X179214341Y-78054892D01*
X179209863Y-78053419D01*
X179206262Y-78052159D01*
X179166351Y-78038193D01*
X179149639Y-78032345D01*
X179144663Y-78031500D01*
X179138505Y-78031500D01*
X179080868Y-78031500D01*
X179076157Y-78031412D01*
X179012371Y-78029025D01*
X178993574Y-78031500D01*
X177578609Y-78031500D01*
X177564502Y-78030708D01*
X177551615Y-78029256D01*
X177528814Y-78026687D01*
X177528813Y-78026687D01*
X177472163Y-78037405D01*
X177467521Y-78038193D01*
X177404433Y-78047702D01*
X177399638Y-78049280D01*
X177343217Y-78079098D01*
X177339017Y-78081219D01*
X177281524Y-78108907D01*
X177277415Y-78111822D01*
X177232287Y-78156950D01*
X177228897Y-78160215D01*
X177182125Y-78203614D01*
X177170583Y-78218654D01*
X176125420Y-79263817D01*
X176066941Y-79296946D01*
X175999750Y-79295297D01*
X175959129Y-79282975D01*
X175763000Y-79263658D01*
X175566867Y-79282975D01*
X175378274Y-79340185D01*
X175204462Y-79433089D01*
X175052116Y-79558116D01*
X174927089Y-79710462D01*
X174834185Y-79884274D01*
X174776975Y-80072867D01*
X174757658Y-80268999D01*
X174776975Y-80465132D01*
X174834185Y-80653725D01*
X174927089Y-80827537D01*
X175052116Y-80979883D01*
X175188414Y-81091740D01*
X175204462Y-81104910D01*
X175378273Y-81197814D01*
X175451961Y-81220167D01*
X175566867Y-81255024D01*
X175763000Y-81274341D01*
X175959132Y-81255024D01*
X176147727Y-81197814D01*
X176321538Y-81104910D01*
X176473883Y-80979883D01*
X176598910Y-80827538D01*
X176691814Y-80653727D01*
X176749024Y-80465132D01*
X176768341Y-80269000D01*
X176767006Y-80255450D01*
X176758497Y-80169055D01*
X176749024Y-80072868D01*
X176736701Y-80032248D01*
X176735052Y-79965057D01*
X176768178Y-79906580D01*
X177697357Y-78977402D01*
X177738232Y-78950091D01*
X177786450Y-78940500D01*
X178829549Y-78940500D01*
X178877767Y-78950091D01*
X178918645Y-78977405D01*
X179594596Y-79653357D01*
X179621909Y-79694234D01*
X179631500Y-79742452D01*
X179631500Y-81039550D01*
X179621909Y-81087768D01*
X179594595Y-81128645D01*
X172876644Y-87846595D01*
X172835767Y-87873909D01*
X172787549Y-87883500D01*
X155058607Y-87883500D01*
X155044500Y-87882708D01*
X155028932Y-87880953D01*
X155008814Y-87878687D01*
X155008813Y-87878687D01*
X154952163Y-87889405D01*
X154947521Y-87890193D01*
X154871747Y-87901615D01*
X154871108Y-87897376D01*
X154836811Y-87903190D01*
X154772376Y-87876477D01*
X154732025Y-87819581D01*
X154728124Y-87749938D01*
X154761864Y-87688895D01*
X154837358Y-87613401D01*
X154878232Y-87586091D01*
X154926450Y-87576500D01*
X171417392Y-87576500D01*
X171431497Y-87577291D01*
X171467186Y-87581313D01*
X171523871Y-87570586D01*
X171528451Y-87569808D01*
X171585479Y-87561214D01*
X171585480Y-87561213D01*
X171591594Y-87560292D01*
X171596336Y-87558732D01*
X171601805Y-87555841D01*
X171601807Y-87555841D01*
X171652791Y-87528893D01*
X171656955Y-87526791D01*
X171708921Y-87501767D01*
X171708924Y-87501763D01*
X171714497Y-87499080D01*
X171718564Y-87496195D01*
X171722937Y-87491821D01*
X171722940Y-87491820D01*
X171763720Y-87451038D01*
X171767058Y-87447822D01*
X171809356Y-87408577D01*
X171809357Y-87408573D01*
X171813883Y-87404375D01*
X171825421Y-87389337D01*
X177940579Y-81274179D01*
X177999057Y-81241052D01*
X178066248Y-81242701D01*
X178106868Y-81255024D01*
X178237622Y-81267901D01*
X178302999Y-81274341D01*
X178302999Y-81274340D01*
X178303000Y-81274341D01*
X178499132Y-81255024D01*
X178687727Y-81197814D01*
X178861538Y-81104910D01*
X179013883Y-80979883D01*
X179138910Y-80827538D01*
X179231814Y-80653727D01*
X179289024Y-80465132D01*
X179308341Y-80269000D01*
X179307006Y-80255450D01*
X179289024Y-80072867D01*
X179252083Y-79951090D01*
X179231814Y-79884273D01*
X179138910Y-79710462D01*
X179122331Y-79690260D01*
X179013883Y-79558116D01*
X178861537Y-79433089D01*
X178687725Y-79340185D01*
X178499132Y-79282975D01*
X178303000Y-79263658D01*
X178106867Y-79282975D01*
X177918274Y-79340185D01*
X177744462Y-79433089D01*
X177592116Y-79558116D01*
X177467089Y-79710462D01*
X177374185Y-79884274D01*
X177316975Y-80072867D01*
X177297658Y-80268999D01*
X177316975Y-80465130D01*
X177329297Y-80505748D01*
X177330947Y-80572940D01*
X177297818Y-80631420D01*
X171298644Y-86630595D01*
X171257767Y-86657909D01*
X171209549Y-86667500D01*
X154718609Y-86667500D01*
X154704502Y-86666708D01*
X154696972Y-86665859D01*
X154668814Y-86662687D01*
X154668813Y-86662687D01*
X154612163Y-86673405D01*
X154607521Y-86674193D01*
X154544432Y-86683702D01*
X154539642Y-86685279D01*
X154483216Y-86715100D01*
X154479013Y-86717221D01*
X154421530Y-86744904D01*
X154417415Y-86747823D01*
X154372301Y-86792937D01*
X154368911Y-86796202D01*
X154322123Y-86839616D01*
X154310581Y-86854657D01*
X142409676Y-98755561D01*
X142399143Y-98764975D01*
X142371063Y-98787368D01*
X142338584Y-98835006D01*
X142335861Y-98838843D01*
X142297975Y-98890180D01*
X142295697Y-98894691D01*
X142276889Y-98955667D01*
X142275416Y-98960142D01*
X142254346Y-99020355D01*
X142253500Y-99025339D01*
X142253500Y-99089132D01*
X142253412Y-99093843D01*
X142251025Y-99157628D01*
X142253500Y-99176426D01*
X142253500Y-100291645D01*
X142235574Y-100356422D01*
X142186896Y-100402767D01*
X142161550Y-100416314D01*
X142001589Y-100547589D01*
X141870314Y-100707550D01*
X141772769Y-100890043D01*
X141772769Y-100890044D01*
X141772768Y-100890046D01*
X141712701Y-101088065D01*
X141712699Y-101088070D01*
X141692416Y-101294000D01*
X141263583Y-101294000D01*
X141243300Y-101088066D01*
X141183232Y-100890046D01*
X141085685Y-100707550D01*
X141001055Y-100604427D01*
X140954410Y-100547589D01*
X140794449Y-100416314D01*
X140611956Y-100318769D01*
X140611955Y-100318768D01*
X140611954Y-100318768D01*
X140413934Y-100258700D01*
X140413931Y-100258699D01*
X140413929Y-100258699D01*
X140208000Y-100238416D01*
X140002070Y-100258699D01*
X140002067Y-100258699D01*
X140002066Y-100258700D01*
X139820882Y-100313661D01*
X139804043Y-100318769D01*
X139621550Y-100416314D01*
X139461589Y-100547589D01*
X139330314Y-100707550D01*
X139232769Y-100890043D01*
X139232769Y-100890044D01*
X139232768Y-100890046D01*
X139172701Y-101088065D01*
X139172699Y-101088070D01*
X139152416Y-101294000D01*
X138723583Y-101294000D01*
X138703300Y-101088066D01*
X138643232Y-100890046D01*
X138545685Y-100707550D01*
X138461055Y-100604427D01*
X138414410Y-100547589D01*
X138254449Y-100416314D01*
X138071956Y-100318769D01*
X138071955Y-100318768D01*
X138071954Y-100318768D01*
X137873934Y-100258700D01*
X137873931Y-100258699D01*
X137873929Y-100258699D01*
X137668000Y-100238416D01*
X137462070Y-100258699D01*
X137462067Y-100258699D01*
X137462066Y-100258700D01*
X137280882Y-100313661D01*
X137264043Y-100318769D01*
X137081550Y-100416314D01*
X136921589Y-100547589D01*
X136790314Y-100707550D01*
X136692769Y-100890043D01*
X136692769Y-100890044D01*
X136692768Y-100890046D01*
X136632701Y-101088065D01*
X136632699Y-101088070D01*
X136612416Y-101294000D01*
X136183583Y-101294000D01*
X136163300Y-101088066D01*
X136103232Y-100890046D01*
X136005685Y-100707550D01*
X135921055Y-100604427D01*
X135874410Y-100547589D01*
X135714449Y-100416314D01*
X135531956Y-100318769D01*
X135531955Y-100318768D01*
X135531954Y-100318768D01*
X135333934Y-100258700D01*
X135333931Y-100258699D01*
X135333929Y-100258699D01*
X135128000Y-100238416D01*
X134922070Y-100258699D01*
X134922067Y-100258699D01*
X134922066Y-100258700D01*
X134740882Y-100313661D01*
X134724043Y-100318769D01*
X134541550Y-100416314D01*
X134381589Y-100547589D01*
X134250314Y-100707550D01*
X134152769Y-100890043D01*
X134152769Y-100890044D01*
X134152768Y-100890046D01*
X134092701Y-101088065D01*
X134092699Y-101088070D01*
X134072416Y-101294000D01*
X133643583Y-101294000D01*
X133623300Y-101088066D01*
X133563232Y-100890046D01*
X133465685Y-100707550D01*
X133381055Y-100604427D01*
X133334410Y-100547589D01*
X133174449Y-100416314D01*
X132991956Y-100318769D01*
X132991955Y-100318768D01*
X132991954Y-100318768D01*
X132793934Y-100258700D01*
X132793931Y-100258699D01*
X132793929Y-100258699D01*
X132588000Y-100238416D01*
X132382070Y-100258699D01*
X132382067Y-100258699D01*
X132382066Y-100258700D01*
X132200882Y-100313661D01*
X132184043Y-100318769D01*
X132001550Y-100416314D01*
X131841589Y-100547589D01*
X131710314Y-100707550D01*
X131612769Y-100890043D01*
X131612769Y-100890044D01*
X131612768Y-100890046D01*
X131552701Y-101088065D01*
X131552699Y-101088070D01*
X131532416Y-101294000D01*
X131103583Y-101294000D01*
X131083300Y-101088066D01*
X131023232Y-100890046D01*
X130925685Y-100707550D01*
X130841055Y-100604427D01*
X130794410Y-100547589D01*
X130634449Y-100416314D01*
X130451956Y-100318769D01*
X130451955Y-100318768D01*
X130451954Y-100318768D01*
X130253934Y-100258700D01*
X130253931Y-100258699D01*
X130253929Y-100258699D01*
X130048000Y-100238416D01*
X129842070Y-100258699D01*
X129842067Y-100258699D01*
X129842066Y-100258700D01*
X129660882Y-100313661D01*
X129644043Y-100318769D01*
X129461550Y-100416314D01*
X129301589Y-100547589D01*
X129170314Y-100707550D01*
X129072769Y-100890043D01*
X129072769Y-100890044D01*
X129072768Y-100890046D01*
X129012701Y-101088065D01*
X129012699Y-101088070D01*
X128992416Y-101294000D01*
X128563583Y-101294000D01*
X128543300Y-101088066D01*
X128483232Y-100890046D01*
X128385685Y-100707550D01*
X128301055Y-100604427D01*
X128254410Y-100547589D01*
X128094449Y-100416314D01*
X127911956Y-100318769D01*
X127911955Y-100318768D01*
X127911954Y-100318768D01*
X127713934Y-100258700D01*
X127713931Y-100258699D01*
X127713929Y-100258699D01*
X127508000Y-100238416D01*
X127302070Y-100258699D01*
X127302067Y-100258699D01*
X127302066Y-100258700D01*
X127120882Y-100313661D01*
X127104043Y-100318769D01*
X126921550Y-100416314D01*
X126761589Y-100547589D01*
X126630314Y-100707550D01*
X126532769Y-100890043D01*
X126532769Y-100890044D01*
X126532768Y-100890046D01*
X126472701Y-101088065D01*
X126472699Y-101088070D01*
X126452416Y-101294000D01*
X126023583Y-101294000D01*
X126003300Y-101088066D01*
X125943232Y-100890046D01*
X125845685Y-100707550D01*
X125761055Y-100604427D01*
X125714410Y-100547589D01*
X125554449Y-100416314D01*
X125371956Y-100318769D01*
X125371955Y-100318768D01*
X125371954Y-100318768D01*
X125173934Y-100258700D01*
X125173931Y-100258699D01*
X125173929Y-100258699D01*
X124968000Y-100238416D01*
X124762070Y-100258699D01*
X124762067Y-100258699D01*
X124762066Y-100258700D01*
X124580882Y-100313661D01*
X124564043Y-100318769D01*
X124381550Y-100416314D01*
X124221589Y-100547589D01*
X124090314Y-100707550D01*
X123992769Y-100890043D01*
X123992769Y-100890044D01*
X123992768Y-100890046D01*
X123932701Y-101088065D01*
X123932699Y-101088070D01*
X123912416Y-101294000D01*
X123483583Y-101294000D01*
X123463300Y-101088066D01*
X123432480Y-100986467D01*
X123430831Y-100919278D01*
X123463958Y-100860800D01*
X143801759Y-80523000D01*
X149076918Y-80523000D01*
X149129186Y-80718070D01*
X149225912Y-80925498D01*
X149357189Y-81112981D01*
X149519018Y-81274810D01*
X149706501Y-81406087D01*
X149913929Y-81502813D01*
X150109000Y-81555082D01*
X150109000Y-80523000D01*
X150617000Y-80523000D01*
X150617000Y-81555082D01*
X150812070Y-81502813D01*
X151019498Y-81406087D01*
X151206981Y-81274810D01*
X151368810Y-81112981D01*
X151500087Y-80925498D01*
X151518805Y-80885359D01*
X151565300Y-80832342D01*
X151633000Y-80812609D01*
X151700700Y-80832342D01*
X151747195Y-80885359D01*
X151765912Y-80925498D01*
X151897189Y-81112981D01*
X152059018Y-81274810D01*
X152246501Y-81406087D01*
X152453929Y-81502813D01*
X152649000Y-81555082D01*
X152649000Y-80523000D01*
X150617000Y-80523000D01*
X150109000Y-80523000D01*
X149076918Y-80523000D01*
X143801759Y-80523000D01*
X144309759Y-80015000D01*
X149076917Y-80015000D01*
X150109000Y-80015000D01*
X150109000Y-78982917D01*
X150616999Y-78982917D01*
X150617000Y-78982918D01*
X150617000Y-80015000D01*
X152649000Y-80015000D01*
X152649000Y-78982917D01*
X153156999Y-78982917D01*
X153157000Y-78982918D01*
X153157000Y-81555082D01*
X153352070Y-81502813D01*
X153559498Y-81406087D01*
X153746981Y-81274810D01*
X153908810Y-81112981D01*
X154040087Y-80925498D01*
X154136813Y-80718070D01*
X154196048Y-80496999D01*
X154202171Y-80427009D01*
X154222294Y-80368944D01*
X154267488Y-80327303D01*
X154327003Y-80311991D01*
X154386682Y-80326651D01*
X154432329Y-80367795D01*
X154453085Y-80425637D01*
X154456975Y-80465132D01*
X154514185Y-80653725D01*
X154607089Y-80827537D01*
X154732116Y-80979883D01*
X154868414Y-81091740D01*
X154884462Y-81104910D01*
X155058273Y-81197814D01*
X155131961Y-81220167D01*
X155246867Y-81255024D01*
X155443000Y-81274341D01*
X155639132Y-81255024D01*
X155827727Y-81197814D01*
X156001538Y-81104910D01*
X156153883Y-80979883D01*
X156278910Y-80827538D01*
X156371814Y-80653727D01*
X156429024Y-80465132D01*
X156448341Y-80269000D01*
X156448341Y-80268999D01*
X156977658Y-80268999D01*
X156996975Y-80465132D01*
X157054185Y-80653725D01*
X157147089Y-80827537D01*
X157272116Y-80979883D01*
X157408414Y-81091740D01*
X157424462Y-81104910D01*
X157598273Y-81197814D01*
X157671961Y-81220167D01*
X157786867Y-81255024D01*
X157983000Y-81274341D01*
X158179132Y-81255024D01*
X158367727Y-81197814D01*
X158541538Y-81104910D01*
X158693883Y-80979883D01*
X158818910Y-80827538D01*
X158911814Y-80653727D01*
X158969024Y-80465132D01*
X158988341Y-80269000D01*
X158988341Y-80268999D01*
X159517658Y-80268999D01*
X159536975Y-80465132D01*
X159594185Y-80653725D01*
X159687089Y-80827537D01*
X159812116Y-80979883D01*
X159948414Y-81091740D01*
X159964462Y-81104910D01*
X160138273Y-81197814D01*
X160211961Y-81220167D01*
X160326867Y-81255024D01*
X160523000Y-81274341D01*
X160719132Y-81255024D01*
X160907727Y-81197814D01*
X161081538Y-81104910D01*
X161233883Y-80979883D01*
X161358910Y-80827538D01*
X161451814Y-80653727D01*
X161509024Y-80465132D01*
X161528341Y-80269000D01*
X161528341Y-80268999D01*
X162057658Y-80268999D01*
X162076975Y-80465132D01*
X162134185Y-80653725D01*
X162227089Y-80827537D01*
X162352116Y-80979883D01*
X162488414Y-81091740D01*
X162504462Y-81104910D01*
X162678273Y-81197814D01*
X162751961Y-81220167D01*
X162866867Y-81255024D01*
X163063000Y-81274341D01*
X163259132Y-81255024D01*
X163447727Y-81197814D01*
X163621538Y-81104910D01*
X163773883Y-80979883D01*
X163898910Y-80827538D01*
X163991814Y-80653727D01*
X164049024Y-80465132D01*
X164068341Y-80269000D01*
X164068341Y-80268999D01*
X164597658Y-80268999D01*
X164616975Y-80465132D01*
X164674185Y-80653725D01*
X164767089Y-80827537D01*
X164892116Y-80979883D01*
X165028414Y-81091740D01*
X165044462Y-81104910D01*
X165218273Y-81197814D01*
X165291961Y-81220167D01*
X165406867Y-81255024D01*
X165603000Y-81274341D01*
X165799132Y-81255024D01*
X165987727Y-81197814D01*
X166161538Y-81104910D01*
X166313883Y-80979883D01*
X166438910Y-80827538D01*
X166531814Y-80653727D01*
X166589024Y-80465132D01*
X166608341Y-80269000D01*
X166608341Y-80268999D01*
X167137658Y-80268999D01*
X167156975Y-80465132D01*
X167214185Y-80653725D01*
X167307089Y-80827537D01*
X167432116Y-80979883D01*
X167568414Y-81091740D01*
X167584462Y-81104910D01*
X167758273Y-81197814D01*
X167831961Y-81220167D01*
X167946867Y-81255024D01*
X168143000Y-81274341D01*
X168339132Y-81255024D01*
X168527727Y-81197814D01*
X168701538Y-81104910D01*
X168853883Y-80979883D01*
X168978910Y-80827538D01*
X169071814Y-80653727D01*
X169129024Y-80465132D01*
X169148341Y-80269000D01*
X169148341Y-80268999D01*
X169677658Y-80268999D01*
X169696975Y-80465132D01*
X169754185Y-80653725D01*
X169847089Y-80827537D01*
X169972116Y-80979883D01*
X170108414Y-81091740D01*
X170124462Y-81104910D01*
X170298273Y-81197814D01*
X170371961Y-81220167D01*
X170486867Y-81255024D01*
X170683000Y-81274341D01*
X170879132Y-81255024D01*
X171067727Y-81197814D01*
X171241538Y-81104910D01*
X171393883Y-80979883D01*
X171518910Y-80827538D01*
X171611814Y-80653727D01*
X171669024Y-80465132D01*
X171688341Y-80269000D01*
X171688341Y-80268999D01*
X172217658Y-80268999D01*
X172236975Y-80465132D01*
X172294185Y-80653725D01*
X172387089Y-80827537D01*
X172512116Y-80979883D01*
X172648414Y-81091740D01*
X172664462Y-81104910D01*
X172838273Y-81197814D01*
X172911961Y-81220167D01*
X173026867Y-81255024D01*
X173223000Y-81274341D01*
X173419132Y-81255024D01*
X173607727Y-81197814D01*
X173781538Y-81104910D01*
X173933883Y-80979883D01*
X174058910Y-80827538D01*
X174151814Y-80653727D01*
X174209024Y-80465132D01*
X174228341Y-80269000D01*
X174227006Y-80255450D01*
X174209024Y-80072867D01*
X174172083Y-79951090D01*
X174151814Y-79884273D01*
X174058910Y-79710462D01*
X174042331Y-79690260D01*
X173933883Y-79558116D01*
X173781537Y-79433089D01*
X173607725Y-79340185D01*
X173419132Y-79282975D01*
X173223000Y-79263658D01*
X173026867Y-79282975D01*
X172838274Y-79340185D01*
X172664462Y-79433089D01*
X172512116Y-79558116D01*
X172387089Y-79710462D01*
X172294185Y-79884274D01*
X172236975Y-80072867D01*
X172217658Y-80268999D01*
X171688341Y-80268999D01*
X171687006Y-80255450D01*
X171669024Y-80072867D01*
X171632083Y-79951090D01*
X171611814Y-79884273D01*
X171518910Y-79710462D01*
X171502331Y-79690260D01*
X171393883Y-79558116D01*
X171241537Y-79433089D01*
X171067725Y-79340185D01*
X170879132Y-79282975D01*
X170683000Y-79263658D01*
X170486867Y-79282975D01*
X170298274Y-79340185D01*
X170124462Y-79433089D01*
X169972116Y-79558116D01*
X169847089Y-79710462D01*
X169754185Y-79884274D01*
X169696975Y-80072867D01*
X169677658Y-80268999D01*
X169148341Y-80268999D01*
X169147006Y-80255450D01*
X169129024Y-80072867D01*
X169092083Y-79951090D01*
X169071814Y-79884273D01*
X168978910Y-79710462D01*
X168962331Y-79690260D01*
X168853883Y-79558116D01*
X168701537Y-79433089D01*
X168527725Y-79340185D01*
X168339132Y-79282975D01*
X168143000Y-79263658D01*
X167946867Y-79282975D01*
X167758274Y-79340185D01*
X167584462Y-79433089D01*
X167432116Y-79558116D01*
X167307089Y-79710462D01*
X167214185Y-79884274D01*
X167156975Y-80072867D01*
X167137658Y-80268999D01*
X166608341Y-80268999D01*
X166607006Y-80255450D01*
X166589024Y-80072867D01*
X166552083Y-79951090D01*
X166531814Y-79884273D01*
X166438910Y-79710462D01*
X166422331Y-79690260D01*
X166313883Y-79558116D01*
X166161537Y-79433089D01*
X165987725Y-79340185D01*
X165799132Y-79282975D01*
X165603000Y-79263658D01*
X165406867Y-79282975D01*
X165218274Y-79340185D01*
X165044462Y-79433089D01*
X164892116Y-79558116D01*
X164767089Y-79710462D01*
X164674185Y-79884274D01*
X164616975Y-80072867D01*
X164597658Y-80268999D01*
X164068341Y-80268999D01*
X164067006Y-80255450D01*
X164049024Y-80072867D01*
X164012083Y-79951090D01*
X163991814Y-79884273D01*
X163898910Y-79710462D01*
X163882331Y-79690260D01*
X163773883Y-79558116D01*
X163621537Y-79433089D01*
X163447725Y-79340185D01*
X163259132Y-79282975D01*
X163063000Y-79263658D01*
X162866867Y-79282975D01*
X162678274Y-79340185D01*
X162504462Y-79433089D01*
X162352116Y-79558116D01*
X162227089Y-79710462D01*
X162134185Y-79884274D01*
X162076975Y-80072867D01*
X162057658Y-80268999D01*
X161528341Y-80268999D01*
X161527006Y-80255450D01*
X161509024Y-80072867D01*
X161472083Y-79951090D01*
X161451814Y-79884273D01*
X161358910Y-79710462D01*
X161342331Y-79690260D01*
X161233883Y-79558116D01*
X161081537Y-79433089D01*
X160907725Y-79340185D01*
X160719132Y-79282975D01*
X160523000Y-79263658D01*
X160326867Y-79282975D01*
X160138274Y-79340185D01*
X159964462Y-79433089D01*
X159812116Y-79558116D01*
X159687089Y-79710462D01*
X159594185Y-79884274D01*
X159536975Y-80072867D01*
X159517658Y-80268999D01*
X158988341Y-80268999D01*
X158987006Y-80255450D01*
X158969024Y-80072867D01*
X158932083Y-79951090D01*
X158911814Y-79884273D01*
X158818910Y-79710462D01*
X158802331Y-79690260D01*
X158693883Y-79558116D01*
X158541537Y-79433089D01*
X158367725Y-79340185D01*
X158179132Y-79282975D01*
X157983000Y-79263658D01*
X157786867Y-79282975D01*
X157598274Y-79340185D01*
X157424462Y-79433089D01*
X157272116Y-79558116D01*
X157147089Y-79710462D01*
X157054185Y-79884274D01*
X156996975Y-80072867D01*
X156977658Y-80268999D01*
X156448341Y-80268999D01*
X156447006Y-80255450D01*
X156429024Y-80072867D01*
X156392083Y-79951090D01*
X156371814Y-79884273D01*
X156278910Y-79710462D01*
X156262331Y-79690260D01*
X156153883Y-79558116D01*
X156001537Y-79433089D01*
X155827725Y-79340185D01*
X155639132Y-79282975D01*
X155443000Y-79263658D01*
X155246867Y-79282975D01*
X155058274Y-79340185D01*
X154884462Y-79433089D01*
X154732116Y-79558116D01*
X154607089Y-79710462D01*
X154514185Y-79884274D01*
X154456975Y-80072867D01*
X154453085Y-80112363D01*
X154432328Y-80170204D01*
X154386682Y-80211348D01*
X154327003Y-80226008D01*
X154267488Y-80210696D01*
X154222294Y-80169055D01*
X154202171Y-80110990D01*
X154196048Y-80041000D01*
X154136813Y-79819929D01*
X154040087Y-79612501D01*
X153908810Y-79425018D01*
X153746981Y-79263189D01*
X153559498Y-79131912D01*
X153352070Y-79035186D01*
X153156999Y-78982917D01*
X152649000Y-78982917D01*
X152453929Y-79035186D01*
X152246501Y-79131912D01*
X152059018Y-79263189D01*
X151897189Y-79425018D01*
X151765912Y-79612501D01*
X151747195Y-79652641D01*
X151700700Y-79705658D01*
X151633000Y-79725391D01*
X151565300Y-79705658D01*
X151518805Y-79652641D01*
X151500087Y-79612501D01*
X151368810Y-79425018D01*
X151206981Y-79263189D01*
X151019498Y-79131912D01*
X150812070Y-79035186D01*
X150616999Y-78982917D01*
X150109000Y-78982917D01*
X149913929Y-79035186D01*
X149706501Y-79131912D01*
X149519018Y-79263189D01*
X149357189Y-79425018D01*
X149225912Y-79612501D01*
X149129186Y-79819929D01*
X149076917Y-80015000D01*
X144309759Y-80015000D01*
X146871354Y-77453405D01*
X146912232Y-77426091D01*
X146960450Y-77416500D01*
X179083550Y-77416500D01*
X179131768Y-77426091D01*
X179172645Y-77453405D01*
X181372595Y-79653355D01*
X181399909Y-79694232D01*
X181409500Y-79742450D01*
X181409500Y-89167550D01*
X181399909Y-89215768D01*
X181372595Y-89256645D01*
X176125420Y-94503818D01*
X176066940Y-94536947D01*
X175999748Y-94535297D01*
X175984593Y-94530699D01*
X175959130Y-94522975D01*
X175763000Y-94503658D01*
X175566867Y-94522975D01*
X175378274Y-94580185D01*
X175204462Y-94673089D01*
X175052116Y-94798116D01*
X174927089Y-94950462D01*
X174834185Y-95124274D01*
X174776975Y-95312867D01*
X174757658Y-95509000D01*
X174776975Y-95705132D01*
X174834185Y-95893725D01*
X174927089Y-96067537D01*
X175052116Y-96219883D01*
X175168466Y-96315369D01*
X175204462Y-96344910D01*
X175378273Y-96437814D01*
X175453978Y-96460779D01*
X175566867Y-96495024D01*
X175762999Y-96514341D01*
X175762999Y-96514340D01*
X175763000Y-96514341D01*
X175959132Y-96495024D01*
X176147727Y-96437814D01*
X176321538Y-96344910D01*
X176473883Y-96219883D01*
X176598910Y-96067538D01*
X176691814Y-95893727D01*
X176749024Y-95705132D01*
X176768341Y-95509000D01*
X176749024Y-95312868D01*
X176736701Y-95272248D01*
X176735052Y-95205057D01*
X176768179Y-95146579D01*
X182162332Y-89752427D01*
X182172862Y-89743018D01*
X182200936Y-89720631D01*
X182233460Y-89672925D01*
X182236080Y-89669232D01*
X182270369Y-89622773D01*
X182270370Y-89622767D01*
X182274044Y-89617791D01*
X182276294Y-89613335D01*
X182295111Y-89552327D01*
X182296577Y-89547869D01*
X182315621Y-89493451D01*
X182315621Y-89493447D01*
X182317660Y-89487621D01*
X182318500Y-89482683D01*
X182318500Y-89418868D01*
X182318588Y-89414157D01*
X182319379Y-89393024D01*
X182320744Y-89356537D01*
X182320743Y-89356534D01*
X182320974Y-89350371D01*
X182318500Y-89331574D01*
X182318500Y-79534607D01*
X182319292Y-79520500D01*
X182319640Y-79517403D01*
X182323313Y-79484813D01*
X182312594Y-79428165D01*
X182311804Y-79423516D01*
X182302292Y-79360405D01*
X182300730Y-79355657D01*
X182270897Y-79299213D01*
X182268798Y-79295057D01*
X182243767Y-79243079D01*
X182243765Y-79243077D01*
X182241085Y-79237511D01*
X182238188Y-79233428D01*
X182223812Y-79219052D01*
X182193050Y-79188290D01*
X182189808Y-79184925D01*
X182181354Y-79175814D01*
X182150577Y-79142644D01*
X182150574Y-79142642D01*
X182146379Y-79138121D01*
X182131338Y-79126578D01*
X179668434Y-76663673D01*
X179659018Y-76653137D01*
X179647887Y-76639179D01*
X179636631Y-76625064D01*
X179616179Y-76611120D01*
X179588983Y-76592577D01*
X179585143Y-76589852D01*
X179533812Y-76551969D01*
X179529317Y-76549700D01*
X179468341Y-76530892D01*
X179463863Y-76529419D01*
X179460262Y-76528159D01*
X179420345Y-76514191D01*
X179403639Y-76508345D01*
X179398663Y-76507500D01*
X179392505Y-76507500D01*
X179334868Y-76507500D01*
X179330157Y-76507412D01*
X179266371Y-76505025D01*
X179247574Y-76507500D01*
X146752607Y-76507500D01*
X146738500Y-76506708D01*
X146702810Y-76502686D01*
X146646179Y-76513402D01*
X146641536Y-76514191D01*
X146578425Y-76523704D01*
X146573644Y-76525277D01*
X146517210Y-76555103D01*
X146513007Y-76557224D01*
X146455530Y-76584904D01*
X146451415Y-76587823D01*
X146406301Y-76632937D01*
X146402911Y-76636202D01*
X146356123Y-76679616D01*
X146344581Y-76694657D01*
X122799819Y-100239418D01*
X122741341Y-100272547D01*
X122674151Y-100270898D01*
X122633935Y-100258699D01*
X122428000Y-100238416D01*
X122222070Y-100258699D01*
X122222067Y-100258699D01*
X122222066Y-100258700D01*
X122040882Y-100313661D01*
X122024043Y-100318769D01*
X121841550Y-100416314D01*
X121681589Y-100547589D01*
X121550314Y-100707550D01*
X121452769Y-100890043D01*
X121452769Y-100890044D01*
X121452768Y-100890046D01*
X121392701Y-101088065D01*
X121392699Y-101088070D01*
X121372416Y-101294000D01*
X120943583Y-101294000D01*
X120923300Y-101088066D01*
X120863232Y-100890046D01*
X120765685Y-100707550D01*
X120681055Y-100604427D01*
X120634410Y-100547589D01*
X120474449Y-100416314D01*
X120291956Y-100318769D01*
X120291955Y-100318768D01*
X120291954Y-100318768D01*
X120093934Y-100258700D01*
X120093931Y-100258699D01*
X120093929Y-100258699D01*
X119888000Y-100238416D01*
X119682070Y-100258699D01*
X119682067Y-100258699D01*
X119682066Y-100258700D01*
X119500882Y-100313661D01*
X119484043Y-100318769D01*
X119301550Y-100416314D01*
X119141589Y-100547589D01*
X119010314Y-100707550D01*
X118912769Y-100890043D01*
X118912769Y-100890044D01*
X118912768Y-100890046D01*
X118852701Y-101088065D01*
X118852699Y-101088070D01*
X118832416Y-101294000D01*
X118403583Y-101294000D01*
X118383300Y-101088066D01*
X118323232Y-100890046D01*
X118225685Y-100707550D01*
X118141055Y-100604427D01*
X118094410Y-100547589D01*
X117934449Y-100416314D01*
X117751956Y-100318769D01*
X117751955Y-100318768D01*
X117751954Y-100318768D01*
X117553934Y-100258700D01*
X117553931Y-100258699D01*
X117553929Y-100258699D01*
X117348000Y-100238416D01*
X117142070Y-100258699D01*
X117142067Y-100258699D01*
X117142066Y-100258700D01*
X116960882Y-100313661D01*
X116944043Y-100318769D01*
X116761550Y-100416314D01*
X116601589Y-100547589D01*
X116470314Y-100707550D01*
X116372769Y-100890043D01*
X116372769Y-100890044D01*
X116372768Y-100890046D01*
X116312701Y-101088065D01*
X116312699Y-101088070D01*
X116292416Y-101294000D01*
X115863583Y-101294000D01*
X115843300Y-101088066D01*
X115783232Y-100890046D01*
X115685685Y-100707550D01*
X115601055Y-100604427D01*
X115554410Y-100547589D01*
X115394449Y-100416314D01*
X115211956Y-100318769D01*
X115211955Y-100318768D01*
X115211954Y-100318768D01*
X115013934Y-100258700D01*
X115013931Y-100258699D01*
X115013929Y-100258699D01*
X114808000Y-100238416D01*
X114602070Y-100258699D01*
X114602067Y-100258699D01*
X114602066Y-100258700D01*
X114420882Y-100313661D01*
X114404043Y-100318769D01*
X114221550Y-100416314D01*
X114061589Y-100547589D01*
X113930314Y-100707550D01*
X113832769Y-100890043D01*
X113832769Y-100890044D01*
X113832768Y-100890046D01*
X113772701Y-101088065D01*
X113772699Y-101088070D01*
X113752416Y-101294000D01*
X113323583Y-101294000D01*
X113303300Y-101088066D01*
X113243232Y-100890046D01*
X113145685Y-100707550D01*
X113061055Y-100604427D01*
X113014410Y-100547589D01*
X112854449Y-100416314D01*
X112671956Y-100318769D01*
X112671955Y-100318768D01*
X112671954Y-100318768D01*
X112473934Y-100258700D01*
X112473931Y-100258699D01*
X112473929Y-100258699D01*
X112268000Y-100238416D01*
X112062070Y-100258699D01*
X112062067Y-100258699D01*
X112062066Y-100258700D01*
X111880882Y-100313661D01*
X111864043Y-100318769D01*
X111681550Y-100416314D01*
X111521589Y-100547589D01*
X111390314Y-100707550D01*
X111292769Y-100890043D01*
X111292769Y-100890044D01*
X111292768Y-100890046D01*
X111232701Y-101088065D01*
X111232699Y-101088070D01*
X111212416Y-101294000D01*
X110783583Y-101294000D01*
X110763300Y-101088066D01*
X110703232Y-100890046D01*
X110605685Y-100707550D01*
X110521055Y-100604427D01*
X110474410Y-100547589D01*
X110314449Y-100416314D01*
X110131956Y-100318769D01*
X110131955Y-100318768D01*
X110131954Y-100318768D01*
X109933934Y-100258700D01*
X109933931Y-100258699D01*
X109933929Y-100258699D01*
X109728000Y-100238416D01*
X109522066Y-100258699D01*
X109420467Y-100289518D01*
X109353277Y-100291167D01*
X109294798Y-100258038D01*
X107094093Y-98057333D01*
X104885405Y-95848644D01*
X104858091Y-95807767D01*
X104848500Y-95759549D01*
X104848500Y-88407000D01*
X106446658Y-88407000D01*
X106465975Y-88603132D01*
X106523185Y-88791725D01*
X106616089Y-88965537D01*
X106741116Y-89117883D01*
X106865229Y-89219740D01*
X106893462Y-89242910D01*
X107067273Y-89335814D01*
X107107979Y-89348162D01*
X107255867Y-89393024D01*
X107452000Y-89412341D01*
X107648132Y-89393024D01*
X107836727Y-89335814D01*
X108010538Y-89242910D01*
X108162883Y-89117883D01*
X108287910Y-88965538D01*
X108380814Y-88791727D01*
X108438024Y-88603132D01*
X108457341Y-88407000D01*
X108444734Y-88279000D01*
X108438024Y-88210867D01*
X108391934Y-88058930D01*
X108380814Y-88022273D01*
X108287910Y-87848462D01*
X108222500Y-87768760D01*
X108162883Y-87696116D01*
X108010537Y-87571089D01*
X107836725Y-87478185D01*
X107648132Y-87420975D01*
X107451999Y-87401658D01*
X107255867Y-87420975D01*
X107067274Y-87478185D01*
X106893462Y-87571089D01*
X106741116Y-87696116D01*
X106616089Y-87848462D01*
X106523185Y-88022274D01*
X106465975Y-88210867D01*
X106446658Y-88407000D01*
X104848500Y-88407000D01*
X104848500Y-85866999D01*
X106446658Y-85866999D01*
X106465975Y-86063132D01*
X106523185Y-86251725D01*
X106616089Y-86425537D01*
X106741116Y-86577883D01*
X106805346Y-86630595D01*
X106893462Y-86702910D01*
X107067273Y-86795814D01*
X107161570Y-86824418D01*
X107255867Y-86853024D01*
X107452000Y-86872341D01*
X107648132Y-86853024D01*
X107836727Y-86795814D01*
X108010538Y-86702910D01*
X108162883Y-86577883D01*
X108287910Y-86425538D01*
X108380814Y-86251727D01*
X108438024Y-86063132D01*
X108457341Y-85867000D01*
X108438024Y-85670868D01*
X108380814Y-85482273D01*
X108287910Y-85308462D01*
X108222500Y-85228760D01*
X108162883Y-85156116D01*
X108010537Y-85031089D01*
X107836725Y-84938185D01*
X107648132Y-84880975D01*
X107452000Y-84861658D01*
X107255867Y-84880975D01*
X107067274Y-84938185D01*
X106893462Y-85031089D01*
X106741116Y-85156116D01*
X106616089Y-85308462D01*
X106523185Y-85482274D01*
X106465975Y-85670867D01*
X106446658Y-85866999D01*
X104848500Y-85866999D01*
X104848500Y-83326999D01*
X106446658Y-83326999D01*
X106465975Y-83523132D01*
X106523185Y-83711725D01*
X106616089Y-83885537D01*
X106741116Y-84037883D01*
X106893462Y-84162910D01*
X107067273Y-84255814D01*
X107161570Y-84284419D01*
X107255867Y-84313024D01*
X107452000Y-84332341D01*
X107648132Y-84313024D01*
X107836727Y-84255814D01*
X108010538Y-84162910D01*
X108162883Y-84037883D01*
X108287910Y-83885538D01*
X108380814Y-83711727D01*
X108438024Y-83523132D01*
X108457341Y-83327000D01*
X108438529Y-83136000D01*
X108438024Y-83130867D01*
X108380814Y-82942274D01*
X108380814Y-82942273D01*
X108287910Y-82768462D01*
X108162883Y-82616116D01*
X108010537Y-82491089D01*
X107836725Y-82398185D01*
X107648132Y-82340975D01*
X107452000Y-82321658D01*
X107255867Y-82340975D01*
X107067274Y-82398185D01*
X106893462Y-82491089D01*
X106741116Y-82616116D01*
X106616089Y-82768462D01*
X106523185Y-82942274D01*
X106465975Y-83130867D01*
X106446658Y-83326999D01*
X104848500Y-83326999D01*
X104848500Y-80787000D01*
X106446658Y-80787000D01*
X106465975Y-80983132D01*
X106523185Y-81171725D01*
X106616089Y-81345537D01*
X106741116Y-81497883D01*
X106856566Y-81592630D01*
X106893462Y-81622910D01*
X107067273Y-81715814D01*
X107161570Y-81744418D01*
X107255867Y-81773024D01*
X107452000Y-81792341D01*
X107648132Y-81773024D01*
X107836727Y-81715814D01*
X108010538Y-81622910D01*
X108162883Y-81497883D01*
X108287910Y-81345538D01*
X108380814Y-81171727D01*
X108438024Y-80983132D01*
X108457341Y-80787000D01*
X108438024Y-80590868D01*
X108434126Y-80578019D01*
X108399882Y-80465132D01*
X108380814Y-80402273D01*
X108287910Y-80228462D01*
X108222500Y-80148760D01*
X108162883Y-80076116D01*
X108010537Y-79951089D01*
X107836725Y-79858185D01*
X107648132Y-79800975D01*
X107452000Y-79781658D01*
X107255867Y-79800975D01*
X107067274Y-79858185D01*
X106893462Y-79951089D01*
X106741116Y-80076116D01*
X106616089Y-80228462D01*
X106523185Y-80402274D01*
X106465975Y-80590867D01*
X106446658Y-80787000D01*
X104848500Y-80787000D01*
X104848500Y-78246999D01*
X106446658Y-78246999D01*
X106465975Y-78443132D01*
X106523185Y-78631725D01*
X106616089Y-78805537D01*
X106741116Y-78957883D01*
X106835310Y-79035186D01*
X106893462Y-79082910D01*
X107067273Y-79175814D01*
X107142978Y-79198779D01*
X107255867Y-79233024D01*
X107452000Y-79252341D01*
X107648132Y-79233024D01*
X107836727Y-79175814D01*
X108010538Y-79082910D01*
X108162883Y-78957883D01*
X108287910Y-78805538D01*
X108380814Y-78631727D01*
X108438024Y-78443132D01*
X108457341Y-78247000D01*
X108455871Y-78232079D01*
X108438024Y-78050867D01*
X108404588Y-77940645D01*
X108380814Y-77862273D01*
X108287910Y-77688462D01*
X108287909Y-77688461D01*
X108162883Y-77536116D01*
X108010537Y-77411089D01*
X107836725Y-77318185D01*
X107648132Y-77260975D01*
X107452000Y-77241658D01*
X107255867Y-77260975D01*
X107067274Y-77318185D01*
X106893462Y-77411089D01*
X106741116Y-77536116D01*
X106616089Y-77688462D01*
X106523185Y-77862274D01*
X106465975Y-78050867D01*
X106446658Y-78246999D01*
X104848500Y-78246999D01*
X104848500Y-75707000D01*
X106446658Y-75707000D01*
X106465975Y-75903132D01*
X106523185Y-76091725D01*
X106616089Y-76265537D01*
X106741116Y-76417883D01*
X106871976Y-76525277D01*
X106893462Y-76542910D01*
X107067273Y-76635814D01*
X107124379Y-76653137D01*
X107255867Y-76693024D01*
X107452000Y-76712341D01*
X107648132Y-76693024D01*
X107836727Y-76635814D01*
X108010538Y-76542910D01*
X108162883Y-76417883D01*
X108287910Y-76265538D01*
X108380814Y-76091727D01*
X108438024Y-75903132D01*
X108457341Y-75707000D01*
X108438024Y-75510868D01*
X108380814Y-75322273D01*
X108287910Y-75148462D01*
X108234715Y-75083644D01*
X108162883Y-74996116D01*
X108010537Y-74871089D01*
X107847131Y-74783747D01*
X146772500Y-74783747D01*
X146784133Y-74842231D01*
X146828447Y-74908552D01*
X146860665Y-74930079D01*
X146894769Y-74952867D01*
X146953252Y-74964500D01*
X148692747Y-74964500D01*
X148692748Y-74964500D01*
X148751231Y-74952867D01*
X148817552Y-74908552D01*
X148861867Y-74842231D01*
X148873500Y-74783748D01*
X148873500Y-74499873D01*
X148891796Y-74434483D01*
X148941371Y-74388083D01*
X149007827Y-74374148D01*
X149071865Y-74396726D01*
X149114887Y-74449259D01*
X149164580Y-74562548D01*
X149287678Y-74750962D01*
X149440096Y-74916533D01*
X149617697Y-75054766D01*
X149815631Y-75161883D01*
X150028485Y-75234955D01*
X150109000Y-75248391D01*
X150109000Y-74168000D01*
X150617000Y-74168000D01*
X150617000Y-75248391D01*
X150697514Y-75234955D01*
X150910368Y-75161883D01*
X151108302Y-75054766D01*
X151285903Y-74916533D01*
X151438321Y-74750962D01*
X151561419Y-74562548D01*
X151651822Y-74356451D01*
X151699544Y-74168000D01*
X150617000Y-74168000D01*
X150109000Y-74168000D01*
X150109000Y-72579609D01*
X150617000Y-72579609D01*
X150617000Y-73660000D01*
X151699544Y-73660000D01*
X151699544Y-73659999D01*
X155204658Y-73659999D01*
X155223975Y-73856132D01*
X155281185Y-74044725D01*
X155374089Y-74218537D01*
X155499116Y-74370883D01*
X155576613Y-74434483D01*
X155651462Y-74495910D01*
X155825273Y-74588814D01*
X155919570Y-74617419D01*
X156013867Y-74646024D01*
X156210000Y-74665341D01*
X156406132Y-74646024D01*
X156594727Y-74588814D01*
X156768538Y-74495910D01*
X156920883Y-74370883D01*
X157045910Y-74218538D01*
X157138814Y-74044727D01*
X157196024Y-73856132D01*
X157215341Y-73660000D01*
X157215341Y-73659999D01*
X158506658Y-73659999D01*
X158525975Y-73856132D01*
X158583185Y-74044725D01*
X158676089Y-74218537D01*
X158801116Y-74370883D01*
X158878613Y-74434483D01*
X158953462Y-74495910D01*
X159127273Y-74588814D01*
X159221570Y-74617419D01*
X159315867Y-74646024D01*
X159512000Y-74665341D01*
X159708132Y-74646024D01*
X159896727Y-74588814D01*
X160070538Y-74495910D01*
X160222883Y-74370883D01*
X160347910Y-74218538D01*
X160440814Y-74044727D01*
X160498024Y-73856132D01*
X160517341Y-73660000D01*
X160517341Y-73659999D01*
X161808658Y-73659999D01*
X161827975Y-73856132D01*
X161885185Y-74044725D01*
X161978089Y-74218537D01*
X162103116Y-74370883D01*
X162180613Y-74434483D01*
X162255462Y-74495910D01*
X162429273Y-74588814D01*
X162523570Y-74617419D01*
X162617867Y-74646024D01*
X162814000Y-74665341D01*
X163010132Y-74646024D01*
X163198727Y-74588814D01*
X163372538Y-74495910D01*
X163524883Y-74370883D01*
X163649910Y-74218538D01*
X163742814Y-74044727D01*
X163800024Y-73856132D01*
X163819341Y-73660000D01*
X163800780Y-73471548D01*
X163800024Y-73463867D01*
X163742814Y-73275274D01*
X163742814Y-73275273D01*
X163649910Y-73101462D01*
X163542734Y-72970868D01*
X163524883Y-72949116D01*
X163372537Y-72824089D01*
X163198725Y-72731185D01*
X163010132Y-72673975D01*
X162814000Y-72654658D01*
X162617867Y-72673975D01*
X162429274Y-72731185D01*
X162255462Y-72824089D01*
X162103116Y-72949116D01*
X161978089Y-73101462D01*
X161885185Y-73275274D01*
X161827975Y-73463867D01*
X161808658Y-73659999D01*
X160517341Y-73659999D01*
X160498780Y-73471548D01*
X160498024Y-73463867D01*
X160440814Y-73275274D01*
X160440814Y-73275273D01*
X160347910Y-73101462D01*
X160240734Y-72970868D01*
X160222883Y-72949116D01*
X160070537Y-72824089D01*
X159896725Y-72731185D01*
X159708132Y-72673975D01*
X159512000Y-72654658D01*
X159315867Y-72673975D01*
X159127274Y-72731185D01*
X158953462Y-72824089D01*
X158801116Y-72949116D01*
X158676089Y-73101462D01*
X158583185Y-73275274D01*
X158525975Y-73463867D01*
X158506658Y-73659999D01*
X157215341Y-73659999D01*
X157196780Y-73471548D01*
X157196024Y-73463867D01*
X157138814Y-73275274D01*
X157138814Y-73275273D01*
X157045910Y-73101462D01*
X156938734Y-72970868D01*
X156920883Y-72949116D01*
X156768537Y-72824089D01*
X156594725Y-72731185D01*
X156406132Y-72673975D01*
X156210000Y-72654658D01*
X156013867Y-72673975D01*
X155825274Y-72731185D01*
X155651462Y-72824089D01*
X155499116Y-72949116D01*
X155374089Y-73101462D01*
X155281185Y-73275274D01*
X155223975Y-73463867D01*
X155204658Y-73659999D01*
X151699544Y-73659999D01*
X151651822Y-73471548D01*
X151561419Y-73265451D01*
X151438321Y-73077037D01*
X151285903Y-72911466D01*
X151108302Y-72773233D01*
X150910368Y-72666116D01*
X150697514Y-72593044D01*
X150617000Y-72579609D01*
X150109000Y-72579609D01*
X150028485Y-72593044D01*
X149815631Y-72666116D01*
X149617697Y-72773233D01*
X149440096Y-72911466D01*
X149287678Y-73077037D01*
X149164580Y-73265451D01*
X149114887Y-73378741D01*
X149071865Y-73431274D01*
X149007827Y-73453852D01*
X148941371Y-73439917D01*
X148891796Y-73393517D01*
X148873500Y-73328127D01*
X148873500Y-73044253D01*
X148873500Y-73044252D01*
X148861867Y-72985769D01*
X148837376Y-72949116D01*
X148817552Y-72919447D01*
X148751231Y-72875133D01*
X148751230Y-72875132D01*
X148692748Y-72863500D01*
X146953252Y-72863500D01*
X146924010Y-72869316D01*
X146894768Y-72875133D01*
X146828447Y-72919447D01*
X146784133Y-72985768D01*
X146772500Y-73044253D01*
X146772500Y-74783747D01*
X107847131Y-74783747D01*
X107836725Y-74778185D01*
X107648132Y-74720975D01*
X107452000Y-74701658D01*
X107255867Y-74720975D01*
X107067274Y-74778185D01*
X106893462Y-74871089D01*
X106741116Y-74996116D01*
X106616089Y-75148462D01*
X106523185Y-75322274D01*
X106465975Y-75510867D01*
X106446658Y-75707000D01*
X104848500Y-75707000D01*
X104848500Y-75221607D01*
X104849292Y-75207500D01*
X104849559Y-75205129D01*
X104853313Y-75171814D01*
X104842597Y-75115179D01*
X104841807Y-75110534D01*
X104833214Y-75053521D01*
X104833211Y-75053516D01*
X104832290Y-75047401D01*
X104830729Y-75042656D01*
X104800897Y-74986213D01*
X104798798Y-74982057D01*
X104773767Y-74930079D01*
X104773765Y-74930077D01*
X104771085Y-74924511D01*
X104768188Y-74920428D01*
X104756312Y-74908552D01*
X104723050Y-74875290D01*
X104719808Y-74871925D01*
X104719032Y-74871089D01*
X104680577Y-74829644D01*
X104680574Y-74829642D01*
X104676379Y-74825121D01*
X104661338Y-74813578D01*
X103014759Y-73166999D01*
X106446658Y-73166999D01*
X106465975Y-73363132D01*
X106523185Y-73551725D01*
X106616089Y-73725537D01*
X106741116Y-73877883D01*
X106873767Y-73986747D01*
X106893462Y-74002910D01*
X107067273Y-74095814D01*
X107119154Y-74111552D01*
X107255867Y-74153024D01*
X107452000Y-74172341D01*
X107648132Y-74153024D01*
X107836727Y-74095814D01*
X108010538Y-74002910D01*
X108162883Y-73877883D01*
X108287910Y-73725538D01*
X108380814Y-73551727D01*
X108438024Y-73363132D01*
X108457341Y-73167000D01*
X108439491Y-72985768D01*
X108438024Y-72970867D01*
X108380814Y-72782274D01*
X108380814Y-72782273D01*
X108287910Y-72608462D01*
X108264231Y-72579609D01*
X108162883Y-72456116D01*
X108010537Y-72331089D01*
X107836725Y-72238185D01*
X107648132Y-72180975D01*
X107452000Y-72161658D01*
X107255867Y-72180975D01*
X107067274Y-72238185D01*
X106893462Y-72331089D01*
X106741116Y-72456116D01*
X106616089Y-72608462D01*
X106523185Y-72782274D01*
X106465975Y-72970867D01*
X106446658Y-73166999D01*
X103014759Y-73166999D01*
X100869405Y-71021644D01*
X100842091Y-70980767D01*
X100832500Y-70932549D01*
X100832500Y-69807253D01*
X100829285Y-69791089D01*
X100820867Y-69748769D01*
X100787068Y-69698186D01*
X100776552Y-69682447D01*
X100710231Y-69638133D01*
X100651748Y-69626500D01*
X99012252Y-69626500D01*
X98983010Y-69632316D01*
X98953768Y-69638133D01*
X98887447Y-69682447D01*
X98843133Y-69748768D01*
X98831500Y-69807253D01*
X98831500Y-71446747D01*
X98843133Y-71505231D01*
X98887447Y-71571552D01*
X98931762Y-71601162D01*
X98953769Y-71615867D01*
X99012252Y-71627500D01*
X100137550Y-71627500D01*
X100185768Y-71637091D01*
X100226645Y-71664405D01*
X103902595Y-75340355D01*
X103929909Y-75381232D01*
X103939500Y-75429450D01*
X103939500Y-76327550D01*
X103925767Y-76384753D01*
X103887561Y-76429486D01*
X103833211Y-76451999D01*
X103774564Y-76447383D01*
X103724405Y-76416645D01*
X100837181Y-73529421D01*
X100804052Y-73470940D01*
X100805701Y-73403751D01*
X100818024Y-73363132D01*
X100837341Y-73167000D01*
X100819492Y-72985769D01*
X100818024Y-72970867D01*
X100760814Y-72782274D01*
X100760814Y-72782273D01*
X100667910Y-72608462D01*
X100644231Y-72579609D01*
X100542883Y-72456116D01*
X100390537Y-72331089D01*
X100216725Y-72238185D01*
X100028132Y-72180975D01*
X99832000Y-72161658D01*
X99635867Y-72180975D01*
X99447274Y-72238185D01*
X99273462Y-72331089D01*
X99121116Y-72456116D01*
X98996089Y-72608462D01*
X98903185Y-72782274D01*
X98845975Y-72970867D01*
X98826658Y-73166999D01*
X98845975Y-73363132D01*
X98903185Y-73551725D01*
X98996089Y-73725537D01*
X99121116Y-73877883D01*
X99253767Y-73986747D01*
X99273462Y-74002910D01*
X99447273Y-74095814D01*
X99499154Y-74111552D01*
X99635867Y-74153024D01*
X99832000Y-74172341D01*
X100028132Y-74153024D01*
X100068751Y-74140701D01*
X100135940Y-74139052D01*
X100194421Y-74172181D01*
X103086595Y-77064355D01*
X103113909Y-77105232D01*
X103123500Y-77153450D01*
X103123500Y-78048700D01*
X103109336Y-78106741D01*
X103070028Y-78151733D01*
X103014414Y-78173560D01*
X102954997Y-78167315D01*
X102905136Y-78134402D01*
X102898382Y-78127123D01*
X102883338Y-78115578D01*
X100837181Y-76069421D01*
X100804052Y-76010940D01*
X100805701Y-75943751D01*
X100818024Y-75903132D01*
X100837341Y-75707000D01*
X100818024Y-75510868D01*
X100760814Y-75322273D01*
X100667910Y-75148462D01*
X100614715Y-75083644D01*
X100542883Y-74996116D01*
X100390537Y-74871089D01*
X100216725Y-74778185D01*
X100028132Y-74720975D01*
X99832000Y-74701658D01*
X99635867Y-74720975D01*
X99447274Y-74778185D01*
X99273462Y-74871089D01*
X99121116Y-74996116D01*
X98996089Y-75148462D01*
X98903185Y-75322274D01*
X98845975Y-75510867D01*
X98826658Y-75707000D01*
X98845975Y-75903132D01*
X98903185Y-76091725D01*
X98996089Y-76265537D01*
X99121116Y-76417883D01*
X99251976Y-76525277D01*
X99273462Y-76542910D01*
X99447273Y-76635814D01*
X99504379Y-76653137D01*
X99635867Y-76693024D01*
X99832000Y-76712341D01*
X100028132Y-76693024D01*
X100068751Y-76680701D01*
X100135940Y-76679052D01*
X100194421Y-76712181D01*
X102124595Y-78642355D01*
X102151909Y-78683232D01*
X102161500Y-78731450D01*
X102161500Y-79629550D01*
X102147767Y-79686753D01*
X102109561Y-79731486D01*
X102055211Y-79753999D01*
X101996564Y-79749383D01*
X101946405Y-79718645D01*
X101929076Y-79701316D01*
X101925807Y-79697924D01*
X101913675Y-79684849D01*
X101886577Y-79655644D01*
X101886574Y-79655642D01*
X101882379Y-79651121D01*
X101867338Y-79639578D01*
X100837181Y-78609421D01*
X100804052Y-78550940D01*
X100805701Y-78483751D01*
X100818024Y-78443132D01*
X100837341Y-78247000D01*
X100824496Y-78116577D01*
X100818024Y-78050867D01*
X100784588Y-77940645D01*
X100760814Y-77862273D01*
X100667910Y-77688462D01*
X100667909Y-77688461D01*
X100542883Y-77536116D01*
X100390537Y-77411089D01*
X100216725Y-77318185D01*
X100028132Y-77260975D01*
X99832000Y-77241658D01*
X99635867Y-77260975D01*
X99447274Y-77318185D01*
X99273462Y-77411089D01*
X99121116Y-77536116D01*
X98996089Y-77688462D01*
X98903185Y-77862274D01*
X98845975Y-78050867D01*
X98826658Y-78246999D01*
X98845975Y-78443132D01*
X98903185Y-78631725D01*
X98996089Y-78805537D01*
X99121116Y-78957883D01*
X99215310Y-79035186D01*
X99273462Y-79082910D01*
X99447273Y-79175814D01*
X99522978Y-79198779D01*
X99635867Y-79233024D01*
X99832000Y-79252341D01*
X100028132Y-79233024D01*
X100068751Y-79220701D01*
X100135940Y-79219052D01*
X100194421Y-79252181D01*
X101108595Y-80166355D01*
X101135909Y-80207232D01*
X101145500Y-80255450D01*
X101145500Y-87602823D01*
X101129702Y-87663909D01*
X101086270Y-87709677D01*
X101026095Y-87728650D01*
X100964265Y-87716071D01*
X100916287Y-87675094D01*
X100837810Y-87563018D01*
X100675981Y-87401189D01*
X100488498Y-87269912D01*
X100281070Y-87173186D01*
X100059999Y-87113951D01*
X99990008Y-87107828D01*
X99931943Y-87087704D01*
X99890302Y-87042510D01*
X99874991Y-86982994D01*
X99889652Y-86923315D01*
X99930797Y-86877669D01*
X99988639Y-86856914D01*
X100028132Y-86853024D01*
X100086154Y-86835423D01*
X100216727Y-86795814D01*
X100390538Y-86702910D01*
X100542883Y-86577883D01*
X100667910Y-86425538D01*
X100760814Y-86251727D01*
X100818024Y-86063132D01*
X100837341Y-85867000D01*
X100818024Y-85670868D01*
X100760814Y-85482273D01*
X100667910Y-85308462D01*
X100602500Y-85228760D01*
X100542883Y-85156116D01*
X100390537Y-85031089D01*
X100216725Y-84938185D01*
X100028132Y-84880975D01*
X99832000Y-84861658D01*
X99635867Y-84880975D01*
X99447274Y-84938185D01*
X99273462Y-85031089D01*
X99121116Y-85156116D01*
X98996089Y-85308462D01*
X98903185Y-85482274D01*
X98845975Y-85670867D01*
X98826658Y-85866999D01*
X98845975Y-86063132D01*
X98903185Y-86251725D01*
X98996089Y-86425537D01*
X99121116Y-86577883D01*
X99185346Y-86630595D01*
X99273462Y-86702910D01*
X99447273Y-86795814D01*
X99541570Y-86824418D01*
X99635867Y-86853024D01*
X99675360Y-86856914D01*
X99733202Y-86877669D01*
X99774347Y-86923316D01*
X99789008Y-86982994D01*
X99773697Y-87042510D01*
X99732056Y-87087704D01*
X99673991Y-87107828D01*
X99604000Y-87113951D01*
X99382929Y-87173186D01*
X99175501Y-87269912D01*
X98988018Y-87401189D01*
X98826189Y-87563018D01*
X98694912Y-87750501D01*
X98598186Y-87957929D01*
X98545917Y-88153000D01*
X96228470Y-88153000D01*
X96199934Y-88058930D01*
X96188814Y-88022273D01*
X96095910Y-87848462D01*
X96030500Y-87768760D01*
X95970883Y-87696116D01*
X95818537Y-87571089D01*
X95644725Y-87478185D01*
X95456132Y-87420975D01*
X95259999Y-87401658D01*
X95063867Y-87420975D01*
X94875274Y-87478185D01*
X94701462Y-87571089D01*
X94549116Y-87696116D01*
X94424089Y-87848462D01*
X94331185Y-88022274D01*
X94273975Y-88210867D01*
X94254658Y-88407000D01*
X91640500Y-88407000D01*
X91640500Y-85866999D01*
X94254658Y-85866999D01*
X94273975Y-86063132D01*
X94331185Y-86251725D01*
X94424089Y-86425537D01*
X94549116Y-86577883D01*
X94613346Y-86630595D01*
X94701462Y-86702910D01*
X94875273Y-86795814D01*
X94969570Y-86824418D01*
X95063867Y-86853024D01*
X95260000Y-86872341D01*
X95456132Y-86853024D01*
X95644727Y-86795814D01*
X95818538Y-86702910D01*
X95970883Y-86577883D01*
X96095910Y-86425538D01*
X96188814Y-86251727D01*
X96246024Y-86063132D01*
X96265341Y-85867000D01*
X96246024Y-85670868D01*
X96188814Y-85482273D01*
X96095910Y-85308462D01*
X96030500Y-85228760D01*
X95970883Y-85156116D01*
X95818537Y-85031089D01*
X95644725Y-84938185D01*
X95456132Y-84880975D01*
X95260000Y-84861658D01*
X95063867Y-84880975D01*
X94875274Y-84938185D01*
X94701462Y-85031089D01*
X94549116Y-85156116D01*
X94424089Y-85308462D01*
X94331185Y-85482274D01*
X94273975Y-85670867D01*
X94254658Y-85866999D01*
X91640500Y-85866999D01*
X91640500Y-83326999D01*
X94254658Y-83326999D01*
X94273975Y-83523132D01*
X94331185Y-83711725D01*
X94424089Y-83885537D01*
X94549116Y-84037883D01*
X94701462Y-84162910D01*
X94875273Y-84255814D01*
X94969570Y-84284419D01*
X95063867Y-84313024D01*
X95260000Y-84332341D01*
X95456132Y-84313024D01*
X95644727Y-84255814D01*
X95818538Y-84162910D01*
X95970883Y-84037883D01*
X96095910Y-83885538D01*
X96188814Y-83711727D01*
X96246024Y-83523132D01*
X96265341Y-83327000D01*
X96246529Y-83136000D01*
X96246024Y-83130867D01*
X96188814Y-82942274D01*
X96188814Y-82942273D01*
X96095910Y-82768462D01*
X95970883Y-82616116D01*
X95818537Y-82491089D01*
X95644725Y-82398185D01*
X95456132Y-82340975D01*
X95260000Y-82321658D01*
X95063867Y-82340975D01*
X94875274Y-82398185D01*
X94701462Y-82491089D01*
X94549116Y-82616116D01*
X94424089Y-82768462D01*
X94331185Y-82942274D01*
X94273975Y-83130867D01*
X94254658Y-83326999D01*
X91640500Y-83326999D01*
X91640500Y-80787000D01*
X94254658Y-80787000D01*
X94273975Y-80983132D01*
X94331185Y-81171725D01*
X94424089Y-81345537D01*
X94549116Y-81497883D01*
X94664566Y-81592630D01*
X94701462Y-81622910D01*
X94875273Y-81715814D01*
X94969570Y-81744418D01*
X95063867Y-81773024D01*
X95260000Y-81792341D01*
X95456132Y-81773024D01*
X95644727Y-81715814D01*
X95818538Y-81622910D01*
X95970883Y-81497883D01*
X96095910Y-81345538D01*
X96188814Y-81171727D01*
X96246024Y-80983132D01*
X96265341Y-80787000D01*
X96246024Y-80590868D01*
X96242126Y-80578019D01*
X96207882Y-80465132D01*
X96188814Y-80402273D01*
X96095910Y-80228462D01*
X96030500Y-80148760D01*
X95970883Y-80076116D01*
X95818537Y-79951089D01*
X95644725Y-79858185D01*
X95456132Y-79800975D01*
X95260000Y-79781658D01*
X95063867Y-79800975D01*
X94875274Y-79858185D01*
X94701462Y-79951089D01*
X94549116Y-80076116D01*
X94424089Y-80228462D01*
X94331185Y-80402274D01*
X94273975Y-80590867D01*
X94254658Y-80787000D01*
X91640500Y-80787000D01*
X91640500Y-78246999D01*
X94254658Y-78246999D01*
X94273975Y-78443132D01*
X94331185Y-78631725D01*
X94424089Y-78805537D01*
X94549116Y-78957883D01*
X94643310Y-79035186D01*
X94701462Y-79082910D01*
X94875273Y-79175814D01*
X94950978Y-79198779D01*
X95063867Y-79233024D01*
X95260000Y-79252341D01*
X95456132Y-79233024D01*
X95644727Y-79175814D01*
X95818538Y-79082910D01*
X95970883Y-78957883D01*
X96095910Y-78805538D01*
X96188814Y-78631727D01*
X96246024Y-78443132D01*
X96265341Y-78247000D01*
X96263871Y-78232079D01*
X96246024Y-78050867D01*
X96212588Y-77940645D01*
X96188814Y-77862273D01*
X96095910Y-77688462D01*
X96095909Y-77688461D01*
X95970883Y-77536116D01*
X95818537Y-77411089D01*
X95644725Y-77318185D01*
X95456132Y-77260975D01*
X95260000Y-77241658D01*
X95063867Y-77260975D01*
X94875274Y-77318185D01*
X94701462Y-77411089D01*
X94549116Y-77536116D01*
X94424089Y-77688462D01*
X94331185Y-77862274D01*
X94273975Y-78050867D01*
X94254658Y-78246999D01*
X91640500Y-78246999D01*
X91640500Y-76745607D01*
X91641292Y-76731500D01*
X91641559Y-76729129D01*
X91645313Y-76695814D01*
X91634597Y-76639179D01*
X91633807Y-76634534D01*
X91633386Y-76631740D01*
X91625214Y-76577521D01*
X91625211Y-76577516D01*
X91624290Y-76571401D01*
X91622729Y-76566656D01*
X91600859Y-76525277D01*
X91592891Y-76510201D01*
X91590798Y-76506057D01*
X91565767Y-76454079D01*
X91565765Y-76454077D01*
X91563085Y-76448511D01*
X91560188Y-76444428D01*
X91545246Y-76429486D01*
X91515050Y-76399290D01*
X91511808Y-76395925D01*
X91501442Y-76384753D01*
X91472577Y-76353644D01*
X91472574Y-76353642D01*
X91468379Y-76349121D01*
X91453338Y-76337578D01*
X90822760Y-75707000D01*
X94254658Y-75707000D01*
X94273975Y-75903132D01*
X94331185Y-76091725D01*
X94424089Y-76265537D01*
X94549116Y-76417883D01*
X94679976Y-76525277D01*
X94701462Y-76542910D01*
X94875273Y-76635814D01*
X94932379Y-76653137D01*
X95063867Y-76693024D01*
X95260000Y-76712341D01*
X95456132Y-76693024D01*
X95644727Y-76635814D01*
X95818538Y-76542910D01*
X95970883Y-76417883D01*
X96095910Y-76265538D01*
X96188814Y-76091727D01*
X96246024Y-75903132D01*
X96265341Y-75707000D01*
X96246024Y-75510868D01*
X96188814Y-75322273D01*
X96095910Y-75148462D01*
X96042715Y-75083644D01*
X95970883Y-74996116D01*
X95818537Y-74871089D01*
X95644725Y-74778185D01*
X95456132Y-74720975D01*
X95260000Y-74701658D01*
X95063867Y-74720975D01*
X94875274Y-74778185D01*
X94701462Y-74871089D01*
X94549116Y-74996116D01*
X94424089Y-75148462D01*
X94331185Y-75322274D01*
X94273975Y-75510867D01*
X94254658Y-75707000D01*
X90822760Y-75707000D01*
X88677405Y-73561644D01*
X88650091Y-73520767D01*
X88640500Y-73472549D01*
X88640500Y-72347253D01*
X88633305Y-72311081D01*
X88628867Y-72288769D01*
X88595068Y-72238186D01*
X88584552Y-72222447D01*
X88518231Y-72178133D01*
X88518230Y-72178132D01*
X88459748Y-72166500D01*
X86820252Y-72166500D01*
X86791010Y-72172316D01*
X86761768Y-72178133D01*
X86695447Y-72222447D01*
X86651133Y-72288768D01*
X86639500Y-72347253D01*
X86639500Y-73986747D01*
X86651133Y-74045231D01*
X86695447Y-74111552D01*
X86736604Y-74139052D01*
X86761769Y-74155867D01*
X86820252Y-74167500D01*
X87945550Y-74167500D01*
X87993768Y-74177091D01*
X88034645Y-74204405D01*
X90694595Y-76864355D01*
X90721909Y-76905232D01*
X90731500Y-76953450D01*
X90731500Y-77851550D01*
X90717767Y-77908753D01*
X90679561Y-77953486D01*
X90625211Y-77975999D01*
X90566564Y-77971383D01*
X90516405Y-77940645D01*
X90499077Y-77923317D01*
X90495808Y-77919925D01*
X90485442Y-77908753D01*
X90456577Y-77877644D01*
X90456574Y-77877642D01*
X90452379Y-77873121D01*
X90437338Y-77861578D01*
X88645181Y-76069421D01*
X88612052Y-76010940D01*
X88613701Y-75943751D01*
X88626024Y-75903132D01*
X88645341Y-75707000D01*
X88626024Y-75510868D01*
X88568814Y-75322273D01*
X88475910Y-75148462D01*
X88422715Y-75083644D01*
X88350883Y-74996116D01*
X88198537Y-74871089D01*
X88024725Y-74778185D01*
X87836132Y-74720975D01*
X87640000Y-74701658D01*
X87443867Y-74720975D01*
X87255274Y-74778185D01*
X87081462Y-74871089D01*
X86929116Y-74996116D01*
X86804089Y-75148462D01*
X86711185Y-75322274D01*
X86653975Y-75510867D01*
X86634658Y-75707000D01*
X86653975Y-75903132D01*
X86711185Y-76091725D01*
X86804089Y-76265537D01*
X86929116Y-76417883D01*
X87059976Y-76525277D01*
X87081462Y-76542910D01*
X87255273Y-76635814D01*
X87312379Y-76653137D01*
X87443867Y-76693024D01*
X87640000Y-76712341D01*
X87836132Y-76693024D01*
X87876751Y-76680701D01*
X87943940Y-76679052D01*
X88002421Y-76712181D01*
X89678595Y-78388355D01*
X89705909Y-78429232D01*
X89715500Y-78477450D01*
X89715500Y-79375550D01*
X89701767Y-79432753D01*
X89663561Y-79477486D01*
X89609211Y-79499999D01*
X89550564Y-79495383D01*
X89500405Y-79464645D01*
X89483076Y-79447316D01*
X89479807Y-79443924D01*
X89479661Y-79443766D01*
X89440577Y-79401644D01*
X89440574Y-79401642D01*
X89436379Y-79397121D01*
X89421338Y-79385578D01*
X88645181Y-78609421D01*
X88612052Y-78550940D01*
X88613701Y-78483751D01*
X88626024Y-78443132D01*
X88645341Y-78247000D01*
X88632496Y-78116577D01*
X88626024Y-78050867D01*
X88592588Y-77940645D01*
X88568814Y-77862273D01*
X88475910Y-77688462D01*
X88475909Y-77688461D01*
X88350883Y-77536116D01*
X88198537Y-77411089D01*
X88024725Y-77318185D01*
X87836132Y-77260975D01*
X87640000Y-77241658D01*
X87443867Y-77260975D01*
X87255274Y-77318185D01*
X87081462Y-77411089D01*
X86929116Y-77536116D01*
X86804089Y-77688462D01*
X86711185Y-77862274D01*
X86653975Y-78050867D01*
X86634658Y-78246999D01*
X86653975Y-78443132D01*
X86711185Y-78631725D01*
X86804089Y-78805537D01*
X86929116Y-78957883D01*
X87023310Y-79035186D01*
X87081462Y-79082910D01*
X87255273Y-79175814D01*
X87330978Y-79198779D01*
X87443867Y-79233024D01*
X87640000Y-79252341D01*
X87836132Y-79233024D01*
X87876751Y-79220701D01*
X87943940Y-79219052D01*
X88002421Y-79252181D01*
X88662595Y-79912355D01*
X88689909Y-79953232D01*
X88699500Y-80001450D01*
X88699500Y-80148760D01*
X88684622Y-80208156D01*
X88643502Y-80253525D01*
X88585850Y-80274153D01*
X88525282Y-80265169D01*
X88476101Y-80228694D01*
X88350883Y-80076116D01*
X88198537Y-79951089D01*
X88024725Y-79858185D01*
X87836132Y-79800975D01*
X87640000Y-79781658D01*
X87443867Y-79800975D01*
X87255274Y-79858185D01*
X87081462Y-79951089D01*
X86929116Y-80076116D01*
X86804089Y-80228462D01*
X86711185Y-80402274D01*
X86653975Y-80590867D01*
X86634658Y-80787000D01*
X86653975Y-80983132D01*
X86711185Y-81171725D01*
X86804089Y-81345537D01*
X86929116Y-81497883D01*
X87044566Y-81592630D01*
X87081462Y-81622910D01*
X87255273Y-81715814D01*
X87349570Y-81744418D01*
X87443867Y-81773024D01*
X87483360Y-81776914D01*
X87541202Y-81797669D01*
X87582347Y-81843316D01*
X87597008Y-81902994D01*
X87581697Y-81962510D01*
X87540056Y-82007704D01*
X87481991Y-82027828D01*
X87412000Y-82033951D01*
X87190929Y-82093186D01*
X86983501Y-82189912D01*
X86796018Y-82321189D01*
X86634189Y-82483018D01*
X86502912Y-82670501D01*
X86406186Y-82877929D01*
X86353917Y-83073000D01*
X87768000Y-83073000D01*
X87831000Y-83089881D01*
X87877119Y-83136000D01*
X87894000Y-83199000D01*
X87894000Y-83455000D01*
X87877119Y-83518000D01*
X87831000Y-83564119D01*
X87768000Y-83581000D01*
X86353918Y-83581000D01*
X86406186Y-83776070D01*
X86502912Y-83983498D01*
X86634189Y-84170981D01*
X86796018Y-84332810D01*
X86983501Y-84464087D01*
X87190929Y-84560813D01*
X87412000Y-84620048D01*
X87481990Y-84626171D01*
X87540055Y-84646294D01*
X87581696Y-84691488D01*
X87597008Y-84751003D01*
X87582348Y-84810682D01*
X87541204Y-84856328D01*
X87483363Y-84877085D01*
X87443867Y-84880975D01*
X87255274Y-84938185D01*
X87081462Y-85031089D01*
X86929116Y-85156116D01*
X86804089Y-85308462D01*
X86711185Y-85482274D01*
X86653975Y-85670867D01*
X86634658Y-85866999D01*
X86653975Y-86063132D01*
X86711185Y-86251725D01*
X86804089Y-86425537D01*
X86929116Y-86577883D01*
X86993346Y-86630595D01*
X87081462Y-86702910D01*
X87255273Y-86795814D01*
X87349570Y-86824418D01*
X87443867Y-86853024D01*
X87640000Y-86872341D01*
X87836132Y-86853024D01*
X88024727Y-86795814D01*
X88198538Y-86702910D01*
X88350883Y-86577883D01*
X88410500Y-86505240D01*
X88476101Y-86425306D01*
X88525282Y-86388831D01*
X88585850Y-86379847D01*
X88643502Y-86400475D01*
X88684622Y-86445844D01*
X88699500Y-86505240D01*
X88699500Y-87768760D01*
X88684622Y-87828156D01*
X88643502Y-87873525D01*
X88585850Y-87894153D01*
X88525282Y-87885169D01*
X88476101Y-87848694D01*
X88350883Y-87696116D01*
X88198537Y-87571089D01*
X88024725Y-87478185D01*
X87836132Y-87420975D01*
X87639999Y-87401658D01*
X87443867Y-87420975D01*
X87255274Y-87478185D01*
X87081462Y-87571089D01*
X86929116Y-87696116D01*
X86804089Y-87848462D01*
X86711185Y-88022274D01*
X86653975Y-88210867D01*
X86634658Y-88407000D01*
X86653975Y-88603132D01*
X86711185Y-88791725D01*
X86804089Y-88965537D01*
X86929116Y-89117883D01*
X87053229Y-89219740D01*
X87081462Y-89242910D01*
X87255273Y-89335814D01*
X87295979Y-89348162D01*
X87443867Y-89393024D01*
X87483360Y-89396914D01*
X87541202Y-89417669D01*
X87582347Y-89463316D01*
X87597008Y-89522994D01*
X87581697Y-89582510D01*
X87540056Y-89627704D01*
X87481991Y-89647828D01*
X87412000Y-89653951D01*
X87190929Y-89713186D01*
X86983501Y-89809912D01*
X86796018Y-89941189D01*
X86634189Y-90103018D01*
X86502912Y-90290501D01*
X86406186Y-90497929D01*
X86353917Y-90693000D01*
X82804000Y-90693000D01*
X82804000Y-66040000D01*
X155204658Y-66040000D01*
X155223975Y-66236132D01*
X155281185Y-66424725D01*
X155374089Y-66598537D01*
X155499116Y-66750883D01*
X155651461Y-66875909D01*
X155651462Y-66875910D01*
X155825273Y-66968814D01*
X155919570Y-66997419D01*
X156013867Y-67026024D01*
X156210000Y-67045341D01*
X156406132Y-67026024D01*
X156594727Y-66968814D01*
X156768538Y-66875910D01*
X156920883Y-66750883D01*
X157045910Y-66598538D01*
X157138814Y-66424727D01*
X157196024Y-66236132D01*
X157215341Y-66040000D01*
X158506658Y-66040000D01*
X158525975Y-66236132D01*
X158583185Y-66424725D01*
X158676089Y-66598537D01*
X158801116Y-66750883D01*
X158953461Y-66875909D01*
X158953462Y-66875910D01*
X159127273Y-66968814D01*
X159221570Y-66997419D01*
X159315867Y-67026024D01*
X159512000Y-67045341D01*
X159708132Y-67026024D01*
X159896727Y-66968814D01*
X160070538Y-66875910D01*
X160222883Y-66750883D01*
X160347910Y-66598538D01*
X160440814Y-66424727D01*
X160498024Y-66236132D01*
X160517341Y-66040000D01*
X160498024Y-65843868D01*
X160498023Y-65843866D01*
X160440814Y-65655274D01*
X160440814Y-65655273D01*
X160347910Y-65481462D01*
X160298527Y-65421289D01*
X160222883Y-65329116D01*
X160070537Y-65204089D01*
X159896725Y-65111185D01*
X159708132Y-65053975D01*
X159512000Y-65034658D01*
X159315867Y-65053975D01*
X159127274Y-65111185D01*
X158953462Y-65204089D01*
X158801116Y-65329116D01*
X158676089Y-65481462D01*
X158583185Y-65655274D01*
X158525975Y-65843867D01*
X158506658Y-66040000D01*
X157215341Y-66040000D01*
X157196024Y-65843868D01*
X157196023Y-65843866D01*
X157138814Y-65655274D01*
X157138814Y-65655273D01*
X157045910Y-65481462D01*
X156996527Y-65421289D01*
X156920883Y-65329116D01*
X156768538Y-65204089D01*
X156731104Y-65184081D01*
X156682426Y-65137736D01*
X156664500Y-65072959D01*
X156664500Y-64756450D01*
X156674091Y-64708232D01*
X156701405Y-64667355D01*
X157197199Y-64171561D01*
X159109490Y-62259268D01*
X159167968Y-62226141D01*
X159235159Y-62227791D01*
X159306064Y-62249300D01*
X159511999Y-62269583D01*
X159511999Y-62269582D01*
X159512000Y-62269583D01*
X159717934Y-62249300D01*
X159915954Y-62189232D01*
X160098450Y-62091685D01*
X160108123Y-62083747D01*
X161001500Y-62083747D01*
X161013133Y-62142231D01*
X161057447Y-62208552D01*
X161101762Y-62238162D01*
X161123769Y-62252867D01*
X161182252Y-62264500D01*
X161471500Y-62264500D01*
X161534500Y-62281381D01*
X161580619Y-62327500D01*
X161597500Y-62390500D01*
X161597500Y-65245391D01*
X161596708Y-65259498D01*
X161592686Y-65295187D01*
X161603400Y-65351809D01*
X161604189Y-65356451D01*
X161613704Y-65419576D01*
X161615276Y-65424352D01*
X161618158Y-65429806D01*
X161618159Y-65429807D01*
X161645105Y-65480792D01*
X161647216Y-65484975D01*
X161674909Y-65542480D01*
X161677815Y-65546575D01*
X161682179Y-65550939D01*
X161682180Y-65550940D01*
X161722948Y-65591708D01*
X161726191Y-65595074D01*
X161765423Y-65637356D01*
X161765425Y-65637357D01*
X161769624Y-65641882D01*
X161784661Y-65653421D01*
X161808817Y-65677577D01*
X161841946Y-65736055D01*
X161840297Y-65803245D01*
X161827975Y-65843866D01*
X161808658Y-66040000D01*
X161827975Y-66236132D01*
X161885185Y-66424725D01*
X161978089Y-66598537D01*
X162103116Y-66750883D01*
X162255461Y-66875909D01*
X162255462Y-66875910D01*
X162429273Y-66968814D01*
X162523570Y-66997419D01*
X162617867Y-67026024D01*
X162814000Y-67045341D01*
X163010132Y-67026024D01*
X163198727Y-66968814D01*
X163372538Y-66875910D01*
X163524883Y-66750883D01*
X163649910Y-66598538D01*
X163742814Y-66424727D01*
X163800024Y-66236132D01*
X163819341Y-66040000D01*
X163800024Y-65843868D01*
X163800023Y-65843866D01*
X163742814Y-65655274D01*
X163742814Y-65655273D01*
X163649910Y-65481462D01*
X163600527Y-65421289D01*
X163524883Y-65329116D01*
X163372537Y-65204089D01*
X163198725Y-65111185D01*
X163010132Y-65053975D01*
X162813999Y-65034658D01*
X162644850Y-65051318D01*
X162576772Y-65038931D01*
X162525501Y-64992462D01*
X162506500Y-64925925D01*
X162506500Y-62390500D01*
X162523381Y-62327500D01*
X162569500Y-62281381D01*
X162632500Y-62264500D01*
X162921747Y-62264500D01*
X162921748Y-62264500D01*
X162980231Y-62252867D01*
X163046552Y-62208552D01*
X163090867Y-62142231D01*
X163102500Y-62083748D01*
X163102500Y-60344252D01*
X163090867Y-60285769D01*
X163059462Y-60238769D01*
X163046552Y-60219447D01*
X162980231Y-60175133D01*
X162980230Y-60175132D01*
X162921748Y-60163500D01*
X161182252Y-60163500D01*
X161153010Y-60169316D01*
X161123768Y-60175133D01*
X161057447Y-60219447D01*
X161013133Y-60285768D01*
X161001500Y-60344253D01*
X161001500Y-62083747D01*
X160108123Y-62083747D01*
X160258410Y-61960410D01*
X160389685Y-61800450D01*
X160487232Y-61617954D01*
X160547300Y-61419934D01*
X160567583Y-61214000D01*
X160547300Y-61008066D01*
X160487232Y-60810046D01*
X160389685Y-60627550D01*
X160258410Y-60467589D01*
X160098449Y-60336314D01*
X159915956Y-60238769D01*
X159915955Y-60238768D01*
X159915954Y-60238768D01*
X159717934Y-60178700D01*
X159717931Y-60178699D01*
X159717929Y-60178699D01*
X159512000Y-60158416D01*
X159306070Y-60178699D01*
X159306067Y-60178699D01*
X159306066Y-60178700D01*
X159108046Y-60238768D01*
X159108043Y-60238769D01*
X158925550Y-60336314D01*
X158765589Y-60467589D01*
X158634314Y-60627550D01*
X158536769Y-60810043D01*
X158476699Y-61008070D01*
X158456416Y-61214000D01*
X158476699Y-61419933D01*
X158498208Y-61490841D01*
X158499857Y-61558031D01*
X158466728Y-61616510D01*
X155911676Y-64171561D01*
X155901143Y-64180975D01*
X155873063Y-64203368D01*
X155840584Y-64251006D01*
X155837861Y-64254843D01*
X155799975Y-64306180D01*
X155797697Y-64310691D01*
X155778889Y-64371667D01*
X155777416Y-64376142D01*
X155756346Y-64436355D01*
X155755500Y-64441339D01*
X155755500Y-64505132D01*
X155755412Y-64509843D01*
X155753025Y-64573628D01*
X155755500Y-64592426D01*
X155755500Y-65072959D01*
X155737574Y-65137736D01*
X155688896Y-65184081D01*
X155651461Y-65204089D01*
X155499116Y-65329116D01*
X155374089Y-65481462D01*
X155281185Y-65655274D01*
X155223975Y-65843867D01*
X155204658Y-66040000D01*
X82804000Y-66040000D01*
X82804000Y-61214000D01*
X153376416Y-61214000D01*
X153396699Y-61419929D01*
X153396699Y-61419931D01*
X153396700Y-61419934D01*
X153438591Y-61558031D01*
X153456769Y-61617956D01*
X153554314Y-61800449D01*
X153685589Y-61960410D01*
X153835877Y-62083747D01*
X153845550Y-62091685D01*
X154028046Y-62189232D01*
X154226066Y-62249300D01*
X154432000Y-62269583D01*
X154637934Y-62249300D01*
X154835954Y-62189232D01*
X155018450Y-62091685D01*
X155178410Y-61960410D01*
X155309685Y-61800450D01*
X155407232Y-61617954D01*
X155467300Y-61419934D01*
X155487583Y-61214000D01*
X155916416Y-61214000D01*
X155936699Y-61419929D01*
X155936699Y-61419931D01*
X155936700Y-61419934D01*
X155978591Y-61558031D01*
X155996769Y-61617956D01*
X156094314Y-61800449D01*
X156225589Y-61960410D01*
X156375877Y-62083747D01*
X156385550Y-62091685D01*
X156568046Y-62189232D01*
X156766066Y-62249300D01*
X156972000Y-62269583D01*
X157177934Y-62249300D01*
X157375954Y-62189232D01*
X157558450Y-62091685D01*
X157718410Y-61960410D01*
X157849685Y-61800450D01*
X157947232Y-61617954D01*
X158007300Y-61419934D01*
X158027583Y-61214000D01*
X158007300Y-61008066D01*
X157947232Y-60810046D01*
X157849685Y-60627550D01*
X157718410Y-60467589D01*
X157558449Y-60336314D01*
X157375956Y-60238769D01*
X157375955Y-60238768D01*
X157375954Y-60238768D01*
X157177934Y-60178700D01*
X157177931Y-60178699D01*
X157177929Y-60178699D01*
X156972000Y-60158416D01*
X156766070Y-60178699D01*
X156766067Y-60178699D01*
X156766066Y-60178700D01*
X156568046Y-60238768D01*
X156568043Y-60238769D01*
X156385550Y-60336314D01*
X156225589Y-60467589D01*
X156094314Y-60627550D01*
X155996769Y-60810043D01*
X155936699Y-61008070D01*
X155916416Y-61214000D01*
X155487583Y-61214000D01*
X155467300Y-61008066D01*
X155407232Y-60810046D01*
X155309685Y-60627550D01*
X155178410Y-60467589D01*
X155018449Y-60336314D01*
X154835956Y-60238769D01*
X154835955Y-60238768D01*
X154835954Y-60238768D01*
X154637934Y-60178700D01*
X154637931Y-60178699D01*
X154637929Y-60178699D01*
X154432000Y-60158416D01*
X154226070Y-60178699D01*
X154226067Y-60178699D01*
X154226066Y-60178700D01*
X154028046Y-60238768D01*
X154028043Y-60238769D01*
X153845550Y-60336314D01*
X153685589Y-60467589D01*
X153554314Y-60627550D01*
X153456769Y-60810043D01*
X153396699Y-61008070D01*
X153376416Y-61214000D01*
X82804000Y-61214000D01*
X82804000Y-58038000D01*
X82820881Y-57975000D01*
X82867000Y-57928881D01*
X82930000Y-57912000D01*
X184786000Y-57912000D01*
X184849000Y-57928881D01*
G37*
%TD.AperFunction*%
%TD*%
M02*
