%TF.GenerationSoftware,KiCad,Pcbnew,7.0.1*%
%TF.CreationDate,2024-02-11T14:49:15+00:00*%
%TF.ProjectId,Sys09UART,53797330-3955-4415-9254-2e6b69636164,rev?*%
%TF.SameCoordinates,Original*%
%TF.FileFunction,Soldermask,Top*%
%TF.FilePolarity,Negative*%
%FSLAX46Y46*%
G04 Gerber Fmt 4.6, Leading zero omitted, Abs format (unit mm)*
G04 Created by KiCad (PCBNEW 7.0.1) date 2024-02-11 14:49:15*
%MOMM*%
%LPD*%
G01*
G04 APERTURE LIST*
%ADD10R,1.600000X1.600000*%
%ADD11O,1.600000X1.600000*%
%ADD12C,1.600000*%
%ADD13R,1.700000X1.700000*%
%ADD14O,1.700000X1.700000*%
G04 APERTURE END LIST*
D10*
%TO.C,U3*%
X150363000Y-95509000D03*
D11*
X152903000Y-95509000D03*
X155443000Y-95509000D03*
X157983000Y-95509000D03*
X160523000Y-95509000D03*
X163063000Y-95509000D03*
X165603000Y-95509000D03*
X168143000Y-95509000D03*
X170683000Y-95509000D03*
X173223000Y-95509000D03*
X175763000Y-95509000D03*
X178303000Y-95509000D03*
X178303000Y-80269000D03*
X175763000Y-80269000D03*
X173223000Y-80269000D03*
X170683000Y-80269000D03*
X168143000Y-80269000D03*
X165603000Y-80269000D03*
X163063000Y-80269000D03*
X160523000Y-80269000D03*
X157983000Y-80269000D03*
X155443000Y-80269000D03*
X152903000Y-80269000D03*
X150363000Y-80269000D03*
%TD*%
D10*
%TO.C,U1*%
X87640000Y-73167000D03*
D11*
X87640000Y-75707000D03*
X87640000Y-78247000D03*
X87640000Y-80787000D03*
X87640000Y-83327000D03*
X87640000Y-85867000D03*
X87640000Y-88407000D03*
X87640000Y-90947000D03*
X95260000Y-90947000D03*
X95260000Y-88407000D03*
X95260000Y-85867000D03*
X95260000Y-83327000D03*
X95260000Y-80787000D03*
X95260000Y-78247000D03*
X95260000Y-75707000D03*
X95260000Y-73167000D03*
%TD*%
D12*
%TO.C,R1*%
X162814000Y-66040000D03*
D11*
X162814000Y-73660000D03*
%TD*%
D12*
%TO.C,R3*%
X159512000Y-66040000D03*
D11*
X159512000Y-73660000D03*
%TD*%
D13*
%TO.C,J1*%
X84328000Y-101294000D03*
D14*
X86868000Y-101294000D03*
X89408000Y-101294000D03*
X91948000Y-101294000D03*
X94488000Y-101294000D03*
X97028000Y-101294000D03*
X99568000Y-101294000D03*
X102108000Y-101294000D03*
X104648000Y-101294000D03*
X107188000Y-101294000D03*
X109728000Y-101294000D03*
X112268000Y-101294000D03*
X114808000Y-101294000D03*
X117348000Y-101294000D03*
X119888000Y-101294000D03*
X122428000Y-101294000D03*
X124968000Y-101294000D03*
X127508000Y-101294000D03*
X130048000Y-101294000D03*
X132588000Y-101294000D03*
X135128000Y-101294000D03*
X137668000Y-101294000D03*
X140208000Y-101294000D03*
X142748000Y-101294000D03*
X145288000Y-101294000D03*
X147828000Y-101294000D03*
X150368000Y-101294000D03*
X152908000Y-101294000D03*
X155448000Y-101294000D03*
X157988000Y-101294000D03*
X160528000Y-101294000D03*
X163068000Y-101294000D03*
X165608000Y-101294000D03*
X168148000Y-101294000D03*
X170688000Y-101294000D03*
X173228000Y-101294000D03*
X175768000Y-101294000D03*
X178308000Y-101294000D03*
X180848000Y-101294000D03*
X183388000Y-101294000D03*
%TD*%
D13*
%TO.C,J2*%
X162052000Y-61214000D03*
D14*
X159512000Y-61214000D03*
X156972000Y-61214000D03*
X154432000Y-61214000D03*
%TD*%
D13*
%TO.C,J3*%
X147823000Y-73914000D03*
D14*
X150363000Y-73914000D03*
%TD*%
D10*
%TO.C,U4*%
X99832000Y-70627000D03*
D11*
X99832000Y-73167000D03*
X99832000Y-75707000D03*
X99832000Y-78247000D03*
X99832000Y-80787000D03*
X99832000Y-83327000D03*
X99832000Y-85867000D03*
X99832000Y-88407000D03*
X107452000Y-88407000D03*
X107452000Y-85867000D03*
X107452000Y-83327000D03*
X107452000Y-80787000D03*
X107452000Y-78247000D03*
X107452000Y-75707000D03*
X107452000Y-73167000D03*
X107452000Y-70627000D03*
%TD*%
D12*
%TO.C,R2*%
X156210000Y-66040000D03*
D11*
X156210000Y-73660000D03*
%TD*%
M02*
