%TF.GenerationSoftware,KiCad,Pcbnew,7.0.1*%
%TF.CreationDate,2024-02-11T14:49:15+00:00*%
%TF.ProjectId,Sys09UART,53797330-3955-4415-9254-2e6b69636164,rev?*%
%TF.SameCoordinates,Original*%
%TF.FileFunction,Copper,L2,Bot*%
%TF.FilePolarity,Positive*%
%FSLAX46Y46*%
G04 Gerber Fmt 4.6, Leading zero omitted, Abs format (unit mm)*
G04 Created by KiCad (PCBNEW 7.0.1) date 2024-02-11 14:49:15*
%MOMM*%
%LPD*%
G01*
G04 APERTURE LIST*
%TA.AperFunction,ComponentPad*%
%ADD10R,1.600000X1.600000*%
%TD*%
%TA.AperFunction,ComponentPad*%
%ADD11O,1.600000X1.600000*%
%TD*%
%TA.AperFunction,ComponentPad*%
%ADD12C,1.600000*%
%TD*%
%TA.AperFunction,ComponentPad*%
%ADD13R,1.700000X1.700000*%
%TD*%
%TA.AperFunction,ComponentPad*%
%ADD14O,1.700000X1.700000*%
%TD*%
%TA.AperFunction,Conductor*%
%ADD15C,0.508000*%
%TD*%
G04 APERTURE END LIST*
D10*
%TO.P,U3,1,VSS*%
%TO.N,GND*%
X150363000Y-95509000D03*
D11*
%TO.P,U3,2,Rx_Data*%
%TO.N,Net-(U3-Rx_Data)*%
X152903000Y-95509000D03*
%TO.P,U3,3,Rx_CLK*%
%TO.N,Net-(J3-Pin_1)*%
X155443000Y-95509000D03*
%TO.P,U3,4,Tx_CLK*%
X157983000Y-95509000D03*
%TO.P,U3,5,~{RTS}*%
%TO.N,Net-(U3-~{RTS})*%
X160523000Y-95509000D03*
%TO.P,U3,6,Tx_Data*%
%TO.N,Net-(U3-Tx_Data)*%
X163063000Y-95509000D03*
%TO.P,U3,7,~{IRQ}*%
%TO.N,unconnected-(U3-~{IRQ}-Pad7)*%
X165603000Y-95509000D03*
%TO.P,U3,8,CS0*%
%TO.N,+5V*%
X168143000Y-95509000D03*
%TO.P,U3,9,CS2*%
%TO.N,/UART*%
X170683000Y-95509000D03*
%TO.P,U3,10,CS1*%
%TO.N,+5V*%
X173223000Y-95509000D03*
%TO.P,U3,11,RS*%
%TO.N,/A0*%
X175763000Y-95509000D03*
%TO.P,U3,12,VCC*%
%TO.N,+5V*%
X178303000Y-95509000D03*
%TO.P,U3,13,R/~{W}*%
%TO.N,/RW*%
X178303000Y-80269000D03*
%TO.P,U3,14,E*%
%TO.N,/E*%
X175763000Y-80269000D03*
%TO.P,U3,15,D7*%
%TO.N,/DA0*%
X173223000Y-80269000D03*
%TO.P,U3,16,D6*%
%TO.N,/DA1*%
X170683000Y-80269000D03*
%TO.P,U3,17,D5*%
%TO.N,/DA2*%
X168143000Y-80269000D03*
%TO.P,U3,18,D4*%
%TO.N,/DA3*%
X165603000Y-80269000D03*
%TO.P,U3,19,D3*%
%TO.N,/DA4*%
X163063000Y-80269000D03*
%TO.P,U3,20,D2*%
%TO.N,/DA5*%
X160523000Y-80269000D03*
%TO.P,U3,21,D1*%
%TO.N,/DA6*%
X157983000Y-80269000D03*
%TO.P,U3,22,D0*%
%TO.N,/DA7*%
X155443000Y-80269000D03*
%TO.P,U3,23,~{DCD}*%
%TO.N,GND*%
X152903000Y-80269000D03*
%TO.P,U3,24,~{CTS}*%
X150363000Y-80269000D03*
%TD*%
D10*
%TO.P,U1,1,A0*%
%TO.N,/A9*%
X87640000Y-73167000D03*
D11*
%TO.P,U1,2,A1*%
%TO.N,/A10*%
X87640000Y-75707000D03*
%TO.P,U1,3,A2*%
%TO.N,/A11*%
X87640000Y-78247000D03*
%TO.P,U1,4,E1*%
%TO.N,/~{IOEN}*%
X87640000Y-80787000D03*
%TO.P,U1,5,E2*%
%TO.N,GND*%
X87640000Y-83327000D03*
%TO.P,U1,6,E3*%
%TO.N,+5V*%
X87640000Y-85867000D03*
%TO.P,U1,7,O7*%
%TO.N,unconnected-(U1-O7-Pad7)*%
X87640000Y-88407000D03*
%TO.P,U1,8,GND*%
%TO.N,GND*%
X87640000Y-90947000D03*
%TO.P,U1,9,O6*%
%TO.N,unconnected-(U1-O6-Pad9)*%
X95260000Y-90947000D03*
%TO.P,U1,10,O5*%
%TO.N,unconnected-(U1-O5-Pad10)*%
X95260000Y-88407000D03*
%TO.P,U1,11,O4*%
%TO.N,unconnected-(U1-O4-Pad11)*%
X95260000Y-85867000D03*
%TO.P,U1,12,O3*%
%TO.N,unconnected-(U1-O3-Pad12)*%
X95260000Y-83327000D03*
%TO.P,U1,13,O2*%
%TO.N,unconnected-(U1-O2-Pad13)*%
X95260000Y-80787000D03*
%TO.P,U1,14,O1*%
%TO.N,unconnected-(U1-O1-Pad14)*%
X95260000Y-78247000D03*
%TO.P,U1,15,O0*%
%TO.N,Net-(U1-O0)*%
X95260000Y-75707000D03*
%TO.P,U1,16,VCC*%
%TO.N,+5V*%
X95260000Y-73167000D03*
%TD*%
D12*
%TO.P,R1,1*%
%TO.N,Net-(J2-Pin_1)*%
X162814000Y-66040000D03*
D11*
%TO.P,R1,2*%
%TO.N,Net-(U3-Tx_Data)*%
X162814000Y-73660000D03*
%TD*%
D12*
%TO.P,R3,1*%
%TO.N,Net-(J2-Pin_3)*%
X159512000Y-66040000D03*
D11*
%TO.P,R3,2*%
%TO.N,Net-(U3-~{RTS})*%
X159512000Y-73660000D03*
%TD*%
D13*
%TO.P,J1,1,Pin_1*%
%TO.N,/A15*%
X84328000Y-101294000D03*
D14*
%TO.P,J1,2,Pin_2*%
%TO.N,/A14*%
X86868000Y-101294000D03*
%TO.P,J1,3,Pin_3*%
%TO.N,/A13*%
X89408000Y-101294000D03*
%TO.P,J1,4,Pin_4*%
%TO.N,/A12*%
X91948000Y-101294000D03*
%TO.P,J1,5,Pin_5*%
%TO.N,/A11*%
X94488000Y-101294000D03*
%TO.P,J1,6,Pin_6*%
%TO.N,/A10*%
X97028000Y-101294000D03*
%TO.P,J1,7,Pin_7*%
%TO.N,/A9*%
X99568000Y-101294000D03*
%TO.P,J1,8,Pin_8*%
%TO.N,/A8*%
X102108000Y-101294000D03*
%TO.P,J1,9,Pin_9*%
%TO.N,/A7*%
X104648000Y-101294000D03*
%TO.P,J1,10,Pin_10*%
%TO.N,/A6*%
X107188000Y-101294000D03*
%TO.P,J1,11,Pin_11*%
%TO.N,/A5*%
X109728000Y-101294000D03*
%TO.P,J1,12,Pin_12*%
%TO.N,/A4*%
X112268000Y-101294000D03*
%TO.P,J1,13,Pin_13*%
%TO.N,/A3*%
X114808000Y-101294000D03*
%TO.P,J1,14,Pin_14*%
%TO.N,/A2*%
X117348000Y-101294000D03*
%TO.P,J1,15,Pin_15*%
%TO.N,/A1*%
X119888000Y-101294000D03*
%TO.P,J1,16,Pin_16*%
%TO.N,/A0*%
X122428000Y-101294000D03*
%TO.P,J1,17,Pin_17*%
%TO.N,unconnected-(J1-Pin_17-Pad17)*%
X124968000Y-101294000D03*
%TO.P,J1,18,Pin_18*%
%TO.N,unconnected-(J1-Pin_18-Pad18)*%
X127508000Y-101294000D03*
%TO.P,J1,19,Pin_19*%
%TO.N,/~{IRQ}*%
X130048000Y-101294000D03*
%TO.P,J1,20,Pin_20*%
%TO.N,/~{WMEM}*%
X132588000Y-101294000D03*
%TO.P,J1,21,Pin_21*%
%TO.N,/~{ROMEN}*%
X135128000Y-101294000D03*
%TO.P,J1,22,Pin_22*%
%TO.N,/~{RMEM}*%
X137668000Y-101294000D03*
%TO.P,J1,23,Pin_23*%
%TO.N,/~{IOEN}*%
X140208000Y-101294000D03*
%TO.P,J1,24,Pin_24*%
%TO.N,/RW*%
X142748000Y-101294000D03*
%TO.P,J1,25,Pin_25*%
%TO.N,/E*%
X145288000Y-101294000D03*
%TO.P,J1,26,Pin_26*%
%TO.N,/~{RST}*%
X147828000Y-101294000D03*
%TO.P,J1,27,Pin_27*%
%TO.N,unconnected-(J1-Pin_27-Pad27)*%
X150368000Y-101294000D03*
%TO.P,J1,28,Pin_28*%
%TO.N,unconnected-(J1-Pin_28-Pad28)*%
X152908000Y-101294000D03*
%TO.P,J1,29,Pin_29*%
%TO.N,/DA7*%
X155448000Y-101294000D03*
%TO.P,J1,30,Pin_30*%
%TO.N,/DA6*%
X157988000Y-101294000D03*
%TO.P,J1,31,Pin_31*%
%TO.N,/DA5*%
X160528000Y-101294000D03*
%TO.P,J1,32,Pin_32*%
%TO.N,/DA4*%
X163068000Y-101294000D03*
%TO.P,J1,33,Pin_33*%
%TO.N,/DA3*%
X165608000Y-101294000D03*
%TO.P,J1,34,Pin_34*%
%TO.N,/DA2*%
X168148000Y-101294000D03*
%TO.P,J1,35,Pin_35*%
%TO.N,/DA1*%
X170688000Y-101294000D03*
%TO.P,J1,36,Pin_36*%
%TO.N,/DA0*%
X173228000Y-101294000D03*
%TO.P,J1,37,Pin_37*%
%TO.N,unconnected-(J1-Pin_37-Pad37)*%
X175768000Y-101294000D03*
%TO.P,J1,38,Pin_38*%
%TO.N,unconnected-(J1-Pin_38-Pad38)*%
X178308000Y-101294000D03*
%TO.P,J1,39,Pin_39*%
%TO.N,GND*%
X180848000Y-101294000D03*
%TO.P,J1,40,Pin_40*%
%TO.N,+5V*%
X183388000Y-101294000D03*
%TD*%
D13*
%TO.P,J2,1,Pin_1*%
%TO.N,Net-(J2-Pin_1)*%
X162052000Y-61214000D03*
D14*
%TO.P,J2,2,Pin_2*%
%TO.N,Net-(J2-Pin_2)*%
X159512000Y-61214000D03*
%TO.P,J2,3,Pin_3*%
%TO.N,Net-(J2-Pin_3)*%
X156972000Y-61214000D03*
%TO.P,J2,4,Pin_4*%
%TO.N,unconnected-(J2-Pin_4-Pad4)*%
X154432000Y-61214000D03*
%TD*%
D13*
%TO.P,J3,1,Pin_1*%
%TO.N,Net-(J3-Pin_1)*%
X147823000Y-73914000D03*
D14*
%TO.P,J3,2,Pin_2*%
%TO.N,GND*%
X150363000Y-73914000D03*
%TD*%
D10*
%TO.P,U4,1,A0*%
%TO.N,/A5*%
X99832000Y-70627000D03*
D11*
%TO.P,U4,2,A1*%
%TO.N,/A6*%
X99832000Y-73167000D03*
%TO.P,U4,3,A2*%
%TO.N,/A7*%
X99832000Y-75707000D03*
%TO.P,U4,4,E1*%
%TO.N,/A8*%
X99832000Y-78247000D03*
%TO.P,U4,5,E2*%
%TO.N,Net-(U1-O0)*%
X99832000Y-80787000D03*
%TO.P,U4,6,E3*%
%TO.N,+5V*%
X99832000Y-83327000D03*
%TO.P,U4,7,O7*%
%TO.N,unconnected-(U4-O7-Pad7)*%
X99832000Y-85867000D03*
%TO.P,U4,8,GND*%
%TO.N,GND*%
X99832000Y-88407000D03*
%TO.P,U4,9,O6*%
%TO.N,unconnected-(U4-O6-Pad9)*%
X107452000Y-88407000D03*
%TO.P,U4,10,O5*%
%TO.N,unconnected-(U4-O5-Pad10)*%
X107452000Y-85867000D03*
%TO.P,U4,11,O4*%
%TO.N,unconnected-(U4-O4-Pad11)*%
X107452000Y-83327000D03*
%TO.P,U4,12,O3*%
%TO.N,unconnected-(U4-O3-Pad12)*%
X107452000Y-80787000D03*
%TO.P,U4,13,O2*%
%TO.N,unconnected-(U4-O2-Pad13)*%
X107452000Y-78247000D03*
%TO.P,U4,14,O1*%
%TO.N,unconnected-(U4-O1-Pad14)*%
X107452000Y-75707000D03*
%TO.P,U4,15,O0*%
%TO.N,/UART*%
X107452000Y-73167000D03*
%TO.P,U4,16,VCC*%
%TO.N,+5V*%
X107452000Y-70627000D03*
%TD*%
D12*
%TO.P,R2,1*%
%TO.N,Net-(J2-Pin_2)*%
X156210000Y-66040000D03*
D11*
%TO.P,R2,2*%
%TO.N,Net-(U3-Rx_Data)*%
X156210000Y-73660000D03*
%TD*%
D15*
%TO.N,/~{IOEN}*%
X140168000Y-101294000D02*
X113327000Y-74453000D01*
X93974000Y-74453000D02*
X87640000Y-80787000D01*
X113327000Y-74453000D02*
X93974000Y-74453000D01*
%TO.N,/DA7*%
X155408000Y-101294000D02*
X156697000Y-100005000D01*
X156697000Y-83799000D02*
X155443000Y-82545000D01*
X156697000Y-100005000D02*
X156697000Y-83799000D01*
X155443000Y-82545000D02*
X155443000Y-80269000D01*
%TO.N,/DA6*%
X159237000Y-83799000D02*
X157983000Y-82545000D01*
X159237000Y-100005000D02*
X159237000Y-83799000D01*
X157948000Y-101294000D02*
X159237000Y-100005000D01*
X157983000Y-82545000D02*
X157983000Y-80269000D01*
%TO.N,/DA5*%
X160488000Y-101294000D02*
X161809000Y-99973000D01*
X161809000Y-83577000D02*
X160523000Y-82291000D01*
X160523000Y-82291000D02*
X160523000Y-80269000D01*
X161809000Y-99973000D02*
X161809000Y-83577000D01*
%TO.N,/DA4*%
X163028000Y-101294000D02*
X164317000Y-100005000D01*
X164317000Y-83545000D02*
X163063000Y-82291000D01*
X163063000Y-82291000D02*
X163063000Y-80269000D01*
X164317000Y-100005000D02*
X164317000Y-83545000D01*
%TO.N,/DA3*%
X165568000Y-101294000D02*
X166857000Y-100005000D01*
X166857000Y-83545000D02*
X165603000Y-82291000D01*
X166857000Y-100005000D02*
X166857000Y-83545000D01*
X165603000Y-82291000D02*
X165603000Y-80269000D01*
%TO.N,/DA2*%
X168108000Y-101294000D02*
X169397000Y-100005000D01*
X168143000Y-82291000D02*
X168143000Y-80269000D01*
X169397000Y-100005000D02*
X169397000Y-83545000D01*
X169397000Y-83545000D02*
X168143000Y-82291000D01*
%TO.N,/DA1*%
X171969000Y-83577000D02*
X170683000Y-82291000D01*
X170648000Y-101294000D02*
X171969000Y-99973000D01*
X170683000Y-82291000D02*
X170683000Y-80269000D01*
X171969000Y-99973000D02*
X171969000Y-83577000D01*
%TO.N,/DA0*%
X173188000Y-101294000D02*
X174477000Y-100005000D01*
X173223000Y-82296000D02*
X173223000Y-80269000D01*
X174477000Y-83550000D02*
X173223000Y-82296000D01*
X174477000Y-100005000D02*
X174477000Y-83550000D01*
%TO.N,+5V*%
X88894000Y-84613000D02*
X98546000Y-84613000D01*
X87640000Y-85867000D02*
X88894000Y-84613000D01*
X98546000Y-84613000D02*
X99832000Y-83327000D01*
%TO.N,Net-(J2-Pin_3)*%
X159512000Y-66040000D02*
X159512000Y-63754000D01*
X159512000Y-63754000D02*
X156972000Y-61214000D01*
%TO.N,Net-(J3-Pin_1)*%
X155443000Y-95509000D02*
X153416000Y-97536000D01*
X153416000Y-97536000D02*
X149098000Y-97536000D01*
X149098000Y-97536000D02*
X147823000Y-96261000D01*
X147823000Y-96261000D02*
X147823000Y-73914000D01*
%TO.N,Net-(U3-Tx_Data)*%
X163063000Y-83426632D02*
X161809000Y-82172632D01*
X161809000Y-74665000D02*
X162814000Y-73660000D01*
X163063000Y-95509000D02*
X163063000Y-83426632D01*
X161809000Y-82172632D02*
X161809000Y-74665000D01*
%TO.N,Net-(U3-Rx_Data)*%
X152903000Y-95509000D02*
X154157000Y-94255000D01*
X154157000Y-94255000D02*
X154157000Y-75713000D01*
X154157000Y-75713000D02*
X156210000Y-73660000D01*
%TO.N,Net-(U3-~{RTS})*%
X159269000Y-82307000D02*
X159269000Y-73903000D01*
X160523000Y-95509000D02*
X160523000Y-83561000D01*
X159269000Y-73903000D02*
X159512000Y-73660000D01*
X160523000Y-83561000D02*
X159269000Y-82307000D01*
%TO.N,Net-(U1-O0)*%
X99832000Y-80279000D02*
X99832000Y-80787000D01*
X95260000Y-75707000D02*
X99832000Y-80279000D01*
%TO.N,/UART*%
X169418000Y-76708000D02*
X169418000Y-82296000D01*
X108991000Y-71628000D02*
X164338000Y-71628000D01*
X107452000Y-73167000D02*
X108991000Y-71628000D01*
X170683000Y-83561000D02*
X170683000Y-95509000D01*
X169418000Y-82296000D02*
X170683000Y-83561000D01*
X164338000Y-71628000D02*
X169418000Y-76708000D01*
%TD*%
%TA.AperFunction,Conductor*%
%TO.N,GND*%
G36*
X184849000Y-57928881D02*
G01*
X184895119Y-57975000D01*
X184912000Y-58038000D01*
X184912000Y-102744000D01*
X184895119Y-102807000D01*
X184849000Y-102853119D01*
X184786000Y-102870000D01*
X181174717Y-102870000D01*
X181114748Y-102854814D01*
X181069234Y-102812916D01*
X181049147Y-102754405D01*
X181059329Y-102693387D01*
X181097326Y-102644568D01*
X181153978Y-102619719D01*
X181182508Y-102614957D01*
X181395368Y-102541883D01*
X181593302Y-102434766D01*
X181770903Y-102296533D01*
X181923321Y-102130962D01*
X182046419Y-101942548D01*
X182136820Y-101736455D01*
X182156473Y-101658847D01*
X182187971Y-101602261D01*
X182243414Y-101568795D01*
X182308158Y-101567289D01*
X182365098Y-101598141D01*
X182399192Y-101653201D01*
X182400905Y-101658847D01*
X182412768Y-101697954D01*
X182467839Y-101800984D01*
X182510314Y-101880449D01*
X182641589Y-102040410D01*
X182791877Y-102163747D01*
X182801550Y-102171685D01*
X182984046Y-102269232D01*
X183182066Y-102329300D01*
X183388000Y-102349583D01*
X183593934Y-102329300D01*
X183791954Y-102269232D01*
X183974450Y-102171685D01*
X184134410Y-102040410D01*
X184265685Y-101880450D01*
X184363232Y-101697954D01*
X184423300Y-101499934D01*
X184443583Y-101294000D01*
X184423300Y-101088066D01*
X184363232Y-100890046D01*
X184265685Y-100707550D01*
X184214722Y-100645451D01*
X184134410Y-100547589D01*
X183974449Y-100416314D01*
X183791956Y-100318769D01*
X183791955Y-100318768D01*
X183791954Y-100318768D01*
X183593934Y-100258700D01*
X183593931Y-100258699D01*
X183593929Y-100258699D01*
X183388000Y-100238416D01*
X183182070Y-100258699D01*
X183182067Y-100258699D01*
X183182066Y-100258700D01*
X182984046Y-100318768D01*
X182984043Y-100318769D01*
X182801550Y-100416314D01*
X182641589Y-100547589D01*
X182510314Y-100707550D01*
X182412767Y-100890047D01*
X182399192Y-100934799D01*
X182365098Y-100989858D01*
X182308158Y-101020710D01*
X182243414Y-101019204D01*
X182187971Y-100985738D01*
X182156473Y-100929153D01*
X182136819Y-100851542D01*
X182046419Y-100645451D01*
X181923321Y-100457037D01*
X181770903Y-100291466D01*
X181593302Y-100153233D01*
X181395368Y-100046116D01*
X181182514Y-99973044D01*
X181102000Y-99959609D01*
X181102000Y-101422000D01*
X181085119Y-101485000D01*
X181039000Y-101531119D01*
X180976000Y-101548000D01*
X180720000Y-101548000D01*
X180657000Y-101531119D01*
X180610881Y-101485000D01*
X180594000Y-101422000D01*
X180594000Y-99959609D01*
X180513485Y-99973044D01*
X180300631Y-100046116D01*
X180102697Y-100153233D01*
X179925096Y-100291466D01*
X179772678Y-100457037D01*
X179649580Y-100645451D01*
X179559178Y-100851547D01*
X179539525Y-100929154D01*
X179508027Y-100985739D01*
X179452583Y-101019205D01*
X179387839Y-101020710D01*
X179330900Y-100989857D01*
X179296807Y-100934799D01*
X179283232Y-100890046D01*
X179185685Y-100707550D01*
X179134722Y-100645451D01*
X179054410Y-100547589D01*
X178894449Y-100416314D01*
X178711956Y-100318769D01*
X178711955Y-100318768D01*
X178711954Y-100318768D01*
X178513934Y-100258700D01*
X178513931Y-100258699D01*
X178513929Y-100258699D01*
X178308000Y-100238416D01*
X178102070Y-100258699D01*
X178102067Y-100258699D01*
X178102066Y-100258700D01*
X177904046Y-100318768D01*
X177904043Y-100318769D01*
X177721550Y-100416314D01*
X177561589Y-100547589D01*
X177430314Y-100707550D01*
X177332769Y-100890043D01*
X177332769Y-100890044D01*
X177332768Y-100890046D01*
X177272701Y-101088065D01*
X177272699Y-101088070D01*
X177252416Y-101294000D01*
X177272699Y-101499929D01*
X177272699Y-101499931D01*
X177272700Y-101499934D01*
X177332767Y-101697951D01*
X177332769Y-101697956D01*
X177430314Y-101880449D01*
X177561589Y-102040410D01*
X177711877Y-102163747D01*
X177721550Y-102171685D01*
X177904046Y-102269232D01*
X178102066Y-102329300D01*
X178308000Y-102349583D01*
X178513934Y-102329300D01*
X178711954Y-102269232D01*
X178894450Y-102171685D01*
X179054410Y-102040410D01*
X179185685Y-101880450D01*
X179283232Y-101697954D01*
X179296807Y-101653200D01*
X179330899Y-101598142D01*
X179387839Y-101567289D01*
X179452583Y-101568794D01*
X179508027Y-101602260D01*
X179539525Y-101658845D01*
X179559178Y-101736452D01*
X179649580Y-101942548D01*
X179772678Y-102130962D01*
X179925096Y-102296533D01*
X180102697Y-102434766D01*
X180300631Y-102541883D01*
X180513491Y-102614957D01*
X180542022Y-102619719D01*
X180598674Y-102644568D01*
X180636671Y-102693387D01*
X180646853Y-102754405D01*
X180626766Y-102812916D01*
X180581252Y-102854814D01*
X180521283Y-102870000D01*
X82930000Y-102870000D01*
X82867000Y-102853119D01*
X82820881Y-102807000D01*
X82804000Y-102744000D01*
X82804000Y-102163747D01*
X83277500Y-102163747D01*
X83289133Y-102222231D01*
X83333447Y-102288552D01*
X83377762Y-102318162D01*
X83399769Y-102332867D01*
X83458252Y-102344500D01*
X85197747Y-102344500D01*
X85197748Y-102344500D01*
X85256231Y-102332867D01*
X85322552Y-102288552D01*
X85366867Y-102222231D01*
X85378500Y-102163748D01*
X85378500Y-101294000D01*
X85812416Y-101294000D01*
X85832699Y-101499929D01*
X85832699Y-101499931D01*
X85832700Y-101499934D01*
X85892767Y-101697951D01*
X85892769Y-101697956D01*
X85990314Y-101880449D01*
X86121589Y-102040410D01*
X86271877Y-102163747D01*
X86281550Y-102171685D01*
X86464046Y-102269232D01*
X86662066Y-102329300D01*
X86868000Y-102349583D01*
X87073934Y-102329300D01*
X87271954Y-102269232D01*
X87454450Y-102171685D01*
X87614410Y-102040410D01*
X87745685Y-101880450D01*
X87843232Y-101697954D01*
X87903300Y-101499934D01*
X87923583Y-101294000D01*
X88352416Y-101294000D01*
X88372699Y-101499929D01*
X88372699Y-101499931D01*
X88372700Y-101499934D01*
X88432767Y-101697951D01*
X88432769Y-101697956D01*
X88530314Y-101880449D01*
X88661589Y-102040410D01*
X88811877Y-102163747D01*
X88821550Y-102171685D01*
X89004046Y-102269232D01*
X89202066Y-102329300D01*
X89408000Y-102349583D01*
X89613934Y-102329300D01*
X89811954Y-102269232D01*
X89994450Y-102171685D01*
X90154410Y-102040410D01*
X90285685Y-101880450D01*
X90383232Y-101697954D01*
X90443300Y-101499934D01*
X90463583Y-101294000D01*
X90892416Y-101294000D01*
X90912699Y-101499929D01*
X90912699Y-101499931D01*
X90912700Y-101499934D01*
X90972767Y-101697951D01*
X90972769Y-101697956D01*
X91070314Y-101880449D01*
X91201589Y-102040410D01*
X91351877Y-102163747D01*
X91361550Y-102171685D01*
X91544046Y-102269232D01*
X91742066Y-102329300D01*
X91948000Y-102349583D01*
X92153934Y-102329300D01*
X92351954Y-102269232D01*
X92534450Y-102171685D01*
X92694410Y-102040410D01*
X92825685Y-101880450D01*
X92923232Y-101697954D01*
X92983300Y-101499934D01*
X93003583Y-101294000D01*
X93432416Y-101294000D01*
X93452699Y-101499929D01*
X93452699Y-101499931D01*
X93452700Y-101499934D01*
X93512767Y-101697951D01*
X93512769Y-101697956D01*
X93610314Y-101880449D01*
X93741589Y-102040410D01*
X93891877Y-102163747D01*
X93901550Y-102171685D01*
X94084046Y-102269232D01*
X94282066Y-102329300D01*
X94488000Y-102349583D01*
X94693934Y-102329300D01*
X94891954Y-102269232D01*
X95074450Y-102171685D01*
X95234410Y-102040410D01*
X95365685Y-101880450D01*
X95463232Y-101697954D01*
X95523300Y-101499934D01*
X95543583Y-101294000D01*
X95972416Y-101294000D01*
X95992699Y-101499929D01*
X95992699Y-101499931D01*
X95992700Y-101499934D01*
X96052767Y-101697951D01*
X96052769Y-101697956D01*
X96150314Y-101880449D01*
X96281589Y-102040410D01*
X96431877Y-102163747D01*
X96441550Y-102171685D01*
X96624046Y-102269232D01*
X96822066Y-102329300D01*
X97028000Y-102349583D01*
X97233934Y-102329300D01*
X97431954Y-102269232D01*
X97614450Y-102171685D01*
X97774410Y-102040410D01*
X97905685Y-101880450D01*
X98003232Y-101697954D01*
X98063300Y-101499934D01*
X98083583Y-101294000D01*
X98512416Y-101294000D01*
X98532699Y-101499929D01*
X98532699Y-101499931D01*
X98532700Y-101499934D01*
X98592767Y-101697951D01*
X98592769Y-101697956D01*
X98690314Y-101880449D01*
X98821589Y-102040410D01*
X98971877Y-102163747D01*
X98981550Y-102171685D01*
X99164046Y-102269232D01*
X99362066Y-102329300D01*
X99568000Y-102349583D01*
X99773934Y-102329300D01*
X99971954Y-102269232D01*
X100154450Y-102171685D01*
X100314410Y-102040410D01*
X100445685Y-101880450D01*
X100543232Y-101697954D01*
X100603300Y-101499934D01*
X100623583Y-101294000D01*
X101052416Y-101294000D01*
X101072699Y-101499929D01*
X101072699Y-101499931D01*
X101072700Y-101499934D01*
X101132767Y-101697951D01*
X101132769Y-101697956D01*
X101230314Y-101880449D01*
X101361589Y-102040410D01*
X101511877Y-102163747D01*
X101521550Y-102171685D01*
X101704046Y-102269232D01*
X101902066Y-102329300D01*
X102108000Y-102349583D01*
X102313934Y-102329300D01*
X102511954Y-102269232D01*
X102694450Y-102171685D01*
X102854410Y-102040410D01*
X102985685Y-101880450D01*
X103083232Y-101697954D01*
X103143300Y-101499934D01*
X103163583Y-101294000D01*
X103592416Y-101294000D01*
X103612699Y-101499929D01*
X103612699Y-101499931D01*
X103612700Y-101499934D01*
X103672767Y-101697951D01*
X103672769Y-101697956D01*
X103770314Y-101880449D01*
X103901589Y-102040410D01*
X104051877Y-102163747D01*
X104061550Y-102171685D01*
X104244046Y-102269232D01*
X104442066Y-102329300D01*
X104648000Y-102349583D01*
X104853934Y-102329300D01*
X105051954Y-102269232D01*
X105234450Y-102171685D01*
X105394410Y-102040410D01*
X105525685Y-101880450D01*
X105623232Y-101697954D01*
X105683300Y-101499934D01*
X105703583Y-101294000D01*
X106132416Y-101294000D01*
X106152699Y-101499929D01*
X106152699Y-101499931D01*
X106152700Y-101499934D01*
X106212767Y-101697951D01*
X106212769Y-101697956D01*
X106310314Y-101880449D01*
X106441589Y-102040410D01*
X106591877Y-102163747D01*
X106601550Y-102171685D01*
X106784046Y-102269232D01*
X106982066Y-102329300D01*
X107188000Y-102349583D01*
X107393934Y-102329300D01*
X107591954Y-102269232D01*
X107774450Y-102171685D01*
X107934410Y-102040410D01*
X108065685Y-101880450D01*
X108163232Y-101697954D01*
X108223300Y-101499934D01*
X108243583Y-101294000D01*
X108672416Y-101294000D01*
X108692699Y-101499929D01*
X108692699Y-101499931D01*
X108692700Y-101499934D01*
X108752767Y-101697951D01*
X108752769Y-101697956D01*
X108850314Y-101880449D01*
X108981589Y-102040410D01*
X109131877Y-102163747D01*
X109141550Y-102171685D01*
X109324046Y-102269232D01*
X109522066Y-102329300D01*
X109728000Y-102349583D01*
X109933934Y-102329300D01*
X110131954Y-102269232D01*
X110314450Y-102171685D01*
X110474410Y-102040410D01*
X110605685Y-101880450D01*
X110703232Y-101697954D01*
X110763300Y-101499934D01*
X110783583Y-101294000D01*
X111212416Y-101294000D01*
X111232699Y-101499929D01*
X111232699Y-101499931D01*
X111232700Y-101499934D01*
X111292767Y-101697951D01*
X111292769Y-101697956D01*
X111390314Y-101880449D01*
X111521589Y-102040410D01*
X111671877Y-102163747D01*
X111681550Y-102171685D01*
X111864046Y-102269232D01*
X112062066Y-102329300D01*
X112268000Y-102349583D01*
X112473934Y-102329300D01*
X112671954Y-102269232D01*
X112854450Y-102171685D01*
X113014410Y-102040410D01*
X113145685Y-101880450D01*
X113243232Y-101697954D01*
X113303300Y-101499934D01*
X113323583Y-101294000D01*
X113752416Y-101294000D01*
X113772699Y-101499929D01*
X113772699Y-101499931D01*
X113772700Y-101499934D01*
X113832767Y-101697951D01*
X113832769Y-101697956D01*
X113930314Y-101880449D01*
X114061589Y-102040410D01*
X114211877Y-102163747D01*
X114221550Y-102171685D01*
X114404046Y-102269232D01*
X114602066Y-102329300D01*
X114808000Y-102349583D01*
X115013934Y-102329300D01*
X115211954Y-102269232D01*
X115394450Y-102171685D01*
X115554410Y-102040410D01*
X115685685Y-101880450D01*
X115783232Y-101697954D01*
X115843300Y-101499934D01*
X115863583Y-101294000D01*
X116292416Y-101294000D01*
X116312699Y-101499929D01*
X116312699Y-101499931D01*
X116312700Y-101499934D01*
X116372767Y-101697951D01*
X116372769Y-101697956D01*
X116470314Y-101880449D01*
X116601589Y-102040410D01*
X116751877Y-102163747D01*
X116761550Y-102171685D01*
X116944046Y-102269232D01*
X117142066Y-102329300D01*
X117348000Y-102349583D01*
X117553934Y-102329300D01*
X117751954Y-102269232D01*
X117934450Y-102171685D01*
X118094410Y-102040410D01*
X118225685Y-101880450D01*
X118323232Y-101697954D01*
X118383300Y-101499934D01*
X118403583Y-101294000D01*
X118832416Y-101294000D01*
X118852699Y-101499929D01*
X118852699Y-101499931D01*
X118852700Y-101499934D01*
X118912767Y-101697951D01*
X118912769Y-101697956D01*
X119010314Y-101880449D01*
X119141589Y-102040410D01*
X119291877Y-102163747D01*
X119301550Y-102171685D01*
X119484046Y-102269232D01*
X119682066Y-102329300D01*
X119888000Y-102349583D01*
X120093934Y-102329300D01*
X120291954Y-102269232D01*
X120474450Y-102171685D01*
X120634410Y-102040410D01*
X120765685Y-101880450D01*
X120863232Y-101697954D01*
X120923300Y-101499934D01*
X120943583Y-101294000D01*
X121372416Y-101294000D01*
X121392699Y-101499929D01*
X121392699Y-101499931D01*
X121392700Y-101499934D01*
X121452767Y-101697951D01*
X121452769Y-101697956D01*
X121550314Y-101880449D01*
X121681589Y-102040410D01*
X121831877Y-102163747D01*
X121841550Y-102171685D01*
X122024046Y-102269232D01*
X122222066Y-102329300D01*
X122428000Y-102349583D01*
X122633934Y-102329300D01*
X122831954Y-102269232D01*
X123014450Y-102171685D01*
X123174410Y-102040410D01*
X123305685Y-101880450D01*
X123403232Y-101697954D01*
X123463300Y-101499934D01*
X123483583Y-101294000D01*
X123912416Y-101294000D01*
X123932699Y-101499929D01*
X123932699Y-101499931D01*
X123932700Y-101499934D01*
X123992767Y-101697951D01*
X123992769Y-101697956D01*
X124090314Y-101880449D01*
X124221589Y-102040410D01*
X124371877Y-102163747D01*
X124381550Y-102171685D01*
X124564046Y-102269232D01*
X124762066Y-102329300D01*
X124968000Y-102349583D01*
X125173934Y-102329300D01*
X125371954Y-102269232D01*
X125554450Y-102171685D01*
X125714410Y-102040410D01*
X125845685Y-101880450D01*
X125943232Y-101697954D01*
X126003300Y-101499934D01*
X126023583Y-101294000D01*
X126452416Y-101294000D01*
X126472699Y-101499929D01*
X126472699Y-101499931D01*
X126472700Y-101499934D01*
X126532767Y-101697951D01*
X126532769Y-101697956D01*
X126630314Y-101880449D01*
X126761589Y-102040410D01*
X126911877Y-102163747D01*
X126921550Y-102171685D01*
X127104046Y-102269232D01*
X127302066Y-102329300D01*
X127508000Y-102349583D01*
X127713934Y-102329300D01*
X127911954Y-102269232D01*
X128094450Y-102171685D01*
X128254410Y-102040410D01*
X128385685Y-101880450D01*
X128483232Y-101697954D01*
X128543300Y-101499934D01*
X128563583Y-101294000D01*
X128992416Y-101294000D01*
X129012699Y-101499929D01*
X129012699Y-101499931D01*
X129012700Y-101499934D01*
X129072767Y-101697951D01*
X129072769Y-101697956D01*
X129170314Y-101880449D01*
X129301589Y-102040410D01*
X129451877Y-102163747D01*
X129461550Y-102171685D01*
X129644046Y-102269232D01*
X129842066Y-102329300D01*
X130048000Y-102349583D01*
X130253934Y-102329300D01*
X130451954Y-102269232D01*
X130634450Y-102171685D01*
X130794410Y-102040410D01*
X130925685Y-101880450D01*
X131023232Y-101697954D01*
X131083300Y-101499934D01*
X131103583Y-101294000D01*
X131532416Y-101294000D01*
X131552699Y-101499929D01*
X131552699Y-101499931D01*
X131552700Y-101499934D01*
X131612767Y-101697951D01*
X131612769Y-101697956D01*
X131710314Y-101880449D01*
X131841589Y-102040410D01*
X131991877Y-102163747D01*
X132001550Y-102171685D01*
X132184046Y-102269232D01*
X132382066Y-102329300D01*
X132588000Y-102349583D01*
X132793934Y-102329300D01*
X132991954Y-102269232D01*
X133174450Y-102171685D01*
X133334410Y-102040410D01*
X133465685Y-101880450D01*
X133563232Y-101697954D01*
X133623300Y-101499934D01*
X133643583Y-101294000D01*
X134072416Y-101294000D01*
X134092699Y-101499929D01*
X134092699Y-101499931D01*
X134092700Y-101499934D01*
X134152767Y-101697951D01*
X134152769Y-101697956D01*
X134250314Y-101880449D01*
X134381589Y-102040410D01*
X134531877Y-102163747D01*
X134541550Y-102171685D01*
X134724046Y-102269232D01*
X134922066Y-102329300D01*
X135128000Y-102349583D01*
X135333934Y-102329300D01*
X135531954Y-102269232D01*
X135714450Y-102171685D01*
X135874410Y-102040410D01*
X136005685Y-101880450D01*
X136103232Y-101697954D01*
X136163300Y-101499934D01*
X136183583Y-101294000D01*
X136612416Y-101294000D01*
X136632699Y-101499929D01*
X136632699Y-101499931D01*
X136632700Y-101499934D01*
X136692767Y-101697951D01*
X136692769Y-101697956D01*
X136790314Y-101880449D01*
X136921589Y-102040410D01*
X137071877Y-102163747D01*
X137081550Y-102171685D01*
X137264046Y-102269232D01*
X137462066Y-102329300D01*
X137668000Y-102349583D01*
X137873934Y-102329300D01*
X138071954Y-102269232D01*
X138254450Y-102171685D01*
X138414410Y-102040410D01*
X138545685Y-101880450D01*
X138643232Y-101697954D01*
X138703300Y-101499934D01*
X138723583Y-101294000D01*
X138703300Y-101088066D01*
X138643232Y-100890046D01*
X138545685Y-100707550D01*
X138494722Y-100645451D01*
X138414410Y-100547589D01*
X138254449Y-100416314D01*
X138071956Y-100318769D01*
X138071955Y-100318768D01*
X138071954Y-100318768D01*
X137873934Y-100258700D01*
X137873931Y-100258699D01*
X137873929Y-100258699D01*
X137668000Y-100238416D01*
X137462070Y-100258699D01*
X137462067Y-100258699D01*
X137462066Y-100258700D01*
X137264046Y-100318768D01*
X137264043Y-100318769D01*
X137081550Y-100416314D01*
X136921589Y-100547589D01*
X136790314Y-100707550D01*
X136692769Y-100890043D01*
X136692769Y-100890044D01*
X136692768Y-100890046D01*
X136632701Y-101088065D01*
X136632699Y-101088070D01*
X136612416Y-101294000D01*
X136183583Y-101294000D01*
X136163300Y-101088066D01*
X136103232Y-100890046D01*
X136005685Y-100707550D01*
X135954722Y-100645451D01*
X135874410Y-100547589D01*
X135714449Y-100416314D01*
X135531956Y-100318769D01*
X135531955Y-100318768D01*
X135531954Y-100318768D01*
X135333934Y-100258700D01*
X135333931Y-100258699D01*
X135333929Y-100258699D01*
X135128000Y-100238416D01*
X134922070Y-100258699D01*
X134922067Y-100258699D01*
X134922066Y-100258700D01*
X134724046Y-100318768D01*
X134724043Y-100318769D01*
X134541550Y-100416314D01*
X134381589Y-100547589D01*
X134250314Y-100707550D01*
X134152769Y-100890043D01*
X134152769Y-100890044D01*
X134152768Y-100890046D01*
X134092701Y-101088065D01*
X134092699Y-101088070D01*
X134072416Y-101294000D01*
X133643583Y-101294000D01*
X133623300Y-101088066D01*
X133563232Y-100890046D01*
X133465685Y-100707550D01*
X133414722Y-100645451D01*
X133334410Y-100547589D01*
X133174449Y-100416314D01*
X132991956Y-100318769D01*
X132991955Y-100318768D01*
X132991954Y-100318768D01*
X132793934Y-100258700D01*
X132793931Y-100258699D01*
X132793929Y-100258699D01*
X132588000Y-100238416D01*
X132382070Y-100258699D01*
X132382067Y-100258699D01*
X132382066Y-100258700D01*
X132184046Y-100318768D01*
X132184043Y-100318769D01*
X132001550Y-100416314D01*
X131841589Y-100547589D01*
X131710314Y-100707550D01*
X131612769Y-100890043D01*
X131612769Y-100890044D01*
X131612768Y-100890046D01*
X131552701Y-101088065D01*
X131552699Y-101088070D01*
X131532416Y-101294000D01*
X131103583Y-101294000D01*
X131083300Y-101088066D01*
X131023232Y-100890046D01*
X130925685Y-100707550D01*
X130874722Y-100645451D01*
X130794410Y-100547589D01*
X130634449Y-100416314D01*
X130451956Y-100318769D01*
X130451955Y-100318768D01*
X130451954Y-100318768D01*
X130253934Y-100258700D01*
X130253931Y-100258699D01*
X130253929Y-100258699D01*
X130048000Y-100238416D01*
X129842070Y-100258699D01*
X129842067Y-100258699D01*
X129842066Y-100258700D01*
X129644046Y-100318768D01*
X129644043Y-100318769D01*
X129461550Y-100416314D01*
X129301589Y-100547589D01*
X129170314Y-100707550D01*
X129072769Y-100890043D01*
X129072769Y-100890044D01*
X129072768Y-100890046D01*
X129012701Y-101088065D01*
X129012699Y-101088070D01*
X128992416Y-101294000D01*
X128563583Y-101294000D01*
X128543300Y-101088066D01*
X128483232Y-100890046D01*
X128385685Y-100707550D01*
X128334722Y-100645451D01*
X128254410Y-100547589D01*
X128094449Y-100416314D01*
X127911956Y-100318769D01*
X127911955Y-100318768D01*
X127911954Y-100318768D01*
X127713934Y-100258700D01*
X127713931Y-100258699D01*
X127713929Y-100258699D01*
X127508000Y-100238416D01*
X127302070Y-100258699D01*
X127302067Y-100258699D01*
X127302066Y-100258700D01*
X127104046Y-100318768D01*
X127104043Y-100318769D01*
X126921550Y-100416314D01*
X126761589Y-100547589D01*
X126630314Y-100707550D01*
X126532769Y-100890043D01*
X126532769Y-100890044D01*
X126532768Y-100890046D01*
X126472701Y-101088065D01*
X126472699Y-101088070D01*
X126452416Y-101294000D01*
X126023583Y-101294000D01*
X126003300Y-101088066D01*
X125943232Y-100890046D01*
X125845685Y-100707550D01*
X125794722Y-100645451D01*
X125714410Y-100547589D01*
X125554449Y-100416314D01*
X125371956Y-100318769D01*
X125371955Y-100318768D01*
X125371954Y-100318768D01*
X125173934Y-100258700D01*
X125173931Y-100258699D01*
X125173929Y-100258699D01*
X124968000Y-100238416D01*
X124762070Y-100258699D01*
X124762067Y-100258699D01*
X124762066Y-100258700D01*
X124564046Y-100318768D01*
X124564043Y-100318769D01*
X124381550Y-100416314D01*
X124221589Y-100547589D01*
X124090314Y-100707550D01*
X123992769Y-100890043D01*
X123992769Y-100890044D01*
X123992768Y-100890046D01*
X123932701Y-101088065D01*
X123932699Y-101088070D01*
X123912416Y-101294000D01*
X123483583Y-101294000D01*
X123463300Y-101088066D01*
X123403232Y-100890046D01*
X123305685Y-100707550D01*
X123254722Y-100645451D01*
X123174410Y-100547589D01*
X123014449Y-100416314D01*
X122831956Y-100318769D01*
X122831955Y-100318768D01*
X122831954Y-100318768D01*
X122633934Y-100258700D01*
X122633931Y-100258699D01*
X122633929Y-100258699D01*
X122428000Y-100238416D01*
X122222070Y-100258699D01*
X122222067Y-100258699D01*
X122222066Y-100258700D01*
X122024046Y-100318768D01*
X122024043Y-100318769D01*
X121841550Y-100416314D01*
X121681589Y-100547589D01*
X121550314Y-100707550D01*
X121452769Y-100890043D01*
X121452769Y-100890044D01*
X121452768Y-100890046D01*
X121392701Y-101088065D01*
X121392699Y-101088070D01*
X121372416Y-101294000D01*
X120943583Y-101294000D01*
X120923300Y-101088066D01*
X120863232Y-100890046D01*
X120765685Y-100707550D01*
X120714722Y-100645451D01*
X120634410Y-100547589D01*
X120474449Y-100416314D01*
X120291956Y-100318769D01*
X120291955Y-100318768D01*
X120291954Y-100318768D01*
X120093934Y-100258700D01*
X120093931Y-100258699D01*
X120093929Y-100258699D01*
X119888000Y-100238416D01*
X119682070Y-100258699D01*
X119682067Y-100258699D01*
X119682066Y-100258700D01*
X119484046Y-100318768D01*
X119484043Y-100318769D01*
X119301550Y-100416314D01*
X119141589Y-100547589D01*
X119010314Y-100707550D01*
X118912769Y-100890043D01*
X118912769Y-100890044D01*
X118912768Y-100890046D01*
X118852701Y-101088065D01*
X118852699Y-101088070D01*
X118832416Y-101294000D01*
X118403583Y-101294000D01*
X118383300Y-101088066D01*
X118323232Y-100890046D01*
X118225685Y-100707550D01*
X118174722Y-100645451D01*
X118094410Y-100547589D01*
X117934449Y-100416314D01*
X117751956Y-100318769D01*
X117751955Y-100318768D01*
X117751954Y-100318768D01*
X117553934Y-100258700D01*
X117553931Y-100258699D01*
X117553929Y-100258699D01*
X117348000Y-100238416D01*
X117142070Y-100258699D01*
X117142067Y-100258699D01*
X117142066Y-100258700D01*
X116944046Y-100318768D01*
X116944043Y-100318769D01*
X116761550Y-100416314D01*
X116601589Y-100547589D01*
X116470314Y-100707550D01*
X116372769Y-100890043D01*
X116372769Y-100890044D01*
X116372768Y-100890046D01*
X116312701Y-101088065D01*
X116312699Y-101088070D01*
X116292416Y-101294000D01*
X115863583Y-101294000D01*
X115843300Y-101088066D01*
X115783232Y-100890046D01*
X115685685Y-100707550D01*
X115634722Y-100645451D01*
X115554410Y-100547589D01*
X115394449Y-100416314D01*
X115211956Y-100318769D01*
X115211955Y-100318768D01*
X115211954Y-100318768D01*
X115013934Y-100258700D01*
X115013931Y-100258699D01*
X115013929Y-100258699D01*
X114808000Y-100238416D01*
X114602070Y-100258699D01*
X114602067Y-100258699D01*
X114602066Y-100258700D01*
X114404046Y-100318768D01*
X114404043Y-100318769D01*
X114221550Y-100416314D01*
X114061589Y-100547589D01*
X113930314Y-100707550D01*
X113832769Y-100890043D01*
X113832769Y-100890044D01*
X113832768Y-100890046D01*
X113772701Y-101088065D01*
X113772699Y-101088070D01*
X113752416Y-101294000D01*
X113323583Y-101294000D01*
X113303300Y-101088066D01*
X113243232Y-100890046D01*
X113145685Y-100707550D01*
X113094722Y-100645451D01*
X113014410Y-100547589D01*
X112854449Y-100416314D01*
X112671956Y-100318769D01*
X112671955Y-100318768D01*
X112671954Y-100318768D01*
X112473934Y-100258700D01*
X112473931Y-100258699D01*
X112473929Y-100258699D01*
X112268000Y-100238416D01*
X112062070Y-100258699D01*
X112062067Y-100258699D01*
X112062066Y-100258700D01*
X111864046Y-100318768D01*
X111864043Y-100318769D01*
X111681550Y-100416314D01*
X111521589Y-100547589D01*
X111390314Y-100707550D01*
X111292769Y-100890043D01*
X111292769Y-100890044D01*
X111292768Y-100890046D01*
X111232701Y-101088065D01*
X111232699Y-101088070D01*
X111212416Y-101294000D01*
X110783583Y-101294000D01*
X110763300Y-101088066D01*
X110703232Y-100890046D01*
X110605685Y-100707550D01*
X110554722Y-100645451D01*
X110474410Y-100547589D01*
X110314449Y-100416314D01*
X110131956Y-100318769D01*
X110131955Y-100318768D01*
X110131954Y-100318768D01*
X109933934Y-100258700D01*
X109933931Y-100258699D01*
X109933929Y-100258699D01*
X109728000Y-100238416D01*
X109522070Y-100258699D01*
X109522067Y-100258699D01*
X109522066Y-100258700D01*
X109324046Y-100318768D01*
X109324043Y-100318769D01*
X109141550Y-100416314D01*
X108981589Y-100547589D01*
X108850314Y-100707550D01*
X108752769Y-100890043D01*
X108752769Y-100890044D01*
X108752768Y-100890046D01*
X108692701Y-101088065D01*
X108692699Y-101088070D01*
X108672416Y-101294000D01*
X108243583Y-101294000D01*
X108223300Y-101088066D01*
X108163232Y-100890046D01*
X108065685Y-100707550D01*
X108014722Y-100645451D01*
X107934410Y-100547589D01*
X107774449Y-100416314D01*
X107591956Y-100318769D01*
X107591955Y-100318768D01*
X107591954Y-100318768D01*
X107393934Y-100258700D01*
X107393931Y-100258699D01*
X107393929Y-100258699D01*
X107188000Y-100238416D01*
X106982070Y-100258699D01*
X106982067Y-100258699D01*
X106982066Y-100258700D01*
X106784046Y-100318768D01*
X106784043Y-100318769D01*
X106601550Y-100416314D01*
X106441589Y-100547589D01*
X106310314Y-100707550D01*
X106212769Y-100890043D01*
X106212769Y-100890044D01*
X106212768Y-100890046D01*
X106152701Y-101088065D01*
X106152699Y-101088070D01*
X106132416Y-101294000D01*
X105703583Y-101294000D01*
X105683300Y-101088066D01*
X105623232Y-100890046D01*
X105525685Y-100707550D01*
X105474722Y-100645451D01*
X105394410Y-100547589D01*
X105234449Y-100416314D01*
X105051956Y-100318769D01*
X105051955Y-100318768D01*
X105051954Y-100318768D01*
X104853934Y-100258700D01*
X104853931Y-100258699D01*
X104853929Y-100258699D01*
X104648000Y-100238416D01*
X104442070Y-100258699D01*
X104442067Y-100258699D01*
X104442066Y-100258700D01*
X104244046Y-100318768D01*
X104244043Y-100318769D01*
X104061550Y-100416314D01*
X103901589Y-100547589D01*
X103770314Y-100707550D01*
X103672769Y-100890043D01*
X103672769Y-100890044D01*
X103672768Y-100890046D01*
X103612701Y-101088065D01*
X103612699Y-101088070D01*
X103592416Y-101294000D01*
X103163583Y-101294000D01*
X103143300Y-101088066D01*
X103083232Y-100890046D01*
X102985685Y-100707550D01*
X102934722Y-100645451D01*
X102854410Y-100547589D01*
X102694449Y-100416314D01*
X102511956Y-100318769D01*
X102511955Y-100318768D01*
X102511954Y-100318768D01*
X102313934Y-100258700D01*
X102313931Y-100258699D01*
X102313929Y-100258699D01*
X102108000Y-100238416D01*
X101902070Y-100258699D01*
X101902067Y-100258699D01*
X101902066Y-100258700D01*
X101704046Y-100318768D01*
X101704043Y-100318769D01*
X101521550Y-100416314D01*
X101361589Y-100547589D01*
X101230314Y-100707550D01*
X101132769Y-100890043D01*
X101132769Y-100890044D01*
X101132768Y-100890046D01*
X101072701Y-101088065D01*
X101072699Y-101088070D01*
X101052416Y-101294000D01*
X100623583Y-101294000D01*
X100603300Y-101088066D01*
X100543232Y-100890046D01*
X100445685Y-100707550D01*
X100394722Y-100645451D01*
X100314410Y-100547589D01*
X100154449Y-100416314D01*
X99971956Y-100318769D01*
X99971955Y-100318768D01*
X99971954Y-100318768D01*
X99773934Y-100258700D01*
X99773931Y-100258699D01*
X99773929Y-100258699D01*
X99568000Y-100238416D01*
X99362070Y-100258699D01*
X99362067Y-100258699D01*
X99362066Y-100258700D01*
X99164046Y-100318768D01*
X99164043Y-100318769D01*
X98981550Y-100416314D01*
X98821589Y-100547589D01*
X98690314Y-100707550D01*
X98592769Y-100890043D01*
X98592769Y-100890044D01*
X98592768Y-100890046D01*
X98532701Y-101088065D01*
X98532699Y-101088070D01*
X98512416Y-101294000D01*
X98083583Y-101294000D01*
X98063300Y-101088066D01*
X98003232Y-100890046D01*
X97905685Y-100707550D01*
X97854722Y-100645451D01*
X97774410Y-100547589D01*
X97614449Y-100416314D01*
X97431956Y-100318769D01*
X97431955Y-100318768D01*
X97431954Y-100318768D01*
X97233934Y-100258700D01*
X97233931Y-100258699D01*
X97233929Y-100258699D01*
X97028000Y-100238416D01*
X96822070Y-100258699D01*
X96822067Y-100258699D01*
X96822066Y-100258700D01*
X96624046Y-100318768D01*
X96624043Y-100318769D01*
X96441550Y-100416314D01*
X96281589Y-100547589D01*
X96150314Y-100707550D01*
X96052769Y-100890043D01*
X96052769Y-100890044D01*
X96052768Y-100890046D01*
X95992701Y-101088065D01*
X95992699Y-101088070D01*
X95972416Y-101294000D01*
X95543583Y-101294000D01*
X95523300Y-101088066D01*
X95463232Y-100890046D01*
X95365685Y-100707550D01*
X95314722Y-100645451D01*
X95234410Y-100547589D01*
X95074449Y-100416314D01*
X94891956Y-100318769D01*
X94891955Y-100318768D01*
X94891954Y-100318768D01*
X94693934Y-100258700D01*
X94693931Y-100258699D01*
X94693929Y-100258699D01*
X94488000Y-100238416D01*
X94282070Y-100258699D01*
X94282067Y-100258699D01*
X94282066Y-100258700D01*
X94084046Y-100318768D01*
X94084043Y-100318769D01*
X93901550Y-100416314D01*
X93741589Y-100547589D01*
X93610314Y-100707550D01*
X93512769Y-100890043D01*
X93512769Y-100890044D01*
X93512768Y-100890046D01*
X93452701Y-101088065D01*
X93452699Y-101088070D01*
X93432416Y-101294000D01*
X93003583Y-101294000D01*
X92983300Y-101088066D01*
X92923232Y-100890046D01*
X92825685Y-100707550D01*
X92774722Y-100645451D01*
X92694410Y-100547589D01*
X92534449Y-100416314D01*
X92351956Y-100318769D01*
X92351955Y-100318768D01*
X92351954Y-100318768D01*
X92153934Y-100258700D01*
X92153931Y-100258699D01*
X92153929Y-100258699D01*
X91948000Y-100238416D01*
X91742070Y-100258699D01*
X91742067Y-100258699D01*
X91742066Y-100258700D01*
X91544046Y-100318768D01*
X91544043Y-100318769D01*
X91361550Y-100416314D01*
X91201589Y-100547589D01*
X91070314Y-100707550D01*
X90972769Y-100890043D01*
X90972769Y-100890044D01*
X90972768Y-100890046D01*
X90912701Y-101088065D01*
X90912699Y-101088070D01*
X90892416Y-101294000D01*
X90463583Y-101294000D01*
X90443300Y-101088066D01*
X90383232Y-100890046D01*
X90285685Y-100707550D01*
X90234722Y-100645451D01*
X90154410Y-100547589D01*
X89994449Y-100416314D01*
X89811956Y-100318769D01*
X89811955Y-100318768D01*
X89811954Y-100318768D01*
X89613934Y-100258700D01*
X89613931Y-100258699D01*
X89613929Y-100258699D01*
X89408000Y-100238416D01*
X89202070Y-100258699D01*
X89202067Y-100258699D01*
X89202066Y-100258700D01*
X89004046Y-100318768D01*
X89004043Y-100318769D01*
X88821550Y-100416314D01*
X88661589Y-100547589D01*
X88530314Y-100707550D01*
X88432769Y-100890043D01*
X88432769Y-100890044D01*
X88432768Y-100890046D01*
X88372701Y-101088065D01*
X88372699Y-101088070D01*
X88352416Y-101294000D01*
X87923583Y-101294000D01*
X87903300Y-101088066D01*
X87843232Y-100890046D01*
X87745685Y-100707550D01*
X87694722Y-100645451D01*
X87614410Y-100547589D01*
X87454449Y-100416314D01*
X87271956Y-100318769D01*
X87271955Y-100318768D01*
X87271954Y-100318768D01*
X87073934Y-100258700D01*
X87073931Y-100258699D01*
X87073929Y-100258699D01*
X86868000Y-100238416D01*
X86662070Y-100258699D01*
X86662067Y-100258699D01*
X86662066Y-100258700D01*
X86464046Y-100318768D01*
X86464043Y-100318769D01*
X86281550Y-100416314D01*
X86121589Y-100547589D01*
X85990314Y-100707550D01*
X85892769Y-100890043D01*
X85892769Y-100890044D01*
X85892768Y-100890046D01*
X85832701Y-101088065D01*
X85832699Y-101088070D01*
X85812416Y-101294000D01*
X85378500Y-101294000D01*
X85378500Y-100424252D01*
X85366867Y-100365769D01*
X85335462Y-100318769D01*
X85322552Y-100299447D01*
X85256231Y-100255133D01*
X85256230Y-100255132D01*
X85197748Y-100243500D01*
X83458252Y-100243500D01*
X83429010Y-100249316D01*
X83399768Y-100255133D01*
X83333447Y-100299447D01*
X83289133Y-100365768D01*
X83277500Y-100424253D01*
X83277500Y-102163747D01*
X82804000Y-102163747D01*
X82804000Y-91201000D01*
X86353918Y-91201000D01*
X86406186Y-91396070D01*
X86502912Y-91603498D01*
X86634189Y-91790981D01*
X86796018Y-91952810D01*
X86983501Y-92084087D01*
X87190929Y-92180813D01*
X87386000Y-92233082D01*
X87386000Y-91201000D01*
X87894000Y-91201000D01*
X87894000Y-92233082D01*
X88089070Y-92180813D01*
X88296498Y-92084087D01*
X88483981Y-91952810D01*
X88645810Y-91790981D01*
X88777087Y-91603498D01*
X88873813Y-91396070D01*
X88926082Y-91201000D01*
X87894000Y-91201000D01*
X87386000Y-91201000D01*
X86353918Y-91201000D01*
X82804000Y-91201000D01*
X82804000Y-90946999D01*
X94254658Y-90946999D01*
X94273975Y-91143132D01*
X94331185Y-91331725D01*
X94424089Y-91505537D01*
X94549116Y-91657883D01*
X94701462Y-91782910D01*
X94875273Y-91875814D01*
X94969570Y-91904419D01*
X95063867Y-91933024D01*
X95260000Y-91952341D01*
X95456132Y-91933024D01*
X95644727Y-91875814D01*
X95818538Y-91782910D01*
X95970883Y-91657883D01*
X96095910Y-91505538D01*
X96188814Y-91331727D01*
X96246024Y-91143132D01*
X96265341Y-90947000D01*
X96246024Y-90750868D01*
X96188814Y-90562273D01*
X96095910Y-90388462D01*
X96095909Y-90388461D01*
X95970883Y-90236116D01*
X95818537Y-90111089D01*
X95644725Y-90018185D01*
X95456132Y-89960975D01*
X95259999Y-89941658D01*
X95063867Y-89960975D01*
X94875274Y-90018185D01*
X94701462Y-90111089D01*
X94549116Y-90236116D01*
X94424089Y-90388462D01*
X94331185Y-90562274D01*
X94273975Y-90750867D01*
X94254658Y-90946999D01*
X82804000Y-90946999D01*
X82804000Y-90693000D01*
X86353917Y-90693000D01*
X88926082Y-90693000D01*
X88873813Y-90497929D01*
X88777087Y-90290501D01*
X88645810Y-90103018D01*
X88483981Y-89941189D01*
X88296498Y-89809912D01*
X88089070Y-89713186D01*
X87867999Y-89653951D01*
X87798008Y-89647828D01*
X87739943Y-89627704D01*
X87698302Y-89582510D01*
X87682991Y-89522994D01*
X87697652Y-89463315D01*
X87738797Y-89417669D01*
X87796639Y-89396914D01*
X87836132Y-89393024D01*
X87836132Y-89393023D01*
X88024727Y-89335814D01*
X88198538Y-89242910D01*
X88350883Y-89117883D01*
X88475910Y-88965538D01*
X88568814Y-88791727D01*
X88626024Y-88603132D01*
X88645341Y-88407000D01*
X94254658Y-88407000D01*
X94273975Y-88603132D01*
X94331185Y-88791725D01*
X94424089Y-88965537D01*
X94549116Y-89117883D01*
X94701461Y-89242909D01*
X94701462Y-89242910D01*
X94875273Y-89335814D01*
X94969570Y-89364418D01*
X95063867Y-89393024D01*
X95260000Y-89412341D01*
X95456132Y-89393024D01*
X95644727Y-89335814D01*
X95818538Y-89242910D01*
X95970883Y-89117883D01*
X96095910Y-88965538D01*
X96188814Y-88791727D01*
X96228470Y-88661000D01*
X98545918Y-88661000D01*
X98598186Y-88856070D01*
X98694912Y-89063498D01*
X98826189Y-89250981D01*
X98988018Y-89412810D01*
X99175501Y-89544087D01*
X99382929Y-89640813D01*
X99578000Y-89693082D01*
X99578000Y-88661000D01*
X100086000Y-88661000D01*
X100086000Y-89693082D01*
X100281070Y-89640813D01*
X100488498Y-89544087D01*
X100675981Y-89412810D01*
X100837810Y-89250981D01*
X100969087Y-89063498D01*
X101065813Y-88856070D01*
X101118082Y-88661000D01*
X100086000Y-88661000D01*
X99578000Y-88661000D01*
X98545918Y-88661000D01*
X96228470Y-88661000D01*
X96246024Y-88603132D01*
X96265341Y-88407000D01*
X106446658Y-88407000D01*
X106465975Y-88603132D01*
X106523185Y-88791725D01*
X106616089Y-88965537D01*
X106741116Y-89117883D01*
X106893461Y-89242909D01*
X106893462Y-89242910D01*
X107067273Y-89335814D01*
X107161570Y-89364418D01*
X107255867Y-89393024D01*
X107452000Y-89412341D01*
X107648132Y-89393024D01*
X107836727Y-89335814D01*
X108010538Y-89242910D01*
X108162883Y-89117883D01*
X108287910Y-88965538D01*
X108380814Y-88791727D01*
X108438024Y-88603132D01*
X108457341Y-88407000D01*
X108438024Y-88210868D01*
X108380814Y-88022273D01*
X108287910Y-87848462D01*
X108287909Y-87848461D01*
X108162883Y-87696116D01*
X108010537Y-87571089D01*
X107836725Y-87478185D01*
X107648132Y-87420975D01*
X107451999Y-87401658D01*
X107255867Y-87420975D01*
X107067274Y-87478185D01*
X106893462Y-87571089D01*
X106741116Y-87696116D01*
X106616089Y-87848462D01*
X106523185Y-88022274D01*
X106465975Y-88210867D01*
X106446658Y-88407000D01*
X96265341Y-88407000D01*
X96246024Y-88210868D01*
X96228470Y-88153000D01*
X98545917Y-88153000D01*
X101118082Y-88153000D01*
X101065813Y-87957929D01*
X100969087Y-87750501D01*
X100837810Y-87563018D01*
X100675981Y-87401189D01*
X100488498Y-87269912D01*
X100281070Y-87173186D01*
X100059999Y-87113951D01*
X99990008Y-87107828D01*
X99931943Y-87087704D01*
X99890302Y-87042510D01*
X99874991Y-86982994D01*
X99889652Y-86923315D01*
X99930797Y-86877669D01*
X99988639Y-86856914D01*
X100028132Y-86853024D01*
X100028132Y-86853023D01*
X100216727Y-86795814D01*
X100390538Y-86702910D01*
X100542883Y-86577883D01*
X100667910Y-86425538D01*
X100760814Y-86251727D01*
X100818024Y-86063132D01*
X100837341Y-85867000D01*
X100837341Y-85866999D01*
X106446658Y-85866999D01*
X106465975Y-86063132D01*
X106523185Y-86251725D01*
X106616089Y-86425537D01*
X106741116Y-86577883D01*
X106893461Y-86702909D01*
X106893462Y-86702910D01*
X107067273Y-86795814D01*
X107161570Y-86824418D01*
X107255867Y-86853024D01*
X107452000Y-86872341D01*
X107648132Y-86853024D01*
X107836727Y-86795814D01*
X108010538Y-86702910D01*
X108162883Y-86577883D01*
X108287910Y-86425538D01*
X108380814Y-86251727D01*
X108438024Y-86063132D01*
X108457341Y-85867000D01*
X108438024Y-85670868D01*
X108380814Y-85482273D01*
X108287910Y-85308462D01*
X108206221Y-85208924D01*
X108162883Y-85156116D01*
X108010537Y-85031089D01*
X107836725Y-84938185D01*
X107648132Y-84880975D01*
X107452000Y-84861658D01*
X107255867Y-84880975D01*
X107067274Y-84938185D01*
X106893462Y-85031089D01*
X106741116Y-85156116D01*
X106616089Y-85308462D01*
X106523185Y-85482274D01*
X106465975Y-85670867D01*
X106446658Y-85866999D01*
X100837341Y-85866999D01*
X100818024Y-85670868D01*
X100760814Y-85482273D01*
X100667910Y-85308462D01*
X100586221Y-85208924D01*
X100542883Y-85156116D01*
X100390537Y-85031089D01*
X100216725Y-84938185D01*
X100028132Y-84880975D01*
X99832000Y-84861658D01*
X99635867Y-84880975D01*
X99447274Y-84938185D01*
X99273462Y-85031089D01*
X99121116Y-85156116D01*
X98996089Y-85308462D01*
X98903185Y-85482274D01*
X98845975Y-85670867D01*
X98826658Y-85866999D01*
X98845975Y-86063132D01*
X98903185Y-86251725D01*
X98996089Y-86425537D01*
X99121116Y-86577883D01*
X99273461Y-86702909D01*
X99273462Y-86702910D01*
X99447273Y-86795814D01*
X99541570Y-86824418D01*
X99635867Y-86853024D01*
X99675360Y-86856914D01*
X99733202Y-86877669D01*
X99774347Y-86923316D01*
X99789008Y-86982994D01*
X99773697Y-87042510D01*
X99732056Y-87087704D01*
X99673991Y-87107828D01*
X99604000Y-87113951D01*
X99382929Y-87173186D01*
X99175501Y-87269912D01*
X98988018Y-87401189D01*
X98826189Y-87563018D01*
X98694912Y-87750501D01*
X98598186Y-87957929D01*
X98545917Y-88153000D01*
X96228470Y-88153000D01*
X96188814Y-88022273D01*
X96095910Y-87848462D01*
X96095909Y-87848461D01*
X95970883Y-87696116D01*
X95818537Y-87571089D01*
X95644725Y-87478185D01*
X95456132Y-87420975D01*
X95259999Y-87401658D01*
X95063867Y-87420975D01*
X94875274Y-87478185D01*
X94701462Y-87571089D01*
X94549116Y-87696116D01*
X94424089Y-87848462D01*
X94331185Y-88022274D01*
X94273975Y-88210867D01*
X94254658Y-88407000D01*
X88645341Y-88407000D01*
X88626024Y-88210868D01*
X88568814Y-88022273D01*
X88475910Y-87848462D01*
X88475909Y-87848461D01*
X88350883Y-87696116D01*
X88198537Y-87571089D01*
X88024725Y-87478185D01*
X87836132Y-87420975D01*
X87639999Y-87401658D01*
X87443867Y-87420975D01*
X87255274Y-87478185D01*
X87081462Y-87571089D01*
X86929116Y-87696116D01*
X86804089Y-87848462D01*
X86711185Y-88022274D01*
X86653975Y-88210867D01*
X86634658Y-88407000D01*
X86653975Y-88603132D01*
X86711185Y-88791725D01*
X86804089Y-88965537D01*
X86929116Y-89117883D01*
X87081461Y-89242909D01*
X87081462Y-89242910D01*
X87255273Y-89335814D01*
X87349570Y-89364418D01*
X87443867Y-89393024D01*
X87483360Y-89396914D01*
X87541202Y-89417669D01*
X87582347Y-89463316D01*
X87597008Y-89522994D01*
X87581697Y-89582510D01*
X87540056Y-89627704D01*
X87481991Y-89647828D01*
X87412000Y-89653951D01*
X87190929Y-89713186D01*
X86983501Y-89809912D01*
X86796018Y-89941189D01*
X86634189Y-90103018D01*
X86502912Y-90290501D01*
X86406186Y-90497929D01*
X86353917Y-90693000D01*
X82804000Y-90693000D01*
X82804000Y-83581000D01*
X86353918Y-83581000D01*
X86406186Y-83776070D01*
X86502912Y-83983498D01*
X86634189Y-84170981D01*
X86796018Y-84332810D01*
X86983501Y-84464087D01*
X87190929Y-84560813D01*
X87412000Y-84620048D01*
X87481990Y-84626171D01*
X87540055Y-84646294D01*
X87581696Y-84691488D01*
X87597008Y-84751003D01*
X87582348Y-84810682D01*
X87541204Y-84856328D01*
X87483363Y-84877085D01*
X87443867Y-84880975D01*
X87255274Y-84938185D01*
X87081462Y-85031089D01*
X86929116Y-85156116D01*
X86804089Y-85308462D01*
X86711185Y-85482274D01*
X86653975Y-85670867D01*
X86634658Y-85866999D01*
X86653975Y-86063132D01*
X86711185Y-86251725D01*
X86804089Y-86425537D01*
X86929116Y-86577883D01*
X87081461Y-86702909D01*
X87081462Y-86702910D01*
X87255273Y-86795814D01*
X87349570Y-86824418D01*
X87443867Y-86853024D01*
X87640000Y-86872341D01*
X87836132Y-86853024D01*
X88024727Y-86795814D01*
X88198538Y-86702910D01*
X88350883Y-86577883D01*
X88475910Y-86425538D01*
X88568814Y-86251727D01*
X88626024Y-86063132D01*
X88645341Y-85867000D01*
X88626024Y-85670868D01*
X88613701Y-85630248D01*
X88612052Y-85563059D01*
X88645179Y-85504579D01*
X89045355Y-85104404D01*
X89086233Y-85077091D01*
X89134451Y-85067500D01*
X94355438Y-85067500D01*
X94422848Y-85087049D01*
X94469341Y-85139628D01*
X94480490Y-85208924D01*
X94452837Y-85273434D01*
X94424089Y-85308462D01*
X94331185Y-85482274D01*
X94273975Y-85670867D01*
X94254658Y-85866999D01*
X94273975Y-86063132D01*
X94331185Y-86251725D01*
X94424089Y-86425537D01*
X94549116Y-86577883D01*
X94701461Y-86702909D01*
X94701462Y-86702910D01*
X94875273Y-86795814D01*
X94969570Y-86824418D01*
X95063867Y-86853024D01*
X95260000Y-86872341D01*
X95456132Y-86853024D01*
X95644727Y-86795814D01*
X95818538Y-86702910D01*
X95970883Y-86577883D01*
X96095910Y-86425538D01*
X96188814Y-86251727D01*
X96246024Y-86063132D01*
X96265341Y-85867000D01*
X96246024Y-85670868D01*
X96188814Y-85482273D01*
X96095910Y-85308462D01*
X96067162Y-85273433D01*
X96039510Y-85208924D01*
X96050659Y-85139628D01*
X96097152Y-85087049D01*
X96164562Y-85067500D01*
X98513392Y-85067500D01*
X98527497Y-85068291D01*
X98563186Y-85072313D01*
X98619871Y-85061586D01*
X98624451Y-85060808D01*
X98681479Y-85052214D01*
X98681480Y-85052213D01*
X98687594Y-85051292D01*
X98692336Y-85049732D01*
X98697805Y-85046841D01*
X98697807Y-85046841D01*
X98748791Y-85019893D01*
X98752955Y-85017791D01*
X98804921Y-84992767D01*
X98804924Y-84992763D01*
X98810497Y-84990080D01*
X98814564Y-84987195D01*
X98818937Y-84982821D01*
X98818940Y-84982820D01*
X98859720Y-84942038D01*
X98863058Y-84938822D01*
X98905356Y-84899577D01*
X98905357Y-84899573D01*
X98909883Y-84895375D01*
X98921421Y-84880337D01*
X99469579Y-84332179D01*
X99528057Y-84299052D01*
X99595248Y-84300701D01*
X99635868Y-84313024D01*
X99766622Y-84325902D01*
X99831999Y-84332341D01*
X99831999Y-84332340D01*
X99832000Y-84332341D01*
X100028132Y-84313024D01*
X100216727Y-84255814D01*
X100390538Y-84162910D01*
X100542883Y-84037883D01*
X100667910Y-83885538D01*
X100760814Y-83711727D01*
X100818024Y-83523132D01*
X100837341Y-83327000D01*
X100837341Y-83326999D01*
X106446658Y-83326999D01*
X106465975Y-83523132D01*
X106523185Y-83711725D01*
X106616089Y-83885537D01*
X106741116Y-84037883D01*
X106858128Y-84133912D01*
X106893462Y-84162910D01*
X107067273Y-84255814D01*
X107142978Y-84278779D01*
X107255867Y-84313024D01*
X107452000Y-84332341D01*
X107648132Y-84313024D01*
X107836727Y-84255814D01*
X108010538Y-84162910D01*
X108162883Y-84037883D01*
X108287910Y-83885538D01*
X108380814Y-83711727D01*
X108438024Y-83523132D01*
X108457341Y-83327000D01*
X108453177Y-83284726D01*
X108438024Y-83130867D01*
X108380814Y-82942274D01*
X108380814Y-82942273D01*
X108287910Y-82768462D01*
X108272642Y-82749858D01*
X108162883Y-82616116D01*
X108010537Y-82491089D01*
X107836725Y-82398185D01*
X107648132Y-82340975D01*
X107452000Y-82321658D01*
X107255867Y-82340975D01*
X107067274Y-82398185D01*
X106893462Y-82491089D01*
X106741116Y-82616116D01*
X106616089Y-82768462D01*
X106523185Y-82942274D01*
X106465975Y-83130867D01*
X106446658Y-83326999D01*
X100837341Y-83326999D01*
X100833177Y-83284726D01*
X100818024Y-83130867D01*
X100760814Y-82942274D01*
X100760814Y-82942273D01*
X100667910Y-82768462D01*
X100652642Y-82749858D01*
X100542883Y-82616116D01*
X100390537Y-82491089D01*
X100216725Y-82398185D01*
X100028132Y-82340975D01*
X99832000Y-82321658D01*
X99635867Y-82340975D01*
X99447274Y-82398185D01*
X99273462Y-82491089D01*
X99121116Y-82616116D01*
X98996089Y-82768462D01*
X98903185Y-82942274D01*
X98845975Y-83130867D01*
X98826658Y-83326999D01*
X98845975Y-83523130D01*
X98849427Y-83534509D01*
X98857103Y-83559814D01*
X98858297Y-83563748D01*
X98859947Y-83630940D01*
X98826818Y-83689420D01*
X98394641Y-84121597D01*
X98353767Y-84148909D01*
X98305549Y-84158500D01*
X96138300Y-84158500D01*
X96070890Y-84138951D01*
X96024397Y-84086372D01*
X96013248Y-84017076D01*
X96040901Y-83952566D01*
X96042716Y-83950355D01*
X96095910Y-83885538D01*
X96188814Y-83711727D01*
X96246024Y-83523132D01*
X96265341Y-83327000D01*
X96261177Y-83284726D01*
X96246024Y-83130867D01*
X96188814Y-82942274D01*
X96188814Y-82942273D01*
X96095910Y-82768462D01*
X96080642Y-82749858D01*
X95970883Y-82616116D01*
X95818537Y-82491089D01*
X95644725Y-82398185D01*
X95456132Y-82340975D01*
X95260000Y-82321658D01*
X95063867Y-82340975D01*
X94875274Y-82398185D01*
X94701462Y-82491089D01*
X94549116Y-82616116D01*
X94424089Y-82768462D01*
X94331185Y-82942274D01*
X94273975Y-83130867D01*
X94254658Y-83326999D01*
X94273975Y-83523132D01*
X94331185Y-83711725D01*
X94424089Y-83885537D01*
X94479099Y-83952566D01*
X94506752Y-84017076D01*
X94495603Y-84086372D01*
X94449110Y-84138951D01*
X94381700Y-84158500D01*
X88926609Y-84158500D01*
X88912503Y-84157708D01*
X88898622Y-84156144D01*
X88880819Y-84154138D01*
X88825252Y-84133912D01*
X88785031Y-84090564D01*
X88769016Y-84033641D01*
X88780733Y-83975680D01*
X88873813Y-83776070D01*
X88926082Y-83581000D01*
X86353918Y-83581000D01*
X82804000Y-83581000D01*
X82804000Y-83073000D01*
X86353917Y-83073000D01*
X88926082Y-83073000D01*
X88873813Y-82877929D01*
X88777087Y-82670501D01*
X88645810Y-82483018D01*
X88483981Y-82321189D01*
X88296498Y-82189912D01*
X88089070Y-82093186D01*
X87867999Y-82033951D01*
X87798008Y-82027828D01*
X87739943Y-82007704D01*
X87698302Y-81962510D01*
X87682991Y-81902994D01*
X87697652Y-81843315D01*
X87738797Y-81797669D01*
X87796639Y-81776914D01*
X87836132Y-81773024D01*
X87836132Y-81773023D01*
X88024727Y-81715814D01*
X88198538Y-81622910D01*
X88350883Y-81497883D01*
X88475910Y-81345538D01*
X88568814Y-81171727D01*
X88626024Y-80983132D01*
X88645341Y-80787000D01*
X94254658Y-80787000D01*
X94273975Y-80983132D01*
X94331185Y-81171725D01*
X94424089Y-81345537D01*
X94549116Y-81497883D01*
X94701462Y-81622910D01*
X94875273Y-81715814D01*
X94969570Y-81744418D01*
X95063867Y-81773024D01*
X95260000Y-81792341D01*
X95456132Y-81773024D01*
X95644727Y-81715814D01*
X95818538Y-81622910D01*
X95970883Y-81497883D01*
X96095910Y-81345538D01*
X96188814Y-81171727D01*
X96246024Y-80983132D01*
X96265341Y-80787000D01*
X96246024Y-80590868D01*
X96188814Y-80402273D01*
X96095910Y-80228462D01*
X96002103Y-80114158D01*
X95970883Y-80076116D01*
X95818537Y-79951089D01*
X95644725Y-79858185D01*
X95456132Y-79800975D01*
X95260000Y-79781658D01*
X95063867Y-79800975D01*
X94875274Y-79858185D01*
X94701462Y-79951089D01*
X94549116Y-80076116D01*
X94424089Y-80228462D01*
X94331185Y-80402274D01*
X94273975Y-80590867D01*
X94254658Y-80787000D01*
X88645341Y-80787000D01*
X88626024Y-80590868D01*
X88613701Y-80550248D01*
X88612052Y-80483057D01*
X88645179Y-80424579D01*
X90822759Y-78246999D01*
X94254658Y-78246999D01*
X94273975Y-78443132D01*
X94331185Y-78631725D01*
X94424089Y-78805537D01*
X94549116Y-78957883D01*
X94601428Y-79000814D01*
X94701462Y-79082910D01*
X94875273Y-79175814D01*
X94969570Y-79204418D01*
X95063867Y-79233024D01*
X95260000Y-79252341D01*
X95456132Y-79233024D01*
X95644727Y-79175814D01*
X95818538Y-79082910D01*
X95970883Y-78957883D01*
X96095910Y-78805538D01*
X96188814Y-78631727D01*
X96246024Y-78443132D01*
X96265341Y-78247000D01*
X96246024Y-78050868D01*
X96188814Y-77862273D01*
X96095910Y-77688462D01*
X96095909Y-77688461D01*
X95970883Y-77536116D01*
X95818537Y-77411089D01*
X95644725Y-77318185D01*
X95456132Y-77260975D01*
X95260000Y-77241658D01*
X95063867Y-77260975D01*
X94875274Y-77318185D01*
X94701462Y-77411089D01*
X94549116Y-77536116D01*
X94424089Y-77688462D01*
X94331185Y-77862274D01*
X94273975Y-78050867D01*
X94254658Y-78246999D01*
X90822759Y-78246999D01*
X94125354Y-74944405D01*
X94166232Y-74917091D01*
X94214450Y-74907500D01*
X94355438Y-74907500D01*
X94422848Y-74927049D01*
X94469341Y-74979628D01*
X94480490Y-75048924D01*
X94452837Y-75113434D01*
X94424089Y-75148462D01*
X94331185Y-75322274D01*
X94273975Y-75510867D01*
X94254658Y-75707000D01*
X94273975Y-75903132D01*
X94331185Y-76091725D01*
X94424089Y-76265537D01*
X94549116Y-76417883D01*
X94655560Y-76505239D01*
X94701462Y-76542910D01*
X94875273Y-76635814D01*
X94950978Y-76658779D01*
X95063867Y-76693024D01*
X95260000Y-76712341D01*
X95456132Y-76693024D01*
X95496751Y-76680701D01*
X95563940Y-76679052D01*
X95622421Y-76712181D01*
X98979687Y-80069447D01*
X99008516Y-80114158D01*
X99016322Y-80166783D01*
X99001714Y-80217938D01*
X98903185Y-80402273D01*
X98845975Y-80590867D01*
X98826658Y-80787000D01*
X98845975Y-80983132D01*
X98903185Y-81171725D01*
X98996089Y-81345537D01*
X99121116Y-81497883D01*
X99273462Y-81622910D01*
X99447273Y-81715814D01*
X99541570Y-81744418D01*
X99635867Y-81773024D01*
X99832000Y-81792341D01*
X100028132Y-81773024D01*
X100216727Y-81715814D01*
X100390538Y-81622910D01*
X100542883Y-81497883D01*
X100667910Y-81345538D01*
X100760814Y-81171727D01*
X100818024Y-80983132D01*
X100837341Y-80787000D01*
X106446658Y-80787000D01*
X106465975Y-80983132D01*
X106523185Y-81171725D01*
X106616089Y-81345537D01*
X106741116Y-81497883D01*
X106893462Y-81622910D01*
X107067273Y-81715814D01*
X107161570Y-81744418D01*
X107255867Y-81773024D01*
X107452000Y-81792341D01*
X107648132Y-81773024D01*
X107836727Y-81715814D01*
X108010538Y-81622910D01*
X108162883Y-81497883D01*
X108287910Y-81345538D01*
X108380814Y-81171727D01*
X108438024Y-80983132D01*
X108457341Y-80787000D01*
X108438024Y-80590868D01*
X108380814Y-80402273D01*
X108287910Y-80228462D01*
X108194103Y-80114158D01*
X108162883Y-80076116D01*
X108010537Y-79951089D01*
X107836725Y-79858185D01*
X107648132Y-79800975D01*
X107452000Y-79781658D01*
X107255867Y-79800975D01*
X107067274Y-79858185D01*
X106893462Y-79951089D01*
X106741116Y-80076116D01*
X106616089Y-80228462D01*
X106523185Y-80402274D01*
X106465975Y-80590867D01*
X106446658Y-80787000D01*
X100837341Y-80787000D01*
X100818024Y-80590868D01*
X100760814Y-80402273D01*
X100667910Y-80228462D01*
X100574103Y-80114158D01*
X100542883Y-80076116D01*
X100390537Y-79951089D01*
X100216730Y-79858187D01*
X100216727Y-79858186D01*
X100028132Y-79800976D01*
X100028127Y-79800975D01*
X100016258Y-79797375D01*
X100016670Y-79796015D01*
X99996640Y-79790469D01*
X99961429Y-79765667D01*
X99655166Y-79459404D01*
X99623686Y-79406885D01*
X99620682Y-79345727D01*
X99646862Y-79290375D01*
X99696043Y-79253900D01*
X99756611Y-79244916D01*
X99832000Y-79252341D01*
X100028132Y-79233024D01*
X100028132Y-79233023D01*
X100216727Y-79175814D01*
X100390538Y-79082910D01*
X100542883Y-78957883D01*
X100667910Y-78805538D01*
X100760814Y-78631727D01*
X100818024Y-78443132D01*
X100837341Y-78247000D01*
X100837341Y-78246999D01*
X106446658Y-78246999D01*
X106465975Y-78443132D01*
X106523185Y-78631725D01*
X106616089Y-78805537D01*
X106741116Y-78957883D01*
X106793428Y-79000814D01*
X106893462Y-79082910D01*
X107067273Y-79175814D01*
X107161570Y-79204418D01*
X107255867Y-79233024D01*
X107452000Y-79252341D01*
X107648132Y-79233024D01*
X107836727Y-79175814D01*
X108010538Y-79082910D01*
X108162883Y-78957883D01*
X108287910Y-78805538D01*
X108380814Y-78631727D01*
X108438024Y-78443132D01*
X108457341Y-78247000D01*
X108438024Y-78050868D01*
X108380814Y-77862273D01*
X108287910Y-77688462D01*
X108287909Y-77688461D01*
X108162883Y-77536116D01*
X108010537Y-77411089D01*
X107836725Y-77318185D01*
X107648132Y-77260975D01*
X107452000Y-77241658D01*
X107255867Y-77260975D01*
X107067274Y-77318185D01*
X106893462Y-77411089D01*
X106741116Y-77536116D01*
X106616089Y-77688462D01*
X106523185Y-77862274D01*
X106465975Y-78050867D01*
X106446658Y-78246999D01*
X100837341Y-78246999D01*
X100818024Y-78050868D01*
X100760814Y-77862273D01*
X100667910Y-77688462D01*
X100667909Y-77688461D01*
X100542883Y-77536116D01*
X100390537Y-77411089D01*
X100216725Y-77318185D01*
X100028132Y-77260975D01*
X99832000Y-77241658D01*
X99635867Y-77260975D01*
X99447274Y-77318185D01*
X99273462Y-77411089D01*
X99121116Y-77536116D01*
X98996089Y-77688462D01*
X98903185Y-77862274D01*
X98845975Y-78050867D01*
X98826658Y-78247000D01*
X98834083Y-78322391D01*
X98825099Y-78382959D01*
X98788623Y-78432140D01*
X98733271Y-78458319D01*
X98672114Y-78455314D01*
X98619595Y-78423835D01*
X96265181Y-76069421D01*
X96232052Y-76010940D01*
X96233701Y-75943751D01*
X96246024Y-75903132D01*
X96265341Y-75707000D01*
X96246024Y-75510868D01*
X96245060Y-75507691D01*
X96188814Y-75322274D01*
X96188814Y-75322273D01*
X96095910Y-75148462D01*
X96067162Y-75113433D01*
X96039510Y-75048924D01*
X96050659Y-74979628D01*
X96097152Y-74927049D01*
X96164562Y-74907500D01*
X98927438Y-74907500D01*
X98994848Y-74927049D01*
X99041341Y-74979628D01*
X99052490Y-75048924D01*
X99024837Y-75113434D01*
X98996089Y-75148462D01*
X98903185Y-75322274D01*
X98845975Y-75510867D01*
X98826658Y-75707000D01*
X98845975Y-75903132D01*
X98903185Y-76091725D01*
X98996089Y-76265537D01*
X99121116Y-76417883D01*
X99227560Y-76505239D01*
X99273462Y-76542910D01*
X99447273Y-76635814D01*
X99522978Y-76658779D01*
X99635867Y-76693024D01*
X99832000Y-76712341D01*
X100028132Y-76693024D01*
X100216727Y-76635814D01*
X100390538Y-76542910D01*
X100542883Y-76417883D01*
X100667910Y-76265538D01*
X100760814Y-76091727D01*
X100818024Y-75903132D01*
X100837341Y-75707000D01*
X100818024Y-75510868D01*
X100817060Y-75507691D01*
X100760814Y-75322274D01*
X100760814Y-75322273D01*
X100667910Y-75148462D01*
X100639162Y-75113433D01*
X100611510Y-75048924D01*
X100622659Y-74979628D01*
X100669152Y-74927049D01*
X100736562Y-74907500D01*
X106547438Y-74907500D01*
X106614848Y-74927049D01*
X106661341Y-74979628D01*
X106672490Y-75048924D01*
X106644837Y-75113434D01*
X106616089Y-75148462D01*
X106523185Y-75322274D01*
X106465975Y-75510867D01*
X106446658Y-75707000D01*
X106465975Y-75903132D01*
X106523185Y-76091725D01*
X106616089Y-76265537D01*
X106741116Y-76417883D01*
X106847560Y-76505239D01*
X106893462Y-76542910D01*
X107067273Y-76635814D01*
X107142978Y-76658779D01*
X107255867Y-76693024D01*
X107452000Y-76712341D01*
X107648132Y-76693024D01*
X107836727Y-76635814D01*
X108010538Y-76542910D01*
X108162883Y-76417883D01*
X108287910Y-76265538D01*
X108380814Y-76091727D01*
X108438024Y-75903132D01*
X108457341Y-75707000D01*
X108438024Y-75510868D01*
X108437060Y-75507691D01*
X108380814Y-75322274D01*
X108380814Y-75322273D01*
X108287910Y-75148462D01*
X108259162Y-75113433D01*
X108231510Y-75048924D01*
X108242659Y-74979628D01*
X108289152Y-74927049D01*
X108356562Y-74907500D01*
X113086550Y-74907500D01*
X113134768Y-74917091D01*
X113175645Y-74944405D01*
X139153419Y-100922179D01*
X139186548Y-100980657D01*
X139184899Y-101047848D01*
X139172699Y-101088066D01*
X139152416Y-101294000D01*
X139172699Y-101499929D01*
X139172699Y-101499931D01*
X139172700Y-101499934D01*
X139232767Y-101697951D01*
X139232769Y-101697956D01*
X139330314Y-101880449D01*
X139461589Y-102040410D01*
X139611877Y-102163747D01*
X139621550Y-102171685D01*
X139804046Y-102269232D01*
X140002066Y-102329300D01*
X140208000Y-102349583D01*
X140413934Y-102329300D01*
X140611954Y-102269232D01*
X140794450Y-102171685D01*
X140954410Y-102040410D01*
X141085685Y-101880450D01*
X141183232Y-101697954D01*
X141243300Y-101499934D01*
X141263583Y-101294000D01*
X141692416Y-101294000D01*
X141712699Y-101499929D01*
X141712699Y-101499931D01*
X141712700Y-101499934D01*
X141772767Y-101697951D01*
X141772769Y-101697956D01*
X141870314Y-101880449D01*
X142001589Y-102040410D01*
X142151877Y-102163747D01*
X142161550Y-102171685D01*
X142344046Y-102269232D01*
X142542066Y-102329300D01*
X142748000Y-102349583D01*
X142953934Y-102329300D01*
X143151954Y-102269232D01*
X143334450Y-102171685D01*
X143494410Y-102040410D01*
X143625685Y-101880450D01*
X143723232Y-101697954D01*
X143783300Y-101499934D01*
X143803583Y-101294000D01*
X144232416Y-101294000D01*
X144252699Y-101499929D01*
X144252699Y-101499931D01*
X144252700Y-101499934D01*
X144312767Y-101697951D01*
X144312769Y-101697956D01*
X144410314Y-101880449D01*
X144541589Y-102040410D01*
X144691877Y-102163747D01*
X144701550Y-102171685D01*
X144884046Y-102269232D01*
X145082066Y-102329300D01*
X145288000Y-102349583D01*
X145493934Y-102329300D01*
X145691954Y-102269232D01*
X145874450Y-102171685D01*
X146034410Y-102040410D01*
X146165685Y-101880450D01*
X146263232Y-101697954D01*
X146323300Y-101499934D01*
X146343583Y-101294000D01*
X146772416Y-101294000D01*
X146792699Y-101499929D01*
X146792699Y-101499931D01*
X146792700Y-101499934D01*
X146852767Y-101697951D01*
X146852769Y-101697956D01*
X146950314Y-101880449D01*
X147081589Y-102040410D01*
X147231877Y-102163747D01*
X147241550Y-102171685D01*
X147424046Y-102269232D01*
X147622066Y-102329300D01*
X147828000Y-102349583D01*
X148033934Y-102329300D01*
X148231954Y-102269232D01*
X148414450Y-102171685D01*
X148574410Y-102040410D01*
X148705685Y-101880450D01*
X148803232Y-101697954D01*
X148863300Y-101499934D01*
X148883583Y-101294000D01*
X149312416Y-101294000D01*
X149332699Y-101499929D01*
X149332699Y-101499931D01*
X149332700Y-101499934D01*
X149392767Y-101697951D01*
X149392769Y-101697956D01*
X149490314Y-101880449D01*
X149621589Y-102040410D01*
X149771877Y-102163747D01*
X149781550Y-102171685D01*
X149964046Y-102269232D01*
X150162066Y-102329300D01*
X150368000Y-102349583D01*
X150573934Y-102329300D01*
X150771954Y-102269232D01*
X150954450Y-102171685D01*
X151114410Y-102040410D01*
X151245685Y-101880450D01*
X151343232Y-101697954D01*
X151403300Y-101499934D01*
X151423583Y-101294000D01*
X151852416Y-101294000D01*
X151872699Y-101499929D01*
X151872699Y-101499931D01*
X151872700Y-101499934D01*
X151932767Y-101697951D01*
X151932769Y-101697956D01*
X152030314Y-101880449D01*
X152161589Y-102040410D01*
X152311877Y-102163747D01*
X152321550Y-102171685D01*
X152504046Y-102269232D01*
X152702066Y-102329300D01*
X152908000Y-102349583D01*
X153113934Y-102329300D01*
X153311954Y-102269232D01*
X153494450Y-102171685D01*
X153654410Y-102040410D01*
X153785685Y-101880450D01*
X153883232Y-101697954D01*
X153943300Y-101499934D01*
X153963583Y-101294000D01*
X153943300Y-101088066D01*
X153883232Y-100890046D01*
X153785685Y-100707550D01*
X153734722Y-100645451D01*
X153654410Y-100547589D01*
X153494449Y-100416314D01*
X153311956Y-100318769D01*
X153311955Y-100318768D01*
X153311954Y-100318768D01*
X153113934Y-100258700D01*
X153113931Y-100258699D01*
X153113929Y-100258699D01*
X152908000Y-100238416D01*
X152702070Y-100258699D01*
X152702067Y-100258699D01*
X152702066Y-100258700D01*
X152504046Y-100318768D01*
X152504043Y-100318769D01*
X152321550Y-100416314D01*
X152161589Y-100547589D01*
X152030314Y-100707550D01*
X151932769Y-100890043D01*
X151932769Y-100890044D01*
X151932768Y-100890046D01*
X151872701Y-101088065D01*
X151872699Y-101088070D01*
X151852416Y-101294000D01*
X151423583Y-101294000D01*
X151403300Y-101088066D01*
X151343232Y-100890046D01*
X151245685Y-100707550D01*
X151194722Y-100645451D01*
X151114410Y-100547589D01*
X150954449Y-100416314D01*
X150771956Y-100318769D01*
X150771955Y-100318768D01*
X150771954Y-100318768D01*
X150573934Y-100258700D01*
X150573931Y-100258699D01*
X150573929Y-100258699D01*
X150368000Y-100238416D01*
X150162070Y-100258699D01*
X150162067Y-100258699D01*
X150162066Y-100258700D01*
X149964046Y-100318768D01*
X149964043Y-100318769D01*
X149781550Y-100416314D01*
X149621589Y-100547589D01*
X149490314Y-100707550D01*
X149392769Y-100890043D01*
X149392769Y-100890044D01*
X149392768Y-100890046D01*
X149332701Y-101088065D01*
X149332699Y-101088070D01*
X149312416Y-101294000D01*
X148883583Y-101294000D01*
X148863300Y-101088066D01*
X148803232Y-100890046D01*
X148705685Y-100707550D01*
X148654722Y-100645451D01*
X148574410Y-100547589D01*
X148414449Y-100416314D01*
X148231956Y-100318769D01*
X148231955Y-100318768D01*
X148231954Y-100318768D01*
X148033934Y-100258700D01*
X148033931Y-100258699D01*
X148033929Y-100258699D01*
X147828000Y-100238416D01*
X147622070Y-100258699D01*
X147622067Y-100258699D01*
X147622066Y-100258700D01*
X147424046Y-100318768D01*
X147424043Y-100318769D01*
X147241550Y-100416314D01*
X147081589Y-100547589D01*
X146950314Y-100707550D01*
X146852769Y-100890043D01*
X146852769Y-100890044D01*
X146852768Y-100890046D01*
X146792701Y-101088065D01*
X146792699Y-101088070D01*
X146772416Y-101294000D01*
X146343583Y-101294000D01*
X146323300Y-101088066D01*
X146263232Y-100890046D01*
X146165685Y-100707550D01*
X146114722Y-100645451D01*
X146034410Y-100547589D01*
X145874449Y-100416314D01*
X145691956Y-100318769D01*
X145691955Y-100318768D01*
X145691954Y-100318768D01*
X145493934Y-100258700D01*
X145493931Y-100258699D01*
X145493929Y-100258699D01*
X145288000Y-100238416D01*
X145082070Y-100258699D01*
X145082067Y-100258699D01*
X145082066Y-100258700D01*
X144884046Y-100318768D01*
X144884043Y-100318769D01*
X144701550Y-100416314D01*
X144541589Y-100547589D01*
X144410314Y-100707550D01*
X144312769Y-100890043D01*
X144312769Y-100890044D01*
X144312768Y-100890046D01*
X144252701Y-101088065D01*
X144252699Y-101088070D01*
X144232416Y-101294000D01*
X143803583Y-101294000D01*
X143783300Y-101088066D01*
X143723232Y-100890046D01*
X143625685Y-100707550D01*
X143574722Y-100645451D01*
X143494410Y-100547589D01*
X143334449Y-100416314D01*
X143151956Y-100318769D01*
X143151955Y-100318768D01*
X143151954Y-100318768D01*
X142953934Y-100258700D01*
X142953931Y-100258699D01*
X142953929Y-100258699D01*
X142748000Y-100238416D01*
X142542070Y-100258699D01*
X142542067Y-100258699D01*
X142542066Y-100258700D01*
X142344046Y-100318768D01*
X142344043Y-100318769D01*
X142161550Y-100416314D01*
X142001589Y-100547589D01*
X141870314Y-100707550D01*
X141772769Y-100890043D01*
X141772769Y-100890044D01*
X141772768Y-100890046D01*
X141712701Y-101088065D01*
X141712699Y-101088070D01*
X141692416Y-101294000D01*
X141263583Y-101294000D01*
X141243300Y-101088066D01*
X141183232Y-100890046D01*
X141085685Y-100707550D01*
X141034722Y-100645451D01*
X140954410Y-100547589D01*
X140794449Y-100416314D01*
X140611956Y-100318769D01*
X140611955Y-100318768D01*
X140611954Y-100318768D01*
X140413934Y-100258700D01*
X140413931Y-100258699D01*
X140413929Y-100258699D01*
X140208000Y-100238416D01*
X140002066Y-100258699D01*
X139900467Y-100289518D01*
X139833277Y-100291167D01*
X139774798Y-100258038D01*
X113671434Y-74154673D01*
X113662018Y-74144137D01*
X113639631Y-74116064D01*
X113619179Y-74102120D01*
X113591983Y-74083577D01*
X113588143Y-74080852D01*
X113536812Y-74042969D01*
X113532317Y-74040700D01*
X113471341Y-74021892D01*
X113466863Y-74020419D01*
X113463262Y-74019159D01*
X113423351Y-74005193D01*
X113406639Y-73999345D01*
X113401663Y-73998500D01*
X113395505Y-73998500D01*
X113337868Y-73998500D01*
X113333157Y-73998412D01*
X113269371Y-73996025D01*
X113250574Y-73998500D01*
X108330300Y-73998500D01*
X108262890Y-73978951D01*
X108216397Y-73926372D01*
X108205248Y-73857076D01*
X108232901Y-73792566D01*
X108287910Y-73725538D01*
X108380814Y-73551727D01*
X108438024Y-73363132D01*
X108457341Y-73167000D01*
X108438024Y-72970868D01*
X108425701Y-72930248D01*
X108424052Y-72863059D01*
X108457179Y-72804579D01*
X109142355Y-72119404D01*
X109183233Y-72092091D01*
X109231451Y-72082500D01*
X164097550Y-72082500D01*
X164145768Y-72092091D01*
X164186645Y-72119405D01*
X168926595Y-76859355D01*
X168953909Y-76900232D01*
X168963500Y-76948450D01*
X168963500Y-79381672D01*
X168943952Y-79449082D01*
X168891372Y-79495575D01*
X168822076Y-79506724D01*
X168757566Y-79479071D01*
X168701537Y-79433089D01*
X168527725Y-79340185D01*
X168339132Y-79282975D01*
X168143000Y-79263658D01*
X167946867Y-79282975D01*
X167758274Y-79340185D01*
X167584462Y-79433089D01*
X167432116Y-79558116D01*
X167307089Y-79710462D01*
X167214185Y-79884274D01*
X167156975Y-80072867D01*
X167137658Y-80268999D01*
X167156975Y-80465132D01*
X167214185Y-80653725D01*
X167307089Y-80827537D01*
X167432116Y-80979883D01*
X167584461Y-81104910D01*
X167621896Y-81124919D01*
X167670574Y-81171264D01*
X167688500Y-81236041D01*
X167688500Y-82258391D01*
X167687708Y-82272498D01*
X167683686Y-82308187D01*
X167694400Y-82364809D01*
X167695189Y-82369451D01*
X167704704Y-82432576D01*
X167706276Y-82437352D01*
X167709158Y-82442806D01*
X167709159Y-82442807D01*
X167736105Y-82493792D01*
X167738216Y-82497975D01*
X167765909Y-82555480D01*
X167768815Y-82559575D01*
X167773179Y-82563939D01*
X167773180Y-82563940D01*
X167813948Y-82604708D01*
X167817191Y-82608074D01*
X167856423Y-82650356D01*
X167856425Y-82650357D01*
X167860624Y-82654882D01*
X167875661Y-82666421D01*
X168905595Y-83696355D01*
X168932909Y-83737232D01*
X168942500Y-83785450D01*
X168942500Y-94604438D01*
X168922951Y-94671848D01*
X168870372Y-94718341D01*
X168801076Y-94729490D01*
X168736566Y-94701837D01*
X168701537Y-94673089D01*
X168527725Y-94580185D01*
X168339132Y-94522975D01*
X168143000Y-94503658D01*
X167946867Y-94522975D01*
X167758274Y-94580185D01*
X167584462Y-94673089D01*
X167517434Y-94728099D01*
X167452924Y-94755752D01*
X167383628Y-94744603D01*
X167331049Y-94698110D01*
X167311500Y-94630700D01*
X167311500Y-83577608D01*
X167312292Y-83563501D01*
X167316313Y-83527814D01*
X167305588Y-83471136D01*
X167304805Y-83466525D01*
X167296214Y-83409521D01*
X167296212Y-83409518D01*
X167295293Y-83403415D01*
X167293728Y-83398658D01*
X167290841Y-83393196D01*
X167290841Y-83393193D01*
X167263890Y-83342198D01*
X167261778Y-83338014D01*
X167256473Y-83326999D01*
X167236767Y-83286079D01*
X167236765Y-83286077D01*
X167234084Y-83280509D01*
X167231188Y-83276427D01*
X167214685Y-83259924D01*
X167186037Y-83231276D01*
X167182794Y-83227910D01*
X167143577Y-83185644D01*
X167143576Y-83185643D01*
X167139378Y-83181119D01*
X167124340Y-83169579D01*
X166094405Y-82139644D01*
X166067091Y-82098767D01*
X166057500Y-82050549D01*
X166057500Y-81236041D01*
X166075426Y-81171264D01*
X166124104Y-81124919D01*
X166161538Y-81104910D01*
X166313883Y-80979883D01*
X166402500Y-80871903D01*
X166438910Y-80827538D01*
X166531814Y-80653727D01*
X166589024Y-80465132D01*
X166608341Y-80269000D01*
X166604348Y-80228462D01*
X166589024Y-80072867D01*
X166552083Y-79951090D01*
X166531814Y-79884273D01*
X166438910Y-79710462D01*
X166413500Y-79679500D01*
X166313883Y-79558116D01*
X166161537Y-79433089D01*
X165987725Y-79340185D01*
X165799132Y-79282975D01*
X165603000Y-79263658D01*
X165406867Y-79282975D01*
X165218274Y-79340185D01*
X165044462Y-79433089D01*
X164892116Y-79558116D01*
X164767089Y-79710462D01*
X164674185Y-79884274D01*
X164616975Y-80072867D01*
X164597658Y-80268999D01*
X164616975Y-80465132D01*
X164674185Y-80653725D01*
X164767089Y-80827537D01*
X164892116Y-80979883D01*
X165044461Y-81104910D01*
X165081896Y-81124919D01*
X165130574Y-81171264D01*
X165148500Y-81236041D01*
X165148500Y-82258391D01*
X165147708Y-82272498D01*
X165143686Y-82308187D01*
X165154400Y-82364809D01*
X165155189Y-82369451D01*
X165164704Y-82432576D01*
X165166276Y-82437352D01*
X165169158Y-82442806D01*
X165169159Y-82442807D01*
X165196105Y-82493792D01*
X165198216Y-82497975D01*
X165225909Y-82555480D01*
X165228815Y-82559575D01*
X165233179Y-82563939D01*
X165233180Y-82563940D01*
X165273948Y-82604708D01*
X165277191Y-82608074D01*
X165316423Y-82650356D01*
X165316425Y-82650357D01*
X165320624Y-82654882D01*
X165335661Y-82666421D01*
X166365595Y-83696355D01*
X166392909Y-83737232D01*
X166402500Y-83785450D01*
X166402500Y-94604438D01*
X166382951Y-94671848D01*
X166330372Y-94718341D01*
X166261076Y-94729490D01*
X166196566Y-94701837D01*
X166161537Y-94673089D01*
X165987725Y-94580185D01*
X165799132Y-94522975D01*
X165603000Y-94503658D01*
X165406867Y-94522975D01*
X165218274Y-94580185D01*
X165044462Y-94673089D01*
X164977434Y-94728099D01*
X164912924Y-94755752D01*
X164843628Y-94744603D01*
X164791049Y-94698110D01*
X164771500Y-94630700D01*
X164771500Y-83577608D01*
X164772292Y-83563501D01*
X164776313Y-83527814D01*
X164765588Y-83471136D01*
X164764805Y-83466525D01*
X164756214Y-83409521D01*
X164756212Y-83409518D01*
X164755293Y-83403415D01*
X164753728Y-83398658D01*
X164750841Y-83393196D01*
X164750841Y-83393193D01*
X164723890Y-83342198D01*
X164721778Y-83338014D01*
X164716473Y-83326999D01*
X164696767Y-83286079D01*
X164696765Y-83286077D01*
X164694084Y-83280509D01*
X164691188Y-83276427D01*
X164674685Y-83259924D01*
X164646037Y-83231276D01*
X164642794Y-83227910D01*
X164603577Y-83185644D01*
X164603576Y-83185643D01*
X164599378Y-83181119D01*
X164584340Y-83169579D01*
X163554405Y-82139644D01*
X163527091Y-82098767D01*
X163517500Y-82050549D01*
X163517500Y-81236041D01*
X163535426Y-81171264D01*
X163584104Y-81124919D01*
X163621538Y-81104910D01*
X163773883Y-80979883D01*
X163862500Y-80871903D01*
X163898910Y-80827538D01*
X163991814Y-80653727D01*
X164049024Y-80465132D01*
X164068341Y-80269000D01*
X164064348Y-80228462D01*
X164049024Y-80072867D01*
X164012083Y-79951090D01*
X163991814Y-79884273D01*
X163898910Y-79710462D01*
X163873500Y-79679500D01*
X163773883Y-79558116D01*
X163621537Y-79433089D01*
X163447725Y-79340185D01*
X163259132Y-79282975D01*
X163063000Y-79263658D01*
X162866867Y-79282975D01*
X162678274Y-79340185D01*
X162504462Y-79433089D01*
X162469434Y-79461837D01*
X162404924Y-79489490D01*
X162335628Y-79478341D01*
X162283049Y-79431848D01*
X162263500Y-79364438D01*
X162263500Y-74905451D01*
X162273091Y-74857233D01*
X162300404Y-74816356D01*
X162333013Y-74783747D01*
X162451579Y-74665179D01*
X162510058Y-74632052D01*
X162577248Y-74633701D01*
X162617868Y-74646024D01*
X162724143Y-74656491D01*
X162813999Y-74665341D01*
X162813999Y-74665340D01*
X162814000Y-74665341D01*
X163010132Y-74646024D01*
X163198727Y-74588814D01*
X163372538Y-74495910D01*
X163524883Y-74370883D01*
X163649910Y-74218538D01*
X163742814Y-74044727D01*
X163800024Y-73856132D01*
X163819341Y-73660000D01*
X163800780Y-73471548D01*
X163800024Y-73463867D01*
X163742814Y-73275274D01*
X163742814Y-73275273D01*
X163649910Y-73101462D01*
X163554962Y-72985768D01*
X163524883Y-72949116D01*
X163372537Y-72824089D01*
X163198725Y-72731185D01*
X163010132Y-72673975D01*
X162814000Y-72654658D01*
X162617867Y-72673975D01*
X162429274Y-72731185D01*
X162255462Y-72824089D01*
X162103116Y-72949116D01*
X161978089Y-73101462D01*
X161885185Y-73275274D01*
X161827975Y-73463867D01*
X161808658Y-73659999D01*
X161827975Y-73856129D01*
X161840297Y-73896750D01*
X161841946Y-73963941D01*
X161808817Y-74022421D01*
X161510671Y-74320566D01*
X161500138Y-74329979D01*
X161472063Y-74352368D01*
X161439584Y-74400006D01*
X161436861Y-74403843D01*
X161398975Y-74455180D01*
X161396697Y-74459691D01*
X161377889Y-74520667D01*
X161376416Y-74525142D01*
X161355346Y-74585355D01*
X161354500Y-74590339D01*
X161354500Y-74654132D01*
X161354412Y-74658843D01*
X161352025Y-74722628D01*
X161354500Y-74741426D01*
X161354500Y-79390700D01*
X161334951Y-79458110D01*
X161282372Y-79504603D01*
X161213076Y-79515752D01*
X161148566Y-79488099D01*
X161147675Y-79487368D01*
X161081538Y-79433090D01*
X161081537Y-79433089D01*
X160907725Y-79340185D01*
X160719132Y-79282975D01*
X160523000Y-79263658D01*
X160326867Y-79282975D01*
X160138274Y-79340185D01*
X159964462Y-79433089D01*
X159929434Y-79461837D01*
X159864924Y-79489490D01*
X159795628Y-79478341D01*
X159743049Y-79431848D01*
X159723500Y-79364438D01*
X159723500Y-74734810D01*
X159734731Y-74682809D01*
X159766422Y-74640078D01*
X159812924Y-74614236D01*
X159844794Y-74604567D01*
X159896727Y-74588814D01*
X160070538Y-74495910D01*
X160222883Y-74370883D01*
X160347910Y-74218538D01*
X160440814Y-74044727D01*
X160498024Y-73856132D01*
X160517341Y-73660000D01*
X160498780Y-73471548D01*
X160498024Y-73463867D01*
X160440814Y-73275274D01*
X160440814Y-73275273D01*
X160347910Y-73101462D01*
X160252962Y-72985768D01*
X160222883Y-72949116D01*
X160070537Y-72824089D01*
X159896725Y-72731185D01*
X159708132Y-72673975D01*
X159512000Y-72654658D01*
X159315867Y-72673975D01*
X159127274Y-72731185D01*
X158953462Y-72824089D01*
X158801116Y-72949116D01*
X158676089Y-73101462D01*
X158583185Y-73275274D01*
X158525975Y-73463867D01*
X158506658Y-73659999D01*
X158525975Y-73856132D01*
X158583185Y-74044725D01*
X158676089Y-74218537D01*
X158785899Y-74352340D01*
X158807134Y-74389826D01*
X158814500Y-74432274D01*
X158814500Y-79390700D01*
X158794951Y-79458110D01*
X158742372Y-79504603D01*
X158673076Y-79515752D01*
X158608566Y-79488099D01*
X158607675Y-79487368D01*
X158541538Y-79433090D01*
X158541537Y-79433089D01*
X158367725Y-79340185D01*
X158179132Y-79282975D01*
X157983000Y-79263658D01*
X157786867Y-79282975D01*
X157598274Y-79340185D01*
X157424462Y-79433089D01*
X157272116Y-79558116D01*
X157147089Y-79710462D01*
X157054185Y-79884274D01*
X156996975Y-80072867D01*
X156977658Y-80268999D01*
X156996975Y-80465132D01*
X157054185Y-80653725D01*
X157147089Y-80827537D01*
X157272116Y-80979883D01*
X157424461Y-81104910D01*
X157461896Y-81124919D01*
X157510574Y-81171264D01*
X157528500Y-81236041D01*
X157528500Y-82512391D01*
X157527708Y-82526498D01*
X157523686Y-82562187D01*
X157534400Y-82618809D01*
X157535189Y-82623451D01*
X157544704Y-82686576D01*
X157546276Y-82691352D01*
X157549158Y-82696806D01*
X157549159Y-82696807D01*
X157576105Y-82747792D01*
X157578216Y-82751975D01*
X157605909Y-82809480D01*
X157608815Y-82813575D01*
X157613179Y-82817939D01*
X157613180Y-82817940D01*
X157653948Y-82858708D01*
X157657191Y-82862074D01*
X157696423Y-82904356D01*
X157696425Y-82904357D01*
X157700624Y-82908882D01*
X157715661Y-82920421D01*
X158745595Y-83950355D01*
X158772909Y-83991232D01*
X158782500Y-84039450D01*
X158782500Y-94604438D01*
X158762951Y-94671848D01*
X158710372Y-94718341D01*
X158641076Y-94729490D01*
X158576566Y-94701837D01*
X158541537Y-94673089D01*
X158367725Y-94580185D01*
X158179132Y-94522975D01*
X157983000Y-94503658D01*
X157786867Y-94522975D01*
X157598274Y-94580185D01*
X157424462Y-94673089D01*
X157357434Y-94728099D01*
X157292924Y-94755752D01*
X157223628Y-94744603D01*
X157171049Y-94698110D01*
X157151500Y-94630700D01*
X157151500Y-83831608D01*
X157152292Y-83817501D01*
X157152298Y-83817450D01*
X157156313Y-83781814D01*
X157145588Y-83725136D01*
X157144805Y-83720525D01*
X157141916Y-83701355D01*
X157136214Y-83663521D01*
X157136212Y-83663518D01*
X157135293Y-83657415D01*
X157133728Y-83652658D01*
X157130841Y-83647196D01*
X157130841Y-83647193D01*
X157103890Y-83596198D01*
X157101778Y-83592014D01*
X157091432Y-83570531D01*
X157076767Y-83540079D01*
X157076765Y-83540077D01*
X157074084Y-83534509D01*
X157071188Y-83530427D01*
X157063891Y-83523130D01*
X157026037Y-83485276D01*
X157022794Y-83481910D01*
X156995193Y-83452163D01*
X156983577Y-83439644D01*
X156983576Y-83439643D01*
X156979378Y-83435119D01*
X156964340Y-83423579D01*
X155934405Y-82393644D01*
X155907091Y-82352767D01*
X155897500Y-82304549D01*
X155897500Y-81236041D01*
X155915426Y-81171264D01*
X155964104Y-81124919D01*
X156001538Y-81104910D01*
X156153883Y-80979883D01*
X156242500Y-80871903D01*
X156278910Y-80827538D01*
X156371814Y-80653727D01*
X156429024Y-80465132D01*
X156448341Y-80269000D01*
X156444348Y-80228462D01*
X156429024Y-80072867D01*
X156392083Y-79951090D01*
X156371814Y-79884273D01*
X156278910Y-79710462D01*
X156253500Y-79679500D01*
X156153883Y-79558116D01*
X156001537Y-79433089D01*
X155827725Y-79340185D01*
X155639132Y-79282975D01*
X155443000Y-79263658D01*
X155246867Y-79282975D01*
X155058274Y-79340185D01*
X154884462Y-79433089D01*
X154830345Y-79477502D01*
X154818325Y-79487368D01*
X154817434Y-79488099D01*
X154752924Y-79515752D01*
X154683628Y-79504603D01*
X154631049Y-79458110D01*
X154611500Y-79390700D01*
X154611500Y-75953450D01*
X154621091Y-75905232D01*
X154648402Y-75864357D01*
X155847580Y-74665178D01*
X155906057Y-74632052D01*
X155973248Y-74633701D01*
X156013868Y-74646024D01*
X156120143Y-74656491D01*
X156209999Y-74665341D01*
X156209999Y-74665340D01*
X156210000Y-74665341D01*
X156406132Y-74646024D01*
X156594727Y-74588814D01*
X156768538Y-74495910D01*
X156920883Y-74370883D01*
X157045910Y-74218538D01*
X157138814Y-74044727D01*
X157196024Y-73856132D01*
X157215341Y-73660000D01*
X157196780Y-73471548D01*
X157196024Y-73463867D01*
X157138814Y-73275274D01*
X157138814Y-73275273D01*
X157045910Y-73101462D01*
X156950962Y-72985768D01*
X156920883Y-72949116D01*
X156768537Y-72824089D01*
X156594725Y-72731185D01*
X156406132Y-72673975D01*
X156210000Y-72654658D01*
X156013867Y-72673975D01*
X155825274Y-72731185D01*
X155651462Y-72824089D01*
X155499116Y-72949116D01*
X155374089Y-73101462D01*
X155281185Y-73275274D01*
X155223975Y-73463867D01*
X155204658Y-73659999D01*
X155223975Y-73856130D01*
X155236297Y-73896748D01*
X155237947Y-73963940D01*
X155204818Y-74022420D01*
X153858676Y-75368561D01*
X153848143Y-75377975D01*
X153820063Y-75400368D01*
X153787584Y-75448006D01*
X153784861Y-75451843D01*
X153746975Y-75503180D01*
X153744697Y-75507691D01*
X153725889Y-75568667D01*
X153724416Y-75573142D01*
X153703346Y-75633355D01*
X153702500Y-75638339D01*
X153702500Y-75702132D01*
X153702412Y-75706843D01*
X153700025Y-75770628D01*
X153702500Y-75789426D01*
X153702500Y-79000814D01*
X153686968Y-79061419D01*
X153644200Y-79107081D01*
X153584741Y-79126544D01*
X153523250Y-79115009D01*
X153352071Y-79035186D01*
X153156999Y-78982917D01*
X153157000Y-78982918D01*
X153157000Y-81555082D01*
X153352071Y-81502813D01*
X153523250Y-81422991D01*
X153584741Y-81411456D01*
X153644200Y-81430919D01*
X153686968Y-81476581D01*
X153702500Y-81537186D01*
X153702500Y-94014548D01*
X153692909Y-94062766D01*
X153665595Y-94103644D01*
X153265419Y-94503818D01*
X153206940Y-94536946D01*
X153139749Y-94535297D01*
X153099129Y-94522975D01*
X152903000Y-94503658D01*
X152706867Y-94522975D01*
X152518274Y-94580185D01*
X152344462Y-94673089D01*
X152192116Y-94798116D01*
X152067089Y-94950462D01*
X151974185Y-95124274D01*
X151917574Y-95310895D01*
X151878830Y-95370130D01*
X151814263Y-95399131D01*
X151744249Y-95388745D01*
X151690881Y-95342250D01*
X151671000Y-95274319D01*
X151671000Y-94660411D01*
X151664494Y-94599906D01*
X151613445Y-94463037D01*
X151525904Y-94346095D01*
X151408962Y-94258554D01*
X151272093Y-94207505D01*
X151211589Y-94201000D01*
X150617000Y-94201000D01*
X150617000Y-96817000D01*
X151211589Y-96817000D01*
X151272093Y-96810494D01*
X151408962Y-96759445D01*
X151525904Y-96671904D01*
X151613445Y-96554962D01*
X151664494Y-96418093D01*
X151671000Y-96357589D01*
X151671000Y-95743681D01*
X151690881Y-95675750D01*
X151744249Y-95629255D01*
X151814263Y-95618869D01*
X151878830Y-95647870D01*
X151917574Y-95707105D01*
X151974185Y-95893725D01*
X152067089Y-96067537D01*
X152192116Y-96219883D01*
X152309434Y-96316163D01*
X152344462Y-96344910D01*
X152518273Y-96437814D01*
X152593978Y-96460779D01*
X152706867Y-96495024D01*
X152902999Y-96514341D01*
X152902999Y-96514340D01*
X152903000Y-96514341D01*
X153099132Y-96495024D01*
X153287727Y-96437814D01*
X153461538Y-96344910D01*
X153613883Y-96219883D01*
X153738910Y-96067538D01*
X153831814Y-95893727D01*
X153889024Y-95705132D01*
X153908341Y-95509000D01*
X153889024Y-95312868D01*
X153876701Y-95272248D01*
X153875052Y-95205057D01*
X153908179Y-95146579D01*
X154455327Y-94599431D01*
X154465857Y-94590022D01*
X154493936Y-94567631D01*
X154515980Y-94535297D01*
X154526417Y-94519989D01*
X154529146Y-94516142D01*
X154538360Y-94503658D01*
X154563369Y-94469773D01*
X154563369Y-94469770D01*
X154567042Y-94464795D01*
X154569294Y-94460334D01*
X154588111Y-94399327D01*
X154589577Y-94394869D01*
X154608621Y-94340451D01*
X154608621Y-94340447D01*
X154610660Y-94334621D01*
X154611500Y-94329683D01*
X154611500Y-94265868D01*
X154611588Y-94261157D01*
X154611685Y-94258554D01*
X154613744Y-94203537D01*
X154613743Y-94203534D01*
X154613974Y-94197371D01*
X154611500Y-94178574D01*
X154611500Y-81147300D01*
X154631049Y-81079890D01*
X154683628Y-81033397D01*
X154752924Y-81022248D01*
X154817433Y-81049900D01*
X154829324Y-81059659D01*
X154884462Y-81104910D01*
X154921896Y-81124919D01*
X154970574Y-81171264D01*
X154988500Y-81236041D01*
X154988500Y-82512391D01*
X154987708Y-82526498D01*
X154983686Y-82562187D01*
X154994400Y-82618809D01*
X154995189Y-82623451D01*
X155004704Y-82686576D01*
X155006276Y-82691352D01*
X155009158Y-82696806D01*
X155009159Y-82696807D01*
X155036105Y-82747792D01*
X155038216Y-82751975D01*
X155065909Y-82809480D01*
X155068815Y-82813575D01*
X155073179Y-82817939D01*
X155073180Y-82817940D01*
X155113948Y-82858708D01*
X155117191Y-82862074D01*
X155156423Y-82904356D01*
X155156425Y-82904357D01*
X155160624Y-82908882D01*
X155175661Y-82920421D01*
X156205595Y-83950355D01*
X156232909Y-83991232D01*
X156242500Y-84039450D01*
X156242500Y-94604438D01*
X156222951Y-94671848D01*
X156170372Y-94718341D01*
X156101076Y-94729490D01*
X156036566Y-94701837D01*
X156001537Y-94673089D01*
X155827725Y-94580185D01*
X155639132Y-94522975D01*
X155443000Y-94503658D01*
X155246867Y-94522975D01*
X155058274Y-94580185D01*
X154884462Y-94673089D01*
X154732116Y-94798116D01*
X154607089Y-94950462D01*
X154514185Y-95124274D01*
X154456975Y-95312867D01*
X154437658Y-95509000D01*
X154456975Y-95705130D01*
X154469297Y-95745748D01*
X154470947Y-95812940D01*
X154437818Y-95871420D01*
X153264644Y-97044595D01*
X153223767Y-97071909D01*
X153175549Y-97081500D01*
X149338450Y-97081500D01*
X149290232Y-97071909D01*
X149249355Y-97044595D01*
X149159336Y-96954576D01*
X149127535Y-96900979D01*
X149125310Y-96838698D01*
X149153206Y-96782969D01*
X149204398Y-96747425D01*
X149266362Y-96740763D01*
X149299544Y-96754507D01*
X149300064Y-96753115D01*
X149453906Y-96810494D01*
X149514411Y-96817000D01*
X150109000Y-96817000D01*
X150109000Y-95763000D01*
X149055000Y-95763000D01*
X149055000Y-96357589D01*
X149061505Y-96418093D01*
X149118885Y-96571936D01*
X149117491Y-96572455D01*
X149131235Y-96605640D01*
X149124571Y-96667603D01*
X149089027Y-96718793D01*
X149033298Y-96746688D01*
X148971018Y-96744463D01*
X148917424Y-96712663D01*
X148314402Y-96109641D01*
X148287091Y-96068767D01*
X148277500Y-96020549D01*
X148277500Y-95255000D01*
X149055000Y-95255000D01*
X150109000Y-95255000D01*
X150109000Y-94201000D01*
X149514411Y-94201000D01*
X149453906Y-94207505D01*
X149317037Y-94258554D01*
X149200095Y-94346095D01*
X149112554Y-94463037D01*
X149061505Y-94599906D01*
X149055000Y-94660411D01*
X149055000Y-95255000D01*
X148277500Y-95255000D01*
X148277500Y-80523000D01*
X149076918Y-80523000D01*
X149129186Y-80718070D01*
X149225912Y-80925498D01*
X149357189Y-81112981D01*
X149519018Y-81274810D01*
X149706501Y-81406087D01*
X149913929Y-81502813D01*
X150109000Y-81555082D01*
X150109000Y-80523000D01*
X150617000Y-80523000D01*
X150617000Y-81555082D01*
X150812070Y-81502813D01*
X151019498Y-81406087D01*
X151206981Y-81274810D01*
X151368810Y-81112981D01*
X151500087Y-80925498D01*
X151518805Y-80885359D01*
X151565300Y-80832342D01*
X151633000Y-80812609D01*
X151700700Y-80832342D01*
X151747195Y-80885359D01*
X151765912Y-80925498D01*
X151897189Y-81112981D01*
X152059018Y-81274810D01*
X152246501Y-81406087D01*
X152453929Y-81502813D01*
X152649000Y-81555082D01*
X152649000Y-80523000D01*
X150617000Y-80523000D01*
X150109000Y-80523000D01*
X149076918Y-80523000D01*
X148277500Y-80523000D01*
X148277500Y-80015000D01*
X149076917Y-80015000D01*
X150109000Y-80015000D01*
X150109000Y-78982917D01*
X150616999Y-78982917D01*
X150617000Y-78982918D01*
X150617000Y-80015000D01*
X152649000Y-80015000D01*
X152649000Y-78982917D01*
X152453929Y-79035186D01*
X152246501Y-79131912D01*
X152059018Y-79263189D01*
X151897189Y-79425018D01*
X151765912Y-79612501D01*
X151747195Y-79652641D01*
X151700700Y-79705658D01*
X151633000Y-79725391D01*
X151565300Y-79705658D01*
X151518805Y-79652641D01*
X151500087Y-79612501D01*
X151368810Y-79425018D01*
X151206981Y-79263189D01*
X151019498Y-79131912D01*
X150812070Y-79035186D01*
X150616999Y-78982917D01*
X150109000Y-78982917D01*
X149913929Y-79035186D01*
X149706501Y-79131912D01*
X149519018Y-79263189D01*
X149357189Y-79425018D01*
X149225912Y-79612501D01*
X149129186Y-79819929D01*
X149076917Y-80015000D01*
X148277500Y-80015000D01*
X148277500Y-75090500D01*
X148294381Y-75027500D01*
X148340500Y-74981381D01*
X148403500Y-74964500D01*
X148692747Y-74964500D01*
X148692748Y-74964500D01*
X148751231Y-74952867D01*
X148817552Y-74908552D01*
X148861867Y-74842231D01*
X148873500Y-74783748D01*
X148873500Y-74499873D01*
X148891796Y-74434483D01*
X148941371Y-74388083D01*
X149007827Y-74374148D01*
X149071865Y-74396726D01*
X149114887Y-74449259D01*
X149164580Y-74562548D01*
X149287678Y-74750962D01*
X149440096Y-74916533D01*
X149617697Y-75054766D01*
X149815631Y-75161883D01*
X150028485Y-75234955D01*
X150109000Y-75248391D01*
X150109000Y-74168000D01*
X150617000Y-74168000D01*
X150617000Y-75248391D01*
X150697514Y-75234955D01*
X150910368Y-75161883D01*
X151108302Y-75054766D01*
X151285903Y-74916533D01*
X151438321Y-74750962D01*
X151561419Y-74562548D01*
X151651822Y-74356451D01*
X151699544Y-74168000D01*
X150617000Y-74168000D01*
X150109000Y-74168000D01*
X150109000Y-72579609D01*
X150617000Y-72579609D01*
X150617000Y-73660000D01*
X151699544Y-73660000D01*
X151699544Y-73659999D01*
X151651822Y-73471548D01*
X151561419Y-73265451D01*
X151438321Y-73077037D01*
X151285903Y-72911466D01*
X151108302Y-72773233D01*
X150910368Y-72666116D01*
X150697514Y-72593044D01*
X150617000Y-72579609D01*
X150109000Y-72579609D01*
X150028485Y-72593044D01*
X149815631Y-72666116D01*
X149617697Y-72773233D01*
X149440096Y-72911466D01*
X149287678Y-73077037D01*
X149164580Y-73265451D01*
X149114887Y-73378741D01*
X149071865Y-73431274D01*
X149007827Y-73453852D01*
X148941371Y-73439917D01*
X148891796Y-73393517D01*
X148873500Y-73328127D01*
X148873500Y-73044253D01*
X148873500Y-73044252D01*
X148861867Y-72985769D01*
X148837376Y-72949116D01*
X148817552Y-72919447D01*
X148751231Y-72875133D01*
X148751230Y-72875132D01*
X148692748Y-72863500D01*
X146953252Y-72863500D01*
X146924010Y-72869316D01*
X146894768Y-72875133D01*
X146828447Y-72919447D01*
X146784133Y-72985768D01*
X146772500Y-73044253D01*
X146772500Y-74783747D01*
X146784133Y-74842231D01*
X146828447Y-74908552D01*
X146841227Y-74917091D01*
X146894769Y-74952867D01*
X146953252Y-74964500D01*
X147242500Y-74964500D01*
X147305500Y-74981381D01*
X147351619Y-75027500D01*
X147368500Y-75090500D01*
X147368500Y-96228391D01*
X147367708Y-96242498D01*
X147363686Y-96278187D01*
X147374400Y-96334809D01*
X147375189Y-96339451D01*
X147384704Y-96402576D01*
X147386276Y-96407352D01*
X147389158Y-96412806D01*
X147389159Y-96412807D01*
X147416105Y-96463792D01*
X147418216Y-96467975D01*
X147445909Y-96525480D01*
X147448815Y-96529575D01*
X147453179Y-96533939D01*
X147453180Y-96533940D01*
X147493948Y-96574708D01*
X147497191Y-96578074D01*
X147536423Y-96620356D01*
X147536425Y-96620357D01*
X147540624Y-96624882D01*
X147555661Y-96636421D01*
X148753556Y-97834316D01*
X148762972Y-97844851D01*
X148785369Y-97872936D01*
X148833021Y-97905424D01*
X148836841Y-97908134D01*
X148881067Y-97940775D01*
X148888197Y-97946037D01*
X148892674Y-97948296D01*
X148898570Y-97950114D01*
X148898572Y-97950116D01*
X148953679Y-97967114D01*
X148958140Y-97968582D01*
X149018376Y-97989659D01*
X149023323Y-97990500D01*
X149029495Y-97990500D01*
X149087158Y-97990500D01*
X149091868Y-97990587D01*
X149149462Y-97992743D01*
X149149464Y-97992742D01*
X149155631Y-97992973D01*
X149174422Y-97990500D01*
X153383392Y-97990500D01*
X153397497Y-97991291D01*
X153433186Y-97995313D01*
X153489871Y-97984586D01*
X153494451Y-97983808D01*
X153551479Y-97975214D01*
X153551480Y-97975213D01*
X153557594Y-97974292D01*
X153562336Y-97972732D01*
X153567805Y-97969841D01*
X153567807Y-97969841D01*
X153618791Y-97942893D01*
X153622955Y-97940791D01*
X153674921Y-97915767D01*
X153674924Y-97915763D01*
X153680497Y-97913080D01*
X153684564Y-97910195D01*
X153688937Y-97905821D01*
X153688940Y-97905820D01*
X153729720Y-97865038D01*
X153733058Y-97861822D01*
X153775356Y-97822577D01*
X153775357Y-97822573D01*
X153779883Y-97818375D01*
X153791421Y-97803337D01*
X155080579Y-96514179D01*
X155139057Y-96481052D01*
X155206248Y-96482701D01*
X155246868Y-96495024D01*
X155377622Y-96507902D01*
X155442999Y-96514341D01*
X155442999Y-96514340D01*
X155443000Y-96514341D01*
X155639132Y-96495024D01*
X155827727Y-96437814D01*
X156001538Y-96344910D01*
X156036566Y-96316162D01*
X156101076Y-96288510D01*
X156170372Y-96299659D01*
X156222951Y-96346152D01*
X156242500Y-96413562D01*
X156242500Y-99764549D01*
X156232909Y-99812767D01*
X156205595Y-99853645D01*
X155819819Y-100239419D01*
X155761341Y-100272547D01*
X155694151Y-100270898D01*
X155653935Y-100258699D01*
X155448000Y-100238416D01*
X155242070Y-100258699D01*
X155242067Y-100258699D01*
X155242066Y-100258700D01*
X155044046Y-100318768D01*
X155044043Y-100318769D01*
X154861550Y-100416314D01*
X154701589Y-100547589D01*
X154570314Y-100707550D01*
X154472769Y-100890043D01*
X154472769Y-100890044D01*
X154472768Y-100890046D01*
X154412701Y-101088065D01*
X154412699Y-101088070D01*
X154392416Y-101294000D01*
X154412699Y-101499929D01*
X154412699Y-101499931D01*
X154412700Y-101499934D01*
X154472767Y-101697951D01*
X154472769Y-101697956D01*
X154570314Y-101880449D01*
X154701589Y-102040410D01*
X154851877Y-102163747D01*
X154861550Y-102171685D01*
X155044046Y-102269232D01*
X155242066Y-102329300D01*
X155448000Y-102349583D01*
X155653934Y-102329300D01*
X155851954Y-102269232D01*
X156034450Y-102171685D01*
X156194410Y-102040410D01*
X156325685Y-101880450D01*
X156423232Y-101697954D01*
X156483300Y-101499934D01*
X156503583Y-101294000D01*
X156483300Y-101088066D01*
X156452480Y-100986467D01*
X156450831Y-100919278D01*
X156483958Y-100860800D01*
X156995327Y-100349431D01*
X157005857Y-100340022D01*
X157033936Y-100317631D01*
X157066419Y-100269986D01*
X157069148Y-100266139D01*
X157103369Y-100219773D01*
X157103369Y-100219770D01*
X157107039Y-100214799D01*
X157109293Y-100210335D01*
X157111114Y-100204430D01*
X157111116Y-100204428D01*
X157128133Y-100149257D01*
X157129571Y-100144887D01*
X157148620Y-100090451D01*
X157148620Y-100090447D01*
X157150660Y-100084618D01*
X157151500Y-100079680D01*
X157151500Y-100015842D01*
X157151588Y-100011131D01*
X157153013Y-99973044D01*
X157153743Y-99953538D01*
X157153742Y-99953535D01*
X157153973Y-99947368D01*
X157151500Y-99928578D01*
X157151500Y-96387300D01*
X157171049Y-96319890D01*
X157223628Y-96273397D01*
X157292924Y-96262248D01*
X157357433Y-96289900D01*
X157424462Y-96344910D01*
X157598273Y-96437814D01*
X157673978Y-96460779D01*
X157786867Y-96495024D01*
X157982999Y-96514341D01*
X157982999Y-96514340D01*
X157983000Y-96514341D01*
X158179132Y-96495024D01*
X158367727Y-96437814D01*
X158541538Y-96344910D01*
X158576566Y-96316162D01*
X158641076Y-96288510D01*
X158710372Y-96299659D01*
X158762951Y-96346152D01*
X158782500Y-96413562D01*
X158782500Y-99764549D01*
X158772909Y-99812767D01*
X158745595Y-99853645D01*
X158359819Y-100239419D01*
X158301341Y-100272547D01*
X158234151Y-100270898D01*
X158193935Y-100258699D01*
X157988000Y-100238416D01*
X157782070Y-100258699D01*
X157782067Y-100258699D01*
X157782066Y-100258700D01*
X157584046Y-100318768D01*
X157584043Y-100318769D01*
X157401550Y-100416314D01*
X157241589Y-100547589D01*
X157110314Y-100707550D01*
X157012769Y-100890043D01*
X157012769Y-100890044D01*
X157012768Y-100890046D01*
X156952701Y-101088065D01*
X156952699Y-101088070D01*
X156932416Y-101294000D01*
X156952699Y-101499929D01*
X156952699Y-101499931D01*
X156952700Y-101499934D01*
X157012767Y-101697951D01*
X157012769Y-101697956D01*
X157110314Y-101880449D01*
X157241589Y-102040410D01*
X157391877Y-102163747D01*
X157401550Y-102171685D01*
X157584046Y-102269232D01*
X157782066Y-102329300D01*
X157988000Y-102349583D01*
X158193934Y-102329300D01*
X158391954Y-102269232D01*
X158574450Y-102171685D01*
X158734410Y-102040410D01*
X158865685Y-101880450D01*
X158963232Y-101697954D01*
X159023300Y-101499934D01*
X159043583Y-101294000D01*
X159023300Y-101088066D01*
X158992480Y-100986467D01*
X158990831Y-100919278D01*
X159023958Y-100860800D01*
X159535327Y-100349431D01*
X159545857Y-100340022D01*
X159573936Y-100317631D01*
X159606419Y-100269986D01*
X159609148Y-100266139D01*
X159643369Y-100219773D01*
X159643369Y-100219770D01*
X159647039Y-100214799D01*
X159649293Y-100210335D01*
X159651114Y-100204430D01*
X159651116Y-100204428D01*
X159668133Y-100149257D01*
X159669571Y-100144887D01*
X159688620Y-100090451D01*
X159688620Y-100090447D01*
X159690660Y-100084618D01*
X159691500Y-100079680D01*
X159691500Y-100015842D01*
X159691588Y-100011131D01*
X159693013Y-99973044D01*
X159693743Y-99953538D01*
X159693742Y-99953535D01*
X159693973Y-99947368D01*
X159691500Y-99928578D01*
X159691500Y-96387300D01*
X159711049Y-96319890D01*
X159763628Y-96273397D01*
X159832924Y-96262248D01*
X159897433Y-96289900D01*
X159964462Y-96344910D01*
X160138273Y-96437814D01*
X160213978Y-96460779D01*
X160326867Y-96495024D01*
X160522999Y-96514341D01*
X160522999Y-96514340D01*
X160523000Y-96514341D01*
X160719132Y-96495024D01*
X160907727Y-96437814D01*
X161081538Y-96344910D01*
X161148566Y-96289900D01*
X161213076Y-96262248D01*
X161282372Y-96273397D01*
X161334951Y-96319890D01*
X161354500Y-96387300D01*
X161354500Y-99732549D01*
X161344909Y-99780767D01*
X161317595Y-99821645D01*
X160899819Y-100239419D01*
X160841341Y-100272547D01*
X160774151Y-100270898D01*
X160733935Y-100258699D01*
X160528000Y-100238416D01*
X160322070Y-100258699D01*
X160322067Y-100258699D01*
X160322066Y-100258700D01*
X160124046Y-100318768D01*
X160124043Y-100318769D01*
X159941550Y-100416314D01*
X159781589Y-100547589D01*
X159650314Y-100707550D01*
X159552769Y-100890043D01*
X159552769Y-100890044D01*
X159552768Y-100890046D01*
X159492701Y-101088065D01*
X159492699Y-101088070D01*
X159472416Y-101294000D01*
X159492699Y-101499929D01*
X159492699Y-101499931D01*
X159492700Y-101499934D01*
X159552767Y-101697951D01*
X159552769Y-101697956D01*
X159650314Y-101880449D01*
X159781589Y-102040410D01*
X159931877Y-102163747D01*
X159941550Y-102171685D01*
X160124046Y-102269232D01*
X160322066Y-102329300D01*
X160528000Y-102349583D01*
X160733934Y-102329300D01*
X160931954Y-102269232D01*
X161114450Y-102171685D01*
X161274410Y-102040410D01*
X161405685Y-101880450D01*
X161503232Y-101697954D01*
X161563300Y-101499934D01*
X161583583Y-101294000D01*
X161563300Y-101088066D01*
X161532480Y-100986467D01*
X161530831Y-100919278D01*
X161563958Y-100860800D01*
X162107327Y-100317431D01*
X162117857Y-100308022D01*
X162128609Y-100299448D01*
X162145936Y-100285631D01*
X162166728Y-100255133D01*
X162178419Y-100237986D01*
X162181148Y-100234139D01*
X162197789Y-100211592D01*
X162215369Y-100187773D01*
X162215369Y-100187770D01*
X162219042Y-100182795D01*
X162221294Y-100178334D01*
X162231625Y-100144842D01*
X162240113Y-100117318D01*
X162241577Y-100112869D01*
X162260621Y-100058451D01*
X162260621Y-100058447D01*
X162262660Y-100052621D01*
X162263500Y-100047683D01*
X162263500Y-99983868D01*
X162263588Y-99979157D01*
X162264319Y-99959609D01*
X162265744Y-99921538D01*
X162265743Y-99921535D01*
X162265974Y-99915372D01*
X162263500Y-99896575D01*
X162263500Y-96413562D01*
X162283049Y-96346152D01*
X162335628Y-96299659D01*
X162404924Y-96288510D01*
X162469433Y-96316162D01*
X162504462Y-96344910D01*
X162678273Y-96437814D01*
X162753978Y-96460779D01*
X162866867Y-96495024D01*
X163062999Y-96514341D01*
X163062999Y-96514340D01*
X163063000Y-96514341D01*
X163259132Y-96495024D01*
X163447727Y-96437814D01*
X163621538Y-96344910D01*
X163656566Y-96316162D01*
X163721076Y-96288510D01*
X163790372Y-96299659D01*
X163842951Y-96346152D01*
X163862500Y-96413562D01*
X163862500Y-99764549D01*
X163852909Y-99812767D01*
X163825595Y-99853645D01*
X163439819Y-100239419D01*
X163381341Y-100272547D01*
X163314151Y-100270898D01*
X163273935Y-100258699D01*
X163068000Y-100238416D01*
X162862070Y-100258699D01*
X162862067Y-100258699D01*
X162862066Y-100258700D01*
X162664046Y-100318768D01*
X162664043Y-100318769D01*
X162481550Y-100416314D01*
X162321589Y-100547589D01*
X162190314Y-100707550D01*
X162092769Y-100890043D01*
X162092769Y-100890044D01*
X162092768Y-100890046D01*
X162032701Y-101088065D01*
X162032699Y-101088070D01*
X162012416Y-101294000D01*
X162032699Y-101499929D01*
X162032699Y-101499931D01*
X162032700Y-101499934D01*
X162092767Y-101697951D01*
X162092769Y-101697956D01*
X162190314Y-101880449D01*
X162321589Y-102040410D01*
X162471877Y-102163747D01*
X162481550Y-102171685D01*
X162664046Y-102269232D01*
X162862066Y-102329300D01*
X163068000Y-102349583D01*
X163273934Y-102329300D01*
X163471954Y-102269232D01*
X163654450Y-102171685D01*
X163814410Y-102040410D01*
X163945685Y-101880450D01*
X164043232Y-101697954D01*
X164103300Y-101499934D01*
X164123583Y-101294000D01*
X164103300Y-101088066D01*
X164072480Y-100986467D01*
X164070831Y-100919278D01*
X164103958Y-100860800D01*
X164615327Y-100349431D01*
X164625857Y-100340022D01*
X164653936Y-100317631D01*
X164686419Y-100269986D01*
X164689148Y-100266139D01*
X164723369Y-100219773D01*
X164723369Y-100219770D01*
X164727039Y-100214799D01*
X164729293Y-100210335D01*
X164731114Y-100204430D01*
X164731116Y-100204428D01*
X164748133Y-100149257D01*
X164749571Y-100144887D01*
X164768620Y-100090451D01*
X164768620Y-100090447D01*
X164770660Y-100084618D01*
X164771500Y-100079680D01*
X164771500Y-100015842D01*
X164771588Y-100011131D01*
X164773013Y-99973044D01*
X164773743Y-99953538D01*
X164773742Y-99953535D01*
X164773973Y-99947368D01*
X164771500Y-99928578D01*
X164771500Y-96387300D01*
X164791049Y-96319890D01*
X164843628Y-96273397D01*
X164912924Y-96262248D01*
X164977433Y-96289900D01*
X165044462Y-96344910D01*
X165218273Y-96437814D01*
X165293978Y-96460779D01*
X165406867Y-96495024D01*
X165602999Y-96514341D01*
X165602999Y-96514340D01*
X165603000Y-96514341D01*
X165799132Y-96495024D01*
X165987727Y-96437814D01*
X166161538Y-96344910D01*
X166196566Y-96316162D01*
X166261076Y-96288510D01*
X166330372Y-96299659D01*
X166382951Y-96346152D01*
X166402500Y-96413562D01*
X166402500Y-99764549D01*
X166392909Y-99812767D01*
X166365595Y-99853645D01*
X165979819Y-100239419D01*
X165921341Y-100272547D01*
X165854151Y-100270898D01*
X165813935Y-100258699D01*
X165608000Y-100238416D01*
X165402070Y-100258699D01*
X165402067Y-100258699D01*
X165402066Y-100258700D01*
X165204046Y-100318768D01*
X165204043Y-100318769D01*
X165021550Y-100416314D01*
X164861589Y-100547589D01*
X164730314Y-100707550D01*
X164632769Y-100890043D01*
X164632769Y-100890044D01*
X164632768Y-100890046D01*
X164572701Y-101088065D01*
X164572699Y-101088070D01*
X164552416Y-101294000D01*
X164572699Y-101499929D01*
X164572699Y-101499931D01*
X164572700Y-101499934D01*
X164632767Y-101697951D01*
X164632769Y-101697956D01*
X164730314Y-101880449D01*
X164861589Y-102040410D01*
X165011877Y-102163747D01*
X165021550Y-102171685D01*
X165204046Y-102269232D01*
X165402066Y-102329300D01*
X165608000Y-102349583D01*
X165813934Y-102329300D01*
X166011954Y-102269232D01*
X166194450Y-102171685D01*
X166354410Y-102040410D01*
X166485685Y-101880450D01*
X166583232Y-101697954D01*
X166643300Y-101499934D01*
X166663583Y-101294000D01*
X166643300Y-101088066D01*
X166612480Y-100986467D01*
X166610831Y-100919278D01*
X166643958Y-100860800D01*
X167155327Y-100349431D01*
X167165857Y-100340022D01*
X167193936Y-100317631D01*
X167226419Y-100269986D01*
X167229148Y-100266139D01*
X167263369Y-100219773D01*
X167263369Y-100219770D01*
X167267039Y-100214799D01*
X167269293Y-100210335D01*
X167271114Y-100204430D01*
X167271116Y-100204428D01*
X167288133Y-100149257D01*
X167289571Y-100144887D01*
X167308620Y-100090451D01*
X167308620Y-100090447D01*
X167310660Y-100084618D01*
X167311500Y-100079680D01*
X167311500Y-100015842D01*
X167311588Y-100011131D01*
X167313013Y-99973044D01*
X167313743Y-99953538D01*
X167313742Y-99953535D01*
X167313973Y-99947368D01*
X167311500Y-99928578D01*
X167311500Y-96387300D01*
X167331049Y-96319890D01*
X167383628Y-96273397D01*
X167452924Y-96262248D01*
X167517433Y-96289900D01*
X167584462Y-96344910D01*
X167758273Y-96437814D01*
X167833978Y-96460779D01*
X167946867Y-96495024D01*
X168142999Y-96514341D01*
X168142999Y-96514340D01*
X168143000Y-96514341D01*
X168339132Y-96495024D01*
X168527727Y-96437814D01*
X168701538Y-96344910D01*
X168736566Y-96316162D01*
X168801076Y-96288510D01*
X168870372Y-96299659D01*
X168922951Y-96346152D01*
X168942500Y-96413562D01*
X168942500Y-99764549D01*
X168932909Y-99812767D01*
X168905595Y-99853645D01*
X168519819Y-100239419D01*
X168461341Y-100272547D01*
X168394151Y-100270898D01*
X168353935Y-100258699D01*
X168148000Y-100238416D01*
X167942070Y-100258699D01*
X167942067Y-100258699D01*
X167942066Y-100258700D01*
X167744046Y-100318768D01*
X167744043Y-100318769D01*
X167561550Y-100416314D01*
X167401589Y-100547589D01*
X167270314Y-100707550D01*
X167172769Y-100890043D01*
X167172769Y-100890044D01*
X167172768Y-100890046D01*
X167112701Y-101088065D01*
X167112699Y-101088070D01*
X167092416Y-101294000D01*
X167112699Y-101499929D01*
X167112699Y-101499931D01*
X167112700Y-101499934D01*
X167172767Y-101697951D01*
X167172769Y-101697956D01*
X167270314Y-101880449D01*
X167401589Y-102040410D01*
X167551877Y-102163747D01*
X167561550Y-102171685D01*
X167744046Y-102269232D01*
X167942066Y-102329300D01*
X168148000Y-102349583D01*
X168353934Y-102329300D01*
X168551954Y-102269232D01*
X168734450Y-102171685D01*
X168894410Y-102040410D01*
X169025685Y-101880450D01*
X169123232Y-101697954D01*
X169183300Y-101499934D01*
X169203583Y-101294000D01*
X169183300Y-101088066D01*
X169152480Y-100986467D01*
X169150831Y-100919278D01*
X169183958Y-100860800D01*
X169695327Y-100349431D01*
X169705857Y-100340022D01*
X169733936Y-100317631D01*
X169766419Y-100269986D01*
X169769148Y-100266139D01*
X169803369Y-100219773D01*
X169803369Y-100219770D01*
X169807039Y-100214799D01*
X169809293Y-100210335D01*
X169811114Y-100204430D01*
X169811116Y-100204428D01*
X169828133Y-100149257D01*
X169829571Y-100144887D01*
X169848620Y-100090451D01*
X169848620Y-100090447D01*
X169850660Y-100084618D01*
X169851500Y-100079680D01*
X169851500Y-100015842D01*
X169851588Y-100011131D01*
X169853013Y-99973044D01*
X169853743Y-99953538D01*
X169853742Y-99953535D01*
X169853973Y-99947368D01*
X169851500Y-99928578D01*
X169851500Y-96387300D01*
X169871049Y-96319890D01*
X169923628Y-96273397D01*
X169992924Y-96262248D01*
X170057433Y-96289900D01*
X170124462Y-96344910D01*
X170298273Y-96437814D01*
X170373978Y-96460779D01*
X170486867Y-96495024D01*
X170682999Y-96514341D01*
X170682999Y-96514340D01*
X170683000Y-96514341D01*
X170879132Y-96495024D01*
X171067727Y-96437814D01*
X171241538Y-96344910D01*
X171308566Y-96289900D01*
X171373076Y-96262248D01*
X171442372Y-96273397D01*
X171494951Y-96319890D01*
X171514500Y-96387300D01*
X171514500Y-99732549D01*
X171504909Y-99780767D01*
X171477595Y-99821645D01*
X171059819Y-100239419D01*
X171001341Y-100272547D01*
X170934151Y-100270898D01*
X170893935Y-100258699D01*
X170688000Y-100238416D01*
X170482070Y-100258699D01*
X170482067Y-100258699D01*
X170482066Y-100258700D01*
X170284046Y-100318768D01*
X170284043Y-100318769D01*
X170101550Y-100416314D01*
X169941589Y-100547589D01*
X169810314Y-100707550D01*
X169712769Y-100890043D01*
X169712769Y-100890044D01*
X169712768Y-100890046D01*
X169652701Y-101088065D01*
X169652699Y-101088070D01*
X169632416Y-101294000D01*
X169652699Y-101499929D01*
X169652699Y-101499931D01*
X169652700Y-101499934D01*
X169712767Y-101697951D01*
X169712769Y-101697956D01*
X169810314Y-101880449D01*
X169941589Y-102040410D01*
X170091877Y-102163747D01*
X170101550Y-102171685D01*
X170284046Y-102269232D01*
X170482066Y-102329300D01*
X170688000Y-102349583D01*
X170893934Y-102329300D01*
X171091954Y-102269232D01*
X171274450Y-102171685D01*
X171434410Y-102040410D01*
X171565685Y-101880450D01*
X171663232Y-101697954D01*
X171723300Y-101499934D01*
X171743583Y-101294000D01*
X171723300Y-101088066D01*
X171692480Y-100986467D01*
X171690831Y-100919278D01*
X171723958Y-100860800D01*
X172267327Y-100317431D01*
X172277857Y-100308022D01*
X172288609Y-100299448D01*
X172305936Y-100285631D01*
X172326728Y-100255133D01*
X172338419Y-100237986D01*
X172341148Y-100234139D01*
X172357789Y-100211592D01*
X172375369Y-100187773D01*
X172375369Y-100187770D01*
X172379042Y-100182795D01*
X172381294Y-100178334D01*
X172391625Y-100144842D01*
X172400113Y-100117318D01*
X172401577Y-100112869D01*
X172420621Y-100058451D01*
X172420621Y-100058447D01*
X172422660Y-100052621D01*
X172423500Y-100047683D01*
X172423500Y-99983868D01*
X172423588Y-99979157D01*
X172424319Y-99959609D01*
X172425744Y-99921538D01*
X172425743Y-99921535D01*
X172425974Y-99915372D01*
X172423500Y-99896575D01*
X172423500Y-96413562D01*
X172443049Y-96346152D01*
X172495628Y-96299659D01*
X172564924Y-96288510D01*
X172629433Y-96316162D01*
X172664462Y-96344910D01*
X172838273Y-96437814D01*
X172913978Y-96460779D01*
X173026867Y-96495024D01*
X173222999Y-96514341D01*
X173222999Y-96514340D01*
X173223000Y-96514341D01*
X173419132Y-96495024D01*
X173607727Y-96437814D01*
X173781538Y-96344910D01*
X173816566Y-96316162D01*
X173881076Y-96288510D01*
X173950372Y-96299659D01*
X174002951Y-96346152D01*
X174022500Y-96413562D01*
X174022500Y-99764549D01*
X174012909Y-99812767D01*
X173985595Y-99853645D01*
X173599819Y-100239419D01*
X173541341Y-100272547D01*
X173474151Y-100270898D01*
X173433935Y-100258699D01*
X173228000Y-100238416D01*
X173022070Y-100258699D01*
X173022067Y-100258699D01*
X173022066Y-100258700D01*
X172824046Y-100318768D01*
X172824043Y-100318769D01*
X172641550Y-100416314D01*
X172481589Y-100547589D01*
X172350314Y-100707550D01*
X172252769Y-100890043D01*
X172252769Y-100890044D01*
X172252768Y-100890046D01*
X172192701Y-101088065D01*
X172192699Y-101088070D01*
X172172416Y-101294000D01*
X172192699Y-101499929D01*
X172192699Y-101499931D01*
X172192700Y-101499934D01*
X172252767Y-101697951D01*
X172252769Y-101697956D01*
X172350314Y-101880449D01*
X172481589Y-102040410D01*
X172631877Y-102163747D01*
X172641550Y-102171685D01*
X172824046Y-102269232D01*
X173022066Y-102329300D01*
X173228000Y-102349583D01*
X173433934Y-102329300D01*
X173631954Y-102269232D01*
X173814450Y-102171685D01*
X173974410Y-102040410D01*
X174105685Y-101880450D01*
X174203232Y-101697954D01*
X174263300Y-101499934D01*
X174283583Y-101294000D01*
X174712416Y-101294000D01*
X174732699Y-101499929D01*
X174732699Y-101499931D01*
X174732700Y-101499934D01*
X174792767Y-101697951D01*
X174792769Y-101697956D01*
X174890314Y-101880449D01*
X175021589Y-102040410D01*
X175171877Y-102163747D01*
X175181550Y-102171685D01*
X175364046Y-102269232D01*
X175562066Y-102329300D01*
X175768000Y-102349583D01*
X175973934Y-102329300D01*
X176171954Y-102269232D01*
X176354450Y-102171685D01*
X176514410Y-102040410D01*
X176645685Y-101880450D01*
X176743232Y-101697954D01*
X176803300Y-101499934D01*
X176823583Y-101294000D01*
X176803300Y-101088066D01*
X176743232Y-100890046D01*
X176645685Y-100707550D01*
X176594722Y-100645451D01*
X176514410Y-100547589D01*
X176354449Y-100416314D01*
X176171956Y-100318769D01*
X176171955Y-100318768D01*
X176171954Y-100318768D01*
X175973934Y-100258700D01*
X175973931Y-100258699D01*
X175973929Y-100258699D01*
X175768000Y-100238416D01*
X175562070Y-100258699D01*
X175562067Y-100258699D01*
X175562066Y-100258700D01*
X175364046Y-100318768D01*
X175364043Y-100318769D01*
X175181550Y-100416314D01*
X175021589Y-100547589D01*
X174890314Y-100707550D01*
X174792769Y-100890043D01*
X174792769Y-100890044D01*
X174792768Y-100890046D01*
X174732701Y-101088065D01*
X174732699Y-101088070D01*
X174712416Y-101294000D01*
X174283583Y-101294000D01*
X174263300Y-101088066D01*
X174232480Y-100986467D01*
X174230831Y-100919278D01*
X174263958Y-100860800D01*
X174775327Y-100349431D01*
X174785857Y-100340022D01*
X174813936Y-100317631D01*
X174846419Y-100269986D01*
X174849148Y-100266139D01*
X174883369Y-100219773D01*
X174883369Y-100219770D01*
X174887039Y-100214799D01*
X174889293Y-100210335D01*
X174891114Y-100204430D01*
X174891116Y-100204428D01*
X174908133Y-100149257D01*
X174909571Y-100144887D01*
X174928620Y-100090451D01*
X174928620Y-100090447D01*
X174930660Y-100084618D01*
X174931500Y-100079680D01*
X174931500Y-100015842D01*
X174931588Y-100011131D01*
X174933013Y-99973044D01*
X174933743Y-99953538D01*
X174933742Y-99953535D01*
X174933973Y-99947368D01*
X174931500Y-99928578D01*
X174931500Y-96387300D01*
X174951049Y-96319890D01*
X175003628Y-96273397D01*
X175072924Y-96262248D01*
X175137433Y-96289900D01*
X175204462Y-96344910D01*
X175378273Y-96437814D01*
X175453978Y-96460779D01*
X175566867Y-96495024D01*
X175762999Y-96514341D01*
X175762999Y-96514340D01*
X175763000Y-96514341D01*
X175959132Y-96495024D01*
X176147727Y-96437814D01*
X176321538Y-96344910D01*
X176473883Y-96219883D01*
X176598910Y-96067538D01*
X176691814Y-95893727D01*
X176749024Y-95705132D01*
X176768341Y-95509000D01*
X177297658Y-95509000D01*
X177316975Y-95705132D01*
X177374185Y-95893725D01*
X177467089Y-96067537D01*
X177592116Y-96219883D01*
X177709434Y-96316163D01*
X177744462Y-96344910D01*
X177918273Y-96437814D01*
X177993978Y-96460779D01*
X178106867Y-96495024D01*
X178302999Y-96514341D01*
X178302999Y-96514340D01*
X178303000Y-96514341D01*
X178499132Y-96495024D01*
X178687727Y-96437814D01*
X178861538Y-96344910D01*
X179013883Y-96219883D01*
X179138910Y-96067538D01*
X179231814Y-95893727D01*
X179289024Y-95705132D01*
X179308341Y-95509000D01*
X179289024Y-95312868D01*
X179288425Y-95310895D01*
X179231814Y-95124274D01*
X179231814Y-95124273D01*
X179138910Y-94950462D01*
X179134500Y-94945088D01*
X179013883Y-94798116D01*
X178861537Y-94673089D01*
X178687725Y-94580185D01*
X178499132Y-94522975D01*
X178303000Y-94503658D01*
X178106867Y-94522975D01*
X177918274Y-94580185D01*
X177744462Y-94673089D01*
X177592116Y-94798116D01*
X177467089Y-94950462D01*
X177374185Y-95124274D01*
X177316975Y-95312867D01*
X177297658Y-95509000D01*
X176768341Y-95509000D01*
X176749024Y-95312868D01*
X176748425Y-95310895D01*
X176691814Y-95124274D01*
X176691814Y-95124273D01*
X176598910Y-94950462D01*
X176594500Y-94945088D01*
X176473883Y-94798116D01*
X176321537Y-94673089D01*
X176147725Y-94580185D01*
X175959132Y-94522975D01*
X175763000Y-94503658D01*
X175566867Y-94522975D01*
X175378274Y-94580185D01*
X175204462Y-94673089D01*
X175137434Y-94728099D01*
X175072924Y-94755752D01*
X175003628Y-94744603D01*
X174951049Y-94698110D01*
X174931500Y-94630700D01*
X174931500Y-83582608D01*
X174932292Y-83568501D01*
X174932401Y-83567533D01*
X174936313Y-83532814D01*
X174925588Y-83476136D01*
X174924805Y-83471525D01*
X174916214Y-83414521D01*
X174916212Y-83414518D01*
X174915293Y-83408415D01*
X174913728Y-83403658D01*
X174910841Y-83398196D01*
X174910841Y-83398193D01*
X174883890Y-83347198D01*
X174881778Y-83343014D01*
X174872699Y-83324161D01*
X174856767Y-83291079D01*
X174856765Y-83291077D01*
X174854084Y-83285509D01*
X174851188Y-83281427D01*
X174829685Y-83259924D01*
X174806037Y-83236276D01*
X174802794Y-83232910D01*
X174784607Y-83213309D01*
X174763577Y-83190644D01*
X174763576Y-83190643D01*
X174759378Y-83186119D01*
X174744340Y-83174579D01*
X173714405Y-82144644D01*
X173687091Y-82103767D01*
X173677500Y-82055549D01*
X173677500Y-81236041D01*
X173695426Y-81171264D01*
X173744104Y-81124919D01*
X173781538Y-81104910D01*
X173933883Y-80979883D01*
X174022500Y-80871903D01*
X174058910Y-80827538D01*
X174151814Y-80653727D01*
X174209024Y-80465132D01*
X174228341Y-80269000D01*
X174228341Y-80268999D01*
X174757658Y-80268999D01*
X174776975Y-80465132D01*
X174834185Y-80653725D01*
X174927089Y-80827537D01*
X175052116Y-80979883D01*
X175169434Y-81076163D01*
X175204462Y-81104910D01*
X175378273Y-81197814D01*
X175472570Y-81226419D01*
X175566867Y-81255024D01*
X175763000Y-81274341D01*
X175959132Y-81255024D01*
X176147727Y-81197814D01*
X176321538Y-81104910D01*
X176473883Y-80979883D01*
X176598910Y-80827538D01*
X176691814Y-80653727D01*
X176749024Y-80465132D01*
X176768341Y-80269000D01*
X176768341Y-80268999D01*
X177297658Y-80268999D01*
X177316975Y-80465132D01*
X177374185Y-80653725D01*
X177467089Y-80827537D01*
X177592116Y-80979883D01*
X177709434Y-81076163D01*
X177744462Y-81104910D01*
X177918273Y-81197814D01*
X178012570Y-81226419D01*
X178106867Y-81255024D01*
X178303000Y-81274341D01*
X178499132Y-81255024D01*
X178687727Y-81197814D01*
X178861538Y-81104910D01*
X179013883Y-80979883D01*
X179138910Y-80827538D01*
X179231814Y-80653727D01*
X179289024Y-80465132D01*
X179308341Y-80269000D01*
X179304348Y-80228462D01*
X179289024Y-80072867D01*
X179252083Y-79951090D01*
X179231814Y-79884273D01*
X179138910Y-79710462D01*
X179113500Y-79679500D01*
X179013883Y-79558116D01*
X178861537Y-79433089D01*
X178687725Y-79340185D01*
X178499132Y-79282975D01*
X178303000Y-79263658D01*
X178106867Y-79282975D01*
X177918274Y-79340185D01*
X177744462Y-79433089D01*
X177592116Y-79558116D01*
X177467089Y-79710462D01*
X177374185Y-79884274D01*
X177316975Y-80072867D01*
X177297658Y-80268999D01*
X176768341Y-80268999D01*
X176764348Y-80228462D01*
X176749024Y-80072867D01*
X176712083Y-79951090D01*
X176691814Y-79884273D01*
X176598910Y-79710462D01*
X176573500Y-79679500D01*
X176473883Y-79558116D01*
X176321537Y-79433089D01*
X176147725Y-79340185D01*
X175959132Y-79282975D01*
X175763000Y-79263658D01*
X175566867Y-79282975D01*
X175378274Y-79340185D01*
X175204462Y-79433089D01*
X175052116Y-79558116D01*
X174927089Y-79710462D01*
X174834185Y-79884274D01*
X174776975Y-80072867D01*
X174757658Y-80268999D01*
X174228341Y-80268999D01*
X174224348Y-80228462D01*
X174209024Y-80072867D01*
X174172083Y-79951090D01*
X174151814Y-79884273D01*
X174058910Y-79710462D01*
X174033500Y-79679500D01*
X173933883Y-79558116D01*
X173781537Y-79433089D01*
X173607725Y-79340185D01*
X173419132Y-79282975D01*
X173223000Y-79263658D01*
X173026867Y-79282975D01*
X172838274Y-79340185D01*
X172664462Y-79433089D01*
X172512116Y-79558116D01*
X172387089Y-79710462D01*
X172294185Y-79884274D01*
X172236975Y-80072867D01*
X172217658Y-80268999D01*
X172236975Y-80465132D01*
X172294185Y-80653725D01*
X172387089Y-80827537D01*
X172512116Y-80979883D01*
X172664461Y-81104910D01*
X172701896Y-81124919D01*
X172750574Y-81171264D01*
X172768500Y-81236041D01*
X172768500Y-82263391D01*
X172767708Y-82277498D01*
X172763686Y-82313187D01*
X172774400Y-82369809D01*
X172775189Y-82374451D01*
X172784704Y-82437576D01*
X172786276Y-82442352D01*
X172789158Y-82447806D01*
X172789159Y-82447807D01*
X172816105Y-82498792D01*
X172818216Y-82502975D01*
X172845909Y-82560480D01*
X172848815Y-82564575D01*
X172853179Y-82568939D01*
X172853180Y-82568940D01*
X172893948Y-82609708D01*
X172897191Y-82613074D01*
X172936423Y-82655356D01*
X172936425Y-82655357D01*
X172940624Y-82659882D01*
X172955661Y-82671421D01*
X173985595Y-83701355D01*
X174012909Y-83742232D01*
X174022500Y-83790450D01*
X174022500Y-94604438D01*
X174002951Y-94671848D01*
X173950372Y-94718341D01*
X173881076Y-94729490D01*
X173816566Y-94701837D01*
X173781537Y-94673089D01*
X173607725Y-94580185D01*
X173419132Y-94522975D01*
X173223000Y-94503658D01*
X173026867Y-94522975D01*
X172838274Y-94580185D01*
X172664462Y-94673089D01*
X172629434Y-94701837D01*
X172564924Y-94729490D01*
X172495628Y-94718341D01*
X172443049Y-94671848D01*
X172423500Y-94604438D01*
X172423500Y-83609608D01*
X172424292Y-83595501D01*
X172425210Y-83587355D01*
X172428313Y-83559814D01*
X172417588Y-83503136D01*
X172416805Y-83498525D01*
X172415307Y-83488584D01*
X172408214Y-83441521D01*
X172408212Y-83441518D01*
X172407293Y-83435415D01*
X172405727Y-83430655D01*
X172402841Y-83425195D01*
X172402841Y-83425193D01*
X172375880Y-83374180D01*
X172373800Y-83370062D01*
X172348767Y-83318079D01*
X172348765Y-83318077D01*
X172346084Y-83312509D01*
X172343189Y-83308429D01*
X172320839Y-83286079D01*
X172298049Y-83263289D01*
X172294807Y-83259924D01*
X172294661Y-83259766D01*
X172255577Y-83217644D01*
X172255574Y-83217642D01*
X172251379Y-83213121D01*
X172236338Y-83201578D01*
X171174405Y-82139644D01*
X171147091Y-82098767D01*
X171137500Y-82050549D01*
X171137500Y-81236041D01*
X171155426Y-81171264D01*
X171204104Y-81124919D01*
X171241538Y-81104910D01*
X171393883Y-80979883D01*
X171482500Y-80871903D01*
X171518910Y-80827538D01*
X171611814Y-80653727D01*
X171669024Y-80465132D01*
X171688341Y-80269000D01*
X171684348Y-80228462D01*
X171669024Y-80072867D01*
X171632083Y-79951090D01*
X171611814Y-79884273D01*
X171518910Y-79710462D01*
X171493500Y-79679500D01*
X171393883Y-79558116D01*
X171241537Y-79433089D01*
X171067725Y-79340185D01*
X170879132Y-79282975D01*
X170683000Y-79263658D01*
X170486867Y-79282975D01*
X170298274Y-79340185D01*
X170124462Y-79433089D01*
X170078434Y-79470864D01*
X170013924Y-79498517D01*
X169944628Y-79487368D01*
X169892048Y-79440875D01*
X169872500Y-79373465D01*
X169872500Y-76740608D01*
X169873292Y-76726501D01*
X169877313Y-76690814D01*
X169866588Y-76634136D01*
X169865805Y-76629525D01*
X169857214Y-76572521D01*
X169857212Y-76572518D01*
X169856293Y-76566415D01*
X169854727Y-76561655D01*
X169851841Y-76556195D01*
X169851841Y-76556193D01*
X169824892Y-76505203D01*
X169822786Y-76501031D01*
X169795087Y-76443514D01*
X169792188Y-76439428D01*
X169770643Y-76417883D01*
X169747050Y-76394290D01*
X169743808Y-76390925D01*
X169743566Y-76390664D01*
X169704577Y-76348644D01*
X169704574Y-76348642D01*
X169700379Y-76344121D01*
X169685338Y-76332578D01*
X164682434Y-71329673D01*
X164673018Y-71319137D01*
X164650631Y-71291064D01*
X164630179Y-71277120D01*
X164602983Y-71258577D01*
X164599143Y-71255852D01*
X164547812Y-71217969D01*
X164543317Y-71215700D01*
X164482341Y-71196892D01*
X164477863Y-71195419D01*
X164474262Y-71194159D01*
X164434351Y-71180193D01*
X164417639Y-71174345D01*
X164412663Y-71173500D01*
X164406505Y-71173500D01*
X164348868Y-71173500D01*
X164344157Y-71173412D01*
X164280371Y-71171025D01*
X164261574Y-71173500D01*
X109023609Y-71173500D01*
X109009502Y-71172708D01*
X108996615Y-71171256D01*
X108973814Y-71168687D01*
X108973813Y-71168687D01*
X108917163Y-71179405D01*
X108912521Y-71180193D01*
X108849432Y-71189702D01*
X108844638Y-71191280D01*
X108788223Y-71221096D01*
X108784020Y-71223218D01*
X108726525Y-71250906D01*
X108722419Y-71253820D01*
X108677300Y-71298938D01*
X108673910Y-71302203D01*
X108627123Y-71345616D01*
X108615581Y-71360657D01*
X107814420Y-72161818D01*
X107755940Y-72194947D01*
X107688748Y-72193297D01*
X107673593Y-72188699D01*
X107648130Y-72180975D01*
X107452000Y-72161658D01*
X107255867Y-72180975D01*
X107067274Y-72238185D01*
X106893462Y-72331089D01*
X106741116Y-72456116D01*
X106616089Y-72608462D01*
X106523185Y-72782274D01*
X106465975Y-72970867D01*
X106446658Y-73166999D01*
X106465975Y-73363132D01*
X106523185Y-73551725D01*
X106616089Y-73725537D01*
X106671099Y-73792566D01*
X106698752Y-73857076D01*
X106687603Y-73926372D01*
X106641110Y-73978951D01*
X106573700Y-73998500D01*
X100710300Y-73998500D01*
X100642890Y-73978951D01*
X100596397Y-73926372D01*
X100585248Y-73857076D01*
X100612901Y-73792566D01*
X100667910Y-73725538D01*
X100760814Y-73551727D01*
X100818024Y-73363132D01*
X100837341Y-73167000D01*
X100819491Y-72985768D01*
X100818024Y-72970867D01*
X100760814Y-72782274D01*
X100760814Y-72782273D01*
X100667910Y-72608462D01*
X100644231Y-72579609D01*
X100542883Y-72456116D01*
X100390537Y-72331089D01*
X100216725Y-72238185D01*
X100028132Y-72180975D01*
X99832000Y-72161658D01*
X99635867Y-72180975D01*
X99447274Y-72238185D01*
X99273462Y-72331089D01*
X99121116Y-72456116D01*
X98996089Y-72608462D01*
X98903185Y-72782274D01*
X98845975Y-72970867D01*
X98826658Y-73166999D01*
X98845975Y-73363132D01*
X98903185Y-73551725D01*
X98996089Y-73725537D01*
X99051099Y-73792566D01*
X99078752Y-73857076D01*
X99067603Y-73926372D01*
X99021110Y-73978951D01*
X98953700Y-73998500D01*
X96138300Y-73998500D01*
X96070890Y-73978951D01*
X96024397Y-73926372D01*
X96013248Y-73857076D01*
X96040901Y-73792566D01*
X96095910Y-73725538D01*
X96188814Y-73551727D01*
X96246024Y-73363132D01*
X96265341Y-73167000D01*
X96247491Y-72985768D01*
X96246024Y-72970867D01*
X96188814Y-72782274D01*
X96188814Y-72782273D01*
X96095910Y-72608462D01*
X96072231Y-72579609D01*
X95970883Y-72456116D01*
X95818537Y-72331089D01*
X95644725Y-72238185D01*
X95456132Y-72180975D01*
X95260000Y-72161658D01*
X95063867Y-72180975D01*
X94875274Y-72238185D01*
X94701462Y-72331089D01*
X94549116Y-72456116D01*
X94424089Y-72608462D01*
X94331185Y-72782274D01*
X94273975Y-72970867D01*
X94254658Y-73166999D01*
X94273975Y-73363132D01*
X94331185Y-73551725D01*
X94424089Y-73725537D01*
X94479099Y-73792566D01*
X94506752Y-73857076D01*
X94495603Y-73926372D01*
X94449110Y-73978951D01*
X94381700Y-73998500D01*
X94006609Y-73998500D01*
X93992502Y-73997708D01*
X93979615Y-73996256D01*
X93956814Y-73993687D01*
X93956813Y-73993687D01*
X93900163Y-74004405D01*
X93895521Y-74005193D01*
X93832432Y-74014702D01*
X93827638Y-74016280D01*
X93771223Y-74046096D01*
X93767020Y-74048218D01*
X93709525Y-74075906D01*
X93705419Y-74078820D01*
X93660301Y-74123937D01*
X93656911Y-74127202D01*
X93610123Y-74170616D01*
X93598581Y-74185657D01*
X88002420Y-79781818D01*
X87943940Y-79814947D01*
X87876748Y-79813297D01*
X87861593Y-79808699D01*
X87836130Y-79800975D01*
X87640000Y-79781658D01*
X87443867Y-79800975D01*
X87255274Y-79858185D01*
X87081462Y-79951089D01*
X86929116Y-80076116D01*
X86804089Y-80228462D01*
X86711185Y-80402274D01*
X86653975Y-80590867D01*
X86634658Y-80787000D01*
X86653975Y-80983132D01*
X86711185Y-81171725D01*
X86804089Y-81345537D01*
X86929116Y-81497883D01*
X87081462Y-81622910D01*
X87255273Y-81715814D01*
X87349570Y-81744418D01*
X87443867Y-81773024D01*
X87483360Y-81776914D01*
X87541202Y-81797669D01*
X87582347Y-81843316D01*
X87597008Y-81902994D01*
X87581697Y-81962510D01*
X87540056Y-82007704D01*
X87481991Y-82027828D01*
X87412000Y-82033951D01*
X87190929Y-82093186D01*
X86983501Y-82189912D01*
X86796018Y-82321189D01*
X86634189Y-82483018D01*
X86502912Y-82670501D01*
X86406186Y-82877929D01*
X86353917Y-83073000D01*
X82804000Y-83073000D01*
X82804000Y-78246999D01*
X86634658Y-78246999D01*
X86653975Y-78443132D01*
X86711185Y-78631725D01*
X86804089Y-78805537D01*
X86929116Y-78957883D01*
X86981428Y-79000814D01*
X87081462Y-79082910D01*
X87255273Y-79175814D01*
X87349570Y-79204418D01*
X87443867Y-79233024D01*
X87640000Y-79252341D01*
X87836132Y-79233024D01*
X88024727Y-79175814D01*
X88198538Y-79082910D01*
X88350883Y-78957883D01*
X88475910Y-78805538D01*
X88568814Y-78631727D01*
X88626024Y-78443132D01*
X88645341Y-78247000D01*
X88626024Y-78050868D01*
X88568814Y-77862273D01*
X88475910Y-77688462D01*
X88475909Y-77688461D01*
X88350883Y-77536116D01*
X88198537Y-77411089D01*
X88024725Y-77318185D01*
X87836132Y-77260975D01*
X87640000Y-77241658D01*
X87443867Y-77260975D01*
X87255274Y-77318185D01*
X87081462Y-77411089D01*
X86929116Y-77536116D01*
X86804089Y-77688462D01*
X86711185Y-77862274D01*
X86653975Y-78050867D01*
X86634658Y-78246999D01*
X82804000Y-78246999D01*
X82804000Y-75707000D01*
X86634658Y-75707000D01*
X86653975Y-75903132D01*
X86711185Y-76091725D01*
X86804089Y-76265537D01*
X86929116Y-76417883D01*
X87035560Y-76505239D01*
X87081462Y-76542910D01*
X87255273Y-76635814D01*
X87330978Y-76658779D01*
X87443867Y-76693024D01*
X87640000Y-76712341D01*
X87836132Y-76693024D01*
X88024727Y-76635814D01*
X88198538Y-76542910D01*
X88350883Y-76417883D01*
X88475910Y-76265538D01*
X88568814Y-76091727D01*
X88626024Y-75903132D01*
X88645341Y-75707000D01*
X88626024Y-75510868D01*
X88625060Y-75507691D01*
X88568814Y-75322274D01*
X88568814Y-75322273D01*
X88475910Y-75148462D01*
X88428342Y-75090500D01*
X88350883Y-74996116D01*
X88198537Y-74871089D01*
X88024725Y-74778185D01*
X87836132Y-74720975D01*
X87640000Y-74701658D01*
X87443867Y-74720975D01*
X87255274Y-74778185D01*
X87081462Y-74871089D01*
X86929116Y-74996116D01*
X86804089Y-75148462D01*
X86711185Y-75322274D01*
X86653975Y-75510867D01*
X86634658Y-75707000D01*
X82804000Y-75707000D01*
X82804000Y-73986748D01*
X86639500Y-73986748D01*
X86645374Y-74016280D01*
X86651133Y-74045231D01*
X86695447Y-74111552D01*
X86713983Y-74123937D01*
X86761769Y-74155867D01*
X86820252Y-74167500D01*
X88459747Y-74167500D01*
X88459748Y-74167500D01*
X88518231Y-74155867D01*
X88584552Y-74111552D01*
X88628867Y-74045231D01*
X88640500Y-73986748D01*
X88640500Y-72347252D01*
X88628867Y-72288769D01*
X88595068Y-72238186D01*
X88584552Y-72222447D01*
X88518231Y-72178133D01*
X88518230Y-72178132D01*
X88459748Y-72166500D01*
X86820252Y-72166500D01*
X86791010Y-72172316D01*
X86761768Y-72178133D01*
X86695447Y-72222447D01*
X86651133Y-72288768D01*
X86651132Y-72288769D01*
X86651133Y-72288769D01*
X86639500Y-72347252D01*
X86639500Y-73986748D01*
X82804000Y-73986748D01*
X82804000Y-71446747D01*
X98831500Y-71446747D01*
X98843133Y-71505231D01*
X98887447Y-71571552D01*
X98931762Y-71601162D01*
X98953769Y-71615867D01*
X99012252Y-71627500D01*
X100651747Y-71627500D01*
X100651748Y-71627500D01*
X100710231Y-71615867D01*
X100776552Y-71571552D01*
X100820867Y-71505231D01*
X100832500Y-71446748D01*
X100832500Y-70627000D01*
X106446658Y-70627000D01*
X106465975Y-70823132D01*
X106523185Y-71011725D01*
X106616089Y-71185537D01*
X106741116Y-71337883D01*
X106873767Y-71446747D01*
X106893462Y-71462910D01*
X107067273Y-71555814D01*
X107119154Y-71571552D01*
X107255867Y-71613024D01*
X107451999Y-71632341D01*
X107451999Y-71632340D01*
X107452000Y-71632341D01*
X107648132Y-71613024D01*
X107836727Y-71555814D01*
X108010538Y-71462910D01*
X108162883Y-71337883D01*
X108287910Y-71185538D01*
X108380814Y-71011727D01*
X108438024Y-70823132D01*
X108457341Y-70627000D01*
X108438024Y-70430868D01*
X108380814Y-70242273D01*
X108287910Y-70068462D01*
X108162883Y-69916116D01*
X108010537Y-69791089D01*
X107836725Y-69698185D01*
X107648132Y-69640975D01*
X107452000Y-69621658D01*
X107255867Y-69640975D01*
X107067274Y-69698185D01*
X106893462Y-69791089D01*
X106741116Y-69916116D01*
X106616089Y-70068462D01*
X106523185Y-70242274D01*
X106465975Y-70430867D01*
X106446658Y-70627000D01*
X100832500Y-70627000D01*
X100832500Y-69807252D01*
X100820867Y-69748769D01*
X100787068Y-69698186D01*
X100776552Y-69682447D01*
X100710231Y-69638133D01*
X100651748Y-69626500D01*
X99012252Y-69626500D01*
X98983010Y-69632316D01*
X98953768Y-69638133D01*
X98887447Y-69682447D01*
X98843133Y-69748768D01*
X98831500Y-69807253D01*
X98831500Y-71446747D01*
X82804000Y-71446747D01*
X82804000Y-66040000D01*
X155204658Y-66040000D01*
X155223975Y-66236132D01*
X155281185Y-66424725D01*
X155374089Y-66598537D01*
X155499116Y-66750883D01*
X155651461Y-66875909D01*
X155651462Y-66875910D01*
X155825273Y-66968814D01*
X155919570Y-66997419D01*
X156013867Y-67026024D01*
X156210000Y-67045341D01*
X156406132Y-67026024D01*
X156594727Y-66968814D01*
X156768538Y-66875910D01*
X156920883Y-66750883D01*
X157045910Y-66598538D01*
X157138814Y-66424727D01*
X157196024Y-66236132D01*
X157215341Y-66040000D01*
X157196024Y-65843868D01*
X157138814Y-65655273D01*
X157045910Y-65481462D01*
X157045909Y-65481461D01*
X156920883Y-65329116D01*
X156768537Y-65204089D01*
X156594725Y-65111185D01*
X156406132Y-65053975D01*
X156210000Y-65034658D01*
X156013867Y-65053975D01*
X155825274Y-65111185D01*
X155651462Y-65204089D01*
X155499116Y-65329116D01*
X155374089Y-65481462D01*
X155281185Y-65655274D01*
X155223975Y-65843867D01*
X155204658Y-66040000D01*
X82804000Y-66040000D01*
X82804000Y-61214000D01*
X153376416Y-61214000D01*
X153396699Y-61419929D01*
X153396699Y-61419931D01*
X153396700Y-61419934D01*
X153418209Y-61490840D01*
X153456769Y-61617956D01*
X153554314Y-61800449D01*
X153685589Y-61960410D01*
X153835877Y-62083747D01*
X153845550Y-62091685D01*
X154028046Y-62189232D01*
X154226066Y-62249300D01*
X154432000Y-62269583D01*
X154637934Y-62249300D01*
X154835954Y-62189232D01*
X155018450Y-62091685D01*
X155178410Y-61960410D01*
X155309685Y-61800450D01*
X155407232Y-61617954D01*
X155467300Y-61419934D01*
X155487583Y-61214000D01*
X155916416Y-61214000D01*
X155936699Y-61419929D01*
X155936699Y-61419931D01*
X155936700Y-61419934D01*
X155958209Y-61490840D01*
X155996769Y-61617956D01*
X156094314Y-61800449D01*
X156225589Y-61960410D01*
X156375877Y-62083747D01*
X156385550Y-62091685D01*
X156568046Y-62189232D01*
X156766066Y-62249300D01*
X156972000Y-62269583D01*
X157177934Y-62249300D01*
X157248838Y-62227790D01*
X157316030Y-62226141D01*
X157374510Y-62259270D01*
X159020595Y-63905355D01*
X159047909Y-63946232D01*
X159057500Y-63994450D01*
X159057500Y-65072959D01*
X159039574Y-65137736D01*
X158990896Y-65184081D01*
X158953461Y-65204089D01*
X158801116Y-65329116D01*
X158676089Y-65481462D01*
X158583185Y-65655274D01*
X158525975Y-65843867D01*
X158506658Y-66040000D01*
X158525975Y-66236132D01*
X158583185Y-66424725D01*
X158676089Y-66598537D01*
X158801116Y-66750883D01*
X158953461Y-66875909D01*
X158953462Y-66875910D01*
X159127273Y-66968814D01*
X159221570Y-66997419D01*
X159315867Y-67026024D01*
X159512000Y-67045341D01*
X159708132Y-67026024D01*
X159896727Y-66968814D01*
X160070538Y-66875910D01*
X160222883Y-66750883D01*
X160347910Y-66598538D01*
X160440814Y-66424727D01*
X160498024Y-66236132D01*
X160517341Y-66040000D01*
X161808658Y-66040000D01*
X161827975Y-66236132D01*
X161885185Y-66424725D01*
X161978089Y-66598537D01*
X162103116Y-66750883D01*
X162255461Y-66875909D01*
X162255462Y-66875910D01*
X162429273Y-66968814D01*
X162523570Y-66997419D01*
X162617867Y-67026024D01*
X162814000Y-67045341D01*
X163010132Y-67026024D01*
X163198727Y-66968814D01*
X163372538Y-66875910D01*
X163524883Y-66750883D01*
X163649910Y-66598538D01*
X163742814Y-66424727D01*
X163800024Y-66236132D01*
X163819341Y-66040000D01*
X163800024Y-65843868D01*
X163742814Y-65655273D01*
X163649910Y-65481462D01*
X163649909Y-65481461D01*
X163524883Y-65329116D01*
X163372537Y-65204089D01*
X163198725Y-65111185D01*
X163010132Y-65053975D01*
X162814000Y-65034658D01*
X162617867Y-65053975D01*
X162429274Y-65111185D01*
X162255462Y-65204089D01*
X162103116Y-65329116D01*
X161978089Y-65481462D01*
X161885185Y-65655274D01*
X161827975Y-65843867D01*
X161808658Y-66040000D01*
X160517341Y-66040000D01*
X160498024Y-65843868D01*
X160440814Y-65655273D01*
X160347910Y-65481462D01*
X160347909Y-65481461D01*
X160222883Y-65329116D01*
X160070538Y-65204089D01*
X160033104Y-65184081D01*
X159984426Y-65137736D01*
X159966500Y-65072959D01*
X159966500Y-63786607D01*
X159967292Y-63772500D01*
X159967640Y-63769403D01*
X159971313Y-63736813D01*
X159960594Y-63680165D01*
X159959804Y-63675516D01*
X159950292Y-63612405D01*
X159948730Y-63607657D01*
X159918897Y-63551213D01*
X159916798Y-63547057D01*
X159891767Y-63495079D01*
X159891765Y-63495077D01*
X159889085Y-63489511D01*
X159886188Y-63485428D01*
X159881820Y-63481060D01*
X159841050Y-63440290D01*
X159837808Y-63436925D01*
X159837566Y-63436664D01*
X159798577Y-63394644D01*
X159798574Y-63394642D01*
X159794379Y-63390121D01*
X159779338Y-63378578D01*
X158017271Y-61616510D01*
X157984142Y-61558031D01*
X157985791Y-61490840D01*
X158007300Y-61419934D01*
X158027583Y-61214000D01*
X158456416Y-61214000D01*
X158476699Y-61419929D01*
X158476699Y-61419931D01*
X158476700Y-61419934D01*
X158498209Y-61490840D01*
X158536769Y-61617956D01*
X158634314Y-61800449D01*
X158765589Y-61960410D01*
X158915877Y-62083747D01*
X158925550Y-62091685D01*
X159108046Y-62189232D01*
X159306066Y-62249300D01*
X159512000Y-62269583D01*
X159717934Y-62249300D01*
X159915954Y-62189232D01*
X160098450Y-62091685D01*
X160108123Y-62083747D01*
X161001500Y-62083747D01*
X161013133Y-62142231D01*
X161057447Y-62208552D01*
X161101762Y-62238162D01*
X161123769Y-62252867D01*
X161182252Y-62264500D01*
X162921747Y-62264500D01*
X162921748Y-62264500D01*
X162980231Y-62252867D01*
X163046552Y-62208552D01*
X163090867Y-62142231D01*
X163102500Y-62083748D01*
X163102500Y-60344252D01*
X163090867Y-60285769D01*
X163059462Y-60238769D01*
X163046552Y-60219447D01*
X162980231Y-60175133D01*
X162980230Y-60175132D01*
X162921748Y-60163500D01*
X161182252Y-60163500D01*
X161153010Y-60169316D01*
X161123768Y-60175133D01*
X161057447Y-60219447D01*
X161013133Y-60285768D01*
X161001500Y-60344253D01*
X161001500Y-62083747D01*
X160108123Y-62083747D01*
X160258410Y-61960410D01*
X160389685Y-61800450D01*
X160487232Y-61617954D01*
X160547300Y-61419934D01*
X160567583Y-61214000D01*
X160547300Y-61008066D01*
X160487232Y-60810046D01*
X160389685Y-60627550D01*
X160258410Y-60467589D01*
X160098449Y-60336314D01*
X159915956Y-60238769D01*
X159915955Y-60238768D01*
X159915954Y-60238768D01*
X159717934Y-60178700D01*
X159717931Y-60178699D01*
X159717929Y-60178699D01*
X159512000Y-60158416D01*
X159306070Y-60178699D01*
X159306067Y-60178699D01*
X159306066Y-60178700D01*
X159108046Y-60238768D01*
X159108043Y-60238769D01*
X158925550Y-60336314D01*
X158765589Y-60467589D01*
X158634314Y-60627550D01*
X158536769Y-60810043D01*
X158476699Y-61008070D01*
X158456416Y-61214000D01*
X158027583Y-61214000D01*
X158007300Y-61008066D01*
X157947232Y-60810046D01*
X157849685Y-60627550D01*
X157718410Y-60467589D01*
X157558449Y-60336314D01*
X157375956Y-60238769D01*
X157375955Y-60238768D01*
X157375954Y-60238768D01*
X157177934Y-60178700D01*
X157177931Y-60178699D01*
X157177929Y-60178699D01*
X156972000Y-60158416D01*
X156766070Y-60178699D01*
X156766067Y-60178699D01*
X156766066Y-60178700D01*
X156568046Y-60238768D01*
X156568043Y-60238769D01*
X156385550Y-60336314D01*
X156225589Y-60467589D01*
X156094314Y-60627550D01*
X155996769Y-60810043D01*
X155936699Y-61008070D01*
X155916416Y-61214000D01*
X155487583Y-61214000D01*
X155467300Y-61008066D01*
X155407232Y-60810046D01*
X155309685Y-60627550D01*
X155178410Y-60467589D01*
X155018449Y-60336314D01*
X154835956Y-60238769D01*
X154835955Y-60238768D01*
X154835954Y-60238768D01*
X154637934Y-60178700D01*
X154637931Y-60178699D01*
X154637929Y-60178699D01*
X154432000Y-60158416D01*
X154226070Y-60178699D01*
X154226067Y-60178699D01*
X154226066Y-60178700D01*
X154028046Y-60238768D01*
X154028043Y-60238769D01*
X153845550Y-60336314D01*
X153685589Y-60467589D01*
X153554314Y-60627550D01*
X153456769Y-60810043D01*
X153396699Y-61008070D01*
X153376416Y-61214000D01*
X82804000Y-61214000D01*
X82804000Y-58038000D01*
X82820881Y-57975000D01*
X82867000Y-57928881D01*
X82930000Y-57912000D01*
X184786000Y-57912000D01*
X184849000Y-57928881D01*
G37*
%TD.AperFunction*%
%TD*%
M02*
