%TF.GenerationSoftware,KiCad,Pcbnew,7.0.1*%
%TF.CreationDate,2024-02-11T09:16:21+00:00*%
%TF.ProjectId,Sys09Backplane,53797330-3942-4616-936b-706c616e652e,rev?*%
%TF.SameCoordinates,Original*%
%TF.FileFunction,Soldermask,Bot*%
%TF.FilePolarity,Negative*%
%FSLAX46Y46*%
G04 Gerber Fmt 4.6, Leading zero omitted, Abs format (unit mm)*
G04 Created by KiCad (PCBNEW 7.0.1) date 2024-02-11 09:16:21*
%MOMM*%
%LPD*%
G01*
G04 APERTURE LIST*
%ADD10R,1.700000X1.700000*%
%ADD11O,1.700000X1.700000*%
G04 APERTURE END LIST*
D10*
%TO.C,J3*%
X90000000Y-31475000D03*
D11*
X90000000Y-34015000D03*
X90000000Y-36555000D03*
X90000000Y-39095000D03*
X90000000Y-41635000D03*
X90000000Y-44175000D03*
X90000000Y-46715000D03*
X90000000Y-49255000D03*
X90000000Y-51795000D03*
X90000000Y-54335000D03*
X90000000Y-56875000D03*
X90000000Y-59415000D03*
X90000000Y-61955000D03*
X90000000Y-64495000D03*
X90000000Y-67035000D03*
X90000000Y-69575000D03*
X90000000Y-72115000D03*
X90000000Y-74655000D03*
X90000000Y-77195000D03*
X90000000Y-79735000D03*
X90000000Y-82275000D03*
X90000000Y-84815000D03*
X90000000Y-87355000D03*
X90000000Y-89895000D03*
X90000000Y-92435000D03*
X90000000Y-94975000D03*
X90000000Y-97515000D03*
X90000000Y-100055000D03*
X90000000Y-102595000D03*
X90000000Y-105135000D03*
X90000000Y-107675000D03*
X90000000Y-110215000D03*
X90000000Y-112755000D03*
X90000000Y-115295000D03*
X90000000Y-117835000D03*
X90000000Y-120375000D03*
X90000000Y-122915000D03*
X90000000Y-125455000D03*
X90000000Y-127995000D03*
X90000000Y-130535000D03*
%TD*%
D10*
%TO.C,J7*%
X210000000Y-31475000D03*
D11*
X210000000Y-34015000D03*
X210000000Y-36555000D03*
X210000000Y-39095000D03*
X210000000Y-41635000D03*
X210000000Y-44175000D03*
X210000000Y-46715000D03*
X210000000Y-49255000D03*
X210000000Y-51795000D03*
X210000000Y-54335000D03*
X210000000Y-56875000D03*
X210000000Y-59415000D03*
X210000000Y-61955000D03*
X210000000Y-64495000D03*
X210000000Y-67035000D03*
X210000000Y-69575000D03*
X210000000Y-72115000D03*
X210000000Y-74655000D03*
X210000000Y-77195000D03*
X210000000Y-79735000D03*
X210000000Y-82275000D03*
X210000000Y-84815000D03*
X210000000Y-87355000D03*
X210000000Y-89895000D03*
X210000000Y-92435000D03*
X210000000Y-94975000D03*
X210000000Y-97515000D03*
X210000000Y-100055000D03*
X210000000Y-102595000D03*
X210000000Y-105135000D03*
X210000000Y-107675000D03*
X210000000Y-110215000D03*
X210000000Y-112755000D03*
X210000000Y-115295000D03*
X210000000Y-117835000D03*
X210000000Y-120375000D03*
X210000000Y-122915000D03*
X210000000Y-125455000D03*
X210000000Y-127995000D03*
X210000000Y-130535000D03*
%TD*%
D10*
%TO.C,J2*%
X60000000Y-31475000D03*
D11*
X60000000Y-34015000D03*
X60000000Y-36555000D03*
X60000000Y-39095000D03*
X60000000Y-41635000D03*
X60000000Y-44175000D03*
X60000000Y-46715000D03*
X60000000Y-49255000D03*
X60000000Y-51795000D03*
X60000000Y-54335000D03*
X60000000Y-56875000D03*
X60000000Y-59415000D03*
X60000000Y-61955000D03*
X60000000Y-64495000D03*
X60000000Y-67035000D03*
X60000000Y-69575000D03*
X60000000Y-72115000D03*
X60000000Y-74655000D03*
X60000000Y-77195000D03*
X60000000Y-79735000D03*
X60000000Y-82275000D03*
X60000000Y-84815000D03*
X60000000Y-87355000D03*
X60000000Y-89895000D03*
X60000000Y-92435000D03*
X60000000Y-94975000D03*
X60000000Y-97515000D03*
X60000000Y-100055000D03*
X60000000Y-102595000D03*
X60000000Y-105135000D03*
X60000000Y-107675000D03*
X60000000Y-110215000D03*
X60000000Y-112755000D03*
X60000000Y-115295000D03*
X60000000Y-117835000D03*
X60000000Y-120375000D03*
X60000000Y-122915000D03*
X60000000Y-125455000D03*
X60000000Y-127995000D03*
X60000000Y-130535000D03*
%TD*%
D10*
%TO.C,J4*%
X120000000Y-31475000D03*
D11*
X120000000Y-34015000D03*
X120000000Y-36555000D03*
X120000000Y-39095000D03*
X120000000Y-41635000D03*
X120000000Y-44175000D03*
X120000000Y-46715000D03*
X120000000Y-49255000D03*
X120000000Y-51795000D03*
X120000000Y-54335000D03*
X120000000Y-56875000D03*
X120000000Y-59415000D03*
X120000000Y-61955000D03*
X120000000Y-64495000D03*
X120000000Y-67035000D03*
X120000000Y-69575000D03*
X120000000Y-72115000D03*
X120000000Y-74655000D03*
X120000000Y-77195000D03*
X120000000Y-79735000D03*
X120000000Y-82275000D03*
X120000000Y-84815000D03*
X120000000Y-87355000D03*
X120000000Y-89895000D03*
X120000000Y-92435000D03*
X120000000Y-94975000D03*
X120000000Y-97515000D03*
X120000000Y-100055000D03*
X120000000Y-102595000D03*
X120000000Y-105135000D03*
X120000000Y-107675000D03*
X120000000Y-110215000D03*
X120000000Y-112755000D03*
X120000000Y-115295000D03*
X120000000Y-117835000D03*
X120000000Y-120375000D03*
X120000000Y-122915000D03*
X120000000Y-125455000D03*
X120000000Y-127995000D03*
X120000000Y-130535000D03*
%TD*%
D10*
%TO.C,J5*%
X150000000Y-31475000D03*
D11*
X150000000Y-34015000D03*
X150000000Y-36555000D03*
X150000000Y-39095000D03*
X150000000Y-41635000D03*
X150000000Y-44175000D03*
X150000000Y-46715000D03*
X150000000Y-49255000D03*
X150000000Y-51795000D03*
X150000000Y-54335000D03*
X150000000Y-56875000D03*
X150000000Y-59415000D03*
X150000000Y-61955000D03*
X150000000Y-64495000D03*
X150000000Y-67035000D03*
X150000000Y-69575000D03*
X150000000Y-72115000D03*
X150000000Y-74655000D03*
X150000000Y-77195000D03*
X150000000Y-79735000D03*
X150000000Y-82275000D03*
X150000000Y-84815000D03*
X150000000Y-87355000D03*
X150000000Y-89895000D03*
X150000000Y-92435000D03*
X150000000Y-94975000D03*
X150000000Y-97515000D03*
X150000000Y-100055000D03*
X150000000Y-102595000D03*
X150000000Y-105135000D03*
X150000000Y-107675000D03*
X150000000Y-110215000D03*
X150000000Y-112755000D03*
X150000000Y-115295000D03*
X150000000Y-117835000D03*
X150000000Y-120375000D03*
X150000000Y-122915000D03*
X150000000Y-125455000D03*
X150000000Y-127995000D03*
X150000000Y-130535000D03*
%TD*%
D10*
%TO.C,J1*%
X30000000Y-31475000D03*
D11*
X30000000Y-34015000D03*
X30000000Y-36555000D03*
X30000000Y-39095000D03*
X30000000Y-41635000D03*
X30000000Y-44175000D03*
X30000000Y-46715000D03*
X30000000Y-49255000D03*
X30000000Y-51795000D03*
X30000000Y-54335000D03*
X30000000Y-56875000D03*
X30000000Y-59415000D03*
X30000000Y-61955000D03*
X30000000Y-64495000D03*
X30000000Y-67035000D03*
X30000000Y-69575000D03*
X30000000Y-72115000D03*
X30000000Y-74655000D03*
X30000000Y-77195000D03*
X30000000Y-79735000D03*
X30000000Y-82275000D03*
X30000000Y-84815000D03*
X30000000Y-87355000D03*
X30000000Y-89895000D03*
X30000000Y-92435000D03*
X30000000Y-94975000D03*
X30000000Y-97515000D03*
X30000000Y-100055000D03*
X30000000Y-102595000D03*
X30000000Y-105135000D03*
X30000000Y-107675000D03*
X30000000Y-110215000D03*
X30000000Y-112755000D03*
X30000000Y-115295000D03*
X30000000Y-117835000D03*
X30000000Y-120375000D03*
X30000000Y-122915000D03*
X30000000Y-125455000D03*
X30000000Y-127995000D03*
X30000000Y-130535000D03*
%TD*%
D10*
%TO.C,J8*%
X240000000Y-31475000D03*
D11*
X240000000Y-34015000D03*
X240000000Y-36555000D03*
X240000000Y-39095000D03*
X240000000Y-41635000D03*
X240000000Y-44175000D03*
X240000000Y-46715000D03*
X240000000Y-49255000D03*
X240000000Y-51795000D03*
X240000000Y-54335000D03*
X240000000Y-56875000D03*
X240000000Y-59415000D03*
X240000000Y-61955000D03*
X240000000Y-64495000D03*
X240000000Y-67035000D03*
X240000000Y-69575000D03*
X240000000Y-72115000D03*
X240000000Y-74655000D03*
X240000000Y-77195000D03*
X240000000Y-79735000D03*
X240000000Y-82275000D03*
X240000000Y-84815000D03*
X240000000Y-87355000D03*
X240000000Y-89895000D03*
X240000000Y-92435000D03*
X240000000Y-94975000D03*
X240000000Y-97515000D03*
X240000000Y-100055000D03*
X240000000Y-102595000D03*
X240000000Y-105135000D03*
X240000000Y-107675000D03*
X240000000Y-110215000D03*
X240000000Y-112755000D03*
X240000000Y-115295000D03*
X240000000Y-117835000D03*
X240000000Y-120375000D03*
X240000000Y-122915000D03*
X240000000Y-125455000D03*
X240000000Y-127995000D03*
X240000000Y-130535000D03*
%TD*%
D10*
%TO.C,J6*%
X180000000Y-31475000D03*
D11*
X180000000Y-34015000D03*
X180000000Y-36555000D03*
X180000000Y-39095000D03*
X180000000Y-41635000D03*
X180000000Y-44175000D03*
X180000000Y-46715000D03*
X180000000Y-49255000D03*
X180000000Y-51795000D03*
X180000000Y-54335000D03*
X180000000Y-56875000D03*
X180000000Y-59415000D03*
X180000000Y-61955000D03*
X180000000Y-64495000D03*
X180000000Y-67035000D03*
X180000000Y-69575000D03*
X180000000Y-72115000D03*
X180000000Y-74655000D03*
X180000000Y-77195000D03*
X180000000Y-79735000D03*
X180000000Y-82275000D03*
X180000000Y-84815000D03*
X180000000Y-87355000D03*
X180000000Y-89895000D03*
X180000000Y-92435000D03*
X180000000Y-94975000D03*
X180000000Y-97515000D03*
X180000000Y-100055000D03*
X180000000Y-102595000D03*
X180000000Y-105135000D03*
X180000000Y-107675000D03*
X180000000Y-110215000D03*
X180000000Y-112755000D03*
X180000000Y-115295000D03*
X180000000Y-117835000D03*
X180000000Y-120375000D03*
X180000000Y-122915000D03*
X180000000Y-125455000D03*
X180000000Y-127995000D03*
X180000000Y-130535000D03*
%TD*%
M02*
