M48
; DRILL file {KiCad 7.0.1} date Sun Feb 11 09:20:05 2024
; FORMAT={-:-/ absolute / inch / decimal}
; #@! TF.CreationDate,2024-02-11T09:20:05+00:00
; #@! TF.GenerationSoftware,Kicad,Pcbnew,7.0.1
; #@! TF.FileFunction,Plated,1,2,PTH
FMAT,2
INCH
; #@! TA.AperFunction,Plated,PTH,ComponentDrill
T1C0.0394
%
G90
G05
T1
X1.1811Y-1.2392
X1.1811Y-1.3392
X1.1811Y-1.4392
X1.1811Y-1.5392
X1.1811Y-1.6392
X1.1811Y-1.7392
X1.1811Y-1.8392
X1.1811Y-1.9392
X1.1811Y-2.0392
X1.1811Y-2.1392
X1.1811Y-2.2392
X1.1811Y-2.3392
X1.1811Y-2.4392
X1.1811Y-2.5392
X1.1811Y-2.6392
X1.1811Y-2.7392
X1.1811Y-2.8392
X1.1811Y-2.9392
X1.1811Y-3.0392
X1.1811Y-3.1392
X1.1811Y-3.2392
X1.1811Y-3.3392
X1.1811Y-3.4392
X1.1811Y-3.5392
X1.1811Y-3.6392
X1.1811Y-3.7392
X1.1811Y-3.8392
X1.1811Y-3.9392
X1.1811Y-4.0392
X1.1811Y-4.1392
X1.1811Y-4.2392
X1.1811Y-4.3392
X1.1811Y-4.4392
X1.1811Y-4.5392
X1.1811Y-4.6392
X1.1811Y-4.7392
X1.1811Y-4.8392
X1.1811Y-4.9392
X1.1811Y-5.0392
X1.1811Y-5.1392
X2.3622Y-1.2392
X2.3622Y-1.3392
X2.3622Y-1.4392
X2.3622Y-1.5392
X2.3622Y-1.6392
X2.3622Y-1.7392
X2.3622Y-1.8392
X2.3622Y-1.9392
X2.3622Y-2.0392
X2.3622Y-2.1392
X2.3622Y-2.2392
X2.3622Y-2.3392
X2.3622Y-2.4392
X2.3622Y-2.5392
X2.3622Y-2.6392
X2.3622Y-2.7392
X2.3622Y-2.8392
X2.3622Y-2.9392
X2.3622Y-3.0392
X2.3622Y-3.1392
X2.3622Y-3.2392
X2.3622Y-3.3392
X2.3622Y-3.4392
X2.3622Y-3.5392
X2.3622Y-3.6392
X2.3622Y-3.7392
X2.3622Y-3.8392
X2.3622Y-3.9392
X2.3622Y-4.0392
X2.3622Y-4.1392
X2.3622Y-4.2392
X2.3622Y-4.3392
X2.3622Y-4.4392
X2.3622Y-4.5392
X2.3622Y-4.6392
X2.3622Y-4.7392
X2.3622Y-4.8392
X2.3622Y-4.9392
X2.3622Y-5.0392
X2.3622Y-5.1392
X3.5433Y-1.2392
X3.5433Y-1.3392
X3.5433Y-1.4392
X3.5433Y-1.5392
X3.5433Y-1.6392
X3.5433Y-1.7392
X3.5433Y-1.8392
X3.5433Y-1.9392
X3.5433Y-2.0392
X3.5433Y-2.1392
X3.5433Y-2.2392
X3.5433Y-2.3392
X3.5433Y-2.4392
X3.5433Y-2.5392
X3.5433Y-2.6392
X3.5433Y-2.7392
X3.5433Y-2.8392
X3.5433Y-2.9392
X3.5433Y-3.0392
X3.5433Y-3.1392
X3.5433Y-3.2392
X3.5433Y-3.3392
X3.5433Y-3.4392
X3.5433Y-3.5392
X3.5433Y-3.6392
X3.5433Y-3.7392
X3.5433Y-3.8392
X3.5433Y-3.9392
X3.5433Y-4.0392
X3.5433Y-4.1392
X3.5433Y-4.2392
X3.5433Y-4.3392
X3.5433Y-4.4392
X3.5433Y-4.5392
X3.5433Y-4.6392
X3.5433Y-4.7392
X3.5433Y-4.8392
X3.5433Y-4.9392
X3.5433Y-5.0392
X3.5433Y-5.1392
X4.7244Y-1.2392
X4.7244Y-1.3392
X4.7244Y-1.4392
X4.7244Y-1.5392
X4.7244Y-1.6392
X4.7244Y-1.7392
X4.7244Y-1.8392
X4.7244Y-1.9392
X4.7244Y-2.0392
X4.7244Y-2.1392
X4.7244Y-2.2392
X4.7244Y-2.3392
X4.7244Y-2.4392
X4.7244Y-2.5392
X4.7244Y-2.6392
X4.7244Y-2.7392
X4.7244Y-2.8392
X4.7244Y-2.9392
X4.7244Y-3.0392
X4.7244Y-3.1392
X4.7244Y-3.2392
X4.7244Y-3.3392
X4.7244Y-3.4392
X4.7244Y-3.5392
X4.7244Y-3.6392
X4.7244Y-3.7392
X4.7244Y-3.8392
X4.7244Y-3.9392
X4.7244Y-4.0392
X4.7244Y-4.1392
X4.7244Y-4.2392
X4.7244Y-4.3392
X4.7244Y-4.4392
X4.7244Y-4.5392
X4.7244Y-4.6392
X4.7244Y-4.7392
X4.7244Y-4.8392
X4.7244Y-4.9392
X4.7244Y-5.0392
X4.7244Y-5.1392
X5.9055Y-1.2392
X5.9055Y-1.3392
X5.9055Y-1.4392
X5.9055Y-1.5392
X5.9055Y-1.6392
X5.9055Y-1.7392
X5.9055Y-1.8392
X5.9055Y-1.9392
X5.9055Y-2.0392
X5.9055Y-2.1392
X5.9055Y-2.2392
X5.9055Y-2.3392
X5.9055Y-2.4392
X5.9055Y-2.5392
X5.9055Y-2.6392
X5.9055Y-2.7392
X5.9055Y-2.8392
X5.9055Y-2.9392
X5.9055Y-3.0392
X5.9055Y-3.1392
X5.9055Y-3.2392
X5.9055Y-3.3392
X5.9055Y-3.4392
X5.9055Y-3.5392
X5.9055Y-3.6392
X5.9055Y-3.7392
X5.9055Y-3.8392
X5.9055Y-3.9392
X5.9055Y-4.0392
X5.9055Y-4.1392
X5.9055Y-4.2392
X5.9055Y-4.3392
X5.9055Y-4.4392
X5.9055Y-4.5392
X5.9055Y-4.6392
X5.9055Y-4.7392
X5.9055Y-4.8392
X5.9055Y-4.9392
X5.9055Y-5.0392
X5.9055Y-5.1392
X7.0866Y-1.2392
X7.0866Y-1.3392
X7.0866Y-1.4392
X7.0866Y-1.5392
X7.0866Y-1.6392
X7.0866Y-1.7392
X7.0866Y-1.8392
X7.0866Y-1.9392
X7.0866Y-2.0392
X7.0866Y-2.1392
X7.0866Y-2.2392
X7.0866Y-2.3392
X7.0866Y-2.4392
X7.0866Y-2.5392
X7.0866Y-2.6392
X7.0866Y-2.7392
X7.0866Y-2.8392
X7.0866Y-2.9392
X7.0866Y-3.0392
X7.0866Y-3.1392
X7.0866Y-3.2392
X7.0866Y-3.3392
X7.0866Y-3.4392
X7.0866Y-3.5392
X7.0866Y-3.6392
X7.0866Y-3.7392
X7.0866Y-3.8392
X7.0866Y-3.9392
X7.0866Y-4.0392
X7.0866Y-4.1392
X7.0866Y-4.2392
X7.0866Y-4.3392
X7.0866Y-4.4392
X7.0866Y-4.5392
X7.0866Y-4.6392
X7.0866Y-4.7392
X7.0866Y-4.8392
X7.0866Y-4.9392
X7.0866Y-5.0392
X7.0866Y-5.1392
X8.2677Y-1.2392
X8.2677Y-1.3392
X8.2677Y-1.4392
X8.2677Y-1.5392
X8.2677Y-1.6392
X8.2677Y-1.7392
X8.2677Y-1.8392
X8.2677Y-1.9392
X8.2677Y-2.0392
X8.2677Y-2.1392
X8.2677Y-2.2392
X8.2677Y-2.3392
X8.2677Y-2.4392
X8.2677Y-2.5392
X8.2677Y-2.6392
X8.2677Y-2.7392
X8.2677Y-2.8392
X8.2677Y-2.9392
X8.2677Y-3.0392
X8.2677Y-3.1392
X8.2677Y-3.2392
X8.2677Y-3.3392
X8.2677Y-3.4392
X8.2677Y-3.5392
X8.2677Y-3.6392
X8.2677Y-3.7392
X8.2677Y-3.8392
X8.2677Y-3.9392
X8.2677Y-4.0392
X8.2677Y-4.1392
X8.2677Y-4.2392
X8.2677Y-4.3392
X8.2677Y-4.4392
X8.2677Y-4.5392
X8.2677Y-4.6392
X8.2677Y-4.7392
X8.2677Y-4.8392
X8.2677Y-4.9392
X8.2677Y-5.0392
X8.2677Y-5.1392
X9.4488Y-1.2392
X9.4488Y-1.3392
X9.4488Y-1.4392
X9.4488Y-1.5392
X9.4488Y-1.6392
X9.4488Y-1.7392
X9.4488Y-1.8392
X9.4488Y-1.9392
X9.4488Y-2.0392
X9.4488Y-2.1392
X9.4488Y-2.2392
X9.4488Y-2.3392
X9.4488Y-2.4392
X9.4488Y-2.5392
X9.4488Y-2.6392
X9.4488Y-2.7392
X9.4488Y-2.8392
X9.4488Y-2.9392
X9.4488Y-3.0392
X9.4488Y-3.1392
X9.4488Y-3.2392
X9.4488Y-3.3392
X9.4488Y-3.4392
X9.4488Y-3.5392
X9.4488Y-3.6392
X9.4488Y-3.7392
X9.4488Y-3.8392
X9.4488Y-3.9392
X9.4488Y-4.0392
X9.4488Y-4.1392
X9.4488Y-4.2392
X9.4488Y-4.3392
X9.4488Y-4.4392
X9.4488Y-4.5392
X9.4488Y-4.6392
X9.4488Y-4.7392
X9.4488Y-4.8392
X9.4488Y-4.9392
X9.4488Y-5.0392
X9.4488Y-5.1392
T0
M30
