%TF.GenerationSoftware,KiCad,Pcbnew,7.0.1*%
%TF.CreationDate,2024-02-11T14:51:01+00:00*%
%TF.ProjectId,Sys09Memory,53797330-394d-4656-9d6f-72792e6b6963,rev?*%
%TF.SameCoordinates,Original*%
%TF.FileFunction,Soldermask,Bot*%
%TF.FilePolarity,Negative*%
%FSLAX46Y46*%
G04 Gerber Fmt 4.6, Leading zero omitted, Abs format (unit mm)*
G04 Created by KiCad (PCBNEW 7.0.1) date 2024-02-11 14:51:01*
%MOMM*%
%LPD*%
G01*
G04 APERTURE LIST*
%ADD10R,1.600000X1.600000*%
%ADD11O,1.600000X1.600000*%
%ADD12R,1.700000X1.700000*%
%ADD13O,1.700000X1.700000*%
G04 APERTURE END LIST*
D10*
%TO.C,U1*%
X105783000Y-122055000D03*
D11*
X108323000Y-122055000D03*
X110863000Y-122055000D03*
X113403000Y-122055000D03*
X115943000Y-122055000D03*
X118483000Y-122055000D03*
X121023000Y-122055000D03*
X123563000Y-122055000D03*
X126103000Y-122055000D03*
X128643000Y-122055000D03*
X131183000Y-122055000D03*
X133723000Y-122055000D03*
X136263000Y-122055000D03*
X138803000Y-122055000D03*
X138803000Y-106815000D03*
X136263000Y-106815000D03*
X133723000Y-106815000D03*
X131183000Y-106815000D03*
X128643000Y-106815000D03*
X126103000Y-106815000D03*
X123563000Y-106815000D03*
X121023000Y-106815000D03*
X118483000Y-106815000D03*
X115943000Y-106815000D03*
X113403000Y-106815000D03*
X110863000Y-106815000D03*
X108323000Y-106815000D03*
X105783000Y-106815000D03*
%TD*%
D10*
%TO.C,U2*%
X145661000Y-122055000D03*
D11*
X148201000Y-122055000D03*
X150741000Y-122055000D03*
X153281000Y-122055000D03*
X155821000Y-122055000D03*
X158361000Y-122055000D03*
X160901000Y-122055000D03*
X163441000Y-122055000D03*
X165981000Y-122055000D03*
X168521000Y-122055000D03*
X171061000Y-122055000D03*
X173601000Y-122055000D03*
X176141000Y-122055000D03*
X178681000Y-122055000D03*
X178681000Y-106815000D03*
X176141000Y-106815000D03*
X173601000Y-106815000D03*
X171061000Y-106815000D03*
X168521000Y-106815000D03*
X165981000Y-106815000D03*
X163441000Y-106815000D03*
X160901000Y-106815000D03*
X158361000Y-106815000D03*
X155821000Y-106815000D03*
X153281000Y-106815000D03*
X150741000Y-106815000D03*
X148201000Y-106815000D03*
X145661000Y-106815000D03*
%TD*%
D12*
%TO.C,J1*%
X97401000Y-135517000D03*
D13*
X99941000Y-135517000D03*
X102481000Y-135517000D03*
X105021000Y-135517000D03*
X107561000Y-135517000D03*
X110101000Y-135517000D03*
X112641000Y-135517000D03*
X115181000Y-135517000D03*
X117721000Y-135517000D03*
X120261000Y-135517000D03*
X122801000Y-135517000D03*
X125341000Y-135517000D03*
X127881000Y-135517000D03*
X130421000Y-135517000D03*
X132961000Y-135517000D03*
X135501000Y-135517000D03*
X138041000Y-135517000D03*
X140581000Y-135517000D03*
X143121000Y-135517000D03*
X145661000Y-135517000D03*
X148201000Y-135517000D03*
X150741000Y-135517000D03*
X153281000Y-135517000D03*
X155821000Y-135517000D03*
X158361000Y-135517000D03*
X160901000Y-135517000D03*
X163441000Y-135517000D03*
X165981000Y-135517000D03*
X168521000Y-135517000D03*
X171061000Y-135517000D03*
X173601000Y-135517000D03*
X176141000Y-135517000D03*
X178681000Y-135517000D03*
X181221000Y-135517000D03*
X183761000Y-135517000D03*
X186301000Y-135517000D03*
X188841000Y-135517000D03*
X191381000Y-135517000D03*
X193921000Y-135517000D03*
X196461000Y-135517000D03*
%TD*%
M02*
