M48
; DRILL file {KiCad 7.0.1} date Sun Feb 11 14:51:04 2024
; FORMAT={-:-/ absolute / inch / decimal}
; #@! TF.CreationDate,2024-02-11T14:51:04+00:00
; #@! TF.GenerationSoftware,Kicad,Pcbnew,7.0.1
; #@! TF.FileFunction,Plated,1,2,PTH
FMAT,2
INCH
; #@! TA.AperFunction,Plated,PTH,ViaDrill
T1C0.0157
; #@! TA.AperFunction,Plated,PTH,ComponentDrill
T2C0.0315
; #@! TA.AperFunction,Plated,PTH,ComponentDrill
T3C0.0394
%
G90
G05
T1
X3.8847Y-4.6853
X3.9347Y-4.6853
X5.8347Y-3.6853
X5.9347Y-3.7253
X6.0347Y-3.7653
X6.1347Y-3.8053
X6.2347Y-3.8453
X6.3347Y-3.8853
X6.4347Y-3.9253
X6.6347Y-3.9653
X6.7347Y-4.0053
X6.8347Y-4.0453
X6.9347Y-4.0853
X7.0347Y-4.1253
T2
X4.1647Y-4.2053
X4.1647Y-4.8053
X4.2647Y-4.2053
X4.2647Y-4.8053
X4.3647Y-4.2053
X4.3647Y-4.8053
X4.4647Y-4.2053
X4.4647Y-4.8053
X4.5647Y-4.2053
X4.5647Y-4.8053
X4.6647Y-4.2053
X4.6647Y-4.8053
X4.7647Y-4.2053
X4.7647Y-4.8053
X4.8647Y-4.2053
X4.8647Y-4.8053
X4.9647Y-4.2053
X4.9647Y-4.8053
X5.0647Y-4.2053
X5.0647Y-4.8053
X5.1647Y-4.2053
X5.1647Y-4.8053
X5.2647Y-4.2053
X5.2647Y-4.8053
X5.3647Y-4.2053
X5.3647Y-4.8053
X5.4647Y-4.2053
X5.4647Y-4.8053
X5.7347Y-4.2053
X5.7347Y-4.8053
X5.8347Y-4.2053
X5.8347Y-4.8053
X5.9347Y-4.2053
X5.9347Y-4.8053
X6.0347Y-4.2053
X6.0347Y-4.8053
X6.1347Y-4.2053
X6.1347Y-4.8053
X6.2347Y-4.2053
X6.2347Y-4.8053
X6.3347Y-4.2053
X6.3347Y-4.8053
X6.4347Y-4.2053
X6.4347Y-4.8053
X6.5347Y-4.2053
X6.5347Y-4.8053
X6.6347Y-4.2053
X6.6347Y-4.8053
X6.7347Y-4.2053
X6.7347Y-4.8053
X6.8347Y-4.2053
X6.8347Y-4.8053
X6.9347Y-4.2053
X6.9347Y-4.8053
X7.0347Y-4.2053
X7.0347Y-4.8053
T3
X3.8347Y-5.3353
X3.9347Y-5.3353
X4.0347Y-5.3353
X4.1347Y-5.3353
X4.2347Y-5.3353
X4.3347Y-5.3353
X4.4347Y-5.3353
X4.5347Y-5.3353
X4.6347Y-5.3353
X4.7347Y-5.3353
X4.8347Y-5.3353
X4.9347Y-5.3353
X5.0347Y-5.3353
X5.1347Y-5.3353
X5.2347Y-5.3353
X5.3347Y-5.3353
X5.4347Y-5.3353
X5.5347Y-5.3353
X5.6347Y-5.3353
X5.7347Y-5.3353
X5.8347Y-5.3353
X5.9347Y-5.3353
X6.0347Y-5.3353
X6.1347Y-5.3353
X6.2347Y-5.3353
X6.3347Y-5.3353
X6.4347Y-5.3353
X6.5347Y-5.3353
X6.6347Y-5.3353
X6.7347Y-5.3353
X6.8347Y-5.3353
X6.9347Y-5.3353
X7.0347Y-5.3353
X7.1347Y-5.3353
X7.2347Y-5.3353
X7.3347Y-5.3353
X7.4347Y-5.3353
X7.5347Y-5.3353
X7.6347Y-5.3353
X7.7347Y-5.3353
T0
M30
