%TF.GenerationSoftware,KiCad,Pcbnew,7.0.1*%
%TF.CreationDate,2024-02-11T14:51:00+00:00*%
%TF.ProjectId,Sys09Memory,53797330-394d-4656-9d6f-72792e6b6963,rev?*%
%TF.SameCoordinates,Original*%
%TF.FileFunction,Copper,L1,Top*%
%TF.FilePolarity,Positive*%
%FSLAX46Y46*%
G04 Gerber Fmt 4.6, Leading zero omitted, Abs format (unit mm)*
G04 Created by KiCad (PCBNEW 7.0.1) date 2024-02-11 14:51:00*
%MOMM*%
%LPD*%
G01*
G04 APERTURE LIST*
%TA.AperFunction,ComponentPad*%
%ADD10R,1.600000X1.600000*%
%TD*%
%TA.AperFunction,ComponentPad*%
%ADD11O,1.600000X1.600000*%
%TD*%
%TA.AperFunction,ComponentPad*%
%ADD12R,1.700000X1.700000*%
%TD*%
%TA.AperFunction,ComponentPad*%
%ADD13O,1.700000X1.700000*%
%TD*%
%TA.AperFunction,ViaPad*%
%ADD14C,0.800000*%
%TD*%
%TA.AperFunction,Conductor*%
%ADD15C,0.508000*%
%TD*%
G04 APERTURE END LIST*
D10*
%TO.P,U1,1,A14*%
%TO.N,/A14*%
X105783000Y-122055000D03*
D11*
%TO.P,U1,2,A12*%
%TO.N,/A12*%
X108323000Y-122055000D03*
%TO.P,U1,3,A7*%
%TO.N,/A7*%
X110863000Y-122055000D03*
%TO.P,U1,4,A6*%
%TO.N,/A6*%
X113403000Y-122055000D03*
%TO.P,U1,5,A5*%
%TO.N,/A5*%
X115943000Y-122055000D03*
%TO.P,U1,6,A4*%
%TO.N,/A4*%
X118483000Y-122055000D03*
%TO.P,U1,7,A3*%
%TO.N,/A3*%
X121023000Y-122055000D03*
%TO.P,U1,8,A2*%
%TO.N,/A2*%
X123563000Y-122055000D03*
%TO.P,U1,9,A1*%
%TO.N,/A1*%
X126103000Y-122055000D03*
%TO.P,U1,10,A0*%
%TO.N,/A0*%
X128643000Y-122055000D03*
%TO.P,U1,11,D0*%
%TO.N,/DA0*%
X131183000Y-122055000D03*
%TO.P,U1,12,D1*%
%TO.N,/DA1*%
X133723000Y-122055000D03*
%TO.P,U1,13,D2*%
%TO.N,/DA2*%
X136263000Y-122055000D03*
%TO.P,U1,14,GND*%
%TO.N,GND*%
X138803000Y-122055000D03*
%TO.P,U1,15,D3*%
%TO.N,/DA3*%
X138803000Y-106815000D03*
%TO.P,U1,16,D4*%
%TO.N,/DA4*%
X136263000Y-106815000D03*
%TO.P,U1,17,D5*%
%TO.N,/DA5*%
X133723000Y-106815000D03*
%TO.P,U1,18,D6*%
%TO.N,/DA6*%
X131183000Y-106815000D03*
%TO.P,U1,19,D7*%
%TO.N,/DA7*%
X128643000Y-106815000D03*
%TO.P,U1,20,CS*%
%TO.N,/~{ROMEN}*%
X126103000Y-106815000D03*
%TO.P,U1,21,A10*%
%TO.N,/A10*%
X123563000Y-106815000D03*
%TO.P,U1,22,OE*%
%TO.N,/~{RMEM}*%
X121023000Y-106815000D03*
%TO.P,U1,23,A11*%
%TO.N,/A11*%
X118483000Y-106815000D03*
%TO.P,U1,24,A9*%
%TO.N,/A9*%
X115943000Y-106815000D03*
%TO.P,U1,25,A8*%
%TO.N,/A8*%
X113403000Y-106815000D03*
%TO.P,U1,26,A13*%
%TO.N,/A13*%
X110863000Y-106815000D03*
%TO.P,U1,27,WE*%
%TO.N,/~{WMEM}*%
X108323000Y-106815000D03*
%TO.P,U1,28,VCC*%
%TO.N,VCC*%
X105783000Y-106815000D03*
%TD*%
D10*
%TO.P,U2,1,A14*%
%TO.N,/A14*%
X145661000Y-122055000D03*
D11*
%TO.P,U2,2,A12*%
%TO.N,/A12*%
X148201000Y-122055000D03*
%TO.P,U2,3,A7*%
%TO.N,/A7*%
X150741000Y-122055000D03*
%TO.P,U2,4,A6*%
%TO.N,/A6*%
X153281000Y-122055000D03*
%TO.P,U2,5,A5*%
%TO.N,/A5*%
X155821000Y-122055000D03*
%TO.P,U2,6,A4*%
%TO.N,/A4*%
X158361000Y-122055000D03*
%TO.P,U2,7,A3*%
%TO.N,/A3*%
X160901000Y-122055000D03*
%TO.P,U2,8,A2*%
%TO.N,/A2*%
X163441000Y-122055000D03*
%TO.P,U2,9,A1*%
%TO.N,/A1*%
X165981000Y-122055000D03*
%TO.P,U2,10,A0*%
%TO.N,/A0*%
X168521000Y-122055000D03*
%TO.P,U2,11,D0*%
%TO.N,/DA0*%
X171061000Y-122055000D03*
%TO.P,U2,12,D1*%
%TO.N,/DA1*%
X173601000Y-122055000D03*
%TO.P,U2,13,D2*%
%TO.N,/DA2*%
X176141000Y-122055000D03*
%TO.P,U2,14,GND*%
%TO.N,GND*%
X178681000Y-122055000D03*
%TO.P,U2,15,D3*%
%TO.N,/DA3*%
X178681000Y-106815000D03*
%TO.P,U2,16,D4*%
%TO.N,/DA4*%
X176141000Y-106815000D03*
%TO.P,U2,17,D5*%
%TO.N,/DA5*%
X173601000Y-106815000D03*
%TO.P,U2,18,D6*%
%TO.N,/DA6*%
X171061000Y-106815000D03*
%TO.P,U2,19,D7*%
%TO.N,/DA7*%
X168521000Y-106815000D03*
%TO.P,U2,20,~{CS}*%
%TO.N,/A15*%
X165981000Y-106815000D03*
%TO.P,U2,21,A10*%
%TO.N,/A10*%
X163441000Y-106815000D03*
%TO.P,U2,22,~{OE}*%
%TO.N,/~{RMEM}*%
X160901000Y-106815000D03*
%TO.P,U2,23,A11*%
%TO.N,/A11*%
X158361000Y-106815000D03*
%TO.P,U2,24,A9*%
%TO.N,/A9*%
X155821000Y-106815000D03*
%TO.P,U2,25,A8*%
%TO.N,/A8*%
X153281000Y-106815000D03*
%TO.P,U2,26,A13*%
%TO.N,/A13*%
X150741000Y-106815000D03*
%TO.P,U2,27,~{WE}*%
%TO.N,/~{WMEM}*%
X148201000Y-106815000D03*
%TO.P,U2,28,VCC*%
%TO.N,VCC*%
X145661000Y-106815000D03*
%TD*%
D12*
%TO.P,J1,1,Pin_1*%
%TO.N,/A15*%
X97401000Y-135517000D03*
D13*
%TO.P,J1,2,Pin_2*%
%TO.N,/A14*%
X99941000Y-135517000D03*
%TO.P,J1,3,Pin_3*%
%TO.N,/A13*%
X102481000Y-135517000D03*
%TO.P,J1,4,Pin_4*%
%TO.N,/A12*%
X105021000Y-135517000D03*
%TO.P,J1,5,Pin_5*%
%TO.N,/A11*%
X107561000Y-135517000D03*
%TO.P,J1,6,Pin_6*%
%TO.N,/A10*%
X110101000Y-135517000D03*
%TO.P,J1,7,Pin_7*%
%TO.N,/A9*%
X112641000Y-135517000D03*
%TO.P,J1,8,Pin_8*%
%TO.N,/A8*%
X115181000Y-135517000D03*
%TO.P,J1,9,Pin_9*%
%TO.N,/A7*%
X117721000Y-135517000D03*
%TO.P,J1,10,Pin_10*%
%TO.N,/A6*%
X120261000Y-135517000D03*
%TO.P,J1,11,Pin_11*%
%TO.N,/A5*%
X122801000Y-135517000D03*
%TO.P,J1,12,Pin_12*%
%TO.N,/A4*%
X125341000Y-135517000D03*
%TO.P,J1,13,Pin_13*%
%TO.N,/A3*%
X127881000Y-135517000D03*
%TO.P,J1,14,Pin_14*%
%TO.N,/A2*%
X130421000Y-135517000D03*
%TO.P,J1,15,Pin_15*%
%TO.N,/A1*%
X132961000Y-135517000D03*
%TO.P,J1,16,Pin_16*%
%TO.N,/A0*%
X135501000Y-135517000D03*
%TO.P,J1,17,Pin_17*%
%TO.N,unconnected-(J1-Pin_17-Pad17)*%
X138041000Y-135517000D03*
%TO.P,J1,18,Pin_18*%
%TO.N,unconnected-(J1-Pin_18-Pad18)*%
X140581000Y-135517000D03*
%TO.P,J1,19,Pin_19*%
%TO.N,/~{IRQ}*%
X143121000Y-135517000D03*
%TO.P,J1,20,Pin_20*%
%TO.N,/~{WMEM}*%
X145661000Y-135517000D03*
%TO.P,J1,21,Pin_21*%
%TO.N,/~{ROMEN}*%
X148201000Y-135517000D03*
%TO.P,J1,22,Pin_22*%
%TO.N,/~{RMEM}*%
X150741000Y-135517000D03*
%TO.P,J1,23,Pin_23*%
%TO.N,/~{IOEN}*%
X153281000Y-135517000D03*
%TO.P,J1,24,Pin_24*%
%TO.N,/RW*%
X155821000Y-135517000D03*
%TO.P,J1,25,Pin_25*%
%TO.N,/E*%
X158361000Y-135517000D03*
%TO.P,J1,26,Pin_26*%
%TO.N,/~{RST}*%
X160901000Y-135517000D03*
%TO.P,J1,27,Pin_27*%
%TO.N,unconnected-(J1-Pin_27-Pad27)*%
X163441000Y-135517000D03*
%TO.P,J1,28,Pin_28*%
%TO.N,unconnected-(J1-Pin_28-Pad28)*%
X165981000Y-135517000D03*
%TO.P,J1,29,Pin_29*%
%TO.N,/DA7*%
X168521000Y-135517000D03*
%TO.P,J1,30,Pin_30*%
%TO.N,/DA6*%
X171061000Y-135517000D03*
%TO.P,J1,31,Pin_31*%
%TO.N,/DA5*%
X173601000Y-135517000D03*
%TO.P,J1,32,Pin_32*%
%TO.N,/DA4*%
X176141000Y-135517000D03*
%TO.P,J1,33,Pin_33*%
%TO.N,/DA3*%
X178681000Y-135517000D03*
%TO.P,J1,34,Pin_34*%
%TO.N,/DA2*%
X181221000Y-135517000D03*
%TO.P,J1,35,Pin_35*%
%TO.N,/DA1*%
X183761000Y-135517000D03*
%TO.P,J1,36,Pin_36*%
%TO.N,/DA0*%
X186301000Y-135517000D03*
%TO.P,J1,37,Pin_37*%
%TO.N,unconnected-(J1-Pin_37-Pad37)*%
X188841000Y-135517000D03*
%TO.P,J1,38,Pin_38*%
%TO.N,unconnected-(J1-Pin_38-Pad38)*%
X191381000Y-135517000D03*
%TO.P,J1,39,Pin_39*%
%TO.N,GND*%
X193921000Y-135517000D03*
%TO.P,J1,40,Pin_40*%
%TO.N,VCC*%
X196461000Y-135517000D03*
%TD*%
D14*
%TO.N,/A13*%
X150741000Y-94623000D03*
%TO.N,/A11*%
X158361000Y-97671000D03*
%TO.N,/A10*%
X163441000Y-99703000D03*
%TO.N,/A9*%
X155821000Y-96655000D03*
X98671000Y-119007000D03*
%TO.N,/A8*%
X153281000Y-95639000D03*
X99941000Y-119007000D03*
%TO.N,/~{RMEM}*%
X160901000Y-98687000D03*
%TO.N,/~{WMEM}*%
X148201000Y-93607000D03*
%TO.N,/DA7*%
X168521000Y-100719000D03*
%TO.N,/DA6*%
X171061000Y-101735000D03*
%TO.N,/DA5*%
X173601000Y-102751000D03*
%TO.N,/DA4*%
X176141000Y-103767000D03*
%TO.N,/DA3*%
X178681000Y-104783000D03*
%TD*%
D15*
%TO.N,/A15*%
X97401000Y-135517000D02*
X96131000Y-134247000D01*
X157761000Y-92753000D02*
X165981000Y-100973000D01*
X96131000Y-134247000D02*
X96131000Y-97925000D01*
X165981000Y-100973000D02*
X165981000Y-106815000D01*
X101303000Y-92753000D02*
X157761000Y-92753000D01*
X96131000Y-97925000D02*
X101303000Y-92753000D01*
%TO.N,/A14*%
X99941000Y-135517000D02*
X99941000Y-127897000D01*
X99941000Y-127897000D02*
X105783000Y-122055000D01*
%TO.N,/A13*%
X107069000Y-130929000D02*
X107069000Y-110609000D01*
X107069000Y-110609000D02*
X110863000Y-106815000D01*
X102481000Y-135517000D02*
X107069000Y-130929000D01*
X150741000Y-106815000D02*
X150741000Y-94623000D01*
%TO.N,/A12*%
X105021000Y-135517000D02*
X108323000Y-132215000D01*
X108323000Y-132215000D02*
X108323000Y-122055000D01*
%TO.N,/A11*%
X109609000Y-115689000D02*
X118483000Y-106815000D01*
X109609000Y-133469000D02*
X109609000Y-115689000D01*
X107561000Y-135517000D02*
X109609000Y-133469000D01*
X158361000Y-106815000D02*
X158361000Y-97671000D01*
%TO.N,/A10*%
X163441000Y-106815000D02*
X163441000Y-99703000D01*
%TO.N,/A9*%
X98671000Y-108593000D02*
X103243000Y-104021000D01*
X98671000Y-119007000D02*
X98671000Y-108593000D01*
X113149000Y-104021000D02*
X115943000Y-106815000D01*
X155821000Y-106815000D02*
X155821000Y-96655000D01*
X103243000Y-104021000D02*
X113149000Y-104021000D01*
%TO.N,/A8*%
X99941000Y-109101000D02*
X104005000Y-105037000D01*
X99941000Y-119007000D02*
X99941000Y-109101000D01*
X111625000Y-105037000D02*
X113403000Y-106815000D01*
X153281000Y-106815000D02*
X153281000Y-95639000D01*
X104005000Y-105037000D02*
X111625000Y-105037000D01*
%TO.N,/A7*%
X117721000Y-128913000D02*
X110863000Y-122055000D01*
X117721000Y-135517000D02*
X117721000Y-128913000D01*
%TO.N,/A6*%
X120261000Y-128913000D02*
X113403000Y-122055000D01*
X120261000Y-135517000D02*
X120261000Y-128913000D01*
%TO.N,/A5*%
X122801000Y-128913000D02*
X115943000Y-122055000D01*
X122801000Y-135517000D02*
X122801000Y-128913000D01*
%TO.N,/A4*%
X125341000Y-135517000D02*
X125341000Y-128913000D01*
X125341000Y-128913000D02*
X118483000Y-122055000D01*
%TO.N,/A3*%
X127881000Y-128913000D02*
X121023000Y-122055000D01*
X127881000Y-135517000D02*
X127881000Y-128913000D01*
%TO.N,/A2*%
X130421000Y-128913000D02*
X123563000Y-122055000D01*
X130421000Y-135517000D02*
X130421000Y-128913000D01*
%TO.N,/A1*%
X132961000Y-135517000D02*
X132961000Y-128913000D01*
X132961000Y-128913000D02*
X126103000Y-122055000D01*
%TO.N,/A0*%
X135501000Y-128913000D02*
X128643000Y-122055000D01*
X135501000Y-135517000D02*
X135501000Y-128913000D01*
%TO.N,/~{RMEM}*%
X160901000Y-106815000D02*
X160901000Y-98687000D01*
X149487000Y-118229000D02*
X160901000Y-106815000D01*
X149487000Y-134263000D02*
X149487000Y-118229000D01*
X150741000Y-135517000D02*
X149487000Y-134263000D01*
%TO.N,/~{WMEM}*%
X144357000Y-110659000D02*
X148201000Y-106815000D01*
X148201000Y-106815000D02*
X148201000Y-93607000D01*
X144357000Y-134213000D02*
X144357000Y-110659000D01*
X145661000Y-135517000D02*
X144357000Y-134213000D01*
%TO.N,/DA7*%
X168521000Y-106815000D02*
X168521000Y-100719000D01*
X159631000Y-111387000D02*
X159647000Y-111371000D01*
X167267000Y-108069000D02*
X168521000Y-106815000D01*
X159631000Y-111387000D02*
X162949000Y-108069000D01*
X162949000Y-108069000D02*
X167267000Y-108069000D01*
X168521000Y-135517000D02*
X159631000Y-126627000D01*
X159631000Y-126627000D02*
X159631000Y-111387000D01*
X159647000Y-115689000D02*
X159631000Y-115705000D01*
%TO.N,/DA6*%
X164781000Y-108777000D02*
X169099000Y-108777000D01*
X162155000Y-115721000D02*
X162171000Y-115705000D01*
X169099000Y-108777000D02*
X171061000Y-106815000D01*
X162171000Y-111387000D02*
X164781000Y-108777000D01*
X171061000Y-106815000D02*
X171061000Y-101735000D01*
X162155000Y-126611000D02*
X162155000Y-111403000D01*
X171061000Y-135517000D02*
X162155000Y-126611000D01*
%TO.N,/DA5*%
X170931000Y-109485000D02*
X173601000Y-106815000D01*
X164695000Y-126611000D02*
X164695000Y-111403000D01*
X164695000Y-115721000D02*
X164711000Y-115705000D01*
X173601000Y-135517000D02*
X164695000Y-126611000D01*
X166613000Y-109485000D02*
X170931000Y-109485000D01*
X173601000Y-106815000D02*
X173601000Y-102751000D01*
X164711000Y-111387000D02*
X166613000Y-109485000D01*
%TO.N,/DA4*%
X168445000Y-110193000D02*
X172763000Y-110193000D01*
X167235000Y-115721000D02*
X167251000Y-115705000D01*
X172763000Y-110193000D02*
X176141000Y-106815000D01*
X167251000Y-111387000D02*
X168445000Y-110193000D01*
X176141000Y-106815000D02*
X176141000Y-103767000D01*
X176141000Y-135517000D02*
X167235000Y-126611000D01*
X167235000Y-126611000D02*
X167235000Y-111403000D01*
%TO.N,/DA3*%
X178681000Y-135517000D02*
X169775000Y-126611000D01*
X169791000Y-111387000D02*
X170277000Y-110901000D01*
X169775000Y-115721000D02*
X169791000Y-115705000D01*
X169791000Y-126627000D02*
X169775000Y-126611000D01*
X178681000Y-104783000D02*
X178681000Y-106815000D01*
X174595000Y-110901000D02*
X178681000Y-106815000D01*
X169775000Y-126611000D02*
X169775000Y-111403000D01*
X170277000Y-110901000D02*
X174595000Y-110901000D01*
%TO.N,/DA0*%
X186301000Y-135517000D02*
X179443000Y-128659000D01*
X179443000Y-128659000D02*
X177665000Y-128659000D01*
X177665000Y-128659000D02*
X171061000Y-122055000D01*
%TO.N,VCC*%
X145661000Y-106815000D02*
X141851000Y-103005000D01*
X97401000Y-108085000D02*
X97401000Y-119007000D01*
X102481000Y-103005000D02*
X97401000Y-108085000D01*
X141851000Y-103005000D02*
X102481000Y-103005000D01*
X101973000Y-120531000D02*
X105783000Y-116721000D01*
X97401000Y-119007000D02*
X98925000Y-120531000D01*
X98925000Y-120531000D02*
X101973000Y-120531000D01*
X105783000Y-116721000D02*
X105783000Y-106815000D01*
%TD*%
%TA.AperFunction,Conductor*%
%TO.N,GND*%
G36*
X198057000Y-91964881D02*
G01*
X198103119Y-92011000D01*
X198120000Y-92074000D01*
X198120000Y-137034000D01*
X198103119Y-137097000D01*
X198057000Y-137143119D01*
X197994000Y-137160000D01*
X95884000Y-137160000D01*
X95821000Y-137143119D01*
X95774881Y-137097000D01*
X95758000Y-137034000D01*
X95758000Y-134820950D01*
X95771733Y-134763747D01*
X95809939Y-134719014D01*
X95864289Y-134696501D01*
X95922936Y-134701117D01*
X95973095Y-134731855D01*
X96313595Y-135072355D01*
X96340909Y-135113232D01*
X96350500Y-135161450D01*
X96350500Y-136386747D01*
X96362133Y-136445231D01*
X96406447Y-136511552D01*
X96450761Y-136541162D01*
X96472769Y-136555867D01*
X96531252Y-136567500D01*
X98270747Y-136567500D01*
X98270748Y-136567500D01*
X98329231Y-136555867D01*
X98395552Y-136511552D01*
X98439867Y-136445231D01*
X98451500Y-136386748D01*
X98451500Y-135517000D01*
X98885416Y-135517000D01*
X98905699Y-135722929D01*
X98905699Y-135722931D01*
X98905700Y-135722934D01*
X98965767Y-135920951D01*
X98965769Y-135920956D01*
X99063314Y-136103449D01*
X99194589Y-136263410D01*
X99344877Y-136386747D01*
X99354550Y-136394685D01*
X99537046Y-136492232D01*
X99735066Y-136552300D01*
X99941000Y-136572583D01*
X100146934Y-136552300D01*
X100344954Y-136492232D01*
X100527450Y-136394685D01*
X100687410Y-136263410D01*
X100818685Y-136103450D01*
X100916232Y-135920954D01*
X100976300Y-135722934D01*
X100996583Y-135517000D01*
X100976300Y-135311066D01*
X100916232Y-135113046D01*
X100818685Y-134930550D01*
X100767722Y-134868451D01*
X100687410Y-134770589D01*
X100577070Y-134680037D01*
X100527450Y-134639315D01*
X100462103Y-134604386D01*
X100413426Y-134558042D01*
X100395500Y-134493265D01*
X100395500Y-128137450D01*
X100405091Y-128089232D01*
X100432405Y-128048355D01*
X105388355Y-123092405D01*
X105429232Y-123065091D01*
X105477450Y-123055500D01*
X106488500Y-123055500D01*
X106551500Y-123072381D01*
X106597619Y-123118500D01*
X106614500Y-123181500D01*
X106614500Y-130688549D01*
X106604909Y-130736767D01*
X106577595Y-130777644D01*
X102883509Y-134471728D01*
X102825030Y-134504857D01*
X102757840Y-134503208D01*
X102686933Y-134481699D01*
X102481000Y-134461416D01*
X102275070Y-134481699D01*
X102275067Y-134481699D01*
X102275066Y-134481700D01*
X102096259Y-134535940D01*
X102077043Y-134541769D01*
X101894550Y-134639314D01*
X101734589Y-134770589D01*
X101603314Y-134930550D01*
X101505769Y-135113043D01*
X101505769Y-135113044D01*
X101505768Y-135113046D01*
X101467210Y-135240158D01*
X101445699Y-135311070D01*
X101425416Y-135517000D01*
X101445699Y-135722929D01*
X101445699Y-135722931D01*
X101445700Y-135722934D01*
X101505767Y-135920951D01*
X101505769Y-135920956D01*
X101603314Y-136103449D01*
X101734589Y-136263410D01*
X101884877Y-136386747D01*
X101894550Y-136394685D01*
X102077046Y-136492232D01*
X102275066Y-136552300D01*
X102481000Y-136572583D01*
X102686934Y-136552300D01*
X102884954Y-136492232D01*
X103067450Y-136394685D01*
X103227410Y-136263410D01*
X103358685Y-136103450D01*
X103456232Y-135920954D01*
X103516300Y-135722934D01*
X103536583Y-135517000D01*
X103536583Y-135516999D01*
X103516300Y-135311064D01*
X103494791Y-135240159D01*
X103493141Y-135172968D01*
X103526268Y-135114490D01*
X107367327Y-131273431D01*
X107377857Y-131264022D01*
X107405936Y-131241631D01*
X107438417Y-131193989D01*
X107441146Y-131190142D01*
X107475369Y-131143773D01*
X107475369Y-131143770D01*
X107479042Y-131138795D01*
X107481294Y-131134334D01*
X107500111Y-131073327D01*
X107501577Y-131068869D01*
X107520621Y-131014451D01*
X107520621Y-131014447D01*
X107522660Y-131008621D01*
X107523500Y-131003683D01*
X107523500Y-130939868D01*
X107523588Y-130935157D01*
X107525744Y-130877537D01*
X107525743Y-130877534D01*
X107525974Y-130871371D01*
X107523500Y-130852574D01*
X107523500Y-122959562D01*
X107543049Y-122892152D01*
X107595628Y-122845659D01*
X107664924Y-122834510D01*
X107729433Y-122862162D01*
X107744769Y-122874748D01*
X107764462Y-122890910D01*
X107801896Y-122910919D01*
X107850574Y-122957264D01*
X107868500Y-123022041D01*
X107868500Y-131974550D01*
X107858909Y-132022768D01*
X107831597Y-132063642D01*
X105824471Y-134070767D01*
X105423509Y-134471729D01*
X105365030Y-134504857D01*
X105297840Y-134503208D01*
X105226933Y-134481699D01*
X105021000Y-134461416D01*
X104815070Y-134481699D01*
X104815067Y-134481699D01*
X104815066Y-134481700D01*
X104636259Y-134535940D01*
X104617043Y-134541769D01*
X104434550Y-134639314D01*
X104274589Y-134770589D01*
X104143314Y-134930550D01*
X104045769Y-135113043D01*
X104045769Y-135113044D01*
X104045768Y-135113046D01*
X104007210Y-135240158D01*
X103985699Y-135311070D01*
X103965416Y-135517000D01*
X103985699Y-135722929D01*
X103985699Y-135722931D01*
X103985700Y-135722934D01*
X104045767Y-135920951D01*
X104045769Y-135920956D01*
X104143314Y-136103449D01*
X104274589Y-136263410D01*
X104424877Y-136386747D01*
X104434550Y-136394685D01*
X104617046Y-136492232D01*
X104815066Y-136552300D01*
X105021000Y-136572583D01*
X105226934Y-136552300D01*
X105424954Y-136492232D01*
X105607450Y-136394685D01*
X105767410Y-136263410D01*
X105898685Y-136103450D01*
X105996232Y-135920954D01*
X106056300Y-135722934D01*
X106076583Y-135517000D01*
X106076583Y-135516999D01*
X106056300Y-135311064D01*
X106034791Y-135240159D01*
X106033141Y-135172968D01*
X106066268Y-135114490D01*
X108621327Y-132559431D01*
X108631857Y-132550022D01*
X108659936Y-132527631D01*
X108692419Y-132479986D01*
X108695148Y-132476139D01*
X108729369Y-132429773D01*
X108729369Y-132429770D01*
X108733039Y-132424799D01*
X108735293Y-132420335D01*
X108737114Y-132414430D01*
X108737116Y-132414428D01*
X108754133Y-132359257D01*
X108755571Y-132354887D01*
X108774620Y-132300451D01*
X108774620Y-132300447D01*
X108776660Y-132294618D01*
X108777500Y-132289680D01*
X108777500Y-132225842D01*
X108777588Y-132221131D01*
X108779743Y-132163538D01*
X108779742Y-132163535D01*
X108779973Y-132157368D01*
X108777500Y-132138578D01*
X108777500Y-123022041D01*
X108795426Y-122957264D01*
X108844104Y-122910919D01*
X108866438Y-122898981D01*
X108881538Y-122890910D01*
X108948566Y-122835900D01*
X109013076Y-122808248D01*
X109082372Y-122819397D01*
X109134951Y-122865890D01*
X109154500Y-122933300D01*
X109154500Y-133228549D01*
X109144909Y-133276767D01*
X109117595Y-133317645D01*
X107963508Y-134471729D01*
X107905029Y-134504857D01*
X107837838Y-134503208D01*
X107766934Y-134481700D01*
X107766931Y-134481699D01*
X107561000Y-134461416D01*
X107355070Y-134481699D01*
X107355067Y-134481699D01*
X107355066Y-134481700D01*
X107176259Y-134535940D01*
X107157043Y-134541769D01*
X106974550Y-134639314D01*
X106814589Y-134770589D01*
X106683314Y-134930550D01*
X106585769Y-135113043D01*
X106585769Y-135113044D01*
X106585768Y-135113046D01*
X106547210Y-135240158D01*
X106525699Y-135311070D01*
X106505416Y-135517000D01*
X106525699Y-135722929D01*
X106525699Y-135722931D01*
X106525700Y-135722934D01*
X106585767Y-135920951D01*
X106585769Y-135920956D01*
X106683314Y-136103449D01*
X106814589Y-136263410D01*
X106964877Y-136386747D01*
X106974550Y-136394685D01*
X107157046Y-136492232D01*
X107355066Y-136552300D01*
X107561000Y-136572583D01*
X107766934Y-136552300D01*
X107964954Y-136492232D01*
X108147450Y-136394685D01*
X108307410Y-136263410D01*
X108438685Y-136103450D01*
X108536232Y-135920954D01*
X108596300Y-135722934D01*
X108616583Y-135517000D01*
X109045416Y-135517000D01*
X109065699Y-135722929D01*
X109065699Y-135722931D01*
X109065700Y-135722934D01*
X109125767Y-135920951D01*
X109125769Y-135920956D01*
X109223314Y-136103449D01*
X109354589Y-136263410D01*
X109504877Y-136386747D01*
X109514550Y-136394685D01*
X109697046Y-136492232D01*
X109895066Y-136552300D01*
X110101000Y-136572583D01*
X110306934Y-136552300D01*
X110504954Y-136492232D01*
X110687450Y-136394685D01*
X110847410Y-136263410D01*
X110978685Y-136103450D01*
X111076232Y-135920954D01*
X111136300Y-135722934D01*
X111156583Y-135517000D01*
X111585416Y-135517000D01*
X111605699Y-135722929D01*
X111605699Y-135722931D01*
X111605700Y-135722934D01*
X111665767Y-135920951D01*
X111665769Y-135920956D01*
X111763314Y-136103449D01*
X111894589Y-136263410D01*
X112044877Y-136386747D01*
X112054550Y-136394685D01*
X112237046Y-136492232D01*
X112435066Y-136552300D01*
X112641000Y-136572583D01*
X112846934Y-136552300D01*
X113044954Y-136492232D01*
X113227450Y-136394685D01*
X113387410Y-136263410D01*
X113518685Y-136103450D01*
X113616232Y-135920954D01*
X113676300Y-135722934D01*
X113696583Y-135517000D01*
X114125416Y-135517000D01*
X114145699Y-135722929D01*
X114145699Y-135722931D01*
X114145700Y-135722934D01*
X114205767Y-135920951D01*
X114205769Y-135920956D01*
X114303314Y-136103449D01*
X114434589Y-136263410D01*
X114584877Y-136386747D01*
X114594550Y-136394685D01*
X114777046Y-136492232D01*
X114975066Y-136552300D01*
X115181000Y-136572583D01*
X115386934Y-136552300D01*
X115584954Y-136492232D01*
X115767450Y-136394685D01*
X115927410Y-136263410D01*
X116058685Y-136103450D01*
X116156232Y-135920954D01*
X116216300Y-135722934D01*
X116236583Y-135517000D01*
X116216300Y-135311066D01*
X116156232Y-135113046D01*
X116058685Y-134930550D01*
X116007722Y-134868451D01*
X115927410Y-134770589D01*
X115767449Y-134639314D01*
X115584956Y-134541769D01*
X115584955Y-134541768D01*
X115584954Y-134541768D01*
X115386934Y-134481700D01*
X115386931Y-134481699D01*
X115386929Y-134481699D01*
X115181000Y-134461416D01*
X114975070Y-134481699D01*
X114975067Y-134481699D01*
X114975066Y-134481700D01*
X114796259Y-134535940D01*
X114777043Y-134541769D01*
X114594550Y-134639314D01*
X114434589Y-134770589D01*
X114303314Y-134930550D01*
X114205769Y-135113043D01*
X114205769Y-135113044D01*
X114205768Y-135113046D01*
X114167210Y-135240158D01*
X114145699Y-135311070D01*
X114125416Y-135517000D01*
X113696583Y-135517000D01*
X113676300Y-135311066D01*
X113616232Y-135113046D01*
X113518685Y-134930550D01*
X113467722Y-134868451D01*
X113387410Y-134770589D01*
X113227449Y-134639314D01*
X113044956Y-134541769D01*
X113044955Y-134541768D01*
X113044954Y-134541768D01*
X112846934Y-134481700D01*
X112846931Y-134481699D01*
X112846929Y-134481699D01*
X112641000Y-134461416D01*
X112435070Y-134481699D01*
X112435067Y-134481699D01*
X112435066Y-134481700D01*
X112256259Y-134535940D01*
X112237043Y-134541769D01*
X112054550Y-134639314D01*
X111894589Y-134770589D01*
X111763314Y-134930550D01*
X111665769Y-135113043D01*
X111665769Y-135113044D01*
X111665768Y-135113046D01*
X111627210Y-135240158D01*
X111605699Y-135311070D01*
X111585416Y-135517000D01*
X111156583Y-135517000D01*
X111136300Y-135311066D01*
X111076232Y-135113046D01*
X110978685Y-134930550D01*
X110927722Y-134868451D01*
X110847410Y-134770589D01*
X110687449Y-134639314D01*
X110504956Y-134541769D01*
X110504955Y-134541768D01*
X110504954Y-134541768D01*
X110306934Y-134481700D01*
X110306931Y-134481699D01*
X110306929Y-134481699D01*
X110101000Y-134461416D01*
X109895070Y-134481699D01*
X109895067Y-134481699D01*
X109895066Y-134481700D01*
X109716259Y-134535940D01*
X109697043Y-134541769D01*
X109514550Y-134639314D01*
X109354589Y-134770589D01*
X109223314Y-134930550D01*
X109125769Y-135113043D01*
X109125769Y-135113044D01*
X109125768Y-135113046D01*
X109087210Y-135240158D01*
X109065699Y-135311070D01*
X109045416Y-135517000D01*
X108616583Y-135517000D01*
X108616583Y-135516999D01*
X108596300Y-135311064D01*
X108574791Y-135240159D01*
X108573141Y-135172968D01*
X108606268Y-135114490D01*
X109907327Y-133813431D01*
X109917857Y-133804022D01*
X109945936Y-133781631D01*
X109978419Y-133733986D01*
X109981148Y-133730139D01*
X110015369Y-133683773D01*
X110015369Y-133683770D01*
X110019039Y-133678799D01*
X110021293Y-133674335D01*
X110023114Y-133668430D01*
X110023116Y-133668428D01*
X110040133Y-133613257D01*
X110041571Y-133608887D01*
X110060620Y-133554451D01*
X110060620Y-133554447D01*
X110062660Y-133548618D01*
X110063500Y-133543680D01*
X110063500Y-133479842D01*
X110063588Y-133475131D01*
X110065743Y-133417538D01*
X110065742Y-133417535D01*
X110065973Y-133411368D01*
X110063500Y-133392578D01*
X110063500Y-122959562D01*
X110083049Y-122892152D01*
X110135628Y-122845659D01*
X110204924Y-122834510D01*
X110269433Y-122862162D01*
X110304462Y-122890910D01*
X110478273Y-122983814D01*
X110530154Y-122999552D01*
X110666867Y-123041024D01*
X110863000Y-123060341D01*
X111059132Y-123041024D01*
X111099751Y-123028701D01*
X111166940Y-123027052D01*
X111225421Y-123060181D01*
X117229595Y-129064355D01*
X117256909Y-129105232D01*
X117266500Y-129153450D01*
X117266500Y-134493265D01*
X117248574Y-134558042D01*
X117199896Y-134604386D01*
X117174744Y-134617830D01*
X117134551Y-134639314D01*
X116974589Y-134770589D01*
X116843314Y-134930550D01*
X116745769Y-135113043D01*
X116745769Y-135113044D01*
X116745768Y-135113046D01*
X116707210Y-135240158D01*
X116685699Y-135311070D01*
X116665416Y-135517000D01*
X116685699Y-135722929D01*
X116685699Y-135722931D01*
X116685700Y-135722934D01*
X116745767Y-135920951D01*
X116745769Y-135920956D01*
X116843314Y-136103449D01*
X116974589Y-136263410D01*
X117124877Y-136386747D01*
X117134550Y-136394685D01*
X117317046Y-136492232D01*
X117515066Y-136552300D01*
X117721000Y-136572583D01*
X117926934Y-136552300D01*
X118124954Y-136492232D01*
X118307450Y-136394685D01*
X118467410Y-136263410D01*
X118598685Y-136103450D01*
X118696232Y-135920954D01*
X118756300Y-135722934D01*
X118776583Y-135517000D01*
X118756300Y-135311066D01*
X118696232Y-135113046D01*
X118598685Y-134930550D01*
X118547722Y-134868451D01*
X118467410Y-134770589D01*
X118357070Y-134680037D01*
X118307450Y-134639315D01*
X118242103Y-134604386D01*
X118193426Y-134558042D01*
X118175500Y-134493265D01*
X118175500Y-128945616D01*
X118176292Y-128931509D01*
X118180314Y-128895814D01*
X118169589Y-128839137D01*
X118168804Y-128834515D01*
X118160214Y-128777521D01*
X118160213Y-128777519D01*
X118159293Y-128771415D01*
X118157727Y-128766655D01*
X118154841Y-128761195D01*
X118154841Y-128761193D01*
X118127880Y-128710180D01*
X118125800Y-128706062D01*
X118100767Y-128654079D01*
X118100765Y-128654077D01*
X118098084Y-128648509D01*
X118095189Y-128644429D01*
X118090821Y-128640061D01*
X118050050Y-128599290D01*
X118046808Y-128595925D01*
X118046566Y-128595664D01*
X118007577Y-128553644D01*
X118007574Y-128553642D01*
X118003379Y-128549121D01*
X117988338Y-128537578D01*
X111868181Y-122417420D01*
X111835052Y-122358939D01*
X111836703Y-122291746D01*
X111839357Y-122282999D01*
X111849024Y-122251132D01*
X111868341Y-122055000D01*
X111868341Y-122054999D01*
X112397658Y-122054999D01*
X112416975Y-122251132D01*
X112474185Y-122439725D01*
X112567089Y-122613537D01*
X112692116Y-122765883D01*
X112809434Y-122862163D01*
X112844462Y-122890910D01*
X113018273Y-122983814D01*
X113070154Y-122999552D01*
X113206867Y-123041024D01*
X113403000Y-123060341D01*
X113599132Y-123041024D01*
X113639751Y-123028701D01*
X113706940Y-123027052D01*
X113765421Y-123060181D01*
X119769595Y-129064355D01*
X119796909Y-129105232D01*
X119806500Y-129153450D01*
X119806500Y-134493265D01*
X119788574Y-134558042D01*
X119739896Y-134604386D01*
X119714744Y-134617830D01*
X119674551Y-134639314D01*
X119514589Y-134770589D01*
X119383314Y-134930550D01*
X119285769Y-135113043D01*
X119285769Y-135113044D01*
X119285768Y-135113046D01*
X119247210Y-135240158D01*
X119225699Y-135311070D01*
X119205416Y-135517000D01*
X119225699Y-135722929D01*
X119225699Y-135722931D01*
X119225700Y-135722934D01*
X119285767Y-135920951D01*
X119285769Y-135920956D01*
X119383314Y-136103449D01*
X119514589Y-136263410D01*
X119664877Y-136386747D01*
X119674550Y-136394685D01*
X119857046Y-136492232D01*
X120055066Y-136552300D01*
X120261000Y-136572583D01*
X120466934Y-136552300D01*
X120664954Y-136492232D01*
X120847450Y-136394685D01*
X121007410Y-136263410D01*
X121138685Y-136103450D01*
X121236232Y-135920954D01*
X121296300Y-135722934D01*
X121316583Y-135517000D01*
X121296300Y-135311066D01*
X121236232Y-135113046D01*
X121138685Y-134930550D01*
X121087722Y-134868451D01*
X121007410Y-134770589D01*
X120897070Y-134680037D01*
X120847450Y-134639315D01*
X120782103Y-134604386D01*
X120733426Y-134558042D01*
X120715500Y-134493265D01*
X120715500Y-128945616D01*
X120716292Y-128931509D01*
X120720314Y-128895814D01*
X120709589Y-128839137D01*
X120708804Y-128834515D01*
X120700214Y-128777521D01*
X120700213Y-128777519D01*
X120699293Y-128771415D01*
X120697727Y-128766655D01*
X120694841Y-128761195D01*
X120694841Y-128761193D01*
X120667880Y-128710180D01*
X120665800Y-128706062D01*
X120640767Y-128654079D01*
X120640765Y-128654077D01*
X120638084Y-128648509D01*
X120635189Y-128644429D01*
X120630821Y-128640061D01*
X120590050Y-128599290D01*
X120586808Y-128595925D01*
X120586566Y-128595664D01*
X120547577Y-128553644D01*
X120547574Y-128553642D01*
X120543379Y-128549121D01*
X120528338Y-128537578D01*
X114408181Y-122417420D01*
X114375052Y-122358939D01*
X114376703Y-122291746D01*
X114379357Y-122282999D01*
X114389024Y-122251132D01*
X114408341Y-122055000D01*
X114408341Y-122054999D01*
X114937658Y-122054999D01*
X114956975Y-122251132D01*
X115014185Y-122439725D01*
X115107089Y-122613537D01*
X115232116Y-122765883D01*
X115349434Y-122862163D01*
X115384462Y-122890910D01*
X115558273Y-122983814D01*
X115610154Y-122999552D01*
X115746867Y-123041024D01*
X115943000Y-123060341D01*
X116139132Y-123041024D01*
X116179751Y-123028701D01*
X116246940Y-123027052D01*
X116305421Y-123060181D01*
X122309595Y-129064355D01*
X122336909Y-129105232D01*
X122346500Y-129153450D01*
X122346500Y-134493265D01*
X122328574Y-134558042D01*
X122279896Y-134604386D01*
X122254744Y-134617830D01*
X122214551Y-134639314D01*
X122054589Y-134770589D01*
X121923314Y-134930550D01*
X121825769Y-135113043D01*
X121825769Y-135113044D01*
X121825768Y-135113046D01*
X121787210Y-135240158D01*
X121765699Y-135311070D01*
X121745416Y-135516999D01*
X121765699Y-135722929D01*
X121765699Y-135722931D01*
X121765700Y-135722934D01*
X121825767Y-135920951D01*
X121825769Y-135920956D01*
X121923314Y-136103449D01*
X122054589Y-136263410D01*
X122204877Y-136386747D01*
X122214550Y-136394685D01*
X122397046Y-136492232D01*
X122595066Y-136552300D01*
X122801000Y-136572583D01*
X123006934Y-136552300D01*
X123204954Y-136492232D01*
X123387450Y-136394685D01*
X123547410Y-136263410D01*
X123678685Y-136103450D01*
X123776232Y-135920954D01*
X123836300Y-135722934D01*
X123856583Y-135517000D01*
X123836300Y-135311066D01*
X123776232Y-135113046D01*
X123678685Y-134930550D01*
X123627722Y-134868451D01*
X123547410Y-134770589D01*
X123437070Y-134680037D01*
X123387450Y-134639315D01*
X123322103Y-134604386D01*
X123273426Y-134558042D01*
X123255500Y-134493265D01*
X123255500Y-128945616D01*
X123256292Y-128931509D01*
X123260314Y-128895814D01*
X123249589Y-128839137D01*
X123248804Y-128834515D01*
X123240214Y-128777521D01*
X123240213Y-128777519D01*
X123239293Y-128771415D01*
X123237727Y-128766655D01*
X123234841Y-128761195D01*
X123234841Y-128761193D01*
X123207880Y-128710180D01*
X123205800Y-128706062D01*
X123180767Y-128654079D01*
X123180765Y-128654077D01*
X123178084Y-128648509D01*
X123175189Y-128644429D01*
X123170821Y-128640061D01*
X123130050Y-128599290D01*
X123126808Y-128595925D01*
X123126566Y-128595664D01*
X123087577Y-128553644D01*
X123087574Y-128553642D01*
X123083379Y-128549121D01*
X123068338Y-128537578D01*
X116948181Y-122417420D01*
X116915052Y-122358939D01*
X116916703Y-122291746D01*
X116919357Y-122282999D01*
X116929024Y-122251132D01*
X116948341Y-122055000D01*
X116948341Y-122054999D01*
X117477658Y-122054999D01*
X117496975Y-122251132D01*
X117554185Y-122439725D01*
X117647089Y-122613537D01*
X117772116Y-122765883D01*
X117889434Y-122862163D01*
X117924462Y-122890910D01*
X118098273Y-122983814D01*
X118150154Y-122999552D01*
X118286867Y-123041024D01*
X118483000Y-123060341D01*
X118679132Y-123041024D01*
X118719751Y-123028701D01*
X118786940Y-123027052D01*
X118845421Y-123060181D01*
X124849595Y-129064355D01*
X124876909Y-129105232D01*
X124886500Y-129153450D01*
X124886500Y-134493265D01*
X124868574Y-134558042D01*
X124819896Y-134604386D01*
X124794744Y-134617830D01*
X124754551Y-134639314D01*
X124594589Y-134770589D01*
X124463314Y-134930550D01*
X124365769Y-135113043D01*
X124365769Y-135113044D01*
X124365768Y-135113046D01*
X124327210Y-135240158D01*
X124305699Y-135311070D01*
X124285416Y-135516999D01*
X124305699Y-135722929D01*
X124305699Y-135722931D01*
X124305700Y-135722934D01*
X124365767Y-135920951D01*
X124365769Y-135920956D01*
X124463314Y-136103449D01*
X124594589Y-136263410D01*
X124744877Y-136386747D01*
X124754550Y-136394685D01*
X124937046Y-136492232D01*
X125135066Y-136552300D01*
X125341000Y-136572583D01*
X125546934Y-136552300D01*
X125744954Y-136492232D01*
X125927450Y-136394685D01*
X126087410Y-136263410D01*
X126218685Y-136103450D01*
X126316232Y-135920954D01*
X126376300Y-135722934D01*
X126396583Y-135517000D01*
X126376300Y-135311066D01*
X126316232Y-135113046D01*
X126218685Y-134930550D01*
X126167722Y-134868451D01*
X126087410Y-134770589D01*
X125977070Y-134680037D01*
X125927450Y-134639315D01*
X125862103Y-134604386D01*
X125813426Y-134558042D01*
X125795500Y-134493265D01*
X125795500Y-128945616D01*
X125796292Y-128931509D01*
X125800314Y-128895814D01*
X125789589Y-128839137D01*
X125788804Y-128834515D01*
X125780214Y-128777521D01*
X125780213Y-128777519D01*
X125779293Y-128771415D01*
X125777727Y-128766655D01*
X125774841Y-128761195D01*
X125774841Y-128761193D01*
X125747880Y-128710180D01*
X125745800Y-128706062D01*
X125720767Y-128654079D01*
X125720765Y-128654077D01*
X125718084Y-128648509D01*
X125715189Y-128644429D01*
X125710821Y-128640061D01*
X125670050Y-128599290D01*
X125666808Y-128595925D01*
X125666566Y-128595664D01*
X125627577Y-128553644D01*
X125627574Y-128553642D01*
X125623379Y-128549121D01*
X125608338Y-128537578D01*
X119488181Y-122417420D01*
X119455052Y-122358939D01*
X119456703Y-122291746D01*
X119459357Y-122282999D01*
X119469024Y-122251132D01*
X119488341Y-122055000D01*
X119488341Y-122054999D01*
X120017658Y-122054999D01*
X120036975Y-122251132D01*
X120094185Y-122439725D01*
X120187089Y-122613537D01*
X120312116Y-122765883D01*
X120429434Y-122862163D01*
X120464462Y-122890910D01*
X120638273Y-122983814D01*
X120690154Y-122999552D01*
X120826867Y-123041024D01*
X121023000Y-123060341D01*
X121219132Y-123041024D01*
X121259751Y-123028701D01*
X121326940Y-123027052D01*
X121385421Y-123060181D01*
X127389595Y-129064355D01*
X127416909Y-129105232D01*
X127426500Y-129153450D01*
X127426500Y-134493265D01*
X127408574Y-134558042D01*
X127359896Y-134604386D01*
X127334744Y-134617830D01*
X127294551Y-134639314D01*
X127134589Y-134770589D01*
X127003314Y-134930550D01*
X126905769Y-135113043D01*
X126905769Y-135113044D01*
X126905768Y-135113046D01*
X126867210Y-135240158D01*
X126845699Y-135311070D01*
X126825416Y-135516999D01*
X126845699Y-135722929D01*
X126845699Y-135722931D01*
X126845700Y-135722934D01*
X126905767Y-135920951D01*
X126905769Y-135920956D01*
X127003314Y-136103449D01*
X127134589Y-136263410D01*
X127284877Y-136386747D01*
X127294550Y-136394685D01*
X127477046Y-136492232D01*
X127675066Y-136552300D01*
X127881000Y-136572583D01*
X128086934Y-136552300D01*
X128284954Y-136492232D01*
X128467450Y-136394685D01*
X128627410Y-136263410D01*
X128758685Y-136103450D01*
X128856232Y-135920954D01*
X128916300Y-135722934D01*
X128936583Y-135517000D01*
X128916300Y-135311066D01*
X128856232Y-135113046D01*
X128758685Y-134930550D01*
X128707722Y-134868451D01*
X128627410Y-134770589D01*
X128517070Y-134680037D01*
X128467450Y-134639315D01*
X128402103Y-134604386D01*
X128353426Y-134558042D01*
X128335500Y-134493265D01*
X128335500Y-128945616D01*
X128336292Y-128931509D01*
X128340314Y-128895814D01*
X128329589Y-128839137D01*
X128328804Y-128834515D01*
X128320214Y-128777521D01*
X128320213Y-128777519D01*
X128319293Y-128771415D01*
X128317727Y-128766655D01*
X128314841Y-128761195D01*
X128314841Y-128761193D01*
X128287880Y-128710180D01*
X128285800Y-128706062D01*
X128260767Y-128654079D01*
X128260765Y-128654077D01*
X128258084Y-128648509D01*
X128255189Y-128644429D01*
X128250821Y-128640061D01*
X128210050Y-128599290D01*
X128206808Y-128595925D01*
X128206566Y-128595664D01*
X128167577Y-128553644D01*
X128167574Y-128553642D01*
X128163379Y-128549121D01*
X128148338Y-128537578D01*
X122028181Y-122417420D01*
X121995052Y-122358939D01*
X121996703Y-122291746D01*
X121999357Y-122282999D01*
X122009024Y-122251132D01*
X122028341Y-122055000D01*
X122557658Y-122055000D01*
X122576975Y-122251132D01*
X122634185Y-122439725D01*
X122727089Y-122613537D01*
X122852116Y-122765883D01*
X122969434Y-122862163D01*
X123004462Y-122890910D01*
X123178273Y-122983814D01*
X123230154Y-122999552D01*
X123366867Y-123041024D01*
X123563000Y-123060341D01*
X123759132Y-123041024D01*
X123799751Y-123028701D01*
X123866940Y-123027052D01*
X123925421Y-123060181D01*
X129929595Y-129064355D01*
X129956909Y-129105232D01*
X129966500Y-129153450D01*
X129966500Y-134493265D01*
X129948574Y-134558042D01*
X129899896Y-134604386D01*
X129874744Y-134617830D01*
X129834551Y-134639314D01*
X129674589Y-134770589D01*
X129543314Y-134930550D01*
X129445769Y-135113043D01*
X129445769Y-135113044D01*
X129445768Y-135113046D01*
X129407210Y-135240158D01*
X129385699Y-135311070D01*
X129365416Y-135516999D01*
X129385699Y-135722929D01*
X129385699Y-135722931D01*
X129385700Y-135722934D01*
X129445767Y-135920951D01*
X129445769Y-135920956D01*
X129543314Y-136103449D01*
X129674589Y-136263410D01*
X129824877Y-136386747D01*
X129834550Y-136394685D01*
X130017046Y-136492232D01*
X130215066Y-136552300D01*
X130421000Y-136572583D01*
X130626934Y-136552300D01*
X130824954Y-136492232D01*
X131007450Y-136394685D01*
X131167410Y-136263410D01*
X131298685Y-136103450D01*
X131396232Y-135920954D01*
X131456300Y-135722934D01*
X131476583Y-135517000D01*
X131456300Y-135311066D01*
X131396232Y-135113046D01*
X131298685Y-134930550D01*
X131247722Y-134868451D01*
X131167410Y-134770589D01*
X131057070Y-134680037D01*
X131007450Y-134639315D01*
X130942103Y-134604386D01*
X130893426Y-134558042D01*
X130875500Y-134493265D01*
X130875500Y-128945616D01*
X130876292Y-128931509D01*
X130880314Y-128895814D01*
X130869589Y-128839137D01*
X130868804Y-128834515D01*
X130860214Y-128777521D01*
X130860213Y-128777519D01*
X130859293Y-128771415D01*
X130857727Y-128766655D01*
X130854841Y-128761195D01*
X130854841Y-128761193D01*
X130827880Y-128710180D01*
X130825800Y-128706062D01*
X130800767Y-128654079D01*
X130800765Y-128654077D01*
X130798084Y-128648509D01*
X130795189Y-128644429D01*
X130790821Y-128640061D01*
X130750050Y-128599290D01*
X130746808Y-128595925D01*
X130746566Y-128595664D01*
X130707577Y-128553644D01*
X130707574Y-128553642D01*
X130703379Y-128549121D01*
X130688338Y-128537578D01*
X124568181Y-122417420D01*
X124535052Y-122358939D01*
X124536703Y-122291746D01*
X124539357Y-122282999D01*
X124549024Y-122251132D01*
X124568341Y-122055000D01*
X125097658Y-122055000D01*
X125116975Y-122251132D01*
X125174185Y-122439725D01*
X125267089Y-122613537D01*
X125392116Y-122765883D01*
X125509434Y-122862163D01*
X125544462Y-122890910D01*
X125718273Y-122983814D01*
X125770154Y-122999552D01*
X125906867Y-123041024D01*
X126103000Y-123060341D01*
X126299132Y-123041024D01*
X126339751Y-123028701D01*
X126406940Y-123027052D01*
X126465421Y-123060181D01*
X132469595Y-129064355D01*
X132496909Y-129105232D01*
X132506500Y-129153450D01*
X132506500Y-134493265D01*
X132488574Y-134558042D01*
X132439896Y-134604386D01*
X132414744Y-134617830D01*
X132374551Y-134639314D01*
X132214589Y-134770589D01*
X132083314Y-134930550D01*
X131985769Y-135113043D01*
X131985769Y-135113044D01*
X131985768Y-135113046D01*
X131947210Y-135240158D01*
X131925699Y-135311070D01*
X131905416Y-135516999D01*
X131925699Y-135722929D01*
X131925699Y-135722931D01*
X131925700Y-135722934D01*
X131985767Y-135920951D01*
X131985769Y-135920956D01*
X132083314Y-136103449D01*
X132214589Y-136263410D01*
X132364877Y-136386747D01*
X132374550Y-136394685D01*
X132557046Y-136492232D01*
X132755066Y-136552300D01*
X132961000Y-136572583D01*
X133166934Y-136552300D01*
X133364954Y-136492232D01*
X133547450Y-136394685D01*
X133707410Y-136263410D01*
X133838685Y-136103450D01*
X133936232Y-135920954D01*
X133996300Y-135722934D01*
X134016583Y-135517000D01*
X133996300Y-135311066D01*
X133936232Y-135113046D01*
X133838685Y-134930550D01*
X133787722Y-134868451D01*
X133707410Y-134770589D01*
X133597070Y-134680037D01*
X133547450Y-134639315D01*
X133482103Y-134604386D01*
X133433426Y-134558042D01*
X133415500Y-134493265D01*
X133415500Y-128945616D01*
X133416292Y-128931509D01*
X133420314Y-128895814D01*
X133409589Y-128839137D01*
X133408804Y-128834515D01*
X133400214Y-128777521D01*
X133400213Y-128777519D01*
X133399293Y-128771415D01*
X133397727Y-128766655D01*
X133394841Y-128761195D01*
X133394841Y-128761193D01*
X133367880Y-128710180D01*
X133365800Y-128706062D01*
X133340767Y-128654079D01*
X133340765Y-128654077D01*
X133338084Y-128648509D01*
X133335189Y-128644429D01*
X133330821Y-128640061D01*
X133290050Y-128599290D01*
X133286808Y-128595925D01*
X133286566Y-128595664D01*
X133247577Y-128553644D01*
X133247574Y-128553642D01*
X133243379Y-128549121D01*
X133228338Y-128537578D01*
X127108181Y-122417420D01*
X127075052Y-122358939D01*
X127076703Y-122291746D01*
X127079357Y-122282999D01*
X127089024Y-122251132D01*
X127108341Y-122055000D01*
X127637658Y-122055000D01*
X127656975Y-122251132D01*
X127714185Y-122439725D01*
X127807089Y-122613537D01*
X127932116Y-122765883D01*
X128049434Y-122862163D01*
X128084462Y-122890910D01*
X128258273Y-122983814D01*
X128310154Y-122999552D01*
X128446867Y-123041024D01*
X128643000Y-123060341D01*
X128839132Y-123041024D01*
X128879751Y-123028701D01*
X128946940Y-123027052D01*
X129005421Y-123060181D01*
X135009595Y-129064355D01*
X135036909Y-129105232D01*
X135046500Y-129153450D01*
X135046500Y-134493265D01*
X135028574Y-134558042D01*
X134979896Y-134604386D01*
X134954744Y-134617830D01*
X134914551Y-134639314D01*
X134754589Y-134770589D01*
X134623314Y-134930550D01*
X134525769Y-135113043D01*
X134525769Y-135113044D01*
X134525768Y-135113046D01*
X134487210Y-135240158D01*
X134465699Y-135311070D01*
X134445416Y-135516999D01*
X134465699Y-135722929D01*
X134465699Y-135722931D01*
X134465700Y-135722934D01*
X134525767Y-135920951D01*
X134525769Y-135920956D01*
X134623314Y-136103449D01*
X134754589Y-136263410D01*
X134904877Y-136386747D01*
X134914550Y-136394685D01*
X135097046Y-136492232D01*
X135295066Y-136552300D01*
X135501000Y-136572583D01*
X135706934Y-136552300D01*
X135904954Y-136492232D01*
X136087450Y-136394685D01*
X136247410Y-136263410D01*
X136378685Y-136103450D01*
X136476232Y-135920954D01*
X136536300Y-135722934D01*
X136556583Y-135517000D01*
X136556583Y-135516999D01*
X136985416Y-135516999D01*
X137005699Y-135722929D01*
X137005699Y-135722931D01*
X137005700Y-135722934D01*
X137065767Y-135920951D01*
X137065769Y-135920956D01*
X137163314Y-136103449D01*
X137294589Y-136263410D01*
X137444877Y-136386747D01*
X137454550Y-136394685D01*
X137637046Y-136492232D01*
X137835066Y-136552300D01*
X138041000Y-136572583D01*
X138246934Y-136552300D01*
X138444954Y-136492232D01*
X138627450Y-136394685D01*
X138787410Y-136263410D01*
X138918685Y-136103450D01*
X139016232Y-135920954D01*
X139076300Y-135722934D01*
X139096583Y-135517000D01*
X139096583Y-135516999D01*
X139525416Y-135516999D01*
X139545699Y-135722929D01*
X139545699Y-135722931D01*
X139545700Y-135722934D01*
X139605767Y-135920951D01*
X139605769Y-135920956D01*
X139703314Y-136103449D01*
X139834589Y-136263410D01*
X139984877Y-136386747D01*
X139994550Y-136394685D01*
X140177046Y-136492232D01*
X140375066Y-136552300D01*
X140581000Y-136572583D01*
X140786934Y-136552300D01*
X140984954Y-136492232D01*
X141167450Y-136394685D01*
X141327410Y-136263410D01*
X141458685Y-136103450D01*
X141556232Y-135920954D01*
X141616300Y-135722934D01*
X141636583Y-135517000D01*
X141636583Y-135516999D01*
X142065416Y-135516999D01*
X142085699Y-135722929D01*
X142085699Y-135722931D01*
X142085700Y-135722934D01*
X142145767Y-135920951D01*
X142145769Y-135920956D01*
X142243314Y-136103449D01*
X142374589Y-136263410D01*
X142524877Y-136386747D01*
X142534550Y-136394685D01*
X142717046Y-136492232D01*
X142915066Y-136552300D01*
X143121000Y-136572583D01*
X143326934Y-136552300D01*
X143524954Y-136492232D01*
X143707450Y-136394685D01*
X143867410Y-136263410D01*
X143998685Y-136103450D01*
X144096232Y-135920954D01*
X144156300Y-135722934D01*
X144176583Y-135517000D01*
X144156300Y-135311066D01*
X144096232Y-135113046D01*
X143998685Y-134930550D01*
X143947722Y-134868451D01*
X143867410Y-134770589D01*
X143707449Y-134639314D01*
X143524956Y-134541769D01*
X143524955Y-134541768D01*
X143524954Y-134541768D01*
X143326934Y-134481700D01*
X143326931Y-134481699D01*
X143326929Y-134481699D01*
X143121000Y-134461416D01*
X142915070Y-134481699D01*
X142915067Y-134481699D01*
X142915066Y-134481700D01*
X142736259Y-134535940D01*
X142717043Y-134541769D01*
X142534550Y-134639314D01*
X142374589Y-134770589D01*
X142243314Y-134930550D01*
X142145769Y-135113043D01*
X142145769Y-135113044D01*
X142145768Y-135113046D01*
X142107210Y-135240158D01*
X142085699Y-135311070D01*
X142065416Y-135516999D01*
X141636583Y-135516999D01*
X141616300Y-135311066D01*
X141556232Y-135113046D01*
X141458685Y-134930550D01*
X141407722Y-134868451D01*
X141327410Y-134770589D01*
X141167449Y-134639314D01*
X140984956Y-134541769D01*
X140984955Y-134541768D01*
X140984954Y-134541768D01*
X140786934Y-134481700D01*
X140786931Y-134481699D01*
X140786929Y-134481699D01*
X140581000Y-134461416D01*
X140375070Y-134481699D01*
X140375067Y-134481699D01*
X140375066Y-134481700D01*
X140196259Y-134535940D01*
X140177043Y-134541769D01*
X139994550Y-134639314D01*
X139834589Y-134770589D01*
X139703314Y-134930550D01*
X139605769Y-135113043D01*
X139605769Y-135113044D01*
X139605768Y-135113046D01*
X139567210Y-135240158D01*
X139545699Y-135311070D01*
X139525416Y-135516999D01*
X139096583Y-135516999D01*
X139076300Y-135311066D01*
X139016232Y-135113046D01*
X138918685Y-134930550D01*
X138867722Y-134868451D01*
X138787410Y-134770589D01*
X138627449Y-134639314D01*
X138444956Y-134541769D01*
X138444955Y-134541768D01*
X138444954Y-134541768D01*
X138246934Y-134481700D01*
X138246931Y-134481699D01*
X138246929Y-134481699D01*
X138041000Y-134461416D01*
X137835070Y-134481699D01*
X137835067Y-134481699D01*
X137835066Y-134481700D01*
X137656259Y-134535940D01*
X137637043Y-134541769D01*
X137454550Y-134639314D01*
X137294589Y-134770589D01*
X137163314Y-134930550D01*
X137065769Y-135113043D01*
X137065769Y-135113044D01*
X137065768Y-135113046D01*
X137027210Y-135240158D01*
X137005699Y-135311070D01*
X136985416Y-135516999D01*
X136556583Y-135516999D01*
X136536300Y-135311066D01*
X136476232Y-135113046D01*
X136378685Y-134930550D01*
X136327722Y-134868451D01*
X136247410Y-134770589D01*
X136137070Y-134680037D01*
X136087450Y-134639315D01*
X136022103Y-134604386D01*
X135973426Y-134558042D01*
X135955500Y-134493265D01*
X135955500Y-128945616D01*
X135956292Y-128931509D01*
X135960314Y-128895814D01*
X135949589Y-128839137D01*
X135948804Y-128834515D01*
X135940214Y-128777521D01*
X135940213Y-128777519D01*
X135939293Y-128771415D01*
X135937727Y-128766655D01*
X135934841Y-128761195D01*
X135934841Y-128761193D01*
X135907880Y-128710180D01*
X135905800Y-128706062D01*
X135880767Y-128654079D01*
X135880765Y-128654077D01*
X135878084Y-128648509D01*
X135875189Y-128644429D01*
X135870821Y-128640061D01*
X135830050Y-128599290D01*
X135826808Y-128595925D01*
X135826566Y-128595664D01*
X135787577Y-128553644D01*
X135787574Y-128553642D01*
X135783379Y-128549121D01*
X135768338Y-128537578D01*
X129648181Y-122417420D01*
X129615052Y-122358939D01*
X129616703Y-122291746D01*
X129619357Y-122282999D01*
X129629024Y-122251132D01*
X129648341Y-122055000D01*
X130177658Y-122055000D01*
X130196975Y-122251132D01*
X130254185Y-122439725D01*
X130347089Y-122613537D01*
X130472116Y-122765883D01*
X130589434Y-122862163D01*
X130624462Y-122890910D01*
X130798273Y-122983814D01*
X130850154Y-122999552D01*
X130986867Y-123041024D01*
X131183000Y-123060341D01*
X131379132Y-123041024D01*
X131567727Y-122983814D01*
X131741538Y-122890910D01*
X131893883Y-122765883D01*
X132018910Y-122613538D01*
X132111814Y-122439727D01*
X132169024Y-122251132D01*
X132188341Y-122055000D01*
X132717658Y-122055000D01*
X132736975Y-122251132D01*
X132794185Y-122439725D01*
X132887089Y-122613537D01*
X133012116Y-122765883D01*
X133129434Y-122862163D01*
X133164462Y-122890910D01*
X133338273Y-122983814D01*
X133390154Y-122999552D01*
X133526867Y-123041024D01*
X133723000Y-123060341D01*
X133919132Y-123041024D01*
X134107727Y-122983814D01*
X134281538Y-122890910D01*
X134433883Y-122765883D01*
X134558910Y-122613538D01*
X134651814Y-122439727D01*
X134709024Y-122251132D01*
X134728341Y-122055000D01*
X135257658Y-122055000D01*
X135276975Y-122251132D01*
X135334185Y-122439725D01*
X135427089Y-122613537D01*
X135552116Y-122765883D01*
X135669434Y-122862163D01*
X135704462Y-122890910D01*
X135878273Y-122983814D01*
X135930154Y-122999552D01*
X136066867Y-123041024D01*
X136263000Y-123060341D01*
X136459132Y-123041024D01*
X136647727Y-122983814D01*
X136821538Y-122890910D01*
X136973883Y-122765883D01*
X137098910Y-122613538D01*
X137191814Y-122439727D01*
X137249024Y-122251132D01*
X137252914Y-122211639D01*
X137273669Y-122153797D01*
X137319315Y-122112652D01*
X137378994Y-122097991D01*
X137438510Y-122113302D01*
X137483704Y-122154943D01*
X137503828Y-122213008D01*
X137509951Y-122282999D01*
X137569186Y-122504070D01*
X137665912Y-122711498D01*
X137797189Y-122898981D01*
X137959018Y-123060810D01*
X138146501Y-123192087D01*
X138353929Y-123288813D01*
X138549000Y-123341082D01*
X138549000Y-122309000D01*
X139057000Y-122309000D01*
X139057000Y-123341082D01*
X139252070Y-123288813D01*
X139459498Y-123192087D01*
X139646981Y-123060810D01*
X139808810Y-122898981D01*
X139940087Y-122711498D01*
X140036813Y-122504070D01*
X140089082Y-122309000D01*
X139057000Y-122309000D01*
X138549000Y-122309000D01*
X138549000Y-120768917D01*
X139056999Y-120768917D01*
X139057000Y-120768918D01*
X139057000Y-121801000D01*
X140089082Y-121801000D01*
X140036813Y-121605929D01*
X139940087Y-121398501D01*
X139808810Y-121211018D01*
X139646981Y-121049189D01*
X139459498Y-120917912D01*
X139252070Y-120821186D01*
X139056999Y-120768917D01*
X138549000Y-120768917D01*
X138353929Y-120821186D01*
X138146501Y-120917912D01*
X137959018Y-121049189D01*
X137797189Y-121211018D01*
X137665912Y-121398501D01*
X137569186Y-121605929D01*
X137509951Y-121827000D01*
X137503828Y-121896991D01*
X137483704Y-121955056D01*
X137438510Y-121996697D01*
X137378994Y-122012008D01*
X137319316Y-121997347D01*
X137273669Y-121956202D01*
X137252914Y-121898360D01*
X137249024Y-121858867D01*
X137191814Y-121670274D01*
X137191814Y-121670273D01*
X137098910Y-121496462D01*
X137078500Y-121471592D01*
X136973883Y-121344116D01*
X136821537Y-121219089D01*
X136647725Y-121126185D01*
X136459132Y-121068975D01*
X136263000Y-121049658D01*
X136066867Y-121068975D01*
X135878274Y-121126185D01*
X135704462Y-121219089D01*
X135552116Y-121344116D01*
X135427089Y-121496462D01*
X135334185Y-121670274D01*
X135276975Y-121858867D01*
X135257658Y-122055000D01*
X134728341Y-122055000D01*
X134718610Y-121956202D01*
X134709024Y-121858867D01*
X134651814Y-121670274D01*
X134651814Y-121670273D01*
X134558910Y-121496462D01*
X134538500Y-121471592D01*
X134433883Y-121344116D01*
X134281537Y-121219089D01*
X134107725Y-121126185D01*
X133919132Y-121068975D01*
X133723000Y-121049658D01*
X133526867Y-121068975D01*
X133338274Y-121126185D01*
X133164462Y-121219089D01*
X133012116Y-121344116D01*
X132887089Y-121496462D01*
X132794185Y-121670274D01*
X132736975Y-121858867D01*
X132717658Y-122055000D01*
X132188341Y-122055000D01*
X132178610Y-121956202D01*
X132169024Y-121858867D01*
X132111814Y-121670274D01*
X132111814Y-121670273D01*
X132018910Y-121496462D01*
X131998500Y-121471592D01*
X131893883Y-121344116D01*
X131741537Y-121219089D01*
X131567725Y-121126185D01*
X131379132Y-121068975D01*
X131183000Y-121049658D01*
X130986867Y-121068975D01*
X130798274Y-121126185D01*
X130624462Y-121219089D01*
X130472116Y-121344116D01*
X130347089Y-121496462D01*
X130254185Y-121670274D01*
X130196975Y-121858867D01*
X130177658Y-122055000D01*
X129648341Y-122055000D01*
X129629024Y-121858868D01*
X129571814Y-121670273D01*
X129478910Y-121496462D01*
X129458500Y-121471592D01*
X129353883Y-121344116D01*
X129201537Y-121219089D01*
X129027725Y-121126185D01*
X128839132Y-121068975D01*
X128643000Y-121049658D01*
X128446867Y-121068975D01*
X128258274Y-121126185D01*
X128084462Y-121219089D01*
X127932116Y-121344116D01*
X127807089Y-121496462D01*
X127714185Y-121670274D01*
X127656975Y-121858867D01*
X127637658Y-122055000D01*
X127108341Y-122055000D01*
X127089024Y-121858868D01*
X127031814Y-121670273D01*
X126938910Y-121496462D01*
X126918500Y-121471592D01*
X126813883Y-121344116D01*
X126661537Y-121219089D01*
X126487725Y-121126185D01*
X126299132Y-121068975D01*
X126103000Y-121049658D01*
X125906867Y-121068975D01*
X125718274Y-121126185D01*
X125544462Y-121219089D01*
X125392116Y-121344116D01*
X125267089Y-121496462D01*
X125174185Y-121670274D01*
X125116975Y-121858867D01*
X125097658Y-122055000D01*
X124568341Y-122055000D01*
X124549024Y-121858868D01*
X124491814Y-121670273D01*
X124398910Y-121496462D01*
X124378500Y-121471592D01*
X124273883Y-121344116D01*
X124121537Y-121219089D01*
X123947725Y-121126185D01*
X123759132Y-121068975D01*
X123563000Y-121049658D01*
X123366867Y-121068975D01*
X123178274Y-121126185D01*
X123004462Y-121219089D01*
X122852116Y-121344116D01*
X122727089Y-121496462D01*
X122634185Y-121670274D01*
X122576975Y-121858867D01*
X122557658Y-122055000D01*
X122028341Y-122055000D01*
X122009024Y-121858868D01*
X121951814Y-121670273D01*
X121858910Y-121496462D01*
X121838500Y-121471592D01*
X121733883Y-121344116D01*
X121581537Y-121219089D01*
X121407725Y-121126185D01*
X121219132Y-121068975D01*
X121023000Y-121049658D01*
X120826867Y-121068975D01*
X120638274Y-121126185D01*
X120464462Y-121219089D01*
X120312116Y-121344116D01*
X120187089Y-121496462D01*
X120094185Y-121670274D01*
X120036975Y-121858867D01*
X120017658Y-122054999D01*
X119488341Y-122054999D01*
X119469024Y-121858868D01*
X119411814Y-121670273D01*
X119318910Y-121496462D01*
X119298500Y-121471592D01*
X119193883Y-121344116D01*
X119041537Y-121219089D01*
X118867725Y-121126185D01*
X118679132Y-121068975D01*
X118483000Y-121049658D01*
X118286867Y-121068975D01*
X118098274Y-121126185D01*
X117924462Y-121219089D01*
X117772116Y-121344116D01*
X117647089Y-121496462D01*
X117554185Y-121670274D01*
X117496975Y-121858867D01*
X117477658Y-122054999D01*
X116948341Y-122054999D01*
X116929024Y-121858868D01*
X116871814Y-121670273D01*
X116778910Y-121496462D01*
X116758500Y-121471592D01*
X116653883Y-121344116D01*
X116501537Y-121219089D01*
X116327725Y-121126185D01*
X116139132Y-121068975D01*
X115943000Y-121049658D01*
X115746867Y-121068975D01*
X115558274Y-121126185D01*
X115384462Y-121219089D01*
X115232116Y-121344116D01*
X115107089Y-121496462D01*
X115014185Y-121670274D01*
X114956975Y-121858867D01*
X114937658Y-122054999D01*
X114408341Y-122054999D01*
X114389024Y-121858868D01*
X114331814Y-121670273D01*
X114238910Y-121496462D01*
X114218500Y-121471592D01*
X114113883Y-121344116D01*
X113961537Y-121219089D01*
X113787725Y-121126185D01*
X113599132Y-121068975D01*
X113403000Y-121049658D01*
X113206867Y-121068975D01*
X113018274Y-121126185D01*
X112844462Y-121219089D01*
X112692116Y-121344116D01*
X112567089Y-121496462D01*
X112474185Y-121670274D01*
X112416975Y-121858867D01*
X112397658Y-122054999D01*
X111868341Y-122054999D01*
X111849024Y-121858868D01*
X111791814Y-121670273D01*
X111698910Y-121496462D01*
X111678500Y-121471592D01*
X111573883Y-121344116D01*
X111421537Y-121219089D01*
X111247725Y-121126185D01*
X111059132Y-121068975D01*
X110863000Y-121049658D01*
X110666867Y-121068975D01*
X110478274Y-121126185D01*
X110304462Y-121219089D01*
X110269434Y-121247837D01*
X110204924Y-121275490D01*
X110135628Y-121264341D01*
X110083049Y-121217848D01*
X110063500Y-121150438D01*
X110063500Y-115929450D01*
X110073091Y-115881232D01*
X110100405Y-115840355D01*
X116001259Y-109939500D01*
X118120579Y-107820179D01*
X118179057Y-107787052D01*
X118246248Y-107788701D01*
X118286868Y-107801024D01*
X118417622Y-107813902D01*
X118482999Y-107820341D01*
X118482999Y-107820340D01*
X118483000Y-107820341D01*
X118679132Y-107801024D01*
X118867727Y-107743814D01*
X119041538Y-107650910D01*
X119193883Y-107525883D01*
X119318910Y-107373538D01*
X119411814Y-107199727D01*
X119469024Y-107011132D01*
X119488341Y-106815000D01*
X120017658Y-106815000D01*
X120036975Y-107011132D01*
X120094185Y-107199725D01*
X120187089Y-107373537D01*
X120312116Y-107525883D01*
X120438722Y-107629786D01*
X120464462Y-107650910D01*
X120638273Y-107743814D01*
X120713978Y-107766779D01*
X120826867Y-107801024D01*
X121023000Y-107820341D01*
X121219132Y-107801024D01*
X121407727Y-107743814D01*
X121581538Y-107650910D01*
X121733883Y-107525883D01*
X121858910Y-107373538D01*
X121951814Y-107199727D01*
X122009024Y-107011132D01*
X122028341Y-106815000D01*
X122557658Y-106815000D01*
X122576975Y-107011132D01*
X122634185Y-107199725D01*
X122727089Y-107373537D01*
X122852116Y-107525883D01*
X122978722Y-107629786D01*
X123004462Y-107650910D01*
X123178273Y-107743814D01*
X123253978Y-107766779D01*
X123366867Y-107801024D01*
X123563000Y-107820341D01*
X123759132Y-107801024D01*
X123947727Y-107743814D01*
X124121538Y-107650910D01*
X124273883Y-107525883D01*
X124398910Y-107373538D01*
X124491814Y-107199727D01*
X124549024Y-107011132D01*
X124568341Y-106815000D01*
X125097658Y-106815000D01*
X125116975Y-107011132D01*
X125174185Y-107199725D01*
X125267089Y-107373537D01*
X125392116Y-107525883D01*
X125518722Y-107629786D01*
X125544462Y-107650910D01*
X125718273Y-107743814D01*
X125793978Y-107766779D01*
X125906867Y-107801024D01*
X126103000Y-107820341D01*
X126299132Y-107801024D01*
X126487727Y-107743814D01*
X126661538Y-107650910D01*
X126813883Y-107525883D01*
X126938910Y-107373538D01*
X127031814Y-107199727D01*
X127089024Y-107011132D01*
X127108341Y-106815000D01*
X127637658Y-106815000D01*
X127656975Y-107011132D01*
X127714185Y-107199725D01*
X127807089Y-107373537D01*
X127932116Y-107525883D01*
X128058722Y-107629786D01*
X128084462Y-107650910D01*
X128258273Y-107743814D01*
X128333978Y-107766779D01*
X128446867Y-107801024D01*
X128643000Y-107820341D01*
X128839132Y-107801024D01*
X129027727Y-107743814D01*
X129201538Y-107650910D01*
X129353883Y-107525883D01*
X129478910Y-107373538D01*
X129571814Y-107199727D01*
X129629024Y-107011132D01*
X129648341Y-106815000D01*
X130177658Y-106815000D01*
X130196975Y-107011132D01*
X130254185Y-107199725D01*
X130347089Y-107373537D01*
X130472116Y-107525883D01*
X130598722Y-107629786D01*
X130624462Y-107650910D01*
X130798273Y-107743814D01*
X130873978Y-107766779D01*
X130986867Y-107801024D01*
X131183000Y-107820341D01*
X131379132Y-107801024D01*
X131567727Y-107743814D01*
X131741538Y-107650910D01*
X131893883Y-107525883D01*
X132018910Y-107373538D01*
X132111814Y-107199727D01*
X132169024Y-107011132D01*
X132188341Y-106815000D01*
X132717658Y-106815000D01*
X132736975Y-107011132D01*
X132794185Y-107199725D01*
X132887089Y-107373537D01*
X133012116Y-107525883D01*
X133138722Y-107629786D01*
X133164462Y-107650910D01*
X133338273Y-107743814D01*
X133413978Y-107766779D01*
X133526867Y-107801024D01*
X133723000Y-107820341D01*
X133919132Y-107801024D01*
X134107727Y-107743814D01*
X134281538Y-107650910D01*
X134433883Y-107525883D01*
X134558910Y-107373538D01*
X134651814Y-107199727D01*
X134709024Y-107011132D01*
X134728341Y-106815000D01*
X135257658Y-106815000D01*
X135276975Y-107011132D01*
X135334185Y-107199725D01*
X135427089Y-107373537D01*
X135552116Y-107525883D01*
X135678722Y-107629786D01*
X135704462Y-107650910D01*
X135878273Y-107743814D01*
X135953978Y-107766779D01*
X136066867Y-107801024D01*
X136263000Y-107820341D01*
X136459132Y-107801024D01*
X136647727Y-107743814D01*
X136821538Y-107650910D01*
X136973883Y-107525883D01*
X137098910Y-107373538D01*
X137191814Y-107199727D01*
X137249024Y-107011132D01*
X137268341Y-106815000D01*
X137797658Y-106815000D01*
X137816975Y-107011132D01*
X137874185Y-107199725D01*
X137967089Y-107373537D01*
X138092116Y-107525883D01*
X138218722Y-107629786D01*
X138244462Y-107650910D01*
X138418273Y-107743814D01*
X138493978Y-107766779D01*
X138606867Y-107801024D01*
X138803000Y-107820341D01*
X138999132Y-107801024D01*
X139187727Y-107743814D01*
X139361538Y-107650910D01*
X139513883Y-107525883D01*
X139638910Y-107373538D01*
X139731814Y-107199727D01*
X139789024Y-107011132D01*
X139808341Y-106815000D01*
X139789024Y-106618868D01*
X139789023Y-106618866D01*
X139731814Y-106430274D01*
X139731814Y-106430273D01*
X139638910Y-106256462D01*
X139513883Y-106104116D01*
X139361537Y-105979089D01*
X139187725Y-105886185D01*
X138999132Y-105828975D01*
X138803000Y-105809658D01*
X138606867Y-105828975D01*
X138418274Y-105886185D01*
X138244462Y-105979089D01*
X138092116Y-106104116D01*
X137967089Y-106256462D01*
X137874185Y-106430274D01*
X137816975Y-106618867D01*
X137797658Y-106815000D01*
X137268341Y-106815000D01*
X137249024Y-106618868D01*
X137249023Y-106618866D01*
X137191814Y-106430274D01*
X137191814Y-106430273D01*
X137098910Y-106256462D01*
X136973883Y-106104116D01*
X136821537Y-105979089D01*
X136647725Y-105886185D01*
X136459132Y-105828975D01*
X136263000Y-105809658D01*
X136066867Y-105828975D01*
X135878274Y-105886185D01*
X135704462Y-105979089D01*
X135552116Y-106104116D01*
X135427089Y-106256462D01*
X135334185Y-106430274D01*
X135276975Y-106618867D01*
X135257658Y-106815000D01*
X134728341Y-106815000D01*
X134709024Y-106618868D01*
X134709023Y-106618866D01*
X134651814Y-106430274D01*
X134651814Y-106430273D01*
X134558910Y-106256462D01*
X134433883Y-106104116D01*
X134281537Y-105979089D01*
X134107725Y-105886185D01*
X133919132Y-105828975D01*
X133723000Y-105809658D01*
X133526867Y-105828975D01*
X133338274Y-105886185D01*
X133164462Y-105979089D01*
X133012116Y-106104116D01*
X132887089Y-106256462D01*
X132794185Y-106430274D01*
X132736975Y-106618867D01*
X132717658Y-106815000D01*
X132188341Y-106815000D01*
X132169024Y-106618868D01*
X132169023Y-106618866D01*
X132111814Y-106430274D01*
X132111814Y-106430273D01*
X132018910Y-106256462D01*
X131893883Y-106104116D01*
X131741537Y-105979089D01*
X131567725Y-105886185D01*
X131379132Y-105828975D01*
X131183000Y-105809658D01*
X130986867Y-105828975D01*
X130798274Y-105886185D01*
X130624462Y-105979089D01*
X130472116Y-106104116D01*
X130347089Y-106256462D01*
X130254185Y-106430274D01*
X130196975Y-106618867D01*
X130177658Y-106815000D01*
X129648341Y-106815000D01*
X129629024Y-106618868D01*
X129629023Y-106618866D01*
X129571814Y-106430274D01*
X129571814Y-106430273D01*
X129478910Y-106256462D01*
X129353883Y-106104116D01*
X129201537Y-105979089D01*
X129027725Y-105886185D01*
X128839132Y-105828975D01*
X128643000Y-105809658D01*
X128446867Y-105828975D01*
X128258274Y-105886185D01*
X128084462Y-105979089D01*
X127932116Y-106104116D01*
X127807089Y-106256462D01*
X127714185Y-106430274D01*
X127656975Y-106618867D01*
X127637658Y-106815000D01*
X127108341Y-106815000D01*
X127089024Y-106618868D01*
X127089023Y-106618866D01*
X127031814Y-106430274D01*
X127031814Y-106430273D01*
X126938910Y-106256462D01*
X126813883Y-106104116D01*
X126661537Y-105979089D01*
X126487725Y-105886185D01*
X126299132Y-105828975D01*
X126103000Y-105809658D01*
X125906867Y-105828975D01*
X125718274Y-105886185D01*
X125544462Y-105979089D01*
X125392116Y-106104116D01*
X125267089Y-106256462D01*
X125174185Y-106430274D01*
X125116975Y-106618867D01*
X125097658Y-106815000D01*
X124568341Y-106815000D01*
X124549024Y-106618868D01*
X124549023Y-106618866D01*
X124491814Y-106430274D01*
X124491814Y-106430273D01*
X124398910Y-106256462D01*
X124273883Y-106104116D01*
X124121537Y-105979089D01*
X123947725Y-105886185D01*
X123759132Y-105828975D01*
X123563000Y-105809658D01*
X123366867Y-105828975D01*
X123178274Y-105886185D01*
X123004462Y-105979089D01*
X122852116Y-106104116D01*
X122727089Y-106256462D01*
X122634185Y-106430274D01*
X122576975Y-106618867D01*
X122557658Y-106815000D01*
X122028341Y-106815000D01*
X122009024Y-106618868D01*
X122009023Y-106618866D01*
X121951814Y-106430274D01*
X121951814Y-106430273D01*
X121858910Y-106256462D01*
X121733883Y-106104116D01*
X121581537Y-105979089D01*
X121407725Y-105886185D01*
X121219132Y-105828975D01*
X121023000Y-105809658D01*
X120826867Y-105828975D01*
X120638274Y-105886185D01*
X120464462Y-105979089D01*
X120312116Y-106104116D01*
X120187089Y-106256462D01*
X120094185Y-106430274D01*
X120036975Y-106618867D01*
X120017658Y-106815000D01*
X119488341Y-106815000D01*
X119469024Y-106618868D01*
X119469023Y-106618866D01*
X119411814Y-106430274D01*
X119411814Y-106430273D01*
X119318910Y-106256462D01*
X119193883Y-106104116D01*
X119041537Y-105979089D01*
X118867725Y-105886185D01*
X118679132Y-105828975D01*
X118483000Y-105809658D01*
X118286867Y-105828975D01*
X118098274Y-105886185D01*
X117924462Y-105979089D01*
X117772116Y-106104116D01*
X117647089Y-106256462D01*
X117554185Y-106430274D01*
X117496975Y-106618867D01*
X117477658Y-106815000D01*
X117496975Y-107011130D01*
X117509297Y-107051748D01*
X117510947Y-107118940D01*
X117477818Y-107177420D01*
X109310676Y-115344561D01*
X109300143Y-115353975D01*
X109272063Y-115376368D01*
X109239584Y-115424006D01*
X109236861Y-115427843D01*
X109198975Y-115479180D01*
X109196697Y-115483691D01*
X109177889Y-115544667D01*
X109176416Y-115549142D01*
X109155346Y-115609355D01*
X109154500Y-115614339D01*
X109154500Y-115678132D01*
X109154412Y-115682843D01*
X109152025Y-115746628D01*
X109154500Y-115765426D01*
X109154500Y-121176700D01*
X109134951Y-121244110D01*
X109082372Y-121290603D01*
X109013076Y-121301752D01*
X108948566Y-121274099D01*
X108881537Y-121219089D01*
X108707725Y-121126185D01*
X108519132Y-121068975D01*
X108323000Y-121049658D01*
X108126867Y-121068975D01*
X107938274Y-121126185D01*
X107764462Y-121219089D01*
X107729434Y-121247837D01*
X107664924Y-121275490D01*
X107595628Y-121264341D01*
X107543049Y-121217848D01*
X107523500Y-121150438D01*
X107523500Y-110849450D01*
X107533091Y-110801232D01*
X107560405Y-110760355D01*
X108274971Y-110045789D01*
X110500579Y-107820179D01*
X110559057Y-107787052D01*
X110626248Y-107788701D01*
X110666868Y-107801024D01*
X110797622Y-107813902D01*
X110862999Y-107820341D01*
X110862999Y-107820340D01*
X110863000Y-107820341D01*
X111059132Y-107801024D01*
X111247727Y-107743814D01*
X111421538Y-107650910D01*
X111573883Y-107525883D01*
X111698910Y-107373538D01*
X111791814Y-107199727D01*
X111849024Y-107011132D01*
X111868341Y-106815000D01*
X111849024Y-106618868D01*
X111849023Y-106618866D01*
X111791814Y-106430274D01*
X111791814Y-106430273D01*
X111698910Y-106256462D01*
X111573883Y-106104116D01*
X111421537Y-105979089D01*
X111247725Y-105886185D01*
X111059132Y-105828975D01*
X110863000Y-105809658D01*
X110666867Y-105828975D01*
X110478274Y-105886185D01*
X110304462Y-105979089D01*
X110152116Y-106104116D01*
X110027089Y-106256462D01*
X109934185Y-106430274D01*
X109876975Y-106618867D01*
X109857658Y-106815000D01*
X109876975Y-107011130D01*
X109889297Y-107051748D01*
X109890947Y-107118940D01*
X109857818Y-107177420D01*
X106770676Y-110264561D01*
X106760143Y-110273975D01*
X106732063Y-110296368D01*
X106699584Y-110344006D01*
X106696861Y-110347843D01*
X106658975Y-110399180D01*
X106656697Y-110403691D01*
X106637889Y-110464667D01*
X106636416Y-110469142D01*
X106615346Y-110529355D01*
X106614500Y-110534339D01*
X106614500Y-110598132D01*
X106614412Y-110602843D01*
X106612025Y-110666628D01*
X106614500Y-110685426D01*
X106614500Y-120928500D01*
X106597619Y-120991500D01*
X106551500Y-121037619D01*
X106488500Y-121054500D01*
X104963252Y-121054500D01*
X104934010Y-121060316D01*
X104904768Y-121066133D01*
X104838447Y-121110447D01*
X104794133Y-121176768D01*
X104782500Y-121235253D01*
X104782500Y-122360550D01*
X104772909Y-122408768D01*
X104745595Y-122449645D01*
X99642676Y-127552561D01*
X99632143Y-127561975D01*
X99604063Y-127584368D01*
X99571584Y-127632006D01*
X99568861Y-127635843D01*
X99530975Y-127687180D01*
X99528697Y-127691691D01*
X99509889Y-127752667D01*
X99508416Y-127757142D01*
X99487346Y-127817355D01*
X99486500Y-127822339D01*
X99486500Y-127886132D01*
X99486412Y-127890843D01*
X99484025Y-127954628D01*
X99486500Y-127973426D01*
X99486500Y-134493265D01*
X99468574Y-134558042D01*
X99419896Y-134604386D01*
X99394744Y-134617830D01*
X99354551Y-134639314D01*
X99194589Y-134770589D01*
X99063314Y-134930550D01*
X98965769Y-135113043D01*
X98965769Y-135113044D01*
X98965768Y-135113046D01*
X98927210Y-135240158D01*
X98905699Y-135311070D01*
X98885416Y-135517000D01*
X98451500Y-135517000D01*
X98451500Y-134647252D01*
X98439867Y-134588769D01*
X98408462Y-134541769D01*
X98395552Y-134522447D01*
X98329231Y-134478133D01*
X98298001Y-134471921D01*
X98270748Y-134466500D01*
X98270747Y-134466500D01*
X97045451Y-134466500D01*
X96997233Y-134456909D01*
X96956356Y-134429595D01*
X96622405Y-134095644D01*
X96595091Y-134054767D01*
X96585500Y-134006549D01*
X96585500Y-119024187D01*
X96941686Y-119024187D01*
X96952400Y-119080809D01*
X96953189Y-119085451D01*
X96962704Y-119148576D01*
X96964276Y-119153352D01*
X96967158Y-119158806D01*
X96967159Y-119158807D01*
X96994105Y-119209792D01*
X96996216Y-119213975D01*
X97023909Y-119271480D01*
X97026815Y-119275575D01*
X97031179Y-119279939D01*
X97031180Y-119279940D01*
X97071948Y-119320708D01*
X97075191Y-119324074D01*
X97114423Y-119366356D01*
X97114425Y-119366357D01*
X97118624Y-119370882D01*
X97133661Y-119382421D01*
X98580556Y-120829316D01*
X98589972Y-120839851D01*
X98612369Y-120867936D01*
X98660021Y-120900424D01*
X98663841Y-120903134D01*
X98698210Y-120928500D01*
X98715197Y-120941037D01*
X98719674Y-120943296D01*
X98725570Y-120945114D01*
X98725572Y-120945116D01*
X98780679Y-120962114D01*
X98785140Y-120963582D01*
X98845376Y-120984659D01*
X98850323Y-120985500D01*
X98856495Y-120985500D01*
X98914158Y-120985500D01*
X98918868Y-120985587D01*
X98976462Y-120987743D01*
X98976464Y-120987742D01*
X98982631Y-120987973D01*
X99001422Y-120985500D01*
X101940392Y-120985500D01*
X101954497Y-120986291D01*
X101990186Y-120990313D01*
X102046871Y-120979586D01*
X102051451Y-120978808D01*
X102108479Y-120970214D01*
X102108480Y-120970213D01*
X102114594Y-120969292D01*
X102119336Y-120967732D01*
X102124805Y-120964841D01*
X102124807Y-120964841D01*
X102175791Y-120937893D01*
X102179955Y-120935791D01*
X102231921Y-120910767D01*
X102231924Y-120910763D01*
X102237497Y-120908080D01*
X102241564Y-120905195D01*
X102245937Y-120900821D01*
X102245940Y-120900820D01*
X102286720Y-120860038D01*
X102290058Y-120856822D01*
X102332356Y-120817577D01*
X102332357Y-120817573D01*
X102336883Y-120813375D01*
X102348421Y-120798337D01*
X106081327Y-117065431D01*
X106091857Y-117056022D01*
X106119936Y-117033631D01*
X106152440Y-116985954D01*
X106155124Y-116982172D01*
X106193040Y-116930800D01*
X106195293Y-116926335D01*
X106197114Y-116920430D01*
X106197116Y-116920428D01*
X106214110Y-116865328D01*
X106215580Y-116860865D01*
X106236661Y-116800620D01*
X106237500Y-116795683D01*
X106237500Y-116731868D01*
X106237588Y-116727157D01*
X106239744Y-116669537D01*
X106239743Y-116669534D01*
X106239974Y-116663371D01*
X106237500Y-116644574D01*
X106237500Y-107782041D01*
X106255426Y-107717264D01*
X106304104Y-107670919D01*
X106341538Y-107650910D01*
X106493883Y-107525883D01*
X106537221Y-107473076D01*
X106618910Y-107373538D01*
X106711814Y-107199727D01*
X106769024Y-107011132D01*
X106788341Y-106815000D01*
X107317658Y-106815000D01*
X107336975Y-107011132D01*
X107394185Y-107199725D01*
X107487089Y-107373537D01*
X107612116Y-107525883D01*
X107738722Y-107629786D01*
X107764462Y-107650910D01*
X107938273Y-107743814D01*
X108013978Y-107766779D01*
X108126867Y-107801024D01*
X108323000Y-107820341D01*
X108519132Y-107801024D01*
X108707727Y-107743814D01*
X108881538Y-107650910D01*
X109033883Y-107525883D01*
X109158910Y-107373538D01*
X109251814Y-107199727D01*
X109309024Y-107011132D01*
X109328341Y-106815000D01*
X109309024Y-106618868D01*
X109309023Y-106618866D01*
X109251814Y-106430274D01*
X109251814Y-106430273D01*
X109158910Y-106256462D01*
X109033883Y-106104116D01*
X108881537Y-105979089D01*
X108707725Y-105886185D01*
X108519132Y-105828975D01*
X108323000Y-105809658D01*
X108126867Y-105828975D01*
X107938274Y-105886185D01*
X107764462Y-105979089D01*
X107612116Y-106104116D01*
X107487089Y-106256462D01*
X107394185Y-106430274D01*
X107336975Y-106618867D01*
X107317658Y-106815000D01*
X106788341Y-106815000D01*
X106769024Y-106618868D01*
X106769023Y-106618866D01*
X106711814Y-106430274D01*
X106711814Y-106430273D01*
X106618910Y-106256462D01*
X106493883Y-106104116D01*
X106341537Y-105979089D01*
X106167725Y-105886185D01*
X105979132Y-105828975D01*
X105783000Y-105809658D01*
X105586867Y-105828975D01*
X105398274Y-105886185D01*
X105224462Y-105979089D01*
X105072116Y-106104116D01*
X104947089Y-106256462D01*
X104854185Y-106430274D01*
X104796975Y-106618867D01*
X104777658Y-106815000D01*
X104796975Y-107011132D01*
X104854185Y-107199725D01*
X104947089Y-107373537D01*
X105072116Y-107525883D01*
X105224461Y-107650910D01*
X105261896Y-107670919D01*
X105310574Y-107717264D01*
X105328500Y-107782041D01*
X105328500Y-116480550D01*
X105318909Y-116528768D01*
X105291595Y-116569645D01*
X101821644Y-120039595D01*
X101780767Y-120066909D01*
X101732549Y-120076500D01*
X99165451Y-120076500D01*
X99117233Y-120066909D01*
X99076355Y-120039595D01*
X98820418Y-119783657D01*
X98788939Y-119731138D01*
X98785935Y-119669980D01*
X98812115Y-119614628D01*
X98861296Y-119578153D01*
X98910855Y-119557625D01*
X98973842Y-119531536D01*
X99099282Y-119435282D01*
X99205635Y-119296681D01*
X99208168Y-119298624D01*
X99224168Y-119276602D01*
X99276585Y-119249894D01*
X99335415Y-119249894D01*
X99387832Y-119276602D01*
X99403831Y-119298624D01*
X99406365Y-119296681D01*
X99512717Y-119435282D01*
X99638157Y-119531535D01*
X99638158Y-119531535D01*
X99638159Y-119531536D01*
X99784238Y-119592044D01*
X99941000Y-119612682D01*
X100097762Y-119592044D01*
X100243841Y-119531536D01*
X100369282Y-119435282D01*
X100465536Y-119309841D01*
X100526044Y-119163762D01*
X100546682Y-119007000D01*
X100526044Y-118850238D01*
X100465536Y-118704159D01*
X100421537Y-118646818D01*
X100402187Y-118610615D01*
X100395500Y-118570114D01*
X100395500Y-109341450D01*
X100405091Y-109293232D01*
X100432405Y-109252355D01*
X104156356Y-105528405D01*
X104197233Y-105501091D01*
X104245451Y-105491500D01*
X111384550Y-105491500D01*
X111432768Y-105501091D01*
X111473645Y-105528405D01*
X112397817Y-106452577D01*
X112430946Y-106511055D01*
X112429297Y-106578245D01*
X112416975Y-106618866D01*
X112397658Y-106815000D01*
X112416975Y-107011132D01*
X112474185Y-107199725D01*
X112567089Y-107373537D01*
X112692116Y-107525883D01*
X112818722Y-107629786D01*
X112844462Y-107650910D01*
X113018273Y-107743814D01*
X113093978Y-107766779D01*
X113206867Y-107801024D01*
X113403000Y-107820341D01*
X113599132Y-107801024D01*
X113787727Y-107743814D01*
X113961538Y-107650910D01*
X114113883Y-107525883D01*
X114238910Y-107373538D01*
X114331814Y-107199727D01*
X114389024Y-107011132D01*
X114408341Y-106815000D01*
X114389024Y-106618868D01*
X114389023Y-106618866D01*
X114331814Y-106430274D01*
X114331814Y-106430273D01*
X114238910Y-106256462D01*
X114113883Y-106104116D01*
X113961537Y-105979089D01*
X113787725Y-105886185D01*
X113599132Y-105828975D01*
X113403000Y-105809658D01*
X113206866Y-105828975D01*
X113166245Y-105841297D01*
X113099055Y-105842946D01*
X113040577Y-105809817D01*
X111969434Y-104738673D01*
X111960018Y-104728137D01*
X111925790Y-104685216D01*
X111927059Y-104684203D01*
X111904046Y-104657862D01*
X111890864Y-104595847D01*
X111909551Y-104535264D01*
X111955376Y-104491451D01*
X112016737Y-104475500D01*
X112908550Y-104475500D01*
X112956768Y-104485091D01*
X112997645Y-104512405D01*
X114937817Y-106452577D01*
X114970946Y-106511055D01*
X114969297Y-106578245D01*
X114956975Y-106618866D01*
X114937658Y-106815000D01*
X114956975Y-107011132D01*
X115014185Y-107199725D01*
X115107089Y-107373537D01*
X115232116Y-107525883D01*
X115358722Y-107629786D01*
X115384462Y-107650910D01*
X115558273Y-107743814D01*
X115633978Y-107766779D01*
X115746867Y-107801024D01*
X115943000Y-107820341D01*
X116139132Y-107801024D01*
X116327727Y-107743814D01*
X116501538Y-107650910D01*
X116653883Y-107525883D01*
X116778910Y-107373538D01*
X116871814Y-107199727D01*
X116929024Y-107011132D01*
X116948341Y-106815000D01*
X116929024Y-106618868D01*
X116929023Y-106618866D01*
X116871814Y-106430274D01*
X116871814Y-106430273D01*
X116778910Y-106256462D01*
X116653883Y-106104116D01*
X116501537Y-105979089D01*
X116327725Y-105886185D01*
X116139132Y-105828975D01*
X115943000Y-105809658D01*
X115746866Y-105828975D01*
X115706245Y-105841297D01*
X115639055Y-105842946D01*
X115580577Y-105809817D01*
X114553760Y-104783000D01*
X113493434Y-103722673D01*
X113484018Y-103712137D01*
X113449790Y-103669216D01*
X113451059Y-103668203D01*
X113428046Y-103641862D01*
X113414864Y-103579847D01*
X113433551Y-103519264D01*
X113479376Y-103475451D01*
X113540737Y-103459500D01*
X141610550Y-103459500D01*
X141658768Y-103469091D01*
X141699645Y-103496405D01*
X144655817Y-106452577D01*
X144688946Y-106511055D01*
X144687297Y-106578245D01*
X144674975Y-106618866D01*
X144655658Y-106815000D01*
X144674975Y-107011132D01*
X144732185Y-107199725D01*
X144825089Y-107373537D01*
X144950116Y-107525883D01*
X145076722Y-107629786D01*
X145102462Y-107650910D01*
X145276273Y-107743814D01*
X145351978Y-107766779D01*
X145464867Y-107801024D01*
X145661000Y-107820341D01*
X145857132Y-107801024D01*
X146045727Y-107743814D01*
X146219538Y-107650910D01*
X146371883Y-107525883D01*
X146496910Y-107373538D01*
X146589814Y-107199727D01*
X146647024Y-107011132D01*
X146666341Y-106815000D01*
X146647024Y-106618868D01*
X146647023Y-106618866D01*
X146589814Y-106430274D01*
X146589814Y-106430273D01*
X146496910Y-106256462D01*
X146371883Y-106104116D01*
X146219537Y-105979089D01*
X146045725Y-105886185D01*
X145857132Y-105828975D01*
X145661000Y-105809658D01*
X145464866Y-105828975D01*
X145424245Y-105841297D01*
X145357055Y-105842946D01*
X145298577Y-105809817D01*
X143747224Y-104258464D01*
X142195434Y-102706673D01*
X142186018Y-102696137D01*
X142163631Y-102668064D01*
X142143179Y-102654120D01*
X142115983Y-102635577D01*
X142112143Y-102632852D01*
X142060812Y-102594969D01*
X142056317Y-102592700D01*
X141995341Y-102573892D01*
X141990863Y-102572419D01*
X141987262Y-102571159D01*
X141947351Y-102557193D01*
X141930639Y-102551345D01*
X141925663Y-102550500D01*
X141919505Y-102550500D01*
X141861868Y-102550500D01*
X141857157Y-102550412D01*
X141793371Y-102548025D01*
X141774574Y-102550500D01*
X102513609Y-102550500D01*
X102499502Y-102549708D01*
X102486615Y-102548256D01*
X102463814Y-102545687D01*
X102463813Y-102545687D01*
X102407163Y-102556405D01*
X102402521Y-102557193D01*
X102339432Y-102566702D01*
X102334642Y-102568279D01*
X102278216Y-102598100D01*
X102274013Y-102600221D01*
X102216530Y-102627904D01*
X102212415Y-102630823D01*
X102167301Y-102675937D01*
X102163911Y-102679202D01*
X102117123Y-102722616D01*
X102105581Y-102737657D01*
X97102676Y-107740561D01*
X97092143Y-107749975D01*
X97064063Y-107772368D01*
X97031584Y-107820006D01*
X97028861Y-107823843D01*
X96990975Y-107875180D01*
X96988697Y-107879691D01*
X96969889Y-107940667D01*
X96968416Y-107945142D01*
X96947346Y-108005355D01*
X96946500Y-108010339D01*
X96946500Y-108074132D01*
X96946412Y-108078843D01*
X96944025Y-108142628D01*
X96946500Y-108161426D01*
X96946500Y-118974391D01*
X96945708Y-118988498D01*
X96941686Y-119024187D01*
X96585500Y-119024187D01*
X96585500Y-98165450D01*
X96595091Y-98117232D01*
X96622405Y-98076355D01*
X101454355Y-93244405D01*
X101495232Y-93217091D01*
X101543450Y-93207500D01*
X147527929Y-93207500D01*
X147587325Y-93222378D01*
X147632694Y-93263498D01*
X147653322Y-93321150D01*
X147644338Y-93381718D01*
X147615955Y-93450238D01*
X147595318Y-93607000D01*
X147615955Y-93763761D01*
X147676463Y-93909840D01*
X147720463Y-93967182D01*
X147739813Y-94003385D01*
X147746500Y-94043886D01*
X147746500Y-105847959D01*
X147728574Y-105912736D01*
X147679896Y-105959081D01*
X147642461Y-105979089D01*
X147490116Y-106104116D01*
X147365089Y-106256462D01*
X147272185Y-106430274D01*
X147214975Y-106618867D01*
X147195658Y-106814999D01*
X147214975Y-107011130D01*
X147227297Y-107051748D01*
X147228947Y-107118940D01*
X147195818Y-107177420D01*
X144058676Y-110314561D01*
X144048143Y-110323975D01*
X144020063Y-110346368D01*
X143987584Y-110394006D01*
X143984861Y-110397843D01*
X143946975Y-110449180D01*
X143944697Y-110453691D01*
X143925889Y-110514667D01*
X143924416Y-110519142D01*
X143903346Y-110579355D01*
X143902500Y-110584339D01*
X143902500Y-110648132D01*
X143902412Y-110652843D01*
X143900025Y-110716628D01*
X143902500Y-110735426D01*
X143902500Y-134180391D01*
X143901708Y-134194498D01*
X143897686Y-134230187D01*
X143908400Y-134286809D01*
X143909189Y-134291451D01*
X143918704Y-134354576D01*
X143920276Y-134359352D01*
X143923158Y-134364806D01*
X143923159Y-134364807D01*
X143950105Y-134415792D01*
X143952216Y-134419975D01*
X143979909Y-134477480D01*
X143982815Y-134481575D01*
X143987179Y-134485939D01*
X143987180Y-134485940D01*
X144027948Y-134526708D01*
X144031191Y-134530074D01*
X144070423Y-134572356D01*
X144070425Y-134572357D01*
X144074624Y-134576882D01*
X144089661Y-134588421D01*
X144615729Y-135114489D01*
X144648858Y-135172968D01*
X144647209Y-135240159D01*
X144625699Y-135311068D01*
X144605416Y-135516999D01*
X144625699Y-135722929D01*
X144625699Y-135722931D01*
X144625700Y-135722934D01*
X144685767Y-135920951D01*
X144685769Y-135920956D01*
X144783314Y-136103449D01*
X144914589Y-136263410D01*
X145064877Y-136386747D01*
X145074550Y-136394685D01*
X145257046Y-136492232D01*
X145455066Y-136552300D01*
X145661000Y-136572583D01*
X145866934Y-136552300D01*
X146064954Y-136492232D01*
X146247450Y-136394685D01*
X146407410Y-136263410D01*
X146538685Y-136103450D01*
X146636232Y-135920954D01*
X146696300Y-135722934D01*
X146716583Y-135517000D01*
X146716583Y-135516999D01*
X147145416Y-135516999D01*
X147165699Y-135722929D01*
X147165699Y-135722931D01*
X147165700Y-135722934D01*
X147225767Y-135920951D01*
X147225769Y-135920956D01*
X147323314Y-136103449D01*
X147454589Y-136263410D01*
X147604877Y-136386747D01*
X147614550Y-136394685D01*
X147797046Y-136492232D01*
X147995066Y-136552300D01*
X148201000Y-136572583D01*
X148406934Y-136552300D01*
X148604954Y-136492232D01*
X148787450Y-136394685D01*
X148947410Y-136263410D01*
X149078685Y-136103450D01*
X149176232Y-135920954D01*
X149236300Y-135722934D01*
X149256583Y-135517000D01*
X149236300Y-135311066D01*
X149176232Y-135113046D01*
X149078685Y-134930550D01*
X149027722Y-134868451D01*
X148947410Y-134770589D01*
X148787449Y-134639314D01*
X148604956Y-134541769D01*
X148604955Y-134541768D01*
X148604954Y-134541768D01*
X148406934Y-134481700D01*
X148406931Y-134481699D01*
X148406929Y-134481699D01*
X148201000Y-134461416D01*
X147995070Y-134481699D01*
X147995067Y-134481699D01*
X147995066Y-134481700D01*
X147816259Y-134535940D01*
X147797043Y-134541769D01*
X147614550Y-134639314D01*
X147454589Y-134770589D01*
X147323314Y-134930550D01*
X147225769Y-135113043D01*
X147225769Y-135113044D01*
X147225768Y-135113046D01*
X147187210Y-135240158D01*
X147165699Y-135311070D01*
X147145416Y-135516999D01*
X146716583Y-135516999D01*
X146696300Y-135311066D01*
X146636232Y-135113046D01*
X146538685Y-134930550D01*
X146487722Y-134868451D01*
X146407410Y-134770589D01*
X146247449Y-134639314D01*
X146064956Y-134541769D01*
X146064955Y-134541768D01*
X146064954Y-134541768D01*
X145866934Y-134481700D01*
X145866931Y-134481699D01*
X145866929Y-134481699D01*
X145661000Y-134461416D01*
X145455066Y-134481699D01*
X145384158Y-134503208D01*
X145316967Y-134504857D01*
X145258489Y-134471728D01*
X144848405Y-134061644D01*
X144821091Y-134020767D01*
X144811500Y-133972549D01*
X144811500Y-123181500D01*
X144828381Y-123118500D01*
X144874500Y-123072381D01*
X144937500Y-123055500D01*
X146480747Y-123055500D01*
X146480748Y-123055500D01*
X146539231Y-123043867D01*
X146605552Y-122999552D01*
X146649867Y-122933231D01*
X146661500Y-122874748D01*
X146661500Y-122055000D01*
X147195658Y-122055000D01*
X147214975Y-122251132D01*
X147272185Y-122439725D01*
X147365089Y-122613537D01*
X147490116Y-122765883D01*
X147607434Y-122862163D01*
X147642462Y-122890910D01*
X147816273Y-122983814D01*
X147868154Y-122999552D01*
X148004867Y-123041024D01*
X148201000Y-123060341D01*
X148397132Y-123041024D01*
X148585727Y-122983814D01*
X148759538Y-122890910D01*
X148826566Y-122835900D01*
X148891076Y-122808248D01*
X148960372Y-122819397D01*
X149012951Y-122865890D01*
X149032500Y-122933300D01*
X149032500Y-134230391D01*
X149031708Y-134244498D01*
X149027686Y-134280187D01*
X149038400Y-134336809D01*
X149039189Y-134341451D01*
X149048704Y-134404576D01*
X149050276Y-134409352D01*
X149053158Y-134414806D01*
X149053159Y-134414807D01*
X149080105Y-134465792D01*
X149082216Y-134469975D01*
X149109909Y-134527480D01*
X149112815Y-134531575D01*
X149117179Y-134535939D01*
X149117180Y-134535940D01*
X149157948Y-134576708D01*
X149161191Y-134580074D01*
X149200423Y-134622356D01*
X149200425Y-134622357D01*
X149204624Y-134626882D01*
X149219661Y-134638421D01*
X149695729Y-135114489D01*
X149728858Y-135172968D01*
X149727209Y-135240159D01*
X149705699Y-135311068D01*
X149685416Y-135516999D01*
X149705699Y-135722929D01*
X149705699Y-135722931D01*
X149705700Y-135722934D01*
X149765767Y-135920951D01*
X149765769Y-135920956D01*
X149863314Y-136103449D01*
X149994589Y-136263410D01*
X150144877Y-136386747D01*
X150154550Y-136394685D01*
X150337046Y-136492232D01*
X150535066Y-136552300D01*
X150741000Y-136572583D01*
X150946934Y-136552300D01*
X151144954Y-136492232D01*
X151327450Y-136394685D01*
X151487410Y-136263410D01*
X151618685Y-136103450D01*
X151716232Y-135920954D01*
X151776300Y-135722934D01*
X151796583Y-135517000D01*
X151796583Y-135516999D01*
X152225416Y-135516999D01*
X152245699Y-135722929D01*
X152245699Y-135722931D01*
X152245700Y-135722934D01*
X152305767Y-135920951D01*
X152305769Y-135920956D01*
X152403314Y-136103449D01*
X152534589Y-136263410D01*
X152684877Y-136386747D01*
X152694550Y-136394685D01*
X152877046Y-136492232D01*
X153075066Y-136552300D01*
X153281000Y-136572583D01*
X153486934Y-136552300D01*
X153684954Y-136492232D01*
X153867450Y-136394685D01*
X154027410Y-136263410D01*
X154158685Y-136103450D01*
X154256232Y-135920954D01*
X154316300Y-135722934D01*
X154336583Y-135517000D01*
X154336583Y-135516999D01*
X154765416Y-135516999D01*
X154785699Y-135722929D01*
X154785699Y-135722931D01*
X154785700Y-135722934D01*
X154845767Y-135920951D01*
X154845769Y-135920956D01*
X154943314Y-136103449D01*
X155074589Y-136263410D01*
X155224877Y-136386747D01*
X155234550Y-136394685D01*
X155417046Y-136492232D01*
X155615066Y-136552300D01*
X155821000Y-136572583D01*
X156026934Y-136552300D01*
X156224954Y-136492232D01*
X156407450Y-136394685D01*
X156567410Y-136263410D01*
X156698685Y-136103450D01*
X156796232Y-135920954D01*
X156856300Y-135722934D01*
X156876583Y-135517000D01*
X156876583Y-135516999D01*
X157305416Y-135516999D01*
X157325699Y-135722929D01*
X157325699Y-135722931D01*
X157325700Y-135722934D01*
X157385767Y-135920951D01*
X157385769Y-135920956D01*
X157483314Y-136103449D01*
X157614589Y-136263410D01*
X157764877Y-136386747D01*
X157774550Y-136394685D01*
X157957046Y-136492232D01*
X158155066Y-136552300D01*
X158361000Y-136572583D01*
X158566934Y-136552300D01*
X158764954Y-136492232D01*
X158947450Y-136394685D01*
X159107410Y-136263410D01*
X159238685Y-136103450D01*
X159336232Y-135920954D01*
X159396300Y-135722934D01*
X159416583Y-135517000D01*
X159416583Y-135516999D01*
X159845416Y-135516999D01*
X159865699Y-135722929D01*
X159865699Y-135722931D01*
X159865700Y-135722934D01*
X159925767Y-135920951D01*
X159925769Y-135920956D01*
X160023314Y-136103449D01*
X160154589Y-136263410D01*
X160304877Y-136386747D01*
X160314550Y-136394685D01*
X160497046Y-136492232D01*
X160695066Y-136552300D01*
X160901000Y-136572583D01*
X161106934Y-136552300D01*
X161304954Y-136492232D01*
X161487450Y-136394685D01*
X161647410Y-136263410D01*
X161778685Y-136103450D01*
X161876232Y-135920954D01*
X161936300Y-135722934D01*
X161956583Y-135517000D01*
X161956583Y-135516999D01*
X162385416Y-135516999D01*
X162405699Y-135722929D01*
X162405699Y-135722931D01*
X162405700Y-135722934D01*
X162465767Y-135920951D01*
X162465769Y-135920956D01*
X162563314Y-136103449D01*
X162694589Y-136263410D01*
X162844877Y-136386747D01*
X162854550Y-136394685D01*
X163037046Y-136492232D01*
X163235066Y-136552300D01*
X163441000Y-136572583D01*
X163646934Y-136552300D01*
X163844954Y-136492232D01*
X164027450Y-136394685D01*
X164187410Y-136263410D01*
X164318685Y-136103450D01*
X164416232Y-135920954D01*
X164476300Y-135722934D01*
X164496583Y-135517000D01*
X164496583Y-135516999D01*
X164925416Y-135516999D01*
X164945699Y-135722929D01*
X164945699Y-135722931D01*
X164945700Y-135722934D01*
X165005767Y-135920951D01*
X165005769Y-135920956D01*
X165103314Y-136103449D01*
X165234589Y-136263410D01*
X165384877Y-136386747D01*
X165394550Y-136394685D01*
X165577046Y-136492232D01*
X165775066Y-136552300D01*
X165981000Y-136572583D01*
X166186934Y-136552300D01*
X166384954Y-136492232D01*
X166567450Y-136394685D01*
X166727410Y-136263410D01*
X166858685Y-136103450D01*
X166956232Y-135920954D01*
X167016300Y-135722934D01*
X167036583Y-135517000D01*
X167016300Y-135311066D01*
X166956232Y-135113046D01*
X166858685Y-134930550D01*
X166807722Y-134868451D01*
X166727410Y-134770589D01*
X166567449Y-134639314D01*
X166384956Y-134541769D01*
X166384955Y-134541768D01*
X166384954Y-134541768D01*
X166186934Y-134481700D01*
X166186931Y-134481699D01*
X166186929Y-134481699D01*
X165981000Y-134461416D01*
X165775070Y-134481699D01*
X165775067Y-134481699D01*
X165775066Y-134481700D01*
X165596259Y-134535940D01*
X165577043Y-134541769D01*
X165394550Y-134639314D01*
X165234589Y-134770589D01*
X165103314Y-134930550D01*
X165005769Y-135113043D01*
X165005769Y-135113044D01*
X165005768Y-135113046D01*
X164967210Y-135240158D01*
X164945699Y-135311070D01*
X164925416Y-135516999D01*
X164496583Y-135516999D01*
X164476300Y-135311066D01*
X164416232Y-135113046D01*
X164318685Y-134930550D01*
X164267722Y-134868451D01*
X164187410Y-134770589D01*
X164027449Y-134639314D01*
X163844956Y-134541769D01*
X163844955Y-134541768D01*
X163844954Y-134541768D01*
X163646934Y-134481700D01*
X163646931Y-134481699D01*
X163646929Y-134481699D01*
X163441000Y-134461416D01*
X163235070Y-134481699D01*
X163235067Y-134481699D01*
X163235066Y-134481700D01*
X163056259Y-134535940D01*
X163037043Y-134541769D01*
X162854550Y-134639314D01*
X162694589Y-134770589D01*
X162563314Y-134930550D01*
X162465769Y-135113043D01*
X162465769Y-135113044D01*
X162465768Y-135113046D01*
X162427210Y-135240158D01*
X162405699Y-135311070D01*
X162385416Y-135516999D01*
X161956583Y-135516999D01*
X161936300Y-135311066D01*
X161876232Y-135113046D01*
X161778685Y-134930550D01*
X161727722Y-134868451D01*
X161647410Y-134770589D01*
X161487449Y-134639314D01*
X161304956Y-134541769D01*
X161304955Y-134541768D01*
X161304954Y-134541768D01*
X161106934Y-134481700D01*
X161106931Y-134481699D01*
X161106929Y-134481699D01*
X160901000Y-134461416D01*
X160695070Y-134481699D01*
X160695067Y-134481699D01*
X160695066Y-134481700D01*
X160516259Y-134535940D01*
X160497043Y-134541769D01*
X160314550Y-134639314D01*
X160154589Y-134770589D01*
X160023314Y-134930550D01*
X159925769Y-135113043D01*
X159925769Y-135113044D01*
X159925768Y-135113046D01*
X159887210Y-135240158D01*
X159865699Y-135311070D01*
X159845416Y-135516999D01*
X159416583Y-135516999D01*
X159396300Y-135311066D01*
X159336232Y-135113046D01*
X159238685Y-134930550D01*
X159187722Y-134868451D01*
X159107410Y-134770589D01*
X158947449Y-134639314D01*
X158764956Y-134541769D01*
X158764955Y-134541768D01*
X158764954Y-134541768D01*
X158566934Y-134481700D01*
X158566931Y-134481699D01*
X158566929Y-134481699D01*
X158361000Y-134461416D01*
X158155070Y-134481699D01*
X158155067Y-134481699D01*
X158155066Y-134481700D01*
X157976259Y-134535940D01*
X157957043Y-134541769D01*
X157774550Y-134639314D01*
X157614589Y-134770589D01*
X157483314Y-134930550D01*
X157385769Y-135113043D01*
X157385769Y-135113044D01*
X157385768Y-135113046D01*
X157347210Y-135240158D01*
X157325699Y-135311070D01*
X157305416Y-135516999D01*
X156876583Y-135516999D01*
X156856300Y-135311066D01*
X156796232Y-135113046D01*
X156698685Y-134930550D01*
X156647722Y-134868451D01*
X156567410Y-134770589D01*
X156407449Y-134639314D01*
X156224956Y-134541769D01*
X156224955Y-134541768D01*
X156224954Y-134541768D01*
X156026934Y-134481700D01*
X156026931Y-134481699D01*
X156026929Y-134481699D01*
X155821000Y-134461416D01*
X155615070Y-134481699D01*
X155615067Y-134481699D01*
X155615066Y-134481700D01*
X155436259Y-134535940D01*
X155417043Y-134541769D01*
X155234550Y-134639314D01*
X155074589Y-134770589D01*
X154943314Y-134930550D01*
X154845769Y-135113043D01*
X154845769Y-135113044D01*
X154845768Y-135113046D01*
X154807210Y-135240158D01*
X154785699Y-135311070D01*
X154765416Y-135516999D01*
X154336583Y-135516999D01*
X154316300Y-135311066D01*
X154256232Y-135113046D01*
X154158685Y-134930550D01*
X154107722Y-134868451D01*
X154027410Y-134770589D01*
X153867449Y-134639314D01*
X153684956Y-134541769D01*
X153684955Y-134541768D01*
X153684954Y-134541768D01*
X153486934Y-134481700D01*
X153486931Y-134481699D01*
X153486929Y-134481699D01*
X153281000Y-134461416D01*
X153075070Y-134481699D01*
X153075067Y-134481699D01*
X153075066Y-134481700D01*
X152896259Y-134535940D01*
X152877043Y-134541769D01*
X152694550Y-134639314D01*
X152534589Y-134770589D01*
X152403314Y-134930550D01*
X152305769Y-135113043D01*
X152305769Y-135113044D01*
X152305768Y-135113046D01*
X152267210Y-135240158D01*
X152245699Y-135311070D01*
X152225416Y-135516999D01*
X151796583Y-135516999D01*
X151776300Y-135311066D01*
X151716232Y-135113046D01*
X151618685Y-134930550D01*
X151567722Y-134868451D01*
X151487410Y-134770589D01*
X151327449Y-134639314D01*
X151144956Y-134541769D01*
X151144955Y-134541768D01*
X151144954Y-134541768D01*
X150946934Y-134481700D01*
X150946931Y-134481699D01*
X150946929Y-134481699D01*
X150741000Y-134461416D01*
X150535066Y-134481699D01*
X150464158Y-134503208D01*
X150396967Y-134504857D01*
X150338489Y-134471728D01*
X149978405Y-134111644D01*
X149951091Y-134070767D01*
X149941500Y-134022549D01*
X149941500Y-122959562D01*
X149961049Y-122892152D01*
X150013628Y-122845659D01*
X150082924Y-122834510D01*
X150147433Y-122862162D01*
X150182462Y-122890910D01*
X150356273Y-122983814D01*
X150408154Y-122999552D01*
X150544867Y-123041024D01*
X150741000Y-123060341D01*
X150937132Y-123041024D01*
X151125727Y-122983814D01*
X151299538Y-122890910D01*
X151451883Y-122765883D01*
X151576910Y-122613538D01*
X151669814Y-122439727D01*
X151727024Y-122251132D01*
X151746341Y-122055000D01*
X152275658Y-122055000D01*
X152294975Y-122251132D01*
X152352185Y-122439725D01*
X152445089Y-122613537D01*
X152570116Y-122765883D01*
X152687434Y-122862163D01*
X152722462Y-122890910D01*
X152896273Y-122983814D01*
X152948154Y-122999552D01*
X153084867Y-123041024D01*
X153281000Y-123060341D01*
X153477132Y-123041024D01*
X153665727Y-122983814D01*
X153839538Y-122890910D01*
X153991883Y-122765883D01*
X154116910Y-122613538D01*
X154209814Y-122439727D01*
X154267024Y-122251132D01*
X154286341Y-122055000D01*
X154815658Y-122055000D01*
X154834975Y-122251132D01*
X154892185Y-122439725D01*
X154985089Y-122613537D01*
X155110116Y-122765883D01*
X155227434Y-122862163D01*
X155262462Y-122890910D01*
X155436273Y-122983814D01*
X155488154Y-122999552D01*
X155624867Y-123041024D01*
X155821000Y-123060341D01*
X156017132Y-123041024D01*
X156205727Y-122983814D01*
X156379538Y-122890910D01*
X156531883Y-122765883D01*
X156656910Y-122613538D01*
X156749814Y-122439727D01*
X156807024Y-122251132D01*
X156826341Y-122055000D01*
X156807024Y-121858868D01*
X156749814Y-121670273D01*
X156656910Y-121496462D01*
X156636500Y-121471592D01*
X156531883Y-121344116D01*
X156379537Y-121219089D01*
X156205725Y-121126185D01*
X156017132Y-121068975D01*
X155821000Y-121049658D01*
X155624867Y-121068975D01*
X155436274Y-121126185D01*
X155262462Y-121219089D01*
X155110116Y-121344116D01*
X154985089Y-121496462D01*
X154892185Y-121670274D01*
X154834975Y-121858867D01*
X154815658Y-122055000D01*
X154286341Y-122055000D01*
X154267024Y-121858868D01*
X154209814Y-121670273D01*
X154116910Y-121496462D01*
X154096500Y-121471592D01*
X153991883Y-121344116D01*
X153839537Y-121219089D01*
X153665725Y-121126185D01*
X153477132Y-121068975D01*
X153281000Y-121049658D01*
X153084867Y-121068975D01*
X152896274Y-121126185D01*
X152722462Y-121219089D01*
X152570116Y-121344116D01*
X152445089Y-121496462D01*
X152352185Y-121670274D01*
X152294975Y-121858867D01*
X152275658Y-122055000D01*
X151746341Y-122055000D01*
X151727024Y-121858868D01*
X151669814Y-121670273D01*
X151576910Y-121496462D01*
X151556500Y-121471592D01*
X151451883Y-121344116D01*
X151299537Y-121219089D01*
X151125725Y-121126185D01*
X150937132Y-121068975D01*
X150741000Y-121049658D01*
X150544867Y-121068975D01*
X150356274Y-121126185D01*
X150182462Y-121219089D01*
X150147434Y-121247837D01*
X150082924Y-121275490D01*
X150013628Y-121264341D01*
X149961049Y-121217848D01*
X149941500Y-121150438D01*
X149941500Y-118469450D01*
X149951091Y-118421232D01*
X149978405Y-118380355D01*
X152618297Y-115740463D01*
X160538579Y-107820179D01*
X160597057Y-107787052D01*
X160664248Y-107788701D01*
X160704868Y-107801024D01*
X160835622Y-107813902D01*
X160900999Y-107820341D01*
X160900999Y-107820340D01*
X160901000Y-107820341D01*
X161097132Y-107801024D01*
X161285727Y-107743814D01*
X161459538Y-107650910D01*
X161611883Y-107525883D01*
X161736910Y-107373538D01*
X161829814Y-107199727D01*
X161887024Y-107011132D01*
X161906341Y-106815000D01*
X161887024Y-106618868D01*
X161887023Y-106618866D01*
X161829814Y-106430274D01*
X161829814Y-106430273D01*
X161736910Y-106256462D01*
X161611883Y-106104116D01*
X161459538Y-105979089D01*
X161422104Y-105959081D01*
X161373426Y-105912736D01*
X161355500Y-105847959D01*
X161355500Y-99123886D01*
X161362187Y-99083385D01*
X161381537Y-99047182D01*
X161388669Y-99037886D01*
X161425536Y-98989841D01*
X161486044Y-98843762D01*
X161506682Y-98687000D01*
X161486044Y-98530238D01*
X161425536Y-98384159D01*
X161425535Y-98384158D01*
X161425535Y-98384157D01*
X161329282Y-98258717D01*
X161203842Y-98162464D01*
X161057761Y-98101955D01*
X160901000Y-98081318D01*
X160744238Y-98101955D01*
X160598157Y-98162464D01*
X160472717Y-98258717D01*
X160376464Y-98384157D01*
X160315955Y-98530238D01*
X160295318Y-98687000D01*
X160315955Y-98843761D01*
X160376463Y-98989840D01*
X160420463Y-99047182D01*
X160439813Y-99083385D01*
X160446500Y-99123886D01*
X160446500Y-105847959D01*
X160428574Y-105912736D01*
X160379896Y-105959081D01*
X160342461Y-105979089D01*
X160190116Y-106104116D01*
X160065089Y-106256462D01*
X159972185Y-106430274D01*
X159914975Y-106618867D01*
X159895658Y-106814999D01*
X159914975Y-107011130D01*
X159927297Y-107051748D01*
X159928947Y-107118940D01*
X159895818Y-107177420D01*
X149188676Y-117884561D01*
X149178143Y-117893975D01*
X149150063Y-117916368D01*
X149117584Y-117964006D01*
X149114861Y-117967843D01*
X149076975Y-118019180D01*
X149074697Y-118023691D01*
X149055889Y-118084667D01*
X149054416Y-118089142D01*
X149033346Y-118149355D01*
X149032500Y-118154339D01*
X149032500Y-118218132D01*
X149032412Y-118222843D01*
X149030025Y-118286628D01*
X149032500Y-118305426D01*
X149032500Y-121176700D01*
X149012951Y-121244110D01*
X148960372Y-121290603D01*
X148891076Y-121301752D01*
X148826566Y-121274099D01*
X148759537Y-121219089D01*
X148585725Y-121126185D01*
X148397132Y-121068975D01*
X148201000Y-121049658D01*
X148004867Y-121068975D01*
X147816274Y-121126185D01*
X147642462Y-121219089D01*
X147490116Y-121344116D01*
X147365089Y-121496462D01*
X147272185Y-121670274D01*
X147214975Y-121858867D01*
X147195658Y-122055000D01*
X146661500Y-122055000D01*
X146661500Y-121235252D01*
X146649867Y-121176769D01*
X146616068Y-121126186D01*
X146605552Y-121110447D01*
X146539231Y-121066133D01*
X146480748Y-121054500D01*
X144937500Y-121054500D01*
X144874500Y-121037619D01*
X144828381Y-120991500D01*
X144811500Y-120928500D01*
X144811500Y-110899450D01*
X144821091Y-110851232D01*
X144848405Y-110810355D01*
X145554324Y-110104436D01*
X147838579Y-107820179D01*
X147897057Y-107787052D01*
X147964248Y-107788701D01*
X148004868Y-107801024D01*
X148135622Y-107813902D01*
X148200999Y-107820341D01*
X148200999Y-107820340D01*
X148201000Y-107820341D01*
X148397132Y-107801024D01*
X148585727Y-107743814D01*
X148759538Y-107650910D01*
X148911883Y-107525883D01*
X149036910Y-107373538D01*
X149129814Y-107199727D01*
X149187024Y-107011132D01*
X149206341Y-106815000D01*
X149206341Y-106814999D01*
X149735658Y-106814999D01*
X149754975Y-107011132D01*
X149812185Y-107199725D01*
X149905089Y-107373537D01*
X150030116Y-107525883D01*
X150156722Y-107629786D01*
X150182462Y-107650910D01*
X150356273Y-107743814D01*
X150431978Y-107766779D01*
X150544867Y-107801024D01*
X150741000Y-107820341D01*
X150937132Y-107801024D01*
X151125727Y-107743814D01*
X151299538Y-107650910D01*
X151451883Y-107525883D01*
X151576910Y-107373538D01*
X151669814Y-107199727D01*
X151727024Y-107011132D01*
X151746341Y-106815000D01*
X151746341Y-106814999D01*
X152275658Y-106814999D01*
X152294975Y-107011132D01*
X152352185Y-107199725D01*
X152445089Y-107373537D01*
X152570116Y-107525883D01*
X152696722Y-107629786D01*
X152722462Y-107650910D01*
X152896273Y-107743814D01*
X152971978Y-107766779D01*
X153084867Y-107801024D01*
X153281000Y-107820341D01*
X153477132Y-107801024D01*
X153665727Y-107743814D01*
X153839538Y-107650910D01*
X153991883Y-107525883D01*
X154116910Y-107373538D01*
X154209814Y-107199727D01*
X154267024Y-107011132D01*
X154286341Y-106815000D01*
X154286341Y-106814999D01*
X154815658Y-106814999D01*
X154834975Y-107011132D01*
X154892185Y-107199725D01*
X154985089Y-107373537D01*
X155110116Y-107525883D01*
X155236722Y-107629786D01*
X155262462Y-107650910D01*
X155436273Y-107743814D01*
X155511978Y-107766779D01*
X155624867Y-107801024D01*
X155821000Y-107820341D01*
X156017132Y-107801024D01*
X156205727Y-107743814D01*
X156379538Y-107650910D01*
X156531883Y-107525883D01*
X156656910Y-107373538D01*
X156749814Y-107199727D01*
X156807024Y-107011132D01*
X156826341Y-106815000D01*
X156826341Y-106814999D01*
X157355658Y-106814999D01*
X157374975Y-107011132D01*
X157432185Y-107199725D01*
X157525089Y-107373537D01*
X157650116Y-107525883D01*
X157776722Y-107629786D01*
X157802462Y-107650910D01*
X157976273Y-107743814D01*
X158051978Y-107766779D01*
X158164867Y-107801024D01*
X158361000Y-107820341D01*
X158557132Y-107801024D01*
X158745727Y-107743814D01*
X158919538Y-107650910D01*
X159071883Y-107525883D01*
X159196910Y-107373538D01*
X159289814Y-107199727D01*
X159347024Y-107011132D01*
X159366341Y-106815000D01*
X159347024Y-106618868D01*
X159347023Y-106618866D01*
X159289814Y-106430274D01*
X159289814Y-106430273D01*
X159196910Y-106256462D01*
X159071883Y-106104116D01*
X158919538Y-105979089D01*
X158882104Y-105959081D01*
X158833426Y-105912736D01*
X158815500Y-105847959D01*
X158815500Y-98107886D01*
X158822187Y-98067385D01*
X158841537Y-98031182D01*
X158848669Y-98021886D01*
X158885536Y-97973841D01*
X158946044Y-97827762D01*
X158966682Y-97671000D01*
X158946044Y-97514238D01*
X158885536Y-97368159D01*
X158885535Y-97368158D01*
X158885535Y-97368157D01*
X158789282Y-97242717D01*
X158663842Y-97146464D01*
X158517761Y-97085955D01*
X158361000Y-97065318D01*
X158204238Y-97085955D01*
X158058157Y-97146464D01*
X157932717Y-97242717D01*
X157836464Y-97368157D01*
X157775955Y-97514238D01*
X157755318Y-97670999D01*
X157775955Y-97827761D01*
X157836463Y-97973840D01*
X157880463Y-98031182D01*
X157899813Y-98067385D01*
X157906500Y-98107886D01*
X157906500Y-105847959D01*
X157888574Y-105912736D01*
X157839896Y-105959081D01*
X157802461Y-105979089D01*
X157650116Y-106104116D01*
X157525089Y-106256462D01*
X157432185Y-106430274D01*
X157374975Y-106618867D01*
X157355658Y-106814999D01*
X156826341Y-106814999D01*
X156807024Y-106618868D01*
X156807023Y-106618866D01*
X156749814Y-106430274D01*
X156749814Y-106430273D01*
X156656910Y-106256462D01*
X156531883Y-106104116D01*
X156379538Y-105979089D01*
X156342104Y-105959081D01*
X156293426Y-105912736D01*
X156275500Y-105847959D01*
X156275500Y-97091886D01*
X156282187Y-97051385D01*
X156301537Y-97015182D01*
X156308669Y-97005886D01*
X156345536Y-96957841D01*
X156406044Y-96811762D01*
X156426682Y-96655000D01*
X156406044Y-96498238D01*
X156345536Y-96352159D01*
X156345535Y-96352158D01*
X156345535Y-96352157D01*
X156249282Y-96226717D01*
X156123842Y-96130464D01*
X155977761Y-96069955D01*
X155821000Y-96049318D01*
X155664238Y-96069955D01*
X155518157Y-96130464D01*
X155392717Y-96226717D01*
X155296464Y-96352157D01*
X155235955Y-96498238D01*
X155215318Y-96655000D01*
X155235955Y-96811761D01*
X155296463Y-96957840D01*
X155340463Y-97015182D01*
X155359813Y-97051385D01*
X155366500Y-97091886D01*
X155366500Y-105847959D01*
X155348574Y-105912736D01*
X155299896Y-105959081D01*
X155262461Y-105979089D01*
X155110116Y-106104116D01*
X154985089Y-106256462D01*
X154892185Y-106430274D01*
X154834975Y-106618867D01*
X154815658Y-106814999D01*
X154286341Y-106814999D01*
X154267024Y-106618868D01*
X154267023Y-106618866D01*
X154209814Y-106430274D01*
X154209814Y-106430273D01*
X154116910Y-106256462D01*
X153991883Y-106104116D01*
X153839538Y-105979089D01*
X153802104Y-105959081D01*
X153753426Y-105912736D01*
X153735500Y-105847959D01*
X153735500Y-96075886D01*
X153742187Y-96035385D01*
X153761537Y-95999182D01*
X153768669Y-95989886D01*
X153805536Y-95941841D01*
X153866044Y-95795762D01*
X153886682Y-95639000D01*
X153866044Y-95482238D01*
X153805536Y-95336159D01*
X153805535Y-95336158D01*
X153805535Y-95336157D01*
X153709282Y-95210717D01*
X153583842Y-95114464D01*
X153437761Y-95053955D01*
X153281000Y-95033318D01*
X153124238Y-95053955D01*
X152978157Y-95114464D01*
X152852717Y-95210717D01*
X152756464Y-95336157D01*
X152695955Y-95482238D01*
X152675318Y-95638999D01*
X152695955Y-95795761D01*
X152756463Y-95941840D01*
X152800463Y-95999182D01*
X152819813Y-96035385D01*
X152826500Y-96075886D01*
X152826500Y-105847959D01*
X152808574Y-105912736D01*
X152759896Y-105959081D01*
X152722461Y-105979089D01*
X152570116Y-106104116D01*
X152445089Y-106256462D01*
X152352185Y-106430274D01*
X152294975Y-106618867D01*
X152275658Y-106814999D01*
X151746341Y-106814999D01*
X151727024Y-106618868D01*
X151727023Y-106618866D01*
X151669814Y-106430274D01*
X151669814Y-106430273D01*
X151576910Y-106256462D01*
X151451883Y-106104116D01*
X151299538Y-105979089D01*
X151262104Y-105959081D01*
X151213426Y-105912736D01*
X151195500Y-105847959D01*
X151195500Y-95059886D01*
X151202187Y-95019385D01*
X151221537Y-94983182D01*
X151228669Y-94973886D01*
X151265536Y-94925841D01*
X151326044Y-94779762D01*
X151346682Y-94623000D01*
X151326044Y-94466238D01*
X151265536Y-94320159D01*
X151265535Y-94320158D01*
X151265535Y-94320157D01*
X151169282Y-94194717D01*
X151043842Y-94098464D01*
X150897761Y-94037955D01*
X150741000Y-94017318D01*
X150584238Y-94037955D01*
X150438157Y-94098464D01*
X150312717Y-94194717D01*
X150216464Y-94320157D01*
X150155955Y-94466238D01*
X150135318Y-94623000D01*
X150155955Y-94779761D01*
X150216463Y-94925840D01*
X150260463Y-94983182D01*
X150279813Y-95019385D01*
X150286500Y-95059886D01*
X150286500Y-105847959D01*
X150268574Y-105912736D01*
X150219896Y-105959081D01*
X150182461Y-105979089D01*
X150030116Y-106104116D01*
X149905089Y-106256462D01*
X149812185Y-106430274D01*
X149754975Y-106618867D01*
X149735658Y-106814999D01*
X149206341Y-106814999D01*
X149187024Y-106618868D01*
X149187023Y-106618866D01*
X149129814Y-106430274D01*
X149129814Y-106430273D01*
X149036910Y-106256462D01*
X148911883Y-106104116D01*
X148759538Y-105979089D01*
X148722104Y-105959081D01*
X148673426Y-105912736D01*
X148655500Y-105847959D01*
X148655500Y-94043886D01*
X148662187Y-94003385D01*
X148681537Y-93967182D01*
X148688669Y-93957886D01*
X148725536Y-93909841D01*
X148786044Y-93763762D01*
X148806682Y-93607000D01*
X148786044Y-93450238D01*
X148757661Y-93381717D01*
X148748678Y-93321150D01*
X148769306Y-93263498D01*
X148814675Y-93222378D01*
X148874071Y-93207500D01*
X157520550Y-93207500D01*
X157568768Y-93217091D01*
X157609645Y-93244405D01*
X163291581Y-98926341D01*
X163323060Y-98978860D01*
X163326065Y-99040017D01*
X163299886Y-99095369D01*
X163250705Y-99131844D01*
X163138159Y-99178463D01*
X163012717Y-99274717D01*
X162916464Y-99400157D01*
X162855955Y-99546238D01*
X162835318Y-99703000D01*
X162855955Y-99859761D01*
X162916463Y-100005840D01*
X162960463Y-100063182D01*
X162979813Y-100099385D01*
X162986500Y-100139886D01*
X162986500Y-105847959D01*
X162968574Y-105912736D01*
X162919896Y-105959081D01*
X162882461Y-105979089D01*
X162730116Y-106104116D01*
X162605089Y-106256462D01*
X162512185Y-106430274D01*
X162454975Y-106618867D01*
X162435658Y-106814999D01*
X162454975Y-107011132D01*
X162512185Y-107199725D01*
X162605089Y-107373537D01*
X162713696Y-107505874D01*
X162740173Y-107562769D01*
X162735922Y-107625379D01*
X162701998Y-107678173D01*
X162695885Y-107683845D01*
X162680422Y-107694816D01*
X162635301Y-107739937D01*
X162631911Y-107743202D01*
X162585123Y-107786616D01*
X162573581Y-107801657D01*
X159332676Y-111042561D01*
X159322143Y-111051975D01*
X159294063Y-111074368D01*
X159261584Y-111122006D01*
X159258861Y-111125843D01*
X159220975Y-111177180D01*
X159218697Y-111181691D01*
X159199889Y-111242667D01*
X159198416Y-111247142D01*
X159177346Y-111307355D01*
X159176500Y-111312339D01*
X159176500Y-111376132D01*
X159176412Y-111380843D01*
X159174025Y-111444628D01*
X159176500Y-111463426D01*
X159176500Y-115694132D01*
X159176412Y-115698843D01*
X159174025Y-115762628D01*
X159176500Y-115781426D01*
X159176500Y-121163569D01*
X159156951Y-121230979D01*
X159104372Y-121277472D01*
X159035076Y-121288621D01*
X158970566Y-121260968D01*
X158919537Y-121219089D01*
X158745725Y-121126185D01*
X158557132Y-121068975D01*
X158361000Y-121049658D01*
X158164867Y-121068975D01*
X157976274Y-121126185D01*
X157802462Y-121219089D01*
X157650116Y-121344116D01*
X157525089Y-121496462D01*
X157432185Y-121670274D01*
X157374975Y-121858867D01*
X157355658Y-122055000D01*
X157374975Y-122251132D01*
X157432185Y-122439725D01*
X157525089Y-122613537D01*
X157650116Y-122765883D01*
X157767434Y-122862163D01*
X157802462Y-122890910D01*
X157976273Y-122983814D01*
X158028154Y-122999552D01*
X158164867Y-123041024D01*
X158361000Y-123060341D01*
X158557132Y-123041024D01*
X158745727Y-122983814D01*
X158919538Y-122890910D01*
X158970566Y-122849031D01*
X159035076Y-122821379D01*
X159104372Y-122832528D01*
X159156951Y-122879021D01*
X159176500Y-122946431D01*
X159176500Y-126594391D01*
X159175708Y-126608498D01*
X159171686Y-126644187D01*
X159182400Y-126700809D01*
X159183189Y-126705451D01*
X159192704Y-126768576D01*
X159194276Y-126773352D01*
X159197158Y-126778806D01*
X159197159Y-126778807D01*
X159224105Y-126829792D01*
X159226216Y-126833975D01*
X159253909Y-126891480D01*
X159256815Y-126895575D01*
X159261179Y-126899939D01*
X159261180Y-126899940D01*
X159301948Y-126940708D01*
X159305191Y-126944074D01*
X159344423Y-126986356D01*
X159344425Y-126986357D01*
X159348624Y-126990882D01*
X159363661Y-127002421D01*
X167475729Y-135114489D01*
X167508858Y-135172968D01*
X167507209Y-135240159D01*
X167485699Y-135311068D01*
X167465416Y-135516999D01*
X167485699Y-135722929D01*
X167485699Y-135722931D01*
X167485700Y-135722934D01*
X167545767Y-135920951D01*
X167545769Y-135920956D01*
X167643314Y-136103449D01*
X167774589Y-136263410D01*
X167924877Y-136386747D01*
X167934550Y-136394685D01*
X168117046Y-136492232D01*
X168315066Y-136552300D01*
X168521000Y-136572583D01*
X168726934Y-136552300D01*
X168924954Y-136492232D01*
X169107450Y-136394685D01*
X169267410Y-136263410D01*
X169398685Y-136103450D01*
X169496232Y-135920954D01*
X169556300Y-135722934D01*
X169576583Y-135517000D01*
X169556300Y-135311066D01*
X169496232Y-135113046D01*
X169398685Y-134930550D01*
X169347722Y-134868451D01*
X169267410Y-134770589D01*
X169107449Y-134639314D01*
X168924956Y-134541769D01*
X168924955Y-134541768D01*
X168924954Y-134541768D01*
X168726934Y-134481700D01*
X168726931Y-134481699D01*
X168726929Y-134481699D01*
X168521000Y-134461416D01*
X168315068Y-134481699D01*
X168244159Y-134503209D01*
X168176968Y-134504858D01*
X168118489Y-134471729D01*
X160122405Y-126475644D01*
X160095091Y-126434767D01*
X160085500Y-126386549D01*
X160085500Y-122946431D01*
X160105049Y-122879021D01*
X160157628Y-122832528D01*
X160226924Y-122821379D01*
X160291433Y-122849031D01*
X160342462Y-122890910D01*
X160516273Y-122983814D01*
X160568154Y-122999552D01*
X160704867Y-123041024D01*
X160901000Y-123060341D01*
X161097132Y-123041024D01*
X161285727Y-122983814D01*
X161459538Y-122890910D01*
X161494566Y-122862162D01*
X161559076Y-122834510D01*
X161628372Y-122845659D01*
X161680951Y-122892152D01*
X161700500Y-122959562D01*
X161700500Y-126578391D01*
X161699708Y-126592498D01*
X161695686Y-126628187D01*
X161706400Y-126684809D01*
X161707189Y-126689451D01*
X161716704Y-126752576D01*
X161718276Y-126757352D01*
X161721158Y-126762806D01*
X161721159Y-126762807D01*
X161748105Y-126813792D01*
X161750216Y-126817975D01*
X161777909Y-126875480D01*
X161780815Y-126879575D01*
X161785179Y-126883939D01*
X161785180Y-126883940D01*
X161825948Y-126924708D01*
X161829191Y-126928074D01*
X161868423Y-126970356D01*
X161868425Y-126970357D01*
X161872624Y-126974882D01*
X161887661Y-126986421D01*
X170015728Y-135114489D01*
X170048857Y-135172967D01*
X170047208Y-135240158D01*
X170025699Y-135311066D01*
X170005416Y-135516999D01*
X170025699Y-135722929D01*
X170025699Y-135722931D01*
X170025700Y-135722934D01*
X170085767Y-135920951D01*
X170085769Y-135920956D01*
X170183314Y-136103449D01*
X170314589Y-136263410D01*
X170464877Y-136386747D01*
X170474550Y-136394685D01*
X170657046Y-136492232D01*
X170855066Y-136552300D01*
X171061000Y-136572583D01*
X171266934Y-136552300D01*
X171464954Y-136492232D01*
X171647450Y-136394685D01*
X171807410Y-136263410D01*
X171938685Y-136103450D01*
X172036232Y-135920954D01*
X172096300Y-135722934D01*
X172116583Y-135517000D01*
X172096300Y-135311066D01*
X172036232Y-135113046D01*
X171938685Y-134930550D01*
X171887722Y-134868451D01*
X171807410Y-134770589D01*
X171647449Y-134639314D01*
X171464956Y-134541769D01*
X171464955Y-134541768D01*
X171464954Y-134541768D01*
X171266934Y-134481700D01*
X171266931Y-134481699D01*
X171266929Y-134481699D01*
X171061000Y-134461416D01*
X170855068Y-134481699D01*
X170784159Y-134503209D01*
X170716968Y-134504858D01*
X170658489Y-134471729D01*
X162646405Y-126459644D01*
X162619091Y-126418767D01*
X162609500Y-126370549D01*
X162609500Y-122933300D01*
X162629049Y-122865890D01*
X162681628Y-122819397D01*
X162750924Y-122808248D01*
X162815433Y-122835900D01*
X162882462Y-122890910D01*
X163056273Y-122983814D01*
X163108154Y-122999552D01*
X163244867Y-123041024D01*
X163441000Y-123060341D01*
X163637132Y-123041024D01*
X163825727Y-122983814D01*
X163999538Y-122890910D01*
X164034566Y-122862162D01*
X164099076Y-122834510D01*
X164168372Y-122845659D01*
X164220951Y-122892152D01*
X164240500Y-122959562D01*
X164240500Y-126578391D01*
X164239708Y-126592498D01*
X164235686Y-126628187D01*
X164246400Y-126684809D01*
X164247189Y-126689451D01*
X164256704Y-126752576D01*
X164258276Y-126757352D01*
X164261158Y-126762806D01*
X164261159Y-126762807D01*
X164288105Y-126813792D01*
X164290216Y-126817975D01*
X164317909Y-126875480D01*
X164320815Y-126879575D01*
X164325179Y-126883939D01*
X164325180Y-126883940D01*
X164365948Y-126924708D01*
X164369191Y-126928074D01*
X164408423Y-126970356D01*
X164408425Y-126970357D01*
X164412624Y-126974882D01*
X164427661Y-126986421D01*
X172555728Y-135114489D01*
X172588857Y-135172967D01*
X172587208Y-135240158D01*
X172565699Y-135311066D01*
X172545416Y-135516999D01*
X172565699Y-135722929D01*
X172565699Y-135722931D01*
X172565700Y-135722934D01*
X172625767Y-135920951D01*
X172625769Y-135920956D01*
X172723314Y-136103449D01*
X172854589Y-136263410D01*
X173004877Y-136386747D01*
X173014550Y-136394685D01*
X173197046Y-136492232D01*
X173395066Y-136552300D01*
X173601000Y-136572583D01*
X173806934Y-136552300D01*
X174004954Y-136492232D01*
X174187450Y-136394685D01*
X174347410Y-136263410D01*
X174478685Y-136103450D01*
X174576232Y-135920954D01*
X174636300Y-135722934D01*
X174656583Y-135517000D01*
X174636300Y-135311066D01*
X174576232Y-135113046D01*
X174478685Y-134930550D01*
X174427722Y-134868451D01*
X174347410Y-134770589D01*
X174187449Y-134639314D01*
X174004956Y-134541769D01*
X174004955Y-134541768D01*
X174004954Y-134541768D01*
X173806934Y-134481700D01*
X173806931Y-134481699D01*
X173806929Y-134481699D01*
X173601000Y-134461416D01*
X173395068Y-134481699D01*
X173324159Y-134503209D01*
X173256968Y-134504858D01*
X173198489Y-134471729D01*
X165186405Y-126459644D01*
X165159091Y-126418767D01*
X165149500Y-126370549D01*
X165149500Y-122933300D01*
X165169049Y-122865890D01*
X165221628Y-122819397D01*
X165290924Y-122808248D01*
X165355433Y-122835900D01*
X165422462Y-122890910D01*
X165596273Y-122983814D01*
X165648154Y-122999552D01*
X165784867Y-123041024D01*
X165981000Y-123060341D01*
X166177132Y-123041024D01*
X166365727Y-122983814D01*
X166539538Y-122890910D01*
X166574566Y-122862162D01*
X166639076Y-122834510D01*
X166708372Y-122845659D01*
X166760951Y-122892152D01*
X166780500Y-122959562D01*
X166780500Y-126578391D01*
X166779708Y-126592498D01*
X166775686Y-126628187D01*
X166786400Y-126684809D01*
X166787189Y-126689451D01*
X166796704Y-126752576D01*
X166798276Y-126757352D01*
X166801158Y-126762806D01*
X166801159Y-126762807D01*
X166828105Y-126813792D01*
X166830216Y-126817975D01*
X166857909Y-126875480D01*
X166860815Y-126879575D01*
X166865179Y-126883939D01*
X166865180Y-126883940D01*
X166905948Y-126924708D01*
X166909191Y-126928074D01*
X166948423Y-126970356D01*
X166948425Y-126970357D01*
X166952624Y-126974882D01*
X166967661Y-126986421D01*
X175095728Y-135114489D01*
X175128857Y-135172967D01*
X175127208Y-135240158D01*
X175105699Y-135311066D01*
X175085416Y-135516999D01*
X175105699Y-135722929D01*
X175105699Y-135722931D01*
X175105700Y-135722934D01*
X175165767Y-135920951D01*
X175165769Y-135920956D01*
X175263314Y-136103449D01*
X175394589Y-136263410D01*
X175544877Y-136386747D01*
X175554550Y-136394685D01*
X175737046Y-136492232D01*
X175935066Y-136552300D01*
X176141000Y-136572583D01*
X176346934Y-136552300D01*
X176544954Y-136492232D01*
X176727450Y-136394685D01*
X176887410Y-136263410D01*
X177018685Y-136103450D01*
X177116232Y-135920954D01*
X177176300Y-135722934D01*
X177196583Y-135517000D01*
X177176300Y-135311066D01*
X177116232Y-135113046D01*
X177018685Y-134930550D01*
X176967722Y-134868451D01*
X176887410Y-134770589D01*
X176727449Y-134639314D01*
X176544956Y-134541769D01*
X176544955Y-134541768D01*
X176544954Y-134541768D01*
X176346934Y-134481700D01*
X176346931Y-134481699D01*
X176346929Y-134481699D01*
X176141000Y-134461416D01*
X175935068Y-134481699D01*
X175864159Y-134503209D01*
X175796968Y-134504858D01*
X175738489Y-134471729D01*
X167726405Y-126459644D01*
X167699091Y-126418767D01*
X167689500Y-126370549D01*
X167689500Y-122933300D01*
X167709049Y-122865890D01*
X167761628Y-122819397D01*
X167830924Y-122808248D01*
X167895433Y-122835900D01*
X167962462Y-122890910D01*
X168136273Y-122983814D01*
X168188154Y-122999552D01*
X168324867Y-123041024D01*
X168521000Y-123060341D01*
X168717132Y-123041024D01*
X168905727Y-122983814D01*
X169079538Y-122890910D01*
X169114566Y-122862162D01*
X169179076Y-122834510D01*
X169248372Y-122845659D01*
X169300951Y-122892152D01*
X169320500Y-122959562D01*
X169320500Y-126578391D01*
X169319708Y-126592498D01*
X169315686Y-126628187D01*
X169326400Y-126684809D01*
X169327189Y-126689451D01*
X169336704Y-126752576D01*
X169338276Y-126757352D01*
X169341158Y-126762806D01*
X169341159Y-126762807D01*
X169368105Y-126813792D01*
X169370216Y-126817975D01*
X169397909Y-126875480D01*
X169400815Y-126879575D01*
X169405179Y-126883939D01*
X169405180Y-126883940D01*
X169445948Y-126924708D01*
X169449191Y-126928074D01*
X169488423Y-126970356D01*
X169488425Y-126970357D01*
X169492624Y-126974882D01*
X169507661Y-126986421D01*
X177635728Y-135114489D01*
X177668857Y-135172967D01*
X177667208Y-135240158D01*
X177645699Y-135311066D01*
X177625416Y-135516999D01*
X177645699Y-135722929D01*
X177645699Y-135722931D01*
X177645700Y-135722934D01*
X177705767Y-135920951D01*
X177705769Y-135920956D01*
X177803314Y-136103449D01*
X177934589Y-136263410D01*
X178084877Y-136386747D01*
X178094550Y-136394685D01*
X178277046Y-136492232D01*
X178475066Y-136552300D01*
X178681000Y-136572583D01*
X178886934Y-136552300D01*
X179084954Y-136492232D01*
X179267450Y-136394685D01*
X179427410Y-136263410D01*
X179558685Y-136103450D01*
X179656232Y-135920954D01*
X179716300Y-135722934D01*
X179736583Y-135517000D01*
X179736583Y-135516999D01*
X180165416Y-135516999D01*
X180185699Y-135722929D01*
X180185699Y-135722931D01*
X180185700Y-135722934D01*
X180245767Y-135920951D01*
X180245769Y-135920956D01*
X180343314Y-136103449D01*
X180474589Y-136263410D01*
X180624877Y-136386747D01*
X180634550Y-136394685D01*
X180817046Y-136492232D01*
X181015066Y-136552300D01*
X181221000Y-136572583D01*
X181426934Y-136552300D01*
X181624954Y-136492232D01*
X181807450Y-136394685D01*
X181967410Y-136263410D01*
X182098685Y-136103450D01*
X182196232Y-135920954D01*
X182256300Y-135722934D01*
X182276583Y-135517000D01*
X182276583Y-135516999D01*
X182705416Y-135516999D01*
X182725699Y-135722929D01*
X182725699Y-135722931D01*
X182725700Y-135722934D01*
X182785767Y-135920951D01*
X182785769Y-135920956D01*
X182883314Y-136103449D01*
X183014589Y-136263410D01*
X183164877Y-136386747D01*
X183174550Y-136394685D01*
X183357046Y-136492232D01*
X183555066Y-136552300D01*
X183761000Y-136572583D01*
X183966934Y-136552300D01*
X184164954Y-136492232D01*
X184347450Y-136394685D01*
X184507410Y-136263410D01*
X184638685Y-136103450D01*
X184736232Y-135920954D01*
X184796300Y-135722934D01*
X184816583Y-135517000D01*
X184796300Y-135311066D01*
X184736232Y-135113046D01*
X184638685Y-134930550D01*
X184587722Y-134868451D01*
X184507410Y-134770589D01*
X184347449Y-134639314D01*
X184164956Y-134541769D01*
X184164955Y-134541768D01*
X184164954Y-134541768D01*
X183966934Y-134481700D01*
X183966931Y-134481699D01*
X183966929Y-134481699D01*
X183761000Y-134461416D01*
X183555070Y-134481699D01*
X183555067Y-134481699D01*
X183555066Y-134481700D01*
X183376259Y-134535940D01*
X183357043Y-134541769D01*
X183174550Y-134639314D01*
X183014589Y-134770589D01*
X182883314Y-134930550D01*
X182785769Y-135113043D01*
X182785769Y-135113044D01*
X182785768Y-135113046D01*
X182747210Y-135240158D01*
X182725699Y-135311070D01*
X182705416Y-135516999D01*
X182276583Y-135516999D01*
X182256300Y-135311066D01*
X182196232Y-135113046D01*
X182098685Y-134930550D01*
X182047722Y-134868451D01*
X181967410Y-134770589D01*
X181807449Y-134639314D01*
X181624956Y-134541769D01*
X181624955Y-134541768D01*
X181624954Y-134541768D01*
X181426934Y-134481700D01*
X181426931Y-134481699D01*
X181426929Y-134481699D01*
X181221000Y-134461416D01*
X181015070Y-134481699D01*
X181015067Y-134481699D01*
X181015066Y-134481700D01*
X180836259Y-134535940D01*
X180817043Y-134541769D01*
X180634550Y-134639314D01*
X180474589Y-134770589D01*
X180343314Y-134930550D01*
X180245769Y-135113043D01*
X180245769Y-135113044D01*
X180245768Y-135113046D01*
X180207210Y-135240158D01*
X180185699Y-135311070D01*
X180165416Y-135516999D01*
X179736583Y-135516999D01*
X179716300Y-135311066D01*
X179656232Y-135113046D01*
X179558685Y-134930550D01*
X179507722Y-134868451D01*
X179427410Y-134770589D01*
X179267449Y-134639314D01*
X179084956Y-134541769D01*
X179084955Y-134541768D01*
X179084954Y-134541768D01*
X178886934Y-134481700D01*
X178886931Y-134481699D01*
X178886929Y-134481699D01*
X178681000Y-134461416D01*
X178475068Y-134481699D01*
X178404159Y-134503209D01*
X178336968Y-134504858D01*
X178278489Y-134471729D01*
X170266405Y-126459644D01*
X170239091Y-126418767D01*
X170229500Y-126370549D01*
X170229500Y-122933300D01*
X170249049Y-122865890D01*
X170301628Y-122819397D01*
X170370924Y-122808248D01*
X170435433Y-122835900D01*
X170502462Y-122890910D01*
X170676273Y-122983814D01*
X170728154Y-122999552D01*
X170864867Y-123041024D01*
X171061000Y-123060341D01*
X171257132Y-123041024D01*
X171297751Y-123028701D01*
X171364940Y-123027052D01*
X171423421Y-123060181D01*
X177320556Y-128957316D01*
X177329972Y-128967851D01*
X177352369Y-128995936D01*
X177400021Y-129028424D01*
X177403841Y-129031134D01*
X177448853Y-129064355D01*
X177455197Y-129069037D01*
X177459674Y-129071296D01*
X177465570Y-129073114D01*
X177465572Y-129073116D01*
X177520679Y-129090114D01*
X177525140Y-129091582D01*
X177585376Y-129112659D01*
X177590323Y-129113500D01*
X177596495Y-129113500D01*
X177654158Y-129113500D01*
X177658868Y-129113587D01*
X177716462Y-129115743D01*
X177716464Y-129115742D01*
X177722631Y-129115973D01*
X177741422Y-129113500D01*
X179202550Y-129113500D01*
X179250768Y-129123091D01*
X179291645Y-129150405D01*
X185255729Y-135114489D01*
X185288858Y-135172968D01*
X185287209Y-135240159D01*
X185265699Y-135311068D01*
X185245416Y-135516999D01*
X185265699Y-135722929D01*
X185265699Y-135722931D01*
X185265700Y-135722934D01*
X185325767Y-135920951D01*
X185325769Y-135920956D01*
X185423314Y-136103449D01*
X185554589Y-136263410D01*
X185704877Y-136386747D01*
X185714550Y-136394685D01*
X185897046Y-136492232D01*
X186095066Y-136552300D01*
X186301000Y-136572583D01*
X186506934Y-136552300D01*
X186704954Y-136492232D01*
X186887450Y-136394685D01*
X187047410Y-136263410D01*
X187178685Y-136103450D01*
X187276232Y-135920954D01*
X187336300Y-135722934D01*
X187356583Y-135517000D01*
X187356583Y-135516999D01*
X187785416Y-135516999D01*
X187805699Y-135722929D01*
X187805699Y-135722931D01*
X187805700Y-135722934D01*
X187865767Y-135920951D01*
X187865769Y-135920956D01*
X187963314Y-136103449D01*
X188094589Y-136263410D01*
X188244877Y-136386747D01*
X188254550Y-136394685D01*
X188437046Y-136492232D01*
X188635066Y-136552300D01*
X188841000Y-136572583D01*
X189046934Y-136552300D01*
X189244954Y-136492232D01*
X189427450Y-136394685D01*
X189587410Y-136263410D01*
X189718685Y-136103450D01*
X189816232Y-135920954D01*
X189876300Y-135722934D01*
X189896583Y-135517000D01*
X189896583Y-135516999D01*
X190325416Y-135516999D01*
X190345699Y-135722929D01*
X190345699Y-135722931D01*
X190345700Y-135722934D01*
X190405767Y-135920951D01*
X190405769Y-135920956D01*
X190503314Y-136103449D01*
X190634589Y-136263410D01*
X190784877Y-136386747D01*
X190794550Y-136394685D01*
X190977046Y-136492232D01*
X191175066Y-136552300D01*
X191381000Y-136572583D01*
X191586934Y-136552300D01*
X191784954Y-136492232D01*
X191967450Y-136394685D01*
X192127410Y-136263410D01*
X192258685Y-136103450D01*
X192356232Y-135920954D01*
X192369807Y-135876200D01*
X192403899Y-135821142D01*
X192460839Y-135790289D01*
X192525583Y-135791794D01*
X192581027Y-135825260D01*
X192612525Y-135881845D01*
X192632178Y-135959452D01*
X192722580Y-136165548D01*
X192845678Y-136353962D01*
X192998096Y-136519533D01*
X193175697Y-136657766D01*
X193373631Y-136764883D01*
X193586485Y-136837955D01*
X193667000Y-136851391D01*
X193667000Y-134182609D01*
X194175000Y-134182609D01*
X194175000Y-136851391D01*
X194255514Y-136837955D01*
X194468368Y-136764883D01*
X194666302Y-136657766D01*
X194843903Y-136519533D01*
X194996321Y-136353962D01*
X195119419Y-136165548D01*
X195209820Y-135959455D01*
X195229473Y-135881847D01*
X195260971Y-135825261D01*
X195316414Y-135791795D01*
X195381158Y-135790289D01*
X195438098Y-135821141D01*
X195472192Y-135876201D01*
X195473905Y-135881847D01*
X195485768Y-135920954D01*
X195540839Y-136023984D01*
X195583314Y-136103449D01*
X195714589Y-136263410D01*
X195864877Y-136386747D01*
X195874550Y-136394685D01*
X196057046Y-136492232D01*
X196255066Y-136552300D01*
X196461000Y-136572583D01*
X196666934Y-136552300D01*
X196864954Y-136492232D01*
X197047450Y-136394685D01*
X197207410Y-136263410D01*
X197338685Y-136103450D01*
X197436232Y-135920954D01*
X197496300Y-135722934D01*
X197516583Y-135517000D01*
X197496300Y-135311066D01*
X197436232Y-135113046D01*
X197338685Y-134930550D01*
X197287722Y-134868451D01*
X197207410Y-134770589D01*
X197047449Y-134639314D01*
X196864956Y-134541769D01*
X196864955Y-134541768D01*
X196864954Y-134541768D01*
X196666934Y-134481700D01*
X196666931Y-134481699D01*
X196666929Y-134481699D01*
X196461000Y-134461416D01*
X196255070Y-134481699D01*
X196255067Y-134481699D01*
X196255066Y-134481700D01*
X196076259Y-134535940D01*
X196057043Y-134541769D01*
X195874550Y-134639314D01*
X195714589Y-134770589D01*
X195583314Y-134930550D01*
X195485767Y-135113047D01*
X195472192Y-135157799D01*
X195438098Y-135212858D01*
X195381158Y-135243710D01*
X195316414Y-135242204D01*
X195260971Y-135208738D01*
X195229473Y-135152153D01*
X195209819Y-135074542D01*
X195119419Y-134868451D01*
X194996321Y-134680037D01*
X194843903Y-134514466D01*
X194666302Y-134376233D01*
X194468368Y-134269116D01*
X194255514Y-134196044D01*
X194175000Y-134182609D01*
X193667000Y-134182609D01*
X193586485Y-134196044D01*
X193373631Y-134269116D01*
X193175697Y-134376233D01*
X192998096Y-134514466D01*
X192845678Y-134680037D01*
X192722580Y-134868451D01*
X192632178Y-135074547D01*
X192612525Y-135152154D01*
X192581027Y-135208739D01*
X192525583Y-135242205D01*
X192460839Y-135243710D01*
X192403900Y-135212857D01*
X192369807Y-135157799D01*
X192356232Y-135113046D01*
X192258685Y-134930550D01*
X192207722Y-134868451D01*
X192127410Y-134770589D01*
X191967449Y-134639314D01*
X191784956Y-134541769D01*
X191784955Y-134541768D01*
X191784954Y-134541768D01*
X191586934Y-134481700D01*
X191586931Y-134481699D01*
X191586929Y-134481699D01*
X191381000Y-134461416D01*
X191175070Y-134481699D01*
X191175067Y-134481699D01*
X191175066Y-134481700D01*
X190996259Y-134535940D01*
X190977043Y-134541769D01*
X190794550Y-134639314D01*
X190634589Y-134770589D01*
X190503314Y-134930550D01*
X190405769Y-135113043D01*
X190405769Y-135113044D01*
X190405768Y-135113046D01*
X190367210Y-135240158D01*
X190345699Y-135311070D01*
X190325416Y-135516999D01*
X189896583Y-135516999D01*
X189876300Y-135311066D01*
X189816232Y-135113046D01*
X189718685Y-134930550D01*
X189667722Y-134868451D01*
X189587410Y-134770589D01*
X189427449Y-134639314D01*
X189244956Y-134541769D01*
X189244955Y-134541768D01*
X189244954Y-134541768D01*
X189046934Y-134481700D01*
X189046931Y-134481699D01*
X189046929Y-134481699D01*
X188841000Y-134461416D01*
X188635070Y-134481699D01*
X188635067Y-134481699D01*
X188635066Y-134481700D01*
X188456259Y-134535940D01*
X188437043Y-134541769D01*
X188254550Y-134639314D01*
X188094589Y-134770589D01*
X187963314Y-134930550D01*
X187865769Y-135113043D01*
X187865769Y-135113044D01*
X187865768Y-135113046D01*
X187827210Y-135240158D01*
X187805699Y-135311070D01*
X187785416Y-135516999D01*
X187356583Y-135516999D01*
X187336300Y-135311066D01*
X187276232Y-135113046D01*
X187178685Y-134930550D01*
X187127722Y-134868451D01*
X187047410Y-134770589D01*
X186887449Y-134639314D01*
X186704956Y-134541769D01*
X186704955Y-134541768D01*
X186704954Y-134541768D01*
X186506934Y-134481700D01*
X186506931Y-134481699D01*
X186506929Y-134481699D01*
X186301000Y-134461416D01*
X186095068Y-134481699D01*
X186024159Y-134503209D01*
X185956968Y-134504858D01*
X185898489Y-134471729D01*
X179787434Y-128360673D01*
X179778018Y-128350137D01*
X179755631Y-128322064D01*
X179735179Y-128308120D01*
X179707983Y-128289577D01*
X179704143Y-128286852D01*
X179652812Y-128248969D01*
X179648317Y-128246700D01*
X179587341Y-128227892D01*
X179582863Y-128226419D01*
X179522639Y-128205345D01*
X179517663Y-128204500D01*
X179511505Y-128204500D01*
X179453868Y-128204500D01*
X179449157Y-128204412D01*
X179385371Y-128202025D01*
X179366574Y-128204500D01*
X177905450Y-128204500D01*
X177857232Y-128194909D01*
X177816355Y-128167595D01*
X172066181Y-122417421D01*
X172033052Y-122358940D01*
X172034701Y-122291751D01*
X172047024Y-122251132D01*
X172066341Y-122055000D01*
X172595658Y-122055000D01*
X172614975Y-122251132D01*
X172672185Y-122439725D01*
X172765089Y-122613537D01*
X172890116Y-122765883D01*
X173007434Y-122862163D01*
X173042462Y-122890910D01*
X173216273Y-122983814D01*
X173268154Y-122999552D01*
X173404867Y-123041024D01*
X173601000Y-123060341D01*
X173797132Y-123041024D01*
X173985727Y-122983814D01*
X174159538Y-122890910D01*
X174311883Y-122765883D01*
X174436910Y-122613538D01*
X174529814Y-122439727D01*
X174587024Y-122251132D01*
X174606341Y-122055000D01*
X175135658Y-122055000D01*
X175154975Y-122251132D01*
X175212185Y-122439725D01*
X175305089Y-122613537D01*
X175430116Y-122765883D01*
X175547434Y-122862163D01*
X175582462Y-122890910D01*
X175756273Y-122983814D01*
X175808154Y-122999552D01*
X175944867Y-123041024D01*
X176141000Y-123060341D01*
X176337132Y-123041024D01*
X176525727Y-122983814D01*
X176699538Y-122890910D01*
X176851883Y-122765883D01*
X176976910Y-122613538D01*
X177069814Y-122439727D01*
X177127024Y-122251132D01*
X177130914Y-122211639D01*
X177151669Y-122153797D01*
X177197315Y-122112652D01*
X177256994Y-122097991D01*
X177316510Y-122113302D01*
X177361704Y-122154943D01*
X177381828Y-122213008D01*
X177387951Y-122282999D01*
X177447186Y-122504070D01*
X177543912Y-122711498D01*
X177675189Y-122898981D01*
X177837018Y-123060810D01*
X178024501Y-123192087D01*
X178231929Y-123288813D01*
X178427000Y-123341082D01*
X178427000Y-122309000D01*
X178935000Y-122309000D01*
X178935000Y-123341082D01*
X179130070Y-123288813D01*
X179337498Y-123192087D01*
X179524981Y-123060810D01*
X179686810Y-122898981D01*
X179818087Y-122711498D01*
X179914813Y-122504070D01*
X179967082Y-122309000D01*
X178935000Y-122309000D01*
X178427000Y-122309000D01*
X178427000Y-120768917D01*
X178934999Y-120768917D01*
X178935000Y-120768918D01*
X178935000Y-121801000D01*
X179967082Y-121801000D01*
X179914813Y-121605929D01*
X179818087Y-121398501D01*
X179686810Y-121211018D01*
X179524981Y-121049189D01*
X179337498Y-120917912D01*
X179130070Y-120821186D01*
X178934999Y-120768917D01*
X178427000Y-120768917D01*
X178231929Y-120821186D01*
X178024501Y-120917912D01*
X177837018Y-121049189D01*
X177675189Y-121211018D01*
X177543912Y-121398501D01*
X177447186Y-121605929D01*
X177387951Y-121827000D01*
X177381828Y-121896991D01*
X177361704Y-121955056D01*
X177316510Y-121996697D01*
X177256994Y-122012008D01*
X177197316Y-121997347D01*
X177151669Y-121956202D01*
X177130914Y-121898360D01*
X177127024Y-121858867D01*
X177069814Y-121670274D01*
X177069814Y-121670273D01*
X176976910Y-121496462D01*
X176956500Y-121471592D01*
X176851883Y-121344116D01*
X176699537Y-121219089D01*
X176525725Y-121126185D01*
X176337132Y-121068975D01*
X176141000Y-121049658D01*
X175944867Y-121068975D01*
X175756274Y-121126185D01*
X175582462Y-121219089D01*
X175430116Y-121344116D01*
X175305089Y-121496462D01*
X175212185Y-121670274D01*
X175154975Y-121858867D01*
X175135658Y-122055000D01*
X174606341Y-122055000D01*
X174587024Y-121858868D01*
X174529814Y-121670273D01*
X174436910Y-121496462D01*
X174416500Y-121471592D01*
X174311883Y-121344116D01*
X174159537Y-121219089D01*
X173985725Y-121126185D01*
X173797132Y-121068975D01*
X173601000Y-121049658D01*
X173404867Y-121068975D01*
X173216274Y-121126185D01*
X173042462Y-121219089D01*
X172890116Y-121344116D01*
X172765089Y-121496462D01*
X172672185Y-121670274D01*
X172614975Y-121858867D01*
X172595658Y-122055000D01*
X172066341Y-122055000D01*
X172047024Y-121858868D01*
X171989814Y-121670273D01*
X171896910Y-121496462D01*
X171876500Y-121471592D01*
X171771883Y-121344116D01*
X171619537Y-121219089D01*
X171445725Y-121126185D01*
X171257132Y-121068975D01*
X171061000Y-121049658D01*
X170864867Y-121068975D01*
X170676274Y-121126185D01*
X170502462Y-121219089D01*
X170435434Y-121274099D01*
X170370924Y-121301752D01*
X170301628Y-121290603D01*
X170249049Y-121244110D01*
X170229500Y-121176700D01*
X170229500Y-115849354D01*
X170236571Y-115807739D01*
X170242620Y-115790451D01*
X170244177Y-115748838D01*
X170247743Y-115653538D01*
X170233793Y-115601474D01*
X170229500Y-115568864D01*
X170229500Y-111643450D01*
X170239091Y-111595232D01*
X170266405Y-111554355D01*
X170428355Y-111392405D01*
X170469232Y-111365091D01*
X170517450Y-111355500D01*
X174562392Y-111355500D01*
X174576497Y-111356291D01*
X174612186Y-111360313D01*
X174668871Y-111349586D01*
X174673451Y-111348808D01*
X174730479Y-111340214D01*
X174730480Y-111340213D01*
X174736594Y-111339292D01*
X174741336Y-111337732D01*
X174746805Y-111334841D01*
X174746807Y-111334841D01*
X174797791Y-111307893D01*
X174801955Y-111305791D01*
X174853921Y-111280767D01*
X174853924Y-111280763D01*
X174859497Y-111278080D01*
X174863564Y-111275195D01*
X174867937Y-111270821D01*
X174867940Y-111270820D01*
X174908720Y-111230038D01*
X174912058Y-111226822D01*
X174954356Y-111187577D01*
X174954357Y-111187573D01*
X174958883Y-111183375D01*
X174970421Y-111168337D01*
X178318579Y-107820179D01*
X178377057Y-107787052D01*
X178444248Y-107788701D01*
X178484868Y-107801024D01*
X178615622Y-107813902D01*
X178680999Y-107820341D01*
X178680999Y-107820340D01*
X178681000Y-107820341D01*
X178877132Y-107801024D01*
X179065727Y-107743814D01*
X179239538Y-107650910D01*
X179391883Y-107525883D01*
X179516910Y-107373538D01*
X179609814Y-107199727D01*
X179667024Y-107011132D01*
X179686341Y-106815000D01*
X179667024Y-106618868D01*
X179667023Y-106618866D01*
X179609814Y-106430274D01*
X179609814Y-106430273D01*
X179516910Y-106256462D01*
X179391883Y-106104116D01*
X179239538Y-105979089D01*
X179202104Y-105959081D01*
X179153426Y-105912736D01*
X179135500Y-105847959D01*
X179135500Y-105219886D01*
X179142187Y-105179385D01*
X179161537Y-105143182D01*
X179168669Y-105133886D01*
X179205536Y-105085841D01*
X179266044Y-104939762D01*
X179286682Y-104783000D01*
X179266044Y-104626238D01*
X179205536Y-104480159D01*
X179205535Y-104480158D01*
X179205535Y-104480157D01*
X179109282Y-104354717D01*
X178983842Y-104258464D01*
X178837761Y-104197955D01*
X178681000Y-104177318D01*
X178524238Y-104197955D01*
X178378157Y-104258464D01*
X178252717Y-104354717D01*
X178156464Y-104480157D01*
X178095955Y-104626238D01*
X178075318Y-104783000D01*
X178095955Y-104939761D01*
X178156463Y-105085840D01*
X178200463Y-105143182D01*
X178219813Y-105179385D01*
X178226500Y-105219886D01*
X178226500Y-105847959D01*
X178208574Y-105912736D01*
X178159896Y-105959081D01*
X178122461Y-105979089D01*
X177970116Y-106104116D01*
X177845089Y-106256462D01*
X177752185Y-106430274D01*
X177694975Y-106618867D01*
X177675658Y-106814999D01*
X177694975Y-107011130D01*
X177707297Y-107051748D01*
X177708947Y-107118940D01*
X177675818Y-107177420D01*
X174443644Y-110409595D01*
X174402767Y-110436909D01*
X174354549Y-110446500D01*
X173456450Y-110446500D01*
X173399247Y-110432767D01*
X173354514Y-110394561D01*
X173332001Y-110340211D01*
X173336617Y-110281564D01*
X173367355Y-110231405D01*
X173966549Y-109632211D01*
X175778579Y-107820179D01*
X175837057Y-107787052D01*
X175904248Y-107788701D01*
X175944868Y-107801024D01*
X176075622Y-107813902D01*
X176140999Y-107820341D01*
X176140999Y-107820340D01*
X176141000Y-107820341D01*
X176337132Y-107801024D01*
X176525727Y-107743814D01*
X176699538Y-107650910D01*
X176851883Y-107525883D01*
X176976910Y-107373538D01*
X177069814Y-107199727D01*
X177127024Y-107011132D01*
X177146341Y-106815000D01*
X177127024Y-106618868D01*
X177127023Y-106618866D01*
X177069814Y-106430274D01*
X177069814Y-106430273D01*
X176976910Y-106256462D01*
X176851883Y-106104116D01*
X176699538Y-105979089D01*
X176662104Y-105959081D01*
X176613426Y-105912736D01*
X176595500Y-105847959D01*
X176595500Y-104203886D01*
X176602187Y-104163385D01*
X176621537Y-104127182D01*
X176628669Y-104117886D01*
X176665536Y-104069841D01*
X176726044Y-103923762D01*
X176746682Y-103767000D01*
X176726044Y-103610238D01*
X176665536Y-103464159D01*
X176665535Y-103464158D01*
X176665535Y-103464157D01*
X176569282Y-103338717D01*
X176443842Y-103242464D01*
X176297761Y-103181955D01*
X176141000Y-103161318D01*
X175984238Y-103181955D01*
X175838157Y-103242464D01*
X175712717Y-103338717D01*
X175616464Y-103464157D01*
X175555955Y-103610238D01*
X175535318Y-103767000D01*
X175555955Y-103923761D01*
X175616463Y-104069840D01*
X175660463Y-104127182D01*
X175679813Y-104163385D01*
X175686500Y-104203886D01*
X175686500Y-105847959D01*
X175668574Y-105912736D01*
X175619896Y-105959081D01*
X175582461Y-105979089D01*
X175430116Y-106104116D01*
X175305089Y-106256462D01*
X175212185Y-106430274D01*
X175154975Y-106618867D01*
X175135658Y-106814999D01*
X175154975Y-107011130D01*
X175167297Y-107051748D01*
X175168947Y-107118940D01*
X175135818Y-107177420D01*
X172611644Y-109701595D01*
X172570767Y-109728909D01*
X172522549Y-109738500D01*
X171624450Y-109738500D01*
X171567247Y-109724767D01*
X171522514Y-109686561D01*
X171500001Y-109632211D01*
X171504617Y-109573564D01*
X171535352Y-109523407D01*
X173238580Y-107820178D01*
X173297057Y-107787052D01*
X173364248Y-107788701D01*
X173404868Y-107801024D01*
X173535622Y-107813902D01*
X173600999Y-107820341D01*
X173600999Y-107820340D01*
X173601000Y-107820341D01*
X173797132Y-107801024D01*
X173985727Y-107743814D01*
X174159538Y-107650910D01*
X174311883Y-107525883D01*
X174436910Y-107373538D01*
X174529814Y-107199727D01*
X174587024Y-107011132D01*
X174606341Y-106815000D01*
X174587024Y-106618868D01*
X174587023Y-106618866D01*
X174529814Y-106430274D01*
X174529814Y-106430273D01*
X174436910Y-106256462D01*
X174311883Y-106104116D01*
X174159538Y-105979089D01*
X174122104Y-105959081D01*
X174073426Y-105912736D01*
X174055500Y-105847959D01*
X174055500Y-103187886D01*
X174062187Y-103147385D01*
X174081537Y-103111182D01*
X174088669Y-103101886D01*
X174125536Y-103053841D01*
X174186044Y-102907762D01*
X174206682Y-102751000D01*
X174186044Y-102594238D01*
X174125536Y-102448159D01*
X174125535Y-102448158D01*
X174125535Y-102448157D01*
X174029282Y-102322717D01*
X173903842Y-102226464D01*
X173757761Y-102165955D01*
X173601000Y-102145318D01*
X173444238Y-102165955D01*
X173298157Y-102226464D01*
X173172717Y-102322717D01*
X173076464Y-102448157D01*
X173015955Y-102594238D01*
X172995318Y-102750999D01*
X173015955Y-102907761D01*
X173076463Y-103053840D01*
X173120463Y-103111182D01*
X173139813Y-103147385D01*
X173146500Y-103187886D01*
X173146500Y-105847959D01*
X173128574Y-105912736D01*
X173079896Y-105959081D01*
X173042461Y-105979089D01*
X172890116Y-106104116D01*
X172765089Y-106256462D01*
X172672185Y-106430274D01*
X172614975Y-106618867D01*
X172595658Y-106814999D01*
X172614975Y-107011130D01*
X172627297Y-107051748D01*
X172628947Y-107118940D01*
X172595818Y-107177420D01*
X170779644Y-108993595D01*
X170738767Y-109020909D01*
X170690549Y-109030500D01*
X169792450Y-109030500D01*
X169735247Y-109016767D01*
X169690514Y-108978561D01*
X169668001Y-108924211D01*
X169672617Y-108865564D01*
X169703352Y-108815407D01*
X170698580Y-107820178D01*
X170757057Y-107787052D01*
X170824248Y-107788701D01*
X170864868Y-107801024D01*
X170995622Y-107813902D01*
X171060999Y-107820341D01*
X171060999Y-107820340D01*
X171061000Y-107820341D01*
X171257132Y-107801024D01*
X171445727Y-107743814D01*
X171619538Y-107650910D01*
X171771883Y-107525883D01*
X171896910Y-107373538D01*
X171989814Y-107199727D01*
X172047024Y-107011132D01*
X172066341Y-106815000D01*
X172047024Y-106618868D01*
X172047023Y-106618866D01*
X171989814Y-106430274D01*
X171989814Y-106430273D01*
X171896910Y-106256462D01*
X171771883Y-106104116D01*
X171619538Y-105979089D01*
X171582104Y-105959081D01*
X171533426Y-105912736D01*
X171515500Y-105847959D01*
X171515500Y-102171886D01*
X171522187Y-102131385D01*
X171541537Y-102095182D01*
X171548669Y-102085886D01*
X171585536Y-102037841D01*
X171646044Y-101891762D01*
X171666682Y-101735000D01*
X171646044Y-101578238D01*
X171585536Y-101432159D01*
X171585535Y-101432158D01*
X171585535Y-101432157D01*
X171489282Y-101306717D01*
X171363842Y-101210464D01*
X171217761Y-101149955D01*
X171061000Y-101129318D01*
X170904238Y-101149955D01*
X170758157Y-101210464D01*
X170632717Y-101306717D01*
X170536464Y-101432157D01*
X170475955Y-101578238D01*
X170455318Y-101735000D01*
X170475955Y-101891761D01*
X170536463Y-102037840D01*
X170580463Y-102095182D01*
X170599813Y-102131385D01*
X170606500Y-102171886D01*
X170606500Y-105847959D01*
X170588574Y-105912736D01*
X170539896Y-105959081D01*
X170502461Y-105979089D01*
X170350116Y-106104116D01*
X170225089Y-106256462D01*
X170132185Y-106430274D01*
X170074975Y-106618867D01*
X170055658Y-106814999D01*
X170074975Y-107011130D01*
X170087297Y-107051748D01*
X170088947Y-107118940D01*
X170055818Y-107177420D01*
X168947644Y-108285595D01*
X168906767Y-108312909D01*
X168858549Y-108322500D01*
X167960451Y-108322500D01*
X167903248Y-108308767D01*
X167858515Y-108270561D01*
X167836002Y-108216211D01*
X167840618Y-108157564D01*
X167871355Y-108107405D01*
X168038092Y-107940667D01*
X168158579Y-107820179D01*
X168217058Y-107787052D01*
X168284248Y-107788701D01*
X168324868Y-107801024D01*
X168455622Y-107813902D01*
X168520999Y-107820341D01*
X168520999Y-107820340D01*
X168521000Y-107820341D01*
X168717132Y-107801024D01*
X168905727Y-107743814D01*
X169079538Y-107650910D01*
X169231883Y-107525883D01*
X169356910Y-107373538D01*
X169449814Y-107199727D01*
X169507024Y-107011132D01*
X169526341Y-106815000D01*
X169507024Y-106618868D01*
X169507023Y-106618866D01*
X169449814Y-106430274D01*
X169449814Y-106430273D01*
X169356910Y-106256462D01*
X169231883Y-106104116D01*
X169079538Y-105979089D01*
X169042104Y-105959081D01*
X168993426Y-105912736D01*
X168975500Y-105847959D01*
X168975500Y-101155886D01*
X168982187Y-101115385D01*
X169001537Y-101079182D01*
X169008669Y-101069886D01*
X169045536Y-101021841D01*
X169106044Y-100875762D01*
X169126682Y-100719000D01*
X169106044Y-100562238D01*
X169045536Y-100416159D01*
X169045535Y-100416158D01*
X169045535Y-100416157D01*
X168949282Y-100290717D01*
X168823842Y-100194464D01*
X168677761Y-100133955D01*
X168521000Y-100113318D01*
X168364238Y-100133955D01*
X168218157Y-100194464D01*
X168092717Y-100290717D01*
X167996464Y-100416157D01*
X167935955Y-100562238D01*
X167915318Y-100718999D01*
X167935955Y-100875761D01*
X167996463Y-101021840D01*
X168040463Y-101079182D01*
X168059813Y-101115385D01*
X168066500Y-101155886D01*
X168066500Y-105847959D01*
X168048574Y-105912736D01*
X167999896Y-105959081D01*
X167962461Y-105979089D01*
X167810116Y-106104116D01*
X167685089Y-106256462D01*
X167592185Y-106430274D01*
X167534975Y-106618867D01*
X167515658Y-106814999D01*
X167534975Y-107011129D01*
X167547297Y-107051749D01*
X167548946Y-107118940D01*
X167515818Y-107177419D01*
X167115644Y-107577595D01*
X167074766Y-107604909D01*
X167026548Y-107614500D01*
X166885562Y-107614500D01*
X166818152Y-107594951D01*
X166771659Y-107542372D01*
X166760510Y-107473076D01*
X166788163Y-107408566D01*
X166816910Y-107373538D01*
X166909814Y-107199727D01*
X166967024Y-107011132D01*
X166986341Y-106815000D01*
X166967024Y-106618868D01*
X166967023Y-106618866D01*
X166909814Y-106430274D01*
X166909814Y-106430273D01*
X166816910Y-106256462D01*
X166691883Y-106104116D01*
X166539538Y-105979089D01*
X166502104Y-105959081D01*
X166453426Y-105912736D01*
X166435500Y-105847959D01*
X166435500Y-101005607D01*
X166436292Y-100991500D01*
X166436640Y-100988403D01*
X166440313Y-100955813D01*
X166429594Y-100899165D01*
X166428804Y-100894516D01*
X166419292Y-100831405D01*
X166417730Y-100826657D01*
X166387897Y-100770213D01*
X166385798Y-100766057D01*
X166360767Y-100714079D01*
X166360765Y-100714077D01*
X166358085Y-100708511D01*
X166355188Y-100704428D01*
X166350820Y-100700060D01*
X166310050Y-100659290D01*
X166306808Y-100655925D01*
X166306566Y-100655664D01*
X166267577Y-100613644D01*
X166267574Y-100613642D01*
X166263379Y-100609121D01*
X166248338Y-100597578D01*
X158105434Y-92454673D01*
X158096018Y-92444137D01*
X158073631Y-92416064D01*
X158053179Y-92402120D01*
X158025983Y-92383577D01*
X158022143Y-92380852D01*
X157970812Y-92342969D01*
X157966317Y-92340700D01*
X157905341Y-92321892D01*
X157900863Y-92320419D01*
X157897262Y-92319159D01*
X157877301Y-92312174D01*
X157840639Y-92299345D01*
X157835663Y-92298500D01*
X157829505Y-92298500D01*
X157771868Y-92298500D01*
X157767157Y-92298412D01*
X157703371Y-92296025D01*
X157684574Y-92298500D01*
X101335617Y-92298500D01*
X101321510Y-92297708D01*
X101285815Y-92293686D01*
X101285814Y-92293686D01*
X101229141Y-92304408D01*
X101224510Y-92305195D01*
X101161430Y-92314704D01*
X101156636Y-92316281D01*
X101100223Y-92346096D01*
X101096020Y-92348218D01*
X101038525Y-92375906D01*
X101034419Y-92378820D01*
X100989301Y-92423937D01*
X100985911Y-92427202D01*
X100939123Y-92470616D01*
X100927581Y-92485657D01*
X95973095Y-97440143D01*
X95922936Y-97470881D01*
X95864289Y-97475497D01*
X95809939Y-97452984D01*
X95771733Y-97408251D01*
X95758000Y-97351048D01*
X95758000Y-92074000D01*
X95774881Y-92011000D01*
X95821000Y-91964881D01*
X95884000Y-91948000D01*
X197994000Y-91948000D01*
X198057000Y-91964881D01*
G37*
%TD.AperFunction*%
%TD*%
M02*
